<svg width="82" height="83" viewBox="0 0 82 83" fill="none" xmlns="http://www.w3.org/2000/svg">
<path d="M28.5249 26.9857H55.7435C56.0443 26.9857 56.3328 27.1052 56.5455 27.3179C56.7582 27.5306 56.8776 27.819 56.8776 28.1198C56.8776 28.4206 56.7582 28.7091 56.5455 28.9218C56.3328 29.1344 56.0443 29.2539 55.7435 29.2539H28.5249C28.2242 29.2539 27.9357 29.1344 27.723 28.9218C27.5103 28.7091 27.3908 28.4206 27.3908 28.1198C27.3908 27.819 27.5103 27.5306 27.723 27.3179C27.9357 27.1052 28.2242 26.9857 28.5249 26.9857ZM17.1839 36.0586H39.866C40.1668 36.0586 40.4553 35.9391 40.668 35.7264C40.8806 35.5137 41.0001 35.2253 41.0001 34.9245C41.0001 34.6237 40.8806 34.3352 40.668 34.1225C40.4553 33.9098 40.1668 33.7904 39.866 33.7904H17.1839C16.8831 33.7904 16.5946 33.9098 16.3819 34.1225C16.1692 34.3352 16.0498 34.6237 16.0498 34.9245C16.0498 35.2253 16.1692 35.5137 16.3819 35.7264C16.5946 35.9391 16.8831 36.0586 17.1839 36.0586ZM44.4025 40.595H35.3296C35.0288 40.595 34.7403 40.7145 34.5277 40.9272C34.315 41.1399 34.1955 41.4283 34.1955 41.7291C34.1955 42.0299 34.315 42.3184 34.5277 42.531C34.7403 42.7437 35.0288 42.8632 35.3296 42.8632H44.4025C44.7032 42.8632 44.9917 42.7437 45.2044 42.531C45.4171 42.3184 45.5366 42.0299 45.5366 41.7291C45.5366 41.4283 45.4171 41.1399 45.2044 40.9272C44.9917 40.7145 44.7032 40.595 44.4025 40.595ZM37.5978 47.3997H17.1839C16.8831 47.3997 16.5946 47.5191 16.3819 47.7318C16.1692 47.9445 16.0498 48.233 16.0498 48.5338C16.0498 48.8345 16.1692 49.123 16.3819 49.3357C16.5946 49.5484 16.8831 49.6679 17.1839 49.6679H37.5978C37.8986 49.6679 38.1871 49.5484 38.3997 49.3357C38.6124 49.123 38.7319 48.8345 38.7319 48.5338C38.7319 48.233 38.6124 47.9445 38.3997 47.7318C38.1871 47.5191 37.8986 47.3997 37.5978 47.3997ZM17.1839 29.2539H23.9885C24.2893 29.2539 24.5778 29.1344 24.7905 28.9218C25.0031 28.7091 25.1226 28.4206 25.1226 28.1198C25.1226 27.819 25.0031 27.5306 24.7905 27.3179C24.5778 27.1052 24.2893 26.9857 23.9885 26.9857H17.1839C16.8831 26.9857 16.5946 27.1052 16.3819 27.3179C16.1692 27.5306 16.0498 27.819 16.0498 28.1198C16.0498 28.4206 16.1692 28.7091 16.3819 28.9218C16.5946 29.1344 16.8831 29.2539 17.1839 29.2539ZM55.7435 33.7904H44.4025C44.1017 33.7904 43.8132 33.9098 43.6005 34.1225C43.3878 34.3352 43.2683 34.6237 43.2683 34.9245C43.2683 35.2253 43.3878 35.5137 43.6005 35.7264C43.8132 35.9391 44.1017 36.0586 44.4025 36.0586H55.7435C56.0443 36.0586 56.3328 35.9391 56.5455 35.7264C56.7582 35.5137 56.8776 35.2253 56.8776 34.9245C56.8776 34.6237 56.7582 34.3352 56.5455 34.1225C56.3328 33.9098 56.0443 33.7904 55.7435 33.7904ZM17.1839 42.8632H30.7932C31.0939 42.8632 31.3824 42.7437 31.5951 42.531C31.8078 42.3184 31.9273 42.0299 31.9273 41.7291C31.9273 41.4283 31.8078 41.1399 31.5951 40.9272C31.3824 40.7145 31.0939 40.595 30.7932 40.595H17.1839C16.8831 40.595 16.5946 40.7145 16.3819 40.9272C16.1692 41.1399 16.0498 41.4283 16.0498 41.7291C16.0498 42.0299 16.1692 42.3184 16.3819 42.531C16.5946 42.7437 16.8831 42.8632 17.1839 42.8632ZM35.3296 61.0089H30.7932C30.4924 61.0089 30.2039 61.1284 29.9912 61.3411C29.7785 61.5538 29.6591 61.8423 29.6591 62.1431C29.6591 62.4438 29.7785 62.7323 29.9912 62.945C30.2039 63.1577 30.4924 63.2772 30.7932 63.2772H35.3296C35.6304 63.2772 35.9188 63.1577 36.1315 62.945C36.3442 62.7323 36.4637 62.4438 36.4637 62.1431C36.4637 61.8423 36.3442 61.5538 36.1315 61.3411C35.9188 61.1284 35.6304 61.0089 35.3296 61.0089ZM26.2567 61.0089H17.1839C16.8831 61.0089 16.5946 61.1284 16.3819 61.3411C16.1692 61.5538 16.0498 61.8423 16.0498 62.1431C16.0498 62.4438 16.1692 62.7323 16.3819 62.945C16.5946 63.1577 16.8831 63.2772 17.1839 63.2772H26.2567C26.5575 63.2772 26.846 63.1577 27.0587 62.945C27.2714 62.7323 27.3908 62.4438 27.3908 62.1431C27.3908 61.8423 27.2714 61.5538 27.0587 61.3411C26.846 61.1284 26.5575 61.0089 26.2567 61.0089ZM17.1839 56.4725H23.9885C24.2893 56.4725 24.5778 56.353 24.7905 56.1403C25.0031 55.9277 25.1226 55.6392 25.1226 55.3384C25.1226 55.0376 25.0031 54.7492 24.7905 54.5365C24.5778 54.3238 24.2893 54.2043 23.9885 54.2043H17.1839C16.8831 54.2043 16.5946 54.3238 16.3819 54.5365C16.1692 54.7492 16.0498 55.0376 16.0498 55.3384C16.0498 55.6392 16.1692 55.9277 16.3819 56.1403C16.5946 56.353 16.8831 56.4725 17.1839 56.4725ZM17.1839 22.4493H30.7932C31.0939 22.4493 31.3824 22.3298 31.5951 22.1171C31.8078 21.9044 31.9273 21.616 31.9273 21.3152C31.9273 21.0144 31.8078 20.7259 31.5951 20.5132C31.3824 20.3006 31.0939 20.1811 30.7932 20.1811H17.1839C16.8831 20.1811 16.5946 20.3006 16.3819 20.5132C16.1692 20.7259 16.0498 21.0144 16.0498 21.3152C16.0498 21.616 16.1692 21.9044 16.3819 22.1171C16.5946 22.3298 16.8831 22.4493 17.1839 22.4493ZM35.3296 54.2043H28.5249C28.2242 54.2043 27.9357 54.3238 27.723 54.5365C27.5103 54.7492 27.3908 55.0376 27.3908 55.3384C27.3908 55.6392 27.5103 55.9277 27.723 56.1403C27.9357 56.353 28.2242 56.4725 28.5249 56.4725H35.3296C35.6304 56.4725 35.9188 56.353 36.1315 56.1403C36.3442 55.9277 36.4637 55.6392 36.4637 55.3384C36.4637 55.0376 36.3442 54.7492 36.1315 54.5365C35.9188 54.3238 35.6304 54.2043 35.3296 54.2043ZM55.7435 50.802V62.1431C55.7435 62.4438 55.863 62.7323 56.0757 62.945C56.2884 63.1577 56.5769 63.2772 56.8776 63.2772C57.1784 63.2772 57.4669 63.1577 57.6796 62.945C57.8923 62.7323 58.0117 62.4438 58.0117 62.1431V50.802C58.0117 50.5012 57.8923 50.2127 57.6796 50C57.4669 49.7873 57.1784 49.6679 56.8776 49.6679C56.5769 49.6679 56.2884 49.7873 56.0757 50C55.863 50.2127 55.7435 50.5012 55.7435 50.802ZM56.8776 65.5454C56.6533 65.5454 56.4341 65.6119 56.2476 65.7365C56.0611 65.8611 55.9157 66.0382 55.8299 66.2455C55.744 66.4527 55.7216 66.6807 55.7653 66.9007C55.8091 67.1207 55.9171 67.3228 56.0757 67.4814C56.2343 67.64 56.4364 67.748 56.6564 67.7918C56.8764 67.8356 57.1044 67.8131 57.3116 67.7273C57.5189 67.6414 57.696 67.4961 57.8206 67.3096C57.9452 67.1231 58.0117 66.9038 58.0117 66.6795C58.0117 66.3787 57.8923 66.0902 57.6796 65.8775C57.4669 65.6649 57.1784 65.5454 56.8776 65.5454ZM63.6823 21.3152V44.3903C66.9394 45.9358 69.5736 48.5436 71.152 51.7849C72.7304 55.0262 73.159 58.7081 72.3672 62.2252C71.5755 65.7424 69.6105 68.8855 66.7955 71.1378C63.9804 73.3901 60.4828 74.6175 56.8776 74.6182H14.9157C13.4123 74.6165 11.9709 74.0186 10.9078 72.9555C9.84478 71.8924 9.24681 70.4511 9.24512 68.9477V12.2423C9.24681 10.7389 9.84478 9.29757 10.9078 8.2345C11.9709 7.17144 13.4123 6.57347 14.9157 6.57178H48.9389C49.0878 6.57177 49.2353 6.6011 49.3729 6.65809C49.5105 6.71508 49.6355 6.79862 49.7408 6.90393L63.3501 20.5132C63.4554 20.6185 63.539 20.7436 63.596 20.8812C63.653 21.0188 63.6823 21.1662 63.6823 21.3152ZM50.073 16.7787C50.074 17.6808 50.4328 18.5456 51.0706 19.1834C51.7085 19.8213 52.5733 20.1801 53.4753 20.1811H59.8103L50.073 10.4438V16.7787ZM48.7077 72.35C45.3963 70.3576 42.9252 67.2261 41.7573 63.5423C40.5894 59.8584 40.805 55.8752 42.3635 52.3389C43.9221 48.8026 46.7167 45.956 50.2237 44.3325C53.7307 42.7091 57.7093 42.4202 61.4141 43.52V22.4493H53.4753C51.9719 22.4476 50.5306 21.8496 49.4675 20.7866C48.4044 19.7235 47.8065 18.2821 47.8048 16.7787V8.83999H14.9157C14.0136 8.84104 13.1488 9.19984 12.511 9.83767C11.8732 10.4755 11.5144 11.3403 11.5133 12.2423V68.9477C11.5144 69.8497 11.8732 70.7145 12.511 71.3523C13.1488 71.9902 14.0136 72.349 14.9157 72.35H48.7077ZM56.8776 45.1314C53.7169 45.1314 50.6548 46.2315 48.2168 48.243C45.7787 50.2544 44.1168 53.0517 43.5162 56.1548C42.9157 59.2579 43.4139 62.4733 44.9255 65.2491C46.437 68.025 48.8676 70.1881 51.8 71.3673C54.7325 72.5466 57.984 72.6684 60.9964 71.7118C64.0089 70.7552 66.5945 68.7799 68.3094 66.1249C70.0243 63.4699 70.7617 60.3008 70.3949 57.1615C70.0282 54.0222 68.5801 51.1084 66.2994 48.9202C63.7644 46.4903 60.3891 45.133 56.8776 45.1314Z" fill="#323232"/>
</svg>
