<svg width="402" height="298" viewBox="0 0 402 298" fill="none" xmlns="http://www.w3.org/2000/svg">
<rect y="64" width="402" height="234" rx="20" fill="#1E1E1E"/>
<rect x="37" width="327" height="110.455" rx="11.4402" fill="#FDFDFD"/>
<path d="M59.1617 27.957V29.2539H54.3977V27.957H59.1617ZM54.8539 19.7651V29.2539H53.2182V19.7651H54.8539ZM59.9698 25.8064V25.6565C59.9698 25.1482 60.0437 24.6768 60.1914 24.2423C60.3391 23.8035 60.552 23.4233 60.8301 23.1018C61.1125 22.7759 61.4557 22.524 61.8598 22.3458C62.2682 22.1633 62.7287 22.0721 63.2414 22.0721C63.7584 22.0721 64.219 22.1633 64.623 22.3458C65.0314 22.524 65.3768 22.7759 65.6592 23.1018C65.9416 23.4233 66.1567 23.8035 66.3044 24.2423C66.4521 24.6768 66.526 25.1482 66.526 25.6565V25.8064C66.526 26.3147 66.4521 26.7861 66.3044 27.2206C66.1567 27.6551 65.9416 28.0352 65.6592 28.3611C65.3768 28.6826 65.0336 28.9346 64.6295 29.117C64.2255 29.2952 63.7671 29.3842 63.2544 29.3842C62.7374 29.3842 62.2747 29.2952 61.8663 29.117C61.4622 28.9346 61.119 28.6826 60.8366 28.3611C60.5542 28.0352 60.3391 27.6551 60.1914 27.2206C60.0437 26.7861 59.9698 26.3147 59.9698 25.8064ZM61.5404 25.6565V25.8064C61.5404 26.1235 61.573 26.4233 61.6382 26.7057C61.7034 26.9881 61.8055 27.2358 61.9445 27.4487C62.0835 27.6616 62.2617 27.8288 62.4789 27.9505C62.6961 28.0721 62.9546 28.133 63.2544 28.133C63.5455 28.133 63.7975 28.0721 64.0104 27.9505C64.2276 27.8288 64.4058 27.6616 64.5448 27.4487C64.6838 27.2358 64.7859 26.9881 64.8511 26.7057C64.9206 26.4233 64.9554 26.1235 64.9554 25.8064V25.6565C64.9554 25.3437 64.9206 25.0482 64.8511 24.7702C64.7859 24.4878 64.6817 24.2379 64.5383 24.0207C64.3993 23.8035 64.2211 23.634 64.0039 23.5124C63.791 23.3864 63.5368 23.3234 63.2414 23.3234C62.946 23.3234 62.6896 23.3864 62.4724 23.5124C62.2595 23.634 62.0835 23.8035 61.9445 24.0207C61.8055 24.2379 61.7034 24.4878 61.6382 24.7702C61.573 25.0482 61.5404 25.3437 61.5404 25.6565ZM71.8178 27.8397V24.4769C71.8178 24.2249 71.7722 24.0077 71.681 23.8252C71.5897 23.6427 71.4507 23.5015 71.2639 23.4016C71.0814 23.3017 70.8511 23.2517 70.5731 23.2517C70.3167 23.2517 70.0952 23.2951 69.9083 23.382C69.7215 23.4689 69.576 23.5862 69.4717 23.734C69.3674 23.8817 69.3153 24.0489 69.3153 24.2358H67.7512C67.7512 23.9577 67.8185 23.6883 67.9532 23.4277C68.0879 23.167 68.2834 22.9345 68.5398 22.7303C68.7961 22.5261 69.1024 22.3654 69.4587 22.2481C69.8149 22.1308 70.2146 22.0721 70.6578 22.0721C71.1879 22.0721 71.6571 22.1612 72.0655 22.3393C72.4782 22.5174 72.8019 22.7868 73.0365 23.1474C73.2755 23.5037 73.395 23.9512 73.395 24.4899V27.6246C73.395 27.9461 73.4167 28.2351 73.4601 28.4914C73.5079 28.7434 73.5753 28.9628 73.6622 29.1496V29.2539H72.0525C71.9786 29.0845 71.9199 28.8694 71.8765 28.6087C71.8374 28.3437 71.8178 28.0874 71.8178 27.8397ZM72.0459 24.9657L72.059 25.9367H70.9315C70.6404 25.9367 70.3841 25.965 70.1625 26.0214C69.9409 26.0736 69.7563 26.1518 69.6086 26.2561C69.4608 26.3603 69.3501 26.4863 69.2762 26.634C69.2023 26.7818 69.1654 26.949 69.1654 27.1359C69.1654 27.3227 69.2088 27.4943 69.2957 27.6507C69.3826 27.8028 69.5086 27.9223 69.6737 28.0091C69.8432 28.096 70.0474 28.1395 70.2863 28.1395C70.6078 28.1395 70.8881 28.0743 71.127 27.944C71.3703 27.8093 71.5615 27.6464 71.7005 27.4552C71.8396 27.2597 71.9134 27.075 71.9221 26.9012L72.4304 27.5986C72.3783 27.7767 72.2892 27.9679 72.1632 28.1721C72.0373 28.3763 71.8722 28.5718 71.668 28.7586C71.4681 28.9411 71.227 29.091 70.9446 29.2083C70.6665 29.3256 70.345 29.3842 69.98 29.3842C69.5195 29.3842 69.1089 29.293 68.7483 29.1105C68.3877 28.9237 68.1053 28.6739 67.9011 28.3611C67.6969 28.0439 67.5948 27.6855 67.5948 27.2858C67.5948 26.9121 67.6643 26.5819 67.8033 26.2952C67.9467 26.0041 68.1553 25.7608 68.429 25.5653C68.707 25.3697 69.0459 25.222 69.4456 25.1221C69.8453 25.0178 70.3015 24.9657 70.8142 24.9657H72.0459ZM76.5948 23.7079V29.2539H75.0242V22.2024H76.5036L76.5948 23.7079ZM76.3146 25.4675L75.8063 25.461C75.8106 24.9613 75.8801 24.503 76.0148 24.0859C76.1539 23.6688 76.345 23.3103 76.5883 23.0106C76.836 22.7108 77.1314 22.4805 77.4747 22.3198C77.8179 22.1547 78.2002 22.0721 78.6217 22.0721C78.9605 22.0721 79.2668 22.1199 79.5406 22.2155C79.8186 22.3067 80.0554 22.4566 80.2509 22.6652C80.4508 22.8737 80.6028 23.1452 80.7071 23.4798C80.8114 23.81 80.8635 24.2162 80.8635 24.6985V29.2539H79.2864V24.692C79.2864 24.3531 79.2364 24.0859 79.1365 23.8904C79.0409 23.6905 78.8997 23.5493 78.7129 23.4668C78.5304 23.3799 78.3023 23.3364 78.0286 23.3364C77.7592 23.3364 77.5181 23.3929 77.3052 23.5059C77.0923 23.6188 76.912 23.7731 76.7643 23.9686C76.6209 24.1641 76.5101 24.39 76.4319 24.6463C76.3537 24.9027 76.3146 25.1764 76.3146 25.4675ZM89.7658 27.8397V24.4769C89.7658 24.2249 89.7202 24.0077 89.629 23.8252C89.5377 23.6427 89.3987 23.5015 89.2119 23.4016C89.0294 23.3017 88.7991 23.2517 88.5211 23.2517C88.2647 23.2517 88.0432 23.2951 87.8563 23.382C87.6695 23.4689 87.524 23.5862 87.4197 23.734C87.3154 23.8817 87.2633 24.0489 87.2633 24.2358H85.6992C85.6992 23.9577 85.7665 23.6883 85.9012 23.4277C86.0359 23.167 86.2314 22.9345 86.4877 22.7303C86.7441 22.5261 87.0504 22.3654 87.4067 22.2481C87.7629 22.1308 88.1626 22.0721 88.6058 22.0721C89.1358 22.0721 89.6051 22.1612 90.0135 22.3393C90.4262 22.5174 90.7499 22.7868 90.9845 23.1474C91.2235 23.5037 91.343 23.9512 91.343 24.4899V27.6246C91.343 27.9461 91.3647 28.2351 91.4081 28.4914C91.4559 28.7434 91.5233 28.9628 91.6102 29.1496V29.2539H90.0004C89.9266 29.0845 89.8679 28.8694 89.8245 28.6087C89.7854 28.3437 89.7658 28.0874 89.7658 27.8397ZM89.9939 24.9657L90.007 25.9367H88.8795C88.5884 25.9367 88.3321 25.965 88.1105 26.0214C87.8889 26.0736 87.7043 26.1518 87.5565 26.2561C87.4088 26.3603 87.298 26.4863 87.2242 26.634C87.1503 26.7818 87.1134 26.949 87.1134 27.1359C87.1134 27.3227 87.1568 27.4943 87.2437 27.6507C87.3306 27.8028 87.4566 27.9223 87.6217 28.0091C87.7912 28.096 87.9954 28.1395 88.2343 28.1395C88.5558 28.1395 88.8361 28.0743 89.075 27.944C89.3183 27.8093 89.5095 27.6464 89.6485 27.4552C89.7876 27.2597 89.8614 27.075 89.8701 26.9012L90.3784 27.5986C90.3263 27.7767 90.2372 27.9679 90.1112 28.1721C89.9852 28.3763 89.8201 28.5718 89.6159 28.7586C89.4161 28.9411 89.1749 29.091 88.8925 29.2083C88.6145 29.3256 88.293 29.3842 87.928 29.3842C87.4675 29.3842 87.0569 29.293 86.6963 29.1105C86.3357 28.9237 86.0533 28.6739 85.8491 28.3611C85.6449 28.0439 85.5428 27.6855 85.5428 27.2858C85.5428 26.9121 85.6123 26.5819 85.7513 26.2952C85.8947 26.0041 86.1032 25.7608 86.377 25.5653C86.655 25.3697 86.9939 25.222 87.3936 25.1221C87.7933 25.0178 88.2495 24.9657 88.7622 24.9657H89.9939ZM97.5016 22.2024H98.9288V29.0584C98.9288 29.6927 98.7941 30.2315 98.5248 30.6746C98.2554 31.1178 97.8796 31.4545 97.3973 31.6848C96.915 31.9194 96.3567 32.0367 95.7224 32.0367C95.453 32.0367 95.1533 31.9976 94.8231 31.9194C94.4972 31.8412 94.18 31.7152 93.8716 31.5414C93.5674 31.372 93.3133 31.1482 93.1091 30.8701L93.8455 29.9447C94.0975 30.2445 94.3756 30.4639 94.6797 30.6029C94.9838 30.742 95.3032 30.8115 95.6377 30.8115C95.9983 30.8115 96.3046 30.7441 96.5566 30.6095C96.8129 30.4791 97.0106 30.2858 97.1497 30.0294C97.2887 29.7731 97.3582 29.4603 97.3582 29.091V23.7991L97.5016 22.2024ZM92.7115 25.8064V25.6695C92.7115 25.1351 92.7767 24.6485 92.907 24.2097C93.0374 23.7665 93.2242 23.3864 93.4675 23.0692C93.7108 22.7477 94.0063 22.5022 94.3538 22.3328C94.7014 22.159 95.0946 22.0721 95.5334 22.0721C95.9896 22.0721 96.3785 22.1547 96.7 22.3198C97.0258 22.4849 97.2974 22.7216 97.5146 23.0301C97.7318 23.3342 97.9013 23.6992 98.0229 24.125C98.1489 24.5464 98.2423 25.0156 98.3032 25.5327V25.9693C98.2467 26.4733 98.1511 26.9338 98.0164 27.3509C97.8817 27.768 97.7036 28.1286 97.482 28.4328C97.2604 28.7369 96.9867 28.9715 96.6609 29.1366C96.3394 29.3017 95.9592 29.3842 95.5204 29.3842C95.0903 29.3842 94.7014 29.2952 94.3538 29.117C94.0106 28.9389 93.7152 28.6891 93.4675 28.3676C93.2242 28.0461 93.0374 27.6681 92.907 27.2336C92.7767 26.7948 92.7115 26.3191 92.7115 25.8064ZM94.2821 25.6695V25.8064C94.2821 26.1279 94.3126 26.4277 94.3734 26.7057C94.4386 26.9838 94.5363 27.2293 94.6667 27.4422C94.8013 27.6507 94.9708 27.8158 95.175 27.9375C95.3835 28.0548 95.629 28.1134 95.9114 28.1134C96.2807 28.1134 96.5827 28.0352 96.8173 27.8788C97.0562 27.7224 97.2387 27.5117 97.3647 27.2467C97.4951 26.9773 97.5863 26.6775 97.6384 26.3473V25.1677C97.6124 24.9114 97.5581 24.6724 97.4755 24.4508C97.3973 24.2293 97.2909 24.0359 97.1562 23.8708C97.0215 23.7014 96.852 23.571 96.6478 23.4798C96.4436 23.3842 96.2025 23.3364 95.9244 23.3364C95.642 23.3364 95.3966 23.3972 95.188 23.5189C94.9795 23.6405 94.8079 23.8078 94.6732 24.0207C94.5428 24.2336 94.4451 24.4812 94.3799 24.7637C94.3147 25.0461 94.2821 25.348 94.2821 25.6695ZM102.135 23.545V29.2539H100.565V22.2024H102.064L102.135 23.545ZM104.292 22.1568L104.279 23.6166C104.184 23.5993 104.079 23.5862 103.966 23.5775C103.858 23.5689 103.749 23.5645 103.641 23.5645C103.371 23.5645 103.134 23.6036 102.93 23.6818C102.726 23.7557 102.554 23.8643 102.415 24.0077C102.281 24.1467 102.176 24.3161 102.103 24.516C102.029 24.7159 101.985 24.9396 101.972 25.1873L101.614 25.2133C101.614 24.7702 101.657 24.3596 101.744 23.9816C101.831 23.6036 101.961 23.2712 102.135 22.9845C102.313 22.6977 102.535 22.474 102.8 22.3132C103.069 22.1525 103.38 22.0721 103.732 22.0721C103.827 22.0721 103.93 22.0808 104.038 22.0982C104.151 22.1156 104.236 22.1351 104.292 22.1568ZM108.255 29.3842C107.733 29.3842 107.262 29.2995 106.841 29.1301C106.423 28.9563 106.067 28.7152 105.772 28.4067C105.481 28.0982 105.257 27.7354 105.1 27.3183C104.944 26.9012 104.866 26.4516 104.866 25.9693V25.7086C104.866 25.1568 104.946 24.6572 105.107 24.2097C105.268 23.7622 105.491 23.3799 105.778 23.0627C106.065 22.7412 106.404 22.4957 106.795 22.3263C107.186 22.1568 107.61 22.0721 108.066 22.0721C108.57 22.0721 109.011 22.1568 109.389 22.3263C109.767 22.4957 110.08 22.7347 110.327 23.0431C110.579 23.3473 110.766 23.7101 110.888 24.1315C111.014 24.5529 111.077 25.0178 111.077 25.5261V26.1974H105.628V25.07H109.526V24.9461C109.517 24.6637 109.46 24.3987 109.356 24.151C109.256 23.9034 109.102 23.7035 108.893 23.5515C108.685 23.3994 108.407 23.3234 108.059 23.3234C107.799 23.3234 107.566 23.3799 107.362 23.4928C107.162 23.6014 106.995 23.76 106.86 23.9686C106.725 24.1771 106.621 24.4291 106.547 24.7245C106.478 25.0156 106.443 25.3437 106.443 25.7086V25.9693C106.443 26.2778 106.484 26.5645 106.567 26.8296C106.654 27.0902 106.78 27.3183 106.945 27.5139C107.11 27.7094 107.31 27.8636 107.544 27.9766C107.779 28.0852 108.046 28.1395 108.346 28.1395C108.724 28.1395 109.061 28.0635 109.356 27.9114C109.652 27.7593 109.908 27.5443 110.125 27.2662L110.953 28.0678C110.801 28.2894 110.603 28.5023 110.36 28.7065C110.116 28.9063 109.819 29.0693 109.467 29.1953C109.119 29.3212 108.715 29.3842 108.255 29.3842ZM115.41 29.3842C114.889 29.3842 114.418 29.2995 113.996 29.1301C113.579 28.9563 113.223 28.7152 112.927 28.4067C112.636 28.0982 112.413 27.7354 112.256 27.3183C112.1 26.9012 112.022 26.4516 112.022 25.9693V25.7086C112.022 25.1568 112.102 24.6572 112.263 24.2097C112.423 23.7622 112.647 23.3799 112.934 23.0627C113.221 22.7412 113.56 22.4957 113.951 22.3263C114.342 22.1568 114.765 22.0721 115.221 22.0721C115.725 22.0721 116.166 22.1568 116.544 22.3263C116.922 22.4957 117.235 22.7347 117.483 23.0431C117.735 23.3473 117.922 23.7101 118.043 24.1315C118.169 24.5529 118.232 25.0178 118.232 25.5261V26.1974H112.784V25.07H116.681V24.9461C116.673 24.6637 116.616 24.3987 116.512 24.151C116.412 23.9034 116.258 23.7035 116.049 23.5515C115.841 23.3994 115.563 23.3234 115.215 23.3234C114.954 23.3234 114.722 23.3799 114.518 23.4928C114.318 23.6014 114.15 23.76 114.016 23.9686C113.881 24.1771 113.777 24.4291 113.703 24.7245C113.633 25.0156 113.599 25.3437 113.599 25.7086V25.9693C113.599 26.2778 113.64 26.5645 113.723 26.8296C113.809 27.0902 113.935 27.3183 114.101 27.5139C114.266 27.7094 114.465 27.8636 114.7 27.9766C114.935 28.0852 115.202 28.1395 115.502 28.1395C115.88 28.1395 116.216 28.0635 116.512 27.9114C116.807 27.7593 117.064 27.5443 117.281 27.2662L118.109 28.0678C117.956 28.2894 117.759 28.5023 117.515 28.7065C117.272 28.9063 116.975 29.0693 116.623 29.1953C116.275 29.3212 115.871 29.3842 115.41 29.3842ZM121.028 23.6362V29.2539H119.458V22.2024H120.937L121.028 23.6362ZM120.774 25.4675L120.24 25.461C120.24 24.9744 120.3 24.5247 120.422 24.1119C120.544 23.6992 120.722 23.3408 120.956 23.0366C121.191 22.7282 121.482 22.4914 121.83 22.3263C122.182 22.1568 122.588 22.0721 123.048 22.0721C123.37 22.0721 123.663 22.1199 123.928 22.2155C124.198 22.3067 124.43 22.4523 124.626 22.6521C124.825 22.852 124.978 23.1083 125.082 23.4211C125.19 23.734 125.245 24.1119 125.245 24.5551V29.2539H123.674V24.692C123.674 24.3487 123.622 24.0794 123.518 23.8838C123.418 23.6883 123.272 23.5493 123.081 23.4668C122.894 23.3799 122.67 23.3364 122.41 23.3364C122.114 23.3364 121.862 23.3929 121.654 23.5059C121.45 23.6188 121.282 23.7731 121.152 23.9686C121.022 24.1641 120.926 24.39 120.865 24.6463C120.804 24.9027 120.774 25.1764 120.774 25.4675ZM125.147 25.0504L124.411 25.2133C124.411 24.7875 124.469 24.3857 124.586 24.0077C124.708 23.6253 124.884 23.2908 125.114 23.004C125.349 22.713 125.638 22.4849 125.981 22.3198C126.324 22.1547 126.718 22.0721 127.161 22.0721C127.521 22.0721 127.843 22.1221 128.125 22.222C128.412 22.3176 128.655 22.4696 128.855 22.6782C129.055 22.8867 129.207 23.1583 129.311 23.4928C129.416 23.823 129.468 24.2227 129.468 24.692V29.2539H127.891V24.6854C127.891 24.3292 127.838 24.0533 127.734 23.8578C127.634 23.6623 127.491 23.5276 127.304 23.4537C127.117 23.3755 126.894 23.3364 126.633 23.3364C126.39 23.3364 126.174 23.382 125.988 23.4733C125.805 23.5602 125.651 23.684 125.525 23.8447C125.399 24.0012 125.303 24.1815 125.238 24.3857C125.177 24.5899 125.147 24.8114 125.147 25.0504ZM134.193 29.3842C133.671 29.3842 133.2 29.2995 132.778 29.1301C132.361 28.9563 132.005 28.7152 131.71 28.4067C131.419 28.0982 131.195 27.7354 131.038 27.3183C130.882 26.9012 130.804 26.4516 130.804 25.9693V25.7086C130.804 25.1568 130.884 24.6572 131.045 24.2097C131.206 23.7622 131.429 23.3799 131.716 23.0627C132.003 22.7412 132.342 22.4957 132.733 22.3263C133.124 22.1568 133.547 22.0721 134.004 22.0721C134.508 22.0721 134.949 22.1568 135.327 22.3263C135.705 22.4957 136.017 22.7347 136.265 23.0431C136.517 23.3473 136.704 23.7101 136.826 24.1315C136.952 24.5529 137.015 25.0178 137.015 25.5261V26.1974H131.566V25.07H135.463V24.9461C135.455 24.6637 135.398 24.3987 135.294 24.151C135.194 23.9034 135.04 23.7035 134.831 23.5515C134.623 23.3994 134.345 23.3234 133.997 23.3234C133.736 23.3234 133.504 23.3799 133.3 23.4928C133.1 23.6014 132.933 23.76 132.798 23.9686C132.663 24.1771 132.559 24.4291 132.485 24.7245C132.416 25.0156 132.381 25.3437 132.381 25.7086V25.9693C132.381 26.2778 132.422 26.5645 132.505 26.8296C132.592 27.0902 132.718 27.3183 132.883 27.5139C133.048 27.7094 133.248 27.8636 133.482 27.9766C133.717 28.0852 133.984 28.1395 134.284 28.1395C134.662 28.1395 134.999 28.0635 135.294 27.9114C135.589 27.7593 135.846 27.5443 136.063 27.2662L136.891 28.0678C136.739 28.2894 136.541 28.5023 136.298 28.7065C136.054 28.9063 135.757 29.0693 135.405 29.1953C135.057 29.3212 134.653 29.3842 134.193 29.3842ZM139.797 23.7079V29.2539H138.227V22.2024H139.706L139.797 23.7079ZM139.517 25.4675L139.009 25.461C139.013 24.9613 139.083 24.503 139.217 24.0859C139.356 23.6688 139.547 23.3103 139.791 23.0106C140.038 22.7108 140.334 22.4805 140.677 22.3198C141.02 22.1547 141.403 22.0721 141.824 22.0721C142.163 22.0721 142.469 22.1199 142.743 22.2155C143.021 22.3067 143.258 22.4566 143.453 22.6652C143.653 22.8737 143.805 23.1452 143.91 23.4798C144.014 23.81 144.066 24.2162 144.066 24.6985V29.2539H142.489V24.692C142.489 24.3531 142.439 24.0859 142.339 23.8904C142.243 23.6905 142.102 23.5493 141.915 23.4668C141.733 23.3799 141.505 23.3364 141.231 23.3364C140.962 23.3364 140.721 23.3929 140.508 23.5059C140.295 23.6188 140.114 23.7731 139.967 23.9686C139.823 24.1641 139.713 24.39 139.634 24.6463C139.556 24.9027 139.517 25.1764 139.517 25.4675ZM148.902 22.2024V23.3495H144.926V22.2024H148.902ZM146.073 20.4754H147.644V27.3053C147.644 27.5225 147.674 27.6898 147.735 27.8071C147.8 27.9201 147.889 27.9961 148.002 28.0352C148.115 28.0743 148.248 28.0939 148.4 28.0939C148.508 28.0939 148.613 28.0874 148.713 28.0743C148.813 28.0613 148.893 28.0483 148.954 28.0352L148.96 29.2344C148.83 29.2735 148.678 29.3082 148.504 29.3386C148.335 29.369 148.139 29.3842 147.918 29.3842C147.557 29.3842 147.238 29.3212 146.96 29.1953C146.681 29.0649 146.464 28.8542 146.308 28.5631C146.151 28.272 146.073 27.8853 146.073 27.4031V20.4754Z" fill="#203939"/>
<path d="M287.491 23.7535V25.2003C287.491 25.978 287.422 26.634 287.283 27.1684C287.144 27.7028 286.944 28.133 286.683 28.4588C286.423 28.7847 286.108 29.0215 285.738 29.1692C285.373 29.3126 284.961 29.3842 284.5 29.3842C284.135 29.3842 283.798 29.3386 283.49 29.2474C283.182 29.1562 282.903 29.0106 282.656 28.8107C282.413 28.6065 282.204 28.3415 282.03 28.0157C281.856 27.6898 281.724 27.2944 281.633 26.8296C281.541 26.3647 281.496 25.8216 281.496 25.2003V23.7535C281.496 22.9758 281.565 22.3241 281.704 21.7984C281.848 21.2727 282.05 20.8512 282.31 20.5341C282.571 20.2126 282.884 19.9823 283.249 19.8433C283.618 19.7042 284.031 19.6347 284.487 19.6347C284.856 19.6347 285.195 19.6803 285.504 19.7716C285.817 19.8585 286.095 19.9997 286.338 20.1952C286.581 20.3864 286.788 20.6427 286.957 20.9642C287.131 21.2814 287.263 21.6702 287.355 22.1308C287.446 22.5913 287.491 23.1322 287.491 23.7535ZM286.279 25.3958V23.5515C286.279 23.1257 286.253 22.7521 286.201 22.4305C286.153 22.1047 286.082 21.8266 285.986 21.5964C285.89 21.3661 285.769 21.1793 285.621 21.0359C285.478 20.8925 285.31 20.7882 285.119 20.7231C284.932 20.6536 284.722 20.6188 284.487 20.6188C284.2 20.6188 283.946 20.6731 283.725 20.7817C283.503 20.886 283.316 21.0533 283.164 21.2835C283.016 21.5138 282.903 21.8158 282.825 22.1894C282.747 22.5631 282.708 23.0171 282.708 23.5515V25.3958C282.708 25.8216 282.732 26.1974 282.78 26.5233C282.832 26.8491 282.908 27.1315 283.008 27.3705C283.108 27.6051 283.229 27.7984 283.373 27.9505C283.516 28.1026 283.681 28.2155 283.868 28.2894C284.059 28.3589 284.27 28.3937 284.5 28.3937C284.796 28.3937 285.054 28.3372 285.276 28.2242C285.497 28.1112 285.682 27.9353 285.83 27.6963C285.982 27.453 286.095 27.1424 286.169 26.7644C286.242 26.3821 286.279 25.9259 286.279 25.3958ZM290.568 24.7376L289.603 24.4899L290.079 19.7651H294.947V20.8795H291.102L290.815 23.4602C290.989 23.3603 291.208 23.2669 291.473 23.18C291.743 23.0931 292.051 23.0497 292.399 23.0497C292.838 23.0497 293.231 23.1257 293.578 23.2778C293.926 23.4255 294.221 23.6384 294.465 23.9164C294.712 24.1945 294.901 24.529 295.032 24.9201C295.162 25.3111 295.227 25.7477 295.227 26.23C295.227 26.6862 295.164 27.1054 295.038 27.4878C294.917 27.8701 294.732 28.2047 294.484 28.4914C294.237 28.7738 293.924 28.9932 293.546 29.1496C293.172 29.306 292.731 29.3842 292.223 29.3842C291.841 29.3842 291.478 29.3321 291.135 29.2278C290.796 29.1192 290.492 28.9563 290.222 28.7391C289.957 28.5175 289.74 28.2438 289.57 27.9179C289.405 27.5877 289.301 27.201 289.258 26.7579H290.405C290.457 27.1141 290.561 27.4139 290.717 27.6572C290.874 27.9005 291.078 28.0852 291.33 28.2112C291.586 28.3328 291.884 28.3937 292.223 28.3937C292.51 28.3937 292.764 28.3437 292.985 28.2438C293.207 28.1438 293.394 28.0005 293.546 27.8136C293.698 27.6268 293.813 27.4009 293.891 27.1359C293.974 26.8708 294.015 26.5732 294.015 26.243C294.015 25.9432 293.974 25.6652 293.891 25.4088C293.809 25.1525 293.685 24.9288 293.52 24.7376C293.359 24.5464 293.161 24.3987 292.927 24.2944C292.692 24.1858 292.423 24.1315 292.119 24.1315C291.715 24.1315 291.408 24.1858 291.2 24.2944C290.996 24.403 290.785 24.5508 290.568 24.7376ZM296.7 28.6152C296.7 28.411 296.763 28.2394 296.889 28.1004C297.019 27.957 297.206 27.8853 297.45 27.8853C297.693 27.8853 297.878 27.957 298.004 28.1004C298.134 28.2394 298.199 28.411 298.199 28.6152C298.199 28.8151 298.134 28.9845 298.004 29.1236C297.878 29.2626 297.693 29.3321 297.45 29.3321C297.206 29.3321 297.019 29.2626 296.889 29.1236C296.763 28.9845 296.7 28.8151 296.7 28.6152ZM306.026 23.7535V25.2003C306.026 25.978 305.956 26.634 305.817 27.1684C305.678 27.7028 305.479 28.133 305.218 28.4588C304.957 28.7847 304.642 29.0215 304.273 29.1692C303.908 29.3126 303.495 29.3842 303.035 29.3842C302.67 29.3842 302.333 29.3386 302.025 29.2474C301.716 29.1562 301.438 29.0106 301.19 28.8107C300.947 28.6065 300.739 28.3415 300.565 28.0157C300.391 27.6898 300.258 27.2944 300.167 26.8296C300.076 26.3647 300.03 25.8216 300.03 25.2003V23.7535C300.03 22.9758 300.1 22.3241 300.239 21.7984C300.382 21.2727 300.584 20.8512 300.845 20.5341C301.106 20.2126 301.418 19.9823 301.783 19.8433C302.153 19.7042 302.565 19.6347 303.022 19.6347C303.391 19.6347 303.73 19.6803 304.038 19.7716C304.351 19.8585 304.629 19.9997 304.872 20.1952C305.116 20.3864 305.322 20.6427 305.492 20.9642C305.665 21.2814 305.798 21.6702 305.889 22.1308C305.98 22.5913 306.026 23.1322 306.026 23.7535ZM304.814 25.3958V23.5515C304.814 23.1257 304.788 22.7521 304.736 22.4305C304.688 22.1047 304.616 21.8266 304.521 21.5964C304.425 21.3661 304.303 21.1793 304.156 21.0359C304.012 20.8925 303.845 20.7882 303.654 20.7231C303.467 20.6536 303.256 20.6188 303.022 20.6188C302.735 20.6188 302.481 20.6731 302.259 20.7817C302.038 20.886 301.851 21.0533 301.699 21.2835C301.551 21.5138 301.438 21.8158 301.36 22.1894C301.282 22.5631 301.242 23.0171 301.242 23.5515V25.3958C301.242 25.8216 301.266 26.1974 301.314 26.5233C301.366 26.8491 301.442 27.1315 301.542 27.3705C301.642 27.6051 301.764 27.7984 301.907 27.9505C302.051 28.1026 302.216 28.2155 302.403 28.2894C302.594 28.3589 302.804 28.3937 303.035 28.3937C303.33 28.3937 303.589 28.3372 303.81 28.2242C304.032 28.1112 304.216 27.9353 304.364 27.6963C304.516 27.453 304.629 27.1424 304.703 26.7644C304.777 26.3821 304.814 25.9259 304.814 25.3958ZM309.102 24.7376L308.138 24.4899L308.613 19.7651H313.482V20.8795H309.636L309.35 23.4602C309.524 23.3603 309.743 23.2669 310.008 23.18C310.277 23.0931 310.586 23.0497 310.933 23.0497C311.372 23.0497 311.765 23.1257 312.113 23.2778C312.461 23.4255 312.756 23.6384 312.999 23.9164C313.247 24.1945 313.436 24.529 313.566 24.9201C313.697 25.3111 313.762 25.7477 313.762 26.23C313.762 26.6862 313.699 27.1054 313.573 27.4878C313.451 27.8701 313.266 28.2047 313.019 28.4914C312.771 28.7738 312.458 28.9932 312.08 29.1496C311.707 29.306 311.266 29.3842 310.757 29.3842C310.375 29.3842 310.012 29.3321 309.669 29.2278C309.33 29.1192 309.026 28.9563 308.757 28.7391C308.492 28.5175 308.274 28.2438 308.105 27.9179C307.94 27.5877 307.836 27.201 307.792 26.7579H308.939C308.991 27.1141 309.096 27.4139 309.252 27.6572C309.408 27.9005 309.613 28.0852 309.865 28.2112C310.121 28.3328 310.419 28.3937 310.757 28.3937C311.044 28.3937 311.298 28.3437 311.52 28.2438C311.741 28.1438 311.928 28.0005 312.08 27.8136C312.232 27.6268 312.348 27.4009 312.426 27.1359C312.508 26.8708 312.55 26.5732 312.55 26.243C312.55 25.9432 312.508 25.6652 312.426 25.4088C312.343 25.1525 312.219 24.9288 312.054 24.7376C311.894 24.5464 311.696 24.3987 311.461 24.2944C311.227 24.1858 310.957 24.1315 310.653 24.1315C310.249 24.1315 309.943 24.1858 309.734 24.2944C309.53 24.403 309.319 24.5508 309.102 24.7376ZM315.235 28.6152C315.235 28.411 315.298 28.2394 315.424 28.1004C315.554 27.957 315.741 27.8853 315.984 27.8853C316.227 27.8853 316.412 27.957 316.538 28.1004C316.668 28.2394 316.734 28.411 316.734 28.6152C316.734 28.8151 316.668 28.9845 316.538 29.1236C316.412 29.2626 316.227 29.3321 315.984 29.3321C315.741 29.3321 315.554 29.2626 315.424 29.1236C315.298 28.9845 315.235 28.8151 315.235 28.6152ZM324.821 28.2633V29.2539H318.61V28.3871L321.719 24.9266C322.101 24.5008 322.397 24.1402 322.605 23.8447C322.818 23.545 322.966 23.2778 323.049 23.0431C323.135 22.8042 323.179 22.5609 323.179 22.3132C323.179 22.0004 323.114 21.718 322.983 21.466C322.857 21.2097 322.671 21.0055 322.423 20.8534C322.175 20.7014 321.876 20.6253 321.524 20.6253C321.102 20.6253 320.75 20.7079 320.468 20.873C320.19 21.0337 319.981 21.2596 319.842 21.5507C319.703 21.8418 319.634 22.1764 319.634 22.5544H318.428C318.428 22.02 318.545 21.5312 318.78 21.088C319.015 20.6449 319.362 20.2929 319.823 20.0323C320.283 19.7672 320.85 19.6347 321.524 19.6347C322.123 19.6347 322.636 19.7412 323.062 19.9541C323.487 20.1626 323.813 20.458 324.039 20.8404C324.269 21.2184 324.385 21.6615 324.385 22.1699C324.385 22.4479 324.337 22.7303 324.241 23.0171C324.15 23.2995 324.022 23.5819 323.857 23.8643C323.696 24.1467 323.507 24.4248 323.29 24.6985C323.077 24.9722 322.849 25.2416 322.605 25.5066L320.064 28.2633H324.821ZM332.068 23.7535V25.2003C332.068 25.978 331.999 26.634 331.86 27.1684C331.721 27.7028 331.521 28.133 331.26 28.4588C330.999 28.7847 330.684 29.0215 330.315 29.1692C329.95 29.3126 329.537 29.3842 329.077 29.3842C328.712 29.3842 328.375 29.3386 328.067 29.2474C327.758 29.1562 327.48 29.0106 327.233 28.8107C326.989 28.6065 326.781 28.3415 326.607 28.0157C326.433 27.6898 326.301 27.2944 326.209 26.8296C326.118 26.3647 326.072 25.8216 326.072 25.2003V23.7535C326.072 22.9758 326.142 22.3241 326.281 21.7984C326.424 21.2727 326.626 20.8512 326.887 20.5341C327.148 20.2126 327.461 19.9823 327.826 19.8433C328.195 19.7042 328.608 19.6347 329.064 19.6347C329.433 19.6347 329.772 19.6803 330.08 19.7716C330.393 19.8585 330.671 19.9997 330.915 20.1952C331.158 20.3864 331.364 20.6427 331.534 20.9642C331.708 21.2814 331.84 21.6702 331.931 22.1308C332.023 22.5913 332.068 23.1322 332.068 23.7535ZM330.856 25.3958V23.5515C330.856 23.1257 330.83 22.7521 330.778 22.4305C330.73 22.1047 330.658 21.8266 330.563 21.5964C330.467 21.3661 330.346 21.1793 330.198 21.0359C330.054 20.8925 329.887 20.7882 329.696 20.7231C329.509 20.6536 329.298 20.6188 329.064 20.6188C328.777 20.6188 328.523 20.6731 328.301 20.7817C328.08 20.886 327.893 21.0533 327.741 21.2835C327.593 21.5138 327.48 21.8158 327.402 22.1894C327.324 22.5631 327.285 23.0171 327.285 23.5515V25.3958C327.285 25.8216 327.309 26.1974 327.356 26.5233C327.408 26.8491 327.485 27.1315 327.584 27.3705C327.684 27.6051 327.806 27.7984 327.949 27.9505C328.093 28.1026 328.258 28.2155 328.445 28.2894C328.636 28.3589 328.847 28.3937 329.077 28.3937C329.372 28.3937 329.631 28.3372 329.852 28.2242C330.074 28.1112 330.259 27.9353 330.406 27.6963C330.558 27.453 330.671 27.1424 330.745 26.7644C330.819 26.3821 330.856 25.9259 330.856 25.3958ZM339.837 28.2633V29.2539H333.626V28.3871L336.734 24.9266C337.117 24.5008 337.412 24.1402 337.621 23.8447C337.834 23.545 337.981 23.2778 338.064 23.0431C338.151 22.8042 338.194 22.5609 338.194 22.3132C338.194 22.0004 338.129 21.718 337.999 21.466C337.873 21.2097 337.686 21.0055 337.438 20.8534C337.191 20.7014 336.891 20.6253 336.539 20.6253C336.117 20.6253 335.766 20.7079 335.483 20.873C335.205 21.0337 334.997 21.2596 334.857 21.5507C334.718 21.8418 334.649 22.1764 334.649 22.5544H333.443C333.443 22.02 333.561 21.5312 333.795 21.088C334.03 20.6449 334.377 20.2929 334.838 20.0323C335.298 19.7672 335.865 19.6347 336.539 19.6347C337.138 19.6347 337.651 19.7412 338.077 19.9541C338.503 20.1626 338.829 20.458 339.054 20.8404C339.285 21.2184 339.4 21.6615 339.4 22.1699C339.4 22.4479 339.352 22.7303 339.257 23.0171C339.165 23.2995 339.037 23.5819 338.872 23.8643C338.711 24.1467 338.522 24.4248 338.305 24.6985C338.092 24.9722 337.864 25.2416 337.621 25.5066L335.079 28.2633H339.837ZM342.652 24.7376L341.687 24.4899L342.163 19.7651H347.031V20.8795H343.186L342.9 23.4602C343.073 23.3603 343.293 23.2669 343.558 23.18C343.827 23.0931 344.136 23.0497 344.483 23.0497C344.922 23.0497 345.315 23.1257 345.663 23.2778C346.01 23.4255 346.306 23.6384 346.549 23.9164C346.797 24.1945 346.986 24.529 347.116 24.9201C347.246 25.3111 347.312 25.7477 347.312 26.23C347.312 26.6862 347.249 27.1054 347.123 27.4878C347.001 27.8701 346.816 28.2047 346.569 28.4914C346.321 28.7738 346.008 28.9932 345.63 29.1496C345.257 29.306 344.816 29.3842 344.307 29.3842C343.925 29.3842 343.562 29.3321 343.219 29.2278C342.88 29.1192 342.576 28.9563 342.306 28.7391C342.041 28.5175 341.824 28.2438 341.655 27.9179C341.49 27.5877 341.385 27.201 341.342 26.7579H342.489C342.541 27.1141 342.645 27.4139 342.802 27.6572C342.958 27.9005 343.162 28.0852 343.414 28.2112C343.671 28.3328 343.968 28.3937 344.307 28.3937C344.594 28.3937 344.848 28.3437 345.07 28.2438C345.291 28.1438 345.478 28.0005 345.63 27.8136C345.782 27.6268 345.897 27.4009 345.976 27.1359C346.058 26.8708 346.099 26.5732 346.099 26.243C346.099 25.9432 346.058 25.6652 345.976 25.4088C345.893 25.1525 345.769 24.9288 345.604 24.7376C345.443 24.5464 345.246 24.3987 345.011 24.2944C344.776 24.1858 344.507 24.1315 344.203 24.1315C343.799 24.1315 343.493 24.1858 343.284 24.2944C343.08 24.403 342.869 24.5508 342.652 24.7376Z" fill="#5A7676"/>
<rect x="52.2536" y="53.3203" width="64.8805" height="41.8805" rx="5.72012" fill="#E7F5ED"/>
<path d="M69.8525 76.3625C69.8525 76.1409 69.8177 75.9454 69.7482 75.7759C69.6831 75.6021 69.5657 75.4457 69.3963 75.3067C69.2312 75.1677 69.0009 75.0352 68.7055 74.9092C68.4144 74.7832 68.0451 74.655 67.5976 74.5247C67.1284 74.3856 66.7048 74.2314 66.3268 74.0619C65.9488 73.8882 65.6251 73.6905 65.3557 73.4689C65.0864 73.2473 64.88 72.9931 64.7366 72.7064C64.5932 72.4196 64.5215 72.0916 64.5215 71.7223C64.5215 71.353 64.5976 71.012 64.7496 70.6991C64.9017 70.3863 65.1189 70.1148 65.4013 69.8845C65.6881 69.6499 66.0292 69.4674 66.4245 69.3371C66.8199 69.2067 67.2609 69.1416 67.7475 69.1416C68.46 69.1416 69.0639 69.2784 69.5592 69.5521C70.0589 69.8215 70.439 70.1756 70.6997 70.6144C70.9604 71.0489 71.0907 71.5138 71.0907 72.0091H69.8395C69.8395 71.6528 69.7634 71.3378 69.6114 71.0641C69.4593 70.786 69.229 70.5688 68.9206 70.4124C68.6121 70.2516 68.2211 70.1713 67.7475 70.1713C67.3 70.1713 66.9307 70.2386 66.6396 70.3733C66.3485 70.508 66.1313 70.6905 65.9879 70.9207C65.8489 71.151 65.7793 71.4138 65.7793 71.7093C65.7793 71.9091 65.8206 72.0916 65.9032 72.2567C65.9901 72.4175 66.1226 72.5674 66.3007 72.7064C66.4832 72.8454 66.7134 72.9736 66.9915 73.0909C67.2739 73.2082 67.6106 73.3212 68.0017 73.4298C68.5404 73.5819 69.0053 73.7513 69.3963 73.9381C69.7873 74.1249 70.1088 74.3357 70.3608 74.5703C70.6172 74.8005 70.8062 75.0634 70.9278 75.3588C71.0538 75.6499 71.1168 75.9801 71.1168 76.3494C71.1168 76.7361 71.0386 77.0859 70.8822 77.3987C70.7258 77.7115 70.502 77.9787 70.2109 78.2003C69.9198 78.4219 69.5701 78.5935 69.1617 78.7151C68.7576 78.8324 68.3058 78.8911 67.8061 78.8911C67.3673 78.8911 66.935 78.8303 66.5092 78.7086C66.0878 78.587 65.7033 78.4045 65.3557 78.1612C65.0125 77.9179 64.7366 77.6181 64.5281 77.2618C64.3239 76.9012 64.2218 76.4841 64.2218 76.0105H65.473C65.473 76.3364 65.536 76.6166 65.662 76.8512C65.788 77.0815 65.9596 77.2727 66.1769 77.4247C66.3985 77.5768 66.6483 77.6898 66.9263 77.7636C67.2087 77.8331 67.502 77.8679 67.8061 77.8679C68.245 77.8679 68.6164 77.8071 68.9206 77.6854C69.2247 77.5638 69.455 77.39 69.6114 77.1641C69.7721 76.9381 69.8525 76.6709 69.8525 76.3625ZM73.9809 71.7093V78.7607H72.7688V71.7093H73.9809ZM72.6775 69.8389C72.6775 69.6434 72.7362 69.4783 72.8535 69.3436C72.9751 69.2089 73.1533 69.1416 73.3879 69.1416C73.6181 69.1416 73.7941 69.2089 73.9158 69.3436C74.0418 69.4783 74.1048 69.6434 74.1048 69.8389C74.1048 70.0257 74.0418 70.1865 73.9158 70.3211C73.7941 70.4515 73.6181 70.5167 73.3879 70.5167C73.1533 70.5167 72.9751 70.4515 72.8535 70.3211C72.7362 70.1865 72.6775 70.0257 72.6775 69.8389ZM80.6184 71.7093H81.7133V78.6108C81.7133 79.2321 81.5873 79.7622 81.3353 80.201C81.0833 80.6398 80.7314 80.9722 80.2795 81.1981C79.832 81.4284 79.315 81.5435 78.7285 81.5435C78.4852 81.5435 78.1984 81.5044 77.8682 81.4262C77.5424 81.3524 77.2209 81.2242 76.9037 81.0417C76.5909 80.8636 76.328 80.6224 76.1151 80.3183L76.7473 79.6014C77.0427 79.9577 77.3512 80.2054 77.6727 80.3444C77.9986 80.4834 78.3201 80.5529 78.6372 80.5529C79.0196 80.5529 79.3498 80.4812 79.6278 80.3379C79.9059 80.1945 80.121 79.9816 80.273 79.6992C80.4294 79.4211 80.5076 79.0779 80.5076 78.6695V73.2603L80.6184 71.7093ZM75.7632 75.3132V75.1764C75.7632 74.6376 75.8262 74.1488 75.9522 73.71C76.0825 73.2669 76.2672 72.8867 76.5062 72.5695C76.7495 72.2524 77.0427 72.0091 77.386 71.8396C77.7292 71.6658 78.1159 71.5789 78.546 71.5789C78.9892 71.5789 79.3758 71.6571 79.706 71.8136C80.0406 71.9656 80.323 72.1894 80.5533 72.4848C80.7879 72.7759 80.9725 73.1278 81.1072 73.5406C81.2419 73.9533 81.3353 74.4204 81.3874 74.9417V75.5413C81.3396 76.0583 81.2462 76.5232 81.1072 76.936C80.9725 77.3487 80.7879 77.7006 80.5533 77.9917C80.323 78.2828 80.0406 78.5066 79.706 78.663C79.3715 78.8151 78.9805 78.8911 78.533 78.8911C78.1115 78.8911 77.7292 78.802 77.386 78.6239C77.0471 78.4458 76.756 78.1959 76.5127 77.8744C76.2694 77.5529 76.0825 77.1749 75.9522 76.7405C75.8262 76.3016 75.7632 75.8259 75.7632 75.3132ZM76.9689 75.1764V75.3132C76.9689 75.6651 77.0036 75.9953 77.0731 76.3038C77.147 76.6123 77.2578 76.8838 77.4055 77.1184C77.5576 77.3531 77.7509 77.5377 77.9855 77.6724C78.2201 77.8027 78.5004 77.8679 78.8262 77.8679C79.2259 77.8679 79.5561 77.7832 79.8168 77.6137C80.0775 77.4443 80.2839 77.2205 80.4359 76.9425C80.5924 76.6644 80.714 76.3625 80.8009 76.0366V74.466C80.7531 74.227 80.6792 73.9968 80.5793 73.7752C80.4837 73.5493 80.3577 73.3494 80.2013 73.1756C80.0493 72.9975 79.8603 72.8563 79.6343 72.752C79.4084 72.6477 79.1434 72.5956 78.8393 72.5956C78.5091 72.5956 78.2245 72.6651 77.9855 72.8041C77.7509 72.9388 77.5576 73.1257 77.4055 73.3646C77.2578 73.5992 77.147 73.8729 77.0731 74.1858C77.0036 74.4942 76.9689 74.8244 76.9689 75.1764ZM84.8837 73.2147V78.7607H83.6781V71.7093H84.8185L84.8837 73.2147ZM84.597 74.9678L84.0951 74.9483C84.0995 74.466 84.1712 74.0207 84.3102 73.6123C84.4492 73.1995 84.6447 72.8411 84.8967 72.537C85.1487 72.2328 85.4485 71.9982 85.7961 71.8331C86.148 71.6637 86.5369 71.5789 86.9626 71.5789C87.3102 71.5789 87.623 71.6267 87.9011 71.7223C88.1792 71.8136 88.416 71.9613 88.6115 72.1655C88.8113 72.3697 88.9634 72.6347 89.0677 72.9606C89.1719 73.2821 89.2241 73.6753 89.2241 74.1401V78.7607H88.0119V74.1271C88.0119 73.7578 87.9576 73.4624 87.849 73.2408C87.7404 73.0149 87.5818 72.8519 87.3732 72.752C87.1647 72.6477 86.9083 72.5956 86.6042 72.5956C86.3044 72.5956 86.0307 72.6586 85.7831 72.7846C85.5398 72.9106 85.329 73.0844 85.1509 73.306C84.9771 73.5275 84.8403 73.7817 84.7403 74.0685C84.6447 74.3509 84.597 74.6506 84.597 74.9678ZM94.115 78.8911C93.624 78.8911 93.1787 78.8085 92.779 78.6434C92.3836 78.474 92.0426 78.2372 91.7558 77.9331C91.4734 77.6289 91.2562 77.2683 91.1041 76.8512C90.952 76.4342 90.876 75.978 90.876 75.4827V75.2089C90.876 74.6354 90.9607 74.1249 91.1302 73.6774C91.2996 73.2256 91.5299 72.8433 91.821 72.5304C92.1121 72.2176 92.4423 71.9808 92.8116 71.8201C93.1809 71.6593 93.5632 71.5789 93.9586 71.5789C94.4626 71.5789 94.897 71.6658 95.262 71.8396C95.6313 72.0134 95.9333 72.2567 96.1679 72.5695C96.4025 72.878 96.5763 73.243 96.6892 73.6644C96.8022 74.0815 96.8587 74.5377 96.8587 75.033V75.5739H91.5929V74.5898H95.653V74.4986C95.6356 74.1858 95.5705 73.8816 95.4575 73.5862C95.3489 73.2908 95.1751 73.0475 94.9361 72.8563C94.6972 72.6651 94.3713 72.5695 93.9586 72.5695C93.6849 72.5695 93.4329 72.6282 93.2026 72.7455C92.9723 72.8585 92.7746 73.0279 92.6096 73.2538C92.4445 73.4798 92.3163 73.7556 92.225 74.0815C92.1338 74.4073 92.0882 74.7832 92.0882 75.2089V75.4827C92.0882 75.8172 92.1338 76.1322 92.225 76.4276C92.3206 76.7187 92.4575 76.9751 92.6356 77.1966C92.8181 77.4182 93.0375 77.592 93.2938 77.718C93.5545 77.844 93.85 77.907 94.1802 77.907C94.6059 77.907 94.9666 77.8201 95.262 77.6463C95.5574 77.4725 95.8159 77.2401 96.0375 76.949L96.7674 77.529C96.6154 77.7593 96.422 77.9787 96.1874 78.1872C95.9528 78.3958 95.6639 78.5652 95.3206 78.6956C94.9818 78.8259 94.5799 78.8911 94.115 78.8911ZM102.844 77.3922V68.7505H104.057V78.7607H102.949L102.844 77.3922ZM98.1 75.3132V75.1764C98.1 74.6376 98.1652 74.1488 98.2956 73.71C98.4302 73.2669 98.6192 72.8867 98.8625 72.5695C99.1102 72.2524 99.4035 72.0091 99.7423 71.8396C100.086 71.6658 100.468 71.5789 100.889 71.5789C101.333 71.5789 101.719 71.6571 102.049 71.8136C102.384 71.9656 102.666 72.1894 102.897 72.4848C103.131 72.7759 103.316 73.1278 103.451 73.5406C103.585 73.9533 103.679 74.4204 103.731 74.9417V75.5413C103.683 76.0583 103.59 76.5232 103.451 76.936C103.316 77.3487 103.131 77.7006 102.897 77.9917C102.666 78.2828 102.384 78.5066 102.049 78.663C101.715 78.8151 101.324 78.8911 100.876 78.8911C100.464 78.8911 100.086 78.802 99.7423 78.6239C99.4035 78.4458 99.1102 78.1959 98.8625 77.8744C98.6192 77.5529 98.4302 77.1749 98.2956 76.7405C98.1652 76.3016 98.1 75.8259 98.1 75.3132ZM99.3122 75.1764V75.3132C99.3122 75.6651 99.347 75.9953 99.4165 76.3038C99.4903 76.6123 99.6033 76.8838 99.7554 77.1184C99.9074 77.3531 100.101 77.5377 100.335 77.6724C100.57 77.8027 100.85 77.8679 101.176 77.8679C101.576 77.8679 101.904 77.7832 102.16 77.6137C102.421 77.4443 102.629 77.2205 102.786 76.9425C102.942 76.6644 103.064 76.3625 103.151 76.0366V74.466C103.099 74.227 103.023 73.9968 102.923 73.7752C102.827 73.5493 102.701 73.3494 102.545 73.1756C102.393 72.9975 102.204 72.8563 101.978 72.752C101.756 72.6477 101.493 72.5956 101.189 72.5956C100.859 72.5956 100.574 72.6651 100.335 72.8041C100.101 72.9388 99.9074 73.1257 99.7554 73.3646C99.6033 73.5992 99.4903 73.8729 99.4165 74.1858C99.347 74.4942 99.3122 74.8244 99.3122 75.1764Z" fill="#08994B"/>
<path d="M21.92 183V165.72H25.184V183H21.92ZM37.6136 183V176.88C37.6136 176.584 37.5976 176.208 37.5656 175.752C37.5336 175.288 37.4336 174.824 37.2656 174.36C37.0976 173.896 36.8216 173.508 36.4376 173.196C36.0616 172.884 35.5256 172.728 34.8296 172.728C34.5496 172.728 34.2496 172.772 33.9296 172.86C33.6096 172.948 33.3096 173.12 33.0296 173.376C32.7496 173.624 32.5176 173.992 32.3336 174.48C32.1576 174.968 32.0696 175.616 32.0696 176.424L30.1976 175.536C30.1976 174.512 30.4056 173.552 30.8216 172.656C31.2376 171.76 31.8616 171.036 32.6936 170.484C33.5336 169.932 34.5896 169.656 35.8616 169.656C36.8776 169.656 37.7056 169.828 38.3456 170.172C38.9856 170.516 39.4816 170.952 39.8336 171.48C40.1936 172.008 40.4496 172.56 40.6016 173.136C40.7536 173.704 40.8456 174.224 40.8776 174.696C40.9096 175.168 40.9256 175.512 40.9256 175.728V183H37.6136ZM28.7576 183V170.04H31.6616V174.336H32.0696V183H28.7576ZM49.1034 183.36C47.4714 183.36 46.1514 182.992 45.1434 182.256C44.1434 181.512 43.5354 180.464 43.3194 179.112L46.6554 178.608C46.7914 179.216 47.0914 179.692 47.5554 180.036C48.0274 180.38 48.6234 180.552 49.3434 180.552C49.9354 180.552 50.3914 180.44 50.7114 180.216C51.0314 179.984 51.1914 179.664 51.1914 179.256C51.1914 179 51.1274 178.796 50.9994 178.644C50.8714 178.484 50.5834 178.328 50.1354 178.176C49.6954 178.024 49.0074 177.824 48.0714 177.576C47.0154 177.304 46.1714 177 45.5394 176.664C44.9074 176.328 44.4514 175.928 44.1714 175.464C43.8914 174.992 43.7514 174.424 43.7514 173.76C43.7514 172.928 43.9634 172.208 44.3874 171.6C44.8114 170.984 45.4074 170.512 46.1754 170.184C46.9514 169.848 47.8634 169.68 48.9114 169.68C49.9274 169.68 50.8274 169.836 51.6114 170.148C52.3954 170.46 53.0274 170.904 53.5074 171.48C53.9954 172.056 54.2954 172.736 54.4074 173.52L51.0714 174.12C51.0154 173.64 50.8074 173.26 50.4474 172.98C50.0874 172.7 49.5994 172.536 48.9834 172.488C48.3834 172.448 47.8994 172.528 47.5314 172.728C47.1714 172.928 46.9914 173.216 46.9914 173.592C46.9914 173.816 47.0674 174.004 47.2194 174.156C47.3794 174.308 47.7034 174.464 48.1914 174.624C48.6874 174.784 49.4394 174.992 50.4474 175.248C51.4314 175.504 52.2194 175.804 52.8114 176.148C53.4114 176.484 53.8474 176.892 54.1194 177.372C54.3914 177.844 54.5274 178.416 54.5274 179.088C54.5274 180.416 54.0474 181.46 53.0874 182.22C52.1274 182.98 50.7994 183.36 49.1034 183.36ZM64.9404 183C64.0444 183.168 63.1644 183.24 62.3004 183.216C61.4444 183.2 60.6764 183.052 59.9964 182.772C59.3244 182.484 58.8124 182.024 58.4604 181.392C58.1404 180.8 57.9724 180.2 57.9564 179.592C57.9404 178.976 57.9324 178.28 57.9324 177.504V166.44H61.1964V177.312C61.1964 177.816 61.2004 178.272 61.2084 178.68C61.2244 179.08 61.3084 179.4 61.4604 179.64C61.7484 180.096 62.2084 180.344 62.8404 180.384C63.4724 180.424 64.1724 180.392 64.9404 180.288V183ZM55.7244 172.56V170.04H64.9404V172.56H55.7244ZM71.4284 183.36C70.5004 183.36 69.7124 183.184 69.0644 182.832C68.4244 182.472 67.9364 181.996 67.6004 181.404C67.2724 180.804 67.1084 180.144 67.1084 179.424C67.1084 178.824 67.2004 178.276 67.3844 177.78C67.5684 177.284 67.8644 176.848 68.2724 176.472C68.6884 176.088 69.2444 175.768 69.9404 175.512C70.4204 175.336 70.9924 175.18 71.6564 175.044C72.3204 174.908 73.0724 174.78 73.9124 174.66C74.7524 174.532 75.6764 174.392 76.6844 174.24L75.5084 174.888C75.5084 174.12 75.3244 173.556 74.9564 173.196C74.5884 172.836 73.9724 172.656 73.1084 172.656C72.6284 172.656 72.1284 172.772 71.6084 173.004C71.0884 173.236 70.7244 173.648 70.5164 174.24L67.5644 173.304C67.8924 172.232 68.5084 171.36 69.4124 170.688C70.3164 170.016 71.5484 169.68 73.1084 169.68C74.2524 169.68 75.2684 169.856 76.1564 170.208C77.0444 170.56 77.7164 171.168 78.1724 172.032C78.4284 172.512 78.5804 172.992 78.6284 173.472C78.6764 173.952 78.7004 174.488 78.7004 175.08V183H75.8444V180.336L76.2524 180.888C75.6204 181.76 74.9364 182.392 74.2004 182.784C73.4724 183.168 72.5484 183.36 71.4284 183.36ZM72.1244 180.792C72.7244 180.792 73.2284 180.688 73.6364 180.48C74.0524 180.264 74.3804 180.02 74.6204 179.748C74.8684 179.476 75.0364 179.248 75.1244 179.064C75.2924 178.712 75.3884 178.304 75.4124 177.84C75.4444 177.368 75.4604 176.976 75.4604 176.664L76.4204 176.904C75.4524 177.064 74.6684 177.2 74.0684 177.312C73.4684 177.416 72.9844 177.512 72.6164 177.6C72.2484 177.688 71.9244 177.784 71.6444 177.888C71.3244 178.016 71.0644 178.156 70.8644 178.308C70.6724 178.452 70.5284 178.612 70.4324 178.788C70.3444 178.964 70.3004 179.16 70.3004 179.376C70.3004 179.672 70.3724 179.928 70.5164 180.144C70.6684 180.352 70.8804 180.512 71.1524 180.624C71.4244 180.736 71.7484 180.792 72.1244 180.792ZM90.6526 183V176.88C90.6526 176.584 90.6366 176.208 90.6046 175.752C90.5726 175.288 90.4726 174.824 90.3046 174.36C90.1366 173.896 89.8606 173.508 89.4766 173.196C89.1006 172.884 88.5646 172.728 87.8686 172.728C87.5886 172.728 87.2886 172.772 86.9686 172.86C86.6486 172.948 86.3486 173.12 86.0686 173.376C85.7886 173.624 85.5566 173.992 85.3726 174.48C85.1966 174.968 85.1086 175.616 85.1086 176.424L83.2366 175.536C83.2366 174.512 83.4446 173.552 83.8606 172.656C84.2766 171.76 84.9006 171.036 85.7326 170.484C86.5726 169.932 87.6286 169.656 88.9006 169.656C89.9166 169.656 90.7446 169.828 91.3846 170.172C92.0246 170.516 92.5206 170.952 92.8726 171.48C93.2326 172.008 93.4886 172.56 93.6406 173.136C93.7926 173.704 93.8846 174.224 93.9166 174.696C93.9486 175.168 93.9646 175.512 93.9646 175.728V183H90.6526ZM81.7966 183V170.04H84.7006V174.336H85.1086V183H81.7966ZM104.854 183C103.958 183.168 103.078 183.24 102.214 183.216C101.358 183.2 100.59 183.052 99.9104 182.772C99.2384 182.484 98.7264 182.024 98.3744 181.392C98.0544 180.8 97.8864 180.2 97.8704 179.592C97.8544 178.976 97.8464 178.28 97.8464 177.504V166.44H101.11V177.312C101.11 177.816 101.114 178.272 101.122 178.68C101.138 179.08 101.222 179.4 101.374 179.64C101.662 180.096 102.122 180.344 102.754 180.384C103.386 180.424 104.086 180.392 104.854 180.288V183ZM95.6384 172.56V170.04H104.854V172.56H95.6384ZM117.611 183.36C115.979 183.36 114.659 182.992 113.651 182.256C112.651 181.512 112.043 180.464 111.827 179.112L115.163 178.608C115.299 179.216 115.599 179.692 116.063 180.036C116.535 180.38 117.131 180.552 117.851 180.552C118.443 180.552 118.899 180.44 119.219 180.216C119.539 179.984 119.699 179.664 119.699 179.256C119.699 179 119.635 178.796 119.507 178.644C119.379 178.484 119.091 178.328 118.643 178.176C118.203 178.024 117.515 177.824 116.579 177.576C115.523 177.304 114.679 177 114.047 176.664C113.415 176.328 112.959 175.928 112.679 175.464C112.399 174.992 112.259 174.424 112.259 173.76C112.259 172.928 112.471 172.208 112.895 171.6C113.319 170.984 113.915 170.512 114.683 170.184C115.459 169.848 116.371 169.68 117.419 169.68C118.435 169.68 119.335 169.836 120.119 170.148C120.903 170.46 121.535 170.904 122.015 171.48C122.503 172.056 122.803 172.736 122.915 173.52L119.579 174.12C119.523 173.64 119.315 173.26 118.955 172.98C118.595 172.7 118.107 172.536 117.491 172.488C116.891 172.448 116.407 172.528 116.039 172.728C115.679 172.928 115.499 173.216 115.499 173.592C115.499 173.816 115.575 174.004 115.727 174.156C115.887 174.308 116.211 174.464 116.699 174.624C117.195 174.784 117.947 174.992 118.955 175.248C119.939 175.504 120.727 175.804 121.319 176.148C121.919 176.484 122.355 176.892 122.627 177.372C122.899 177.844 123.035 178.416 123.035 179.088C123.035 180.416 122.555 181.46 121.595 182.22C120.635 182.98 119.307 183.36 117.611 183.36ZM131.696 183.36C130.368 183.36 129.196 183.076 128.18 182.508C127.172 181.932 126.38 181.144 125.804 180.144C125.236 179.136 124.952 177.984 124.952 176.688C124.952 175.272 125.232 174.04 125.792 172.992C126.352 171.944 127.124 171.132 128.108 170.556C129.092 169.972 130.224 169.68 131.504 169.68C132.864 169.68 134.02 170 134.972 170.64C135.924 171.28 136.628 172.18 137.084 173.34C137.54 174.5 137.7 175.864 137.564 177.432H134.336V176.232C134.336 174.912 134.124 173.964 133.7 173.388C133.284 172.804 132.6 172.512 131.648 172.512C130.536 172.512 129.716 172.852 129.188 173.532C128.668 174.204 128.408 175.2 128.408 176.52C128.408 177.728 128.668 178.664 129.188 179.328C129.716 179.984 130.488 180.312 131.504 180.312C132.144 180.312 132.692 180.172 133.148 179.892C133.604 179.612 133.952 179.208 134.192 178.68L137.456 179.616C136.968 180.8 136.196 181.72 135.14 182.376C134.092 183.032 132.944 183.36 131.696 183.36ZM127.4 177.432V175.008H135.992V177.432H127.4ZM148.05 183C147.154 183.168 146.274 183.24 145.41 183.216C144.554 183.2 143.786 183.052 143.106 182.772C142.434 182.484 141.922 182.024 141.57 181.392C141.25 180.8 141.082 180.2 141.066 179.592C141.05 178.976 141.042 178.28 141.042 177.504V166.44H144.306V177.312C144.306 177.816 144.31 178.272 144.318 178.68C144.334 179.08 144.418 179.4 144.57 179.64C144.858 180.096 145.318 180.344 145.95 180.384C146.582 180.424 147.282 180.392 148.05 180.288V183ZM138.834 172.56V170.04H148.05V172.56H138.834ZM155.762 183.384C154.746 183.384 153.918 183.212 153.278 182.868C152.638 182.524 152.138 182.088 151.778 181.56C151.426 181.032 151.174 180.484 151.022 179.916C150.87 179.34 150.778 178.816 150.746 178.344C150.714 177.872 150.698 177.528 150.698 177.312V170.04H154.01V176.16C154.01 176.456 154.026 176.836 154.058 177.3C154.09 177.756 154.19 178.216 154.358 178.68C154.526 179.144 154.798 179.532 155.174 179.844C155.558 180.156 156.098 180.312 156.794 180.312C157.074 180.312 157.374 180.268 157.694 180.18C158.014 180.092 158.314 179.924 158.594 179.676C158.874 179.42 159.102 179.048 159.278 178.56C159.462 178.064 159.554 177.416 159.554 176.616L161.426 177.504C161.426 178.528 161.218 179.488 160.802 180.384C160.386 181.28 159.758 182.004 158.918 182.556C158.086 183.108 157.034 183.384 155.762 183.384ZM159.962 183V178.704H159.554V170.04H162.842V183H159.962ZM172.556 183.36C171.268 183.36 170.192 183.06 169.328 182.46C168.464 181.86 167.812 181.044 167.372 180.012C166.94 178.98 166.724 177.816 166.724 176.52C166.724 175.224 166.94 174.06 167.372 173.028C167.804 171.996 168.44 171.18 169.28 170.58C170.12 169.98 171.156 169.68 172.388 169.68C173.628 169.68 174.708 169.976 175.628 170.568C176.548 171.16 177.26 171.972 177.764 173.004C178.276 174.028 178.532 175.2 178.532 176.52C178.532 177.816 178.28 178.98 177.776 180.012C177.28 181.044 176.584 181.86 175.688 182.46C174.792 183.06 173.748 183.36 172.556 183.36ZM166.172 188.76V170.04H169.052V178.92H169.46V188.76H166.172ZM172.028 180.456C172.732 180.456 173.308 180.28 173.756 179.928C174.204 179.576 174.536 179.104 174.752 178.512C174.968 177.912 175.076 177.248 175.076 176.52C175.076 175.8 174.964 175.144 174.74 174.552C174.516 173.952 174.168 173.476 173.696 173.124C173.232 172.764 172.636 172.584 171.908 172.584C171.228 172.584 170.676 172.748 170.252 173.076C169.836 173.404 169.532 173.864 169.34 174.456C169.148 175.048 169.052 175.736 169.052 176.52C169.052 177.304 169.148 177.992 169.34 178.584C169.532 179.176 169.844 179.636 170.276 179.964C170.716 180.292 171.3 180.456 172.028 180.456Z" fill="white"/>
<line x1="20" y1="202.796" x2="182.049" y2="202.796" stroke="#EDEEFF" stroke-width="0.407326"/>
<path d="M29.0088 228.581C29.0088 229.343 28.8184 229.993 28.4375 230.532C28.0625 231.065 27.5352 231.473 26.8555 231.754C26.1758 232.035 25.376 232.176 24.4561 232.176C23.9697 232.176 23.5098 232.152 23.0762 232.105C22.6426 232.059 22.2441 231.991 21.8809 231.903C21.5176 231.815 21.1982 231.707 20.9229 231.578V230.146C21.3623 230.327 21.8984 230.497 22.5312 230.655C23.1641 230.808 23.8262 230.884 24.5176 230.884C25.1621 230.884 25.707 230.799 26.1523 230.629C26.5977 230.453 26.9346 230.204 27.1631 229.882C27.3975 229.554 27.5146 229.161 27.5146 228.704C27.5146 228.265 27.418 227.898 27.2246 227.605C27.0312 227.307 26.709 227.037 26.2578 226.797C25.8125 226.551 25.2031 226.29 24.4297 226.015C23.8848 225.821 23.4043 225.61 22.9883 225.382C22.5723 225.147 22.2236 224.884 21.9424 224.591C21.6611 224.298 21.4473 223.958 21.3008 223.571C21.1602 223.185 21.0898 222.742 21.0898 222.244C21.0898 221.559 21.2627 220.973 21.6084 220.486C21.96 219.994 22.4434 219.619 23.0586 219.361C23.6797 219.098 24.3916 218.966 25.1943 218.966C25.8799 218.966 26.5127 219.03 27.0928 219.159C27.6787 219.288 28.2148 219.461 28.7012 219.678L28.2354 220.961C27.7725 220.768 27.2803 220.606 26.7588 220.478C26.2432 220.349 25.71 220.284 25.1592 220.284C24.6084 220.284 24.1426 220.366 23.7617 220.53C23.3867 220.688 23.0996 220.914 22.9004 221.207C22.7012 221.5 22.6016 221.849 22.6016 222.253C22.6016 222.704 22.6953 223.079 22.8828 223.378C23.0762 223.677 23.3809 223.943 23.7969 224.178C24.2188 224.406 24.7754 224.646 25.4668 224.898C26.2227 225.174 26.8643 225.467 27.3916 225.777C27.9189 226.082 28.3203 226.457 28.5957 226.902C28.8711 227.342 29.0088 227.901 29.0088 228.581ZM34.5283 230.98C34.7686 230.98 35.0146 230.96 35.2666 230.919C35.5186 230.878 35.7236 230.828 35.8818 230.77V231.903C35.7119 231.979 35.4746 232.044 35.1699 232.097C34.8711 232.149 34.5781 232.176 34.291 232.176C33.7812 232.176 33.3184 232.088 32.9023 231.912C32.4863 231.73 32.1523 231.426 31.9004 230.998C31.6543 230.57 31.5312 229.979 31.5312 229.223V223.51H30.1602V222.798L31.54 222.227L32.1201 220.135H32.999V222.367H35.8203V223.51H32.999V229.179C32.999 229.782 33.1367 230.233 33.4121 230.532C33.6934 230.831 34.0654 230.98 34.5283 230.98ZM41.4365 222.209C42.585 222.209 43.4375 222.467 43.9941 222.982C44.5508 223.498 44.8291 224.321 44.8291 225.452V232H43.7656L43.4844 230.576H43.4141C43.1445 230.928 42.8633 231.224 42.5703 231.464C42.2773 231.698 41.9375 231.877 41.5508 232C41.1699 232.117 40.7012 232.176 40.1445 232.176C39.5586 232.176 39.0371 232.073 38.5801 231.868C38.1289 231.663 37.7715 231.353 37.5078 230.937C37.25 230.521 37.1211 229.993 37.1211 229.354C37.1211 228.394 37.502 227.655 38.2637 227.14C39.0254 226.624 40.1855 226.343 41.7441 226.296L43.4053 226.226V225.637C43.4053 224.805 43.2266 224.222 42.8691 223.888C42.5117 223.554 42.0078 223.387 41.3574 223.387C40.8535 223.387 40.373 223.46 39.916 223.606C39.459 223.753 39.0254 223.926 38.6152 224.125L38.167 223.018C38.6006 222.795 39.0986 222.604 39.6611 222.446C40.2236 222.288 40.8154 222.209 41.4365 222.209ZM43.3877 227.254L41.9199 227.315C40.7188 227.362 39.8721 227.559 39.3799 227.904C38.8877 228.25 38.6416 228.739 38.6416 229.372C38.6416 229.923 38.8086 230.33 39.1426 230.594C39.4766 230.857 39.9189 230.989 40.4697 230.989C41.3252 230.989 42.0254 230.752 42.5703 230.277C43.1152 229.803 43.3877 229.091 43.3877 228.142V227.254ZM52.2119 222.191C52.4053 222.191 52.6074 222.203 52.8184 222.227C53.0293 222.244 53.2168 222.271 53.3809 222.306L53.1963 223.659C53.0381 223.618 52.8623 223.586 52.6689 223.562C52.4756 223.539 52.2939 223.527 52.124 223.527C51.7373 223.527 51.3711 223.606 51.0254 223.765C50.6855 223.917 50.3867 224.14 50.1289 224.433C49.8711 224.72 49.6689 225.068 49.5225 225.479C49.376 225.883 49.3027 226.334 49.3027 226.832V232H47.835V222.367H49.0479L49.2061 224.143H49.2676C49.4668 223.785 49.707 223.46 49.9883 223.167C50.2695 222.868 50.5947 222.631 50.9639 222.455C51.3389 222.279 51.7549 222.191 52.2119 222.191ZM58.3115 230.98C58.5518 230.98 58.7979 230.96 59.0498 230.919C59.3018 230.878 59.5068 230.828 59.665 230.77V231.903C59.4951 231.979 59.2578 232.044 58.9531 232.097C58.6543 232.149 58.3613 232.176 58.0742 232.176C57.5645 232.176 57.1016 232.088 56.6855 231.912C56.2695 231.73 55.9355 231.426 55.6836 230.998C55.4375 230.57 55.3145 229.979 55.3145 229.223V223.51H53.9434V222.798L55.3232 222.227L55.9033 220.135H56.7822V222.367H59.6035V223.51H56.7822V229.179C56.7822 229.782 56.9199 230.233 57.1953 230.532C57.4766 230.831 57.8486 230.98 58.3115 230.98ZM72.5234 229.363C72.5234 229.979 72.3682 230.497 72.0576 230.919C71.7529 231.335 71.3135 231.648 70.7393 231.859C70.1709 232.07 69.4912 232.176 68.7002 232.176C68.0264 232.176 67.4434 232.123 66.9512 232.018C66.459 231.912 66.0283 231.763 65.6592 231.569V230.225C66.0518 230.418 66.5205 230.594 67.0654 230.752C67.6104 230.91 68.167 230.989 68.7354 230.989C69.5674 230.989 70.1709 230.854 70.5459 230.585C70.9209 230.315 71.1084 229.949 71.1084 229.486C71.1084 229.223 71.0322 228.991 70.8799 228.792C70.7334 228.587 70.4844 228.391 70.1328 228.203C69.7812 228.01 69.2949 227.799 68.6738 227.57C68.0586 227.336 67.5254 227.104 67.0742 226.876C66.6289 226.642 66.2832 226.357 66.0371 226.023C65.7969 225.689 65.6768 225.256 65.6768 224.723C65.6768 223.908 66.0049 223.284 66.6611 222.851C67.3232 222.411 68.1904 222.191 69.2627 222.191C69.8428 222.191 70.3848 222.25 70.8887 222.367C71.3984 222.479 71.873 222.631 72.3125 222.824L71.8203 223.993C71.4219 223.823 70.9971 223.68 70.5459 223.562C70.0947 223.445 69.6348 223.387 69.166 223.387C68.4922 223.387 67.9736 223.498 67.6104 223.721C67.2529 223.943 67.0742 224.248 67.0742 224.635C67.0742 224.934 67.1562 225.18 67.3203 225.373C67.4902 225.566 67.7598 225.748 68.1289 225.918C68.498 226.088 68.9844 226.287 69.5879 226.516C70.1914 226.738 70.7129 226.97 71.1523 227.21C71.5918 227.444 71.9287 227.731 72.1631 228.071C72.4033 228.405 72.5234 228.836 72.5234 229.363ZM76.3291 222.367V232H74.8701V222.367H76.3291ZM75.6172 218.764C75.8574 218.764 76.0625 218.843 76.2324 219.001C76.4082 219.153 76.4961 219.394 76.4961 219.722C76.4961 220.044 76.4082 220.284 76.2324 220.442C76.0625 220.601 75.8574 220.68 75.6172 220.68C75.3652 220.68 75.1543 220.601 74.9844 220.442C74.8203 220.284 74.7383 220.044 74.7383 219.722C74.7383 219.394 74.8203 219.153 74.9844 219.001C75.1543 218.843 75.3652 218.764 75.6172 218.764ZM82.1123 236.324C80.8467 236.324 79.8711 236.087 79.1855 235.612C78.5 235.144 78.1572 234.484 78.1572 233.635C78.1572 233.031 78.3477 232.516 78.7285 232.088C79.1152 231.66 79.6484 231.376 80.3281 231.235C80.0762 231.118 79.8594 230.942 79.6777 230.708C79.502 230.474 79.4141 230.204 79.4141 229.899C79.4141 229.548 79.5107 229.24 79.7041 228.977C79.9033 228.707 80.2051 228.449 80.6094 228.203C80.1055 227.998 79.6953 227.652 79.3789 227.166C79.0684 226.674 78.9131 226.103 78.9131 225.452C78.9131 224.761 79.0566 224.172 79.3438 223.686C79.6309 223.193 80.0469 222.818 80.5918 222.561C81.1367 222.303 81.7959 222.174 82.5693 222.174C82.7393 222.174 82.9092 222.183 83.0791 222.2C83.2549 222.212 83.4219 222.232 83.5801 222.262C83.7383 222.285 83.876 222.314 83.9932 222.35H87.2979V223.29L85.5225 223.51C85.6982 223.738 85.8447 224.014 85.9619 224.336C86.0791 224.658 86.1377 225.016 86.1377 225.408C86.1377 226.369 85.8125 227.134 85.1621 227.702C84.5117 228.265 83.6182 228.546 82.4814 228.546C82.2119 228.546 81.9365 228.522 81.6553 228.476C81.3682 228.634 81.1484 228.81 80.9961 229.003C80.8496 229.196 80.7764 229.419 80.7764 229.671C80.7764 229.858 80.832 230.008 80.9434 230.119C81.0605 230.23 81.2275 230.312 81.4443 230.365C81.6611 230.412 81.9219 230.436 82.2266 230.436H83.9229C84.9717 230.436 85.7744 230.655 86.3311 231.095C86.8936 231.534 87.1748 232.176 87.1748 233.02C87.1748 234.086 86.7412 234.903 85.874 235.472C85.0068 236.04 83.7529 236.324 82.1123 236.324ZM82.1562 235.182C82.9531 235.182 83.6123 235.1 84.1338 234.936C84.6611 234.777 85.0537 234.546 85.3115 234.241C85.5752 233.942 85.707 233.585 85.707 233.169C85.707 232.782 85.6191 232.489 85.4434 232.29C85.2676 232.097 85.0098 231.968 84.6699 231.903C84.3301 231.833 83.9141 231.798 83.4219 231.798H81.752C81.3184 231.798 80.9404 231.865 80.6182 232C80.2959 232.135 80.0469 232.334 79.8711 232.598C79.7012 232.861 79.6162 233.189 79.6162 233.582C79.6162 234.104 79.8359 234.499 80.2754 234.769C80.7148 235.044 81.3418 235.182 82.1562 235.182ZM82.5342 227.482C83.2314 227.482 83.7559 227.307 84.1074 226.955C84.459 226.604 84.6348 226.091 84.6348 225.417C84.6348 224.696 84.4561 224.157 84.0986 223.8C83.7412 223.437 83.2139 223.255 82.5166 223.255C81.8486 223.255 81.333 223.442 80.9697 223.817C80.6123 224.187 80.4336 224.729 80.4336 225.443C80.4336 226.1 80.6152 226.604 80.9785 226.955C81.3418 227.307 81.8604 227.482 82.5342 227.482ZM93.7578 222.191C94.9004 222.191 95.7646 222.473 96.3506 223.035C96.9365 223.592 97.2295 224.488 97.2295 225.725V232H95.7881V225.821C95.7881 225.019 95.6035 224.418 95.2344 224.02C94.8711 223.621 94.3115 223.422 93.5557 223.422C92.4893 223.422 91.7393 223.724 91.3057 224.327C90.8721 224.931 90.6553 225.807 90.6553 226.955V232H89.1963V222.367H90.374L90.5938 223.756H90.6729C90.8779 223.416 91.1387 223.132 91.4551 222.903C91.7715 222.669 92.126 222.493 92.5186 222.376C92.9111 222.253 93.3242 222.191 93.7578 222.191ZM101.694 222.367V232H100.235V222.367H101.694ZM100.982 218.764C101.223 218.764 101.428 218.843 101.598 219.001C101.773 219.153 101.861 219.394 101.861 219.722C101.861 220.044 101.773 220.284 101.598 220.442C101.428 220.601 101.223 220.68 100.982 220.68C100.73 220.68 100.52 220.601 100.35 220.442C100.186 220.284 100.104 220.044 100.104 219.722C100.104 219.394 100.186 219.153 100.35 219.001C100.52 218.843 100.73 218.764 100.982 218.764ZM109.35 222.191C110.492 222.191 111.356 222.473 111.942 223.035C112.528 223.592 112.821 224.488 112.821 225.725V232H111.38V225.821C111.38 225.019 111.195 224.418 110.826 224.02C110.463 223.621 109.903 223.422 109.147 223.422C108.081 223.422 107.331 223.724 106.897 224.327C106.464 224.931 106.247 225.807 106.247 226.955V232H104.788V222.367H105.966L106.186 223.756H106.265C106.47 223.416 106.73 223.132 107.047 222.903C107.363 222.669 107.718 222.493 108.11 222.376C108.503 222.253 108.916 222.191 109.35 222.191ZM118.517 236.324C117.251 236.324 116.275 236.087 115.59 235.612C114.904 235.144 114.562 234.484 114.562 233.635C114.562 233.031 114.752 232.516 115.133 232.088C115.52 231.66 116.053 231.376 116.732 231.235C116.48 231.118 116.264 230.942 116.082 230.708C115.906 230.474 115.818 230.204 115.818 229.899C115.818 229.548 115.915 229.24 116.108 228.977C116.308 228.707 116.609 228.449 117.014 228.203C116.51 227.998 116.1 227.652 115.783 227.166C115.473 226.674 115.317 226.103 115.317 225.452C115.317 224.761 115.461 224.172 115.748 223.686C116.035 223.193 116.451 222.818 116.996 222.561C117.541 222.303 118.2 222.174 118.974 222.174C119.144 222.174 119.313 222.183 119.483 222.2C119.659 222.212 119.826 222.232 119.984 222.262C120.143 222.285 120.28 222.314 120.397 222.35H123.702V223.29L121.927 223.51C122.103 223.738 122.249 224.014 122.366 224.336C122.483 224.658 122.542 225.016 122.542 225.408C122.542 226.369 122.217 227.134 121.566 227.702C120.916 228.265 120.022 228.546 118.886 228.546C118.616 228.546 118.341 228.522 118.06 228.476C117.772 228.634 117.553 228.81 117.4 229.003C117.254 229.196 117.181 229.419 117.181 229.671C117.181 229.858 117.236 230.008 117.348 230.119C117.465 230.23 117.632 230.312 117.849 230.365C118.065 230.412 118.326 230.436 118.631 230.436H120.327C121.376 230.436 122.179 230.655 122.735 231.095C123.298 231.534 123.579 232.176 123.579 233.02C123.579 234.086 123.146 234.903 122.278 235.472C121.411 236.04 120.157 236.324 118.517 236.324ZM118.561 235.182C119.357 235.182 120.017 235.1 120.538 234.936C121.065 234.777 121.458 234.546 121.716 234.241C121.979 233.942 122.111 233.585 122.111 233.169C122.111 232.782 122.023 232.489 121.848 232.29C121.672 232.097 121.414 231.968 121.074 231.903C120.734 231.833 120.318 231.798 119.826 231.798H118.156C117.723 231.798 117.345 231.865 117.022 232C116.7 232.135 116.451 232.334 116.275 232.598C116.105 232.861 116.021 233.189 116.021 233.582C116.021 234.104 116.24 234.499 116.68 234.769C117.119 235.044 117.746 235.182 118.561 235.182ZM118.938 227.482C119.636 227.482 120.16 227.307 120.512 226.955C120.863 226.604 121.039 226.091 121.039 225.417C121.039 224.696 120.86 224.157 120.503 223.8C120.146 223.437 119.618 223.255 118.921 223.255C118.253 223.255 117.737 223.442 117.374 223.817C117.017 224.187 116.838 224.729 116.838 225.443C116.838 226.1 117.02 226.604 117.383 226.955C117.746 227.307 118.265 227.482 118.938 227.482ZM133.704 232.176C132.485 232.176 131.519 231.76 130.804 230.928C130.095 230.096 129.74 228.859 129.74 227.219C129.74 225.561 130.104 224.31 130.83 223.466C131.557 222.616 132.523 222.191 133.73 222.191C134.24 222.191 134.686 222.259 135.066 222.394C135.447 222.528 135.775 222.71 136.051 222.938C136.326 223.161 136.558 223.416 136.745 223.703H136.851C136.827 223.521 136.804 223.272 136.78 222.956C136.757 222.64 136.745 222.382 136.745 222.183V218.324H138.204V232H137.026L136.807 230.629H136.745C136.563 230.916 136.332 231.177 136.051 231.411C135.775 231.646 135.444 231.833 135.058 231.974C134.677 232.108 134.226 232.176 133.704 232.176ZM133.933 230.963C134.964 230.963 135.693 230.67 136.121 230.084C136.549 229.498 136.763 228.628 136.763 227.474V227.21C136.763 225.985 136.558 225.045 136.147 224.389C135.743 223.732 135.005 223.404 133.933 223.404C133.036 223.404 132.365 223.75 131.92 224.441C131.475 225.127 131.252 226.064 131.252 227.254C131.252 228.438 131.472 229.352 131.911 229.996C132.356 230.641 133.03 230.963 133.933 230.963ZM149.604 227.166C149.604 227.957 149.501 228.663 149.296 229.284C149.091 229.905 148.795 230.43 148.408 230.857C148.021 231.285 147.553 231.613 147.002 231.842C146.457 232.064 145.839 232.176 145.147 232.176C144.503 232.176 143.911 232.064 143.372 231.842C142.839 231.613 142.376 231.285 141.983 230.857C141.597 230.43 141.295 229.905 141.078 229.284C140.867 228.663 140.762 227.957 140.762 227.166C140.762 226.111 140.94 225.215 141.298 224.477C141.655 223.732 142.165 223.167 142.827 222.78C143.495 222.388 144.289 222.191 145.209 222.191C146.088 222.191 146.855 222.388 147.512 222.78C148.174 223.173 148.687 223.741 149.05 224.485C149.419 225.224 149.604 226.117 149.604 227.166ZM142.273 227.166C142.273 227.939 142.376 228.61 142.581 229.179C142.786 229.747 143.103 230.187 143.53 230.497C143.958 230.808 144.509 230.963 145.183 230.963C145.851 230.963 146.398 230.808 146.826 230.497C147.26 230.187 147.579 229.747 147.784 229.179C147.989 228.61 148.092 227.939 148.092 227.166C148.092 226.398 147.989 225.736 147.784 225.18C147.579 224.617 147.263 224.184 146.835 223.879C146.407 223.574 145.854 223.422 145.174 223.422C144.172 223.422 143.437 223.753 142.968 224.415C142.505 225.077 142.273 225.994 142.273 227.166ZM155.984 232.176C155.117 232.176 154.353 231.997 153.69 231.64C153.028 231.282 152.513 230.737 152.144 230.005C151.774 229.272 151.59 228.35 151.59 227.236C151.59 226.07 151.783 225.118 152.17 224.38C152.562 223.636 153.102 223.085 153.787 222.728C154.473 222.37 155.252 222.191 156.125 222.191C156.605 222.191 157.068 222.241 157.514 222.341C157.965 222.435 158.334 222.555 158.621 222.701L158.182 223.923C157.889 223.806 157.549 223.7 157.162 223.606C156.781 223.513 156.424 223.466 156.09 223.466C155.422 223.466 154.865 223.609 154.42 223.896C153.98 224.184 153.649 224.605 153.427 225.162C153.21 225.719 153.102 226.404 153.102 227.219C153.102 227.998 153.207 228.663 153.418 229.214C153.635 229.765 153.954 230.187 154.376 230.479C154.804 230.767 155.337 230.91 155.976 230.91C156.485 230.91 156.945 230.857 157.355 230.752C157.766 230.641 158.138 230.512 158.472 230.365V231.666C158.149 231.83 157.789 231.956 157.391 232.044C156.998 232.132 156.529 232.176 155.984 232.176ZM168.711 222.367V232H167.516L167.305 230.646H167.226C167.026 230.98 166.769 231.262 166.452 231.49C166.136 231.719 165.778 231.889 165.38 232C164.987 232.117 164.568 232.176 164.123 232.176C163.361 232.176 162.723 232.053 162.207 231.807C161.691 231.561 161.302 231.18 161.038 230.664C160.78 230.148 160.651 229.486 160.651 228.678V222.367H162.128V228.572C162.128 229.375 162.31 229.976 162.673 230.374C163.036 230.767 163.59 230.963 164.334 230.963C165.049 230.963 165.617 230.828 166.039 230.559C166.467 230.289 166.774 229.894 166.962 229.372C167.149 228.845 167.243 228.2 167.243 227.438V222.367H168.711ZM182.255 222.191C183.315 222.191 184.115 222.47 184.654 223.026C185.193 223.577 185.463 224.465 185.463 225.689V232H184.021V225.76C184.021 224.98 183.852 224.397 183.512 224.011C183.178 223.618 182.68 223.422 182.018 223.422C181.086 223.422 180.409 223.691 179.987 224.23C179.565 224.77 179.354 225.563 179.354 226.612V232H177.904V225.76C177.904 225.238 177.828 224.805 177.676 224.459C177.529 224.113 177.307 223.855 177.008 223.686C176.715 223.51 176.343 223.422 175.892 223.422C175.253 223.422 174.74 223.554 174.354 223.817C173.967 224.081 173.686 224.474 173.51 224.995C173.34 225.511 173.255 226.146 173.255 226.902V232H171.796V222.367H172.974L173.193 223.729H173.272C173.466 223.396 173.709 223.114 174.002 222.886C174.295 222.657 174.623 222.484 174.986 222.367C175.35 222.25 175.736 222.191 176.146 222.191C176.879 222.191 177.491 222.329 177.983 222.604C178.481 222.874 178.842 223.287 179.064 223.844H179.144C179.46 223.287 179.894 222.874 180.444 222.604C180.995 222.329 181.599 222.191 182.255 222.191ZM192.169 222.191C192.989 222.191 193.692 222.373 194.278 222.736C194.864 223.1 195.312 223.609 195.623 224.266C195.934 224.916 196.089 225.678 196.089 226.551V227.456H189.436C189.453 228.587 189.734 229.448 190.279 230.04C190.824 230.632 191.592 230.928 192.582 230.928C193.191 230.928 193.73 230.872 194.199 230.761C194.668 230.649 195.154 230.485 195.658 230.269V231.552C195.172 231.769 194.688 231.927 194.208 232.026C193.733 232.126 193.171 232.176 192.521 232.176C191.595 232.176 190.786 231.988 190.095 231.613C189.409 231.232 188.876 230.676 188.495 229.943C188.114 229.211 187.924 228.314 187.924 227.254C187.924 226.217 188.097 225.32 188.442 224.564C188.794 223.803 189.286 223.217 189.919 222.807C190.558 222.396 191.308 222.191 192.169 222.191ZM192.151 223.387C191.372 223.387 190.751 223.642 190.288 224.151C189.825 224.661 189.55 225.373 189.462 226.287H194.56C194.554 225.713 194.463 225.209 194.287 224.775C194.117 224.336 193.856 223.996 193.505 223.756C193.153 223.51 192.702 223.387 192.151 223.387ZM203.129 222.191C204.271 222.191 205.136 222.473 205.722 223.035C206.308 223.592 206.601 224.488 206.601 225.725V232H205.159V225.821C205.159 225.019 204.975 224.418 204.605 224.02C204.242 223.621 203.683 223.422 202.927 223.422C201.86 223.422 201.11 223.724 200.677 224.327C200.243 224.931 200.026 225.807 200.026 226.955V232H198.567V222.367H199.745L199.965 223.756H200.044C200.249 223.416 200.51 223.132 200.826 222.903C201.143 222.669 201.497 222.493 201.89 222.376C202.282 222.253 202.695 222.191 203.129 222.191ZM212.718 230.98C212.958 230.98 213.204 230.96 213.456 230.919C213.708 230.878 213.913 230.828 214.071 230.77V231.903C213.901 231.979 213.664 232.044 213.359 232.097C213.061 232.149 212.768 232.176 212.48 232.176C211.971 232.176 211.508 232.088 211.092 231.912C210.676 231.73 210.342 231.426 210.09 230.998C209.844 230.57 209.721 229.979 209.721 229.223V223.51H208.35V222.798L209.729 222.227L210.31 220.135H211.188V222.367H214.01V223.51H211.188V229.179C211.188 229.782 211.326 230.233 211.602 230.532C211.883 230.831 212.255 230.98 212.718 230.98ZM222.254 229.363C222.254 229.979 222.099 230.497 221.788 230.919C221.483 231.335 221.044 231.648 220.47 231.859C219.901 232.07 219.222 232.176 218.431 232.176C217.757 232.176 217.174 232.123 216.682 232.018C216.189 231.912 215.759 231.763 215.39 231.569V230.225C215.782 230.418 216.251 230.594 216.796 230.752C217.341 230.91 217.897 230.989 218.466 230.989C219.298 230.989 219.901 230.854 220.276 230.585C220.651 230.315 220.839 229.949 220.839 229.486C220.839 229.223 220.763 228.991 220.61 228.792C220.464 228.587 220.215 228.391 219.863 228.203C219.512 228.01 219.025 227.799 218.404 227.57C217.789 227.336 217.256 227.104 216.805 226.876C216.359 226.642 216.014 226.357 215.768 226.023C215.527 225.689 215.407 225.256 215.407 224.723C215.407 223.908 215.735 223.284 216.392 222.851C217.054 222.411 217.921 222.191 218.993 222.191C219.573 222.191 220.115 222.25 220.619 222.367C221.129 222.479 221.604 222.631 222.043 222.824L221.551 223.993C221.152 223.823 220.728 223.68 220.276 223.562C219.825 223.445 219.365 223.387 218.896 223.387C218.223 223.387 217.704 223.498 217.341 223.721C216.983 223.943 216.805 224.248 216.805 224.635C216.805 224.934 216.887 225.18 217.051 225.373C217.221 225.566 217.49 225.748 217.859 225.918C218.229 226.088 218.715 226.287 219.318 226.516C219.922 226.738 220.443 226.97 220.883 227.21C221.322 227.444 221.659 227.731 221.894 228.071C222.134 228.405 222.254 228.836 222.254 229.363ZM232.388 230.98C232.628 230.98 232.874 230.96 233.126 230.919C233.378 230.878 233.583 230.828 233.741 230.77V231.903C233.571 231.979 233.334 232.044 233.029 232.097C232.73 232.149 232.438 232.176 232.15 232.176C231.641 232.176 231.178 232.088 230.762 231.912C230.346 231.73 230.012 231.426 229.76 230.998C229.514 230.57 229.391 229.979 229.391 229.223V223.51H228.02V222.798L229.399 222.227L229.979 220.135H230.858V222.367H233.68V223.51H230.858V229.179C230.858 229.782 230.996 230.233 231.271 230.532C231.553 230.831 231.925 230.98 232.388 230.98ZM237.151 218.324V222.411C237.151 222.646 237.146 222.883 237.134 223.123C237.122 223.357 237.102 223.574 237.072 223.773H237.169C237.368 223.434 237.62 223.149 237.925 222.921C238.235 222.687 238.587 222.511 238.979 222.394C239.372 222.271 239.788 222.209 240.228 222.209C241.001 222.209 241.646 222.332 242.161 222.578C242.683 222.824 243.072 223.205 243.33 223.721C243.594 224.236 243.726 224.904 243.726 225.725V232H242.284V225.821C242.284 225.019 242.1 224.418 241.73 224.02C241.367 223.621 240.808 223.422 240.052 223.422C239.337 223.422 238.766 223.56 238.338 223.835C237.916 224.104 237.611 224.503 237.424 225.03C237.242 225.558 237.151 226.202 237.151 226.964V232H235.692V218.324H237.151ZM250.44 222.191C251.261 222.191 251.964 222.373 252.55 222.736C253.136 223.1 253.584 223.609 253.895 224.266C254.205 224.916 254.36 225.678 254.36 226.551V227.456H247.707C247.725 228.587 248.006 229.448 248.551 230.04C249.096 230.632 249.863 230.928 250.854 230.928C251.463 230.928 252.002 230.872 252.471 230.761C252.939 230.649 253.426 230.485 253.93 230.269V231.552C253.443 231.769 252.96 231.927 252.479 232.026C252.005 232.126 251.442 232.176 250.792 232.176C249.866 232.176 249.058 231.988 248.366 231.613C247.681 231.232 247.147 230.676 246.767 229.943C246.386 229.211 246.195 228.314 246.195 227.254C246.195 226.217 246.368 225.32 246.714 224.564C247.065 223.803 247.558 223.217 248.19 222.807C248.829 222.396 249.579 222.191 250.44 222.191ZM250.423 223.387C249.644 223.387 249.022 223.642 248.56 224.151C248.097 224.661 247.821 225.373 247.733 226.287H252.831C252.825 225.713 252.734 225.209 252.559 224.775C252.389 224.336 252.128 223.996 251.776 223.756C251.425 223.51 250.974 223.387 250.423 223.387ZM267.746 229.363C267.746 229.979 267.591 230.497 267.28 230.919C266.976 231.335 266.536 231.648 265.962 231.859C265.394 232.07 264.714 232.176 263.923 232.176C263.249 232.176 262.666 232.123 262.174 232.018C261.682 231.912 261.251 231.763 260.882 231.569V230.225C261.274 230.418 261.743 230.594 262.288 230.752C262.833 230.91 263.39 230.989 263.958 230.989C264.79 230.989 265.394 230.854 265.769 230.585C266.144 230.315 266.331 229.949 266.331 229.486C266.331 229.223 266.255 228.991 266.103 228.792C265.956 228.587 265.707 228.391 265.355 228.203C265.004 228.01 264.518 227.799 263.896 227.57C263.281 227.336 262.748 227.104 262.297 226.876C261.852 226.642 261.506 226.357 261.26 226.023C261.02 225.689 260.899 225.256 260.899 224.723C260.899 223.908 261.228 223.284 261.884 222.851C262.546 222.411 263.413 222.191 264.485 222.191C265.065 222.191 265.607 222.25 266.111 222.367C266.621 222.479 267.096 222.631 267.535 222.824L267.043 223.993C266.645 223.823 266.22 223.68 265.769 223.562C265.317 223.445 264.857 223.387 264.389 223.387C263.715 223.387 263.196 223.498 262.833 223.721C262.476 223.943 262.297 224.248 262.297 224.635C262.297 224.934 262.379 225.18 262.543 225.373C262.713 225.566 262.982 225.748 263.352 225.918C263.721 226.088 264.207 226.287 264.811 226.516C265.414 226.738 265.936 226.97 266.375 227.21C266.814 227.444 267.151 227.731 267.386 228.071C267.626 228.405 267.746 228.836 267.746 229.363ZM273.696 222.209C274.845 222.209 275.697 222.467 276.254 222.982C276.811 223.498 277.089 224.321 277.089 225.452V232H276.025L275.744 230.576H275.674C275.404 230.928 275.123 231.224 274.83 231.464C274.537 231.698 274.197 231.877 273.811 232C273.43 232.117 272.961 232.176 272.404 232.176C271.818 232.176 271.297 232.073 270.84 231.868C270.389 231.663 270.031 231.353 269.768 230.937C269.51 230.521 269.381 229.993 269.381 229.354C269.381 228.394 269.762 227.655 270.523 227.14C271.285 226.624 272.445 226.343 274.004 226.296L275.665 226.226V225.637C275.665 224.805 275.486 224.222 275.129 223.888C274.771 223.554 274.268 223.387 273.617 223.387C273.113 223.387 272.633 223.46 272.176 223.606C271.719 223.753 271.285 223.926 270.875 224.125L270.427 223.018C270.86 222.795 271.358 222.604 271.921 222.446C272.483 222.288 273.075 222.209 273.696 222.209ZM275.647 227.254L274.18 227.315C272.979 227.362 272.132 227.559 271.64 227.904C271.147 228.25 270.901 228.739 270.901 229.372C270.901 229.923 271.068 230.33 271.402 230.594C271.736 230.857 272.179 230.989 272.729 230.989C273.585 230.989 274.285 230.752 274.83 230.277C275.375 229.803 275.647 229.091 275.647 228.142V227.254ZM290.554 222.191C291.614 222.191 292.414 222.47 292.953 223.026C293.492 223.577 293.762 224.465 293.762 225.689V232H292.32V225.76C292.32 224.98 292.15 224.397 291.811 224.011C291.477 223.618 290.979 223.422 290.316 223.422C289.385 223.422 288.708 223.691 288.286 224.23C287.864 224.77 287.653 225.563 287.653 226.612V232H286.203V225.76C286.203 225.238 286.127 224.805 285.975 224.459C285.828 224.113 285.605 223.855 285.307 223.686C285.014 223.51 284.642 223.422 284.19 223.422C283.552 223.422 283.039 223.554 282.652 223.817C282.266 224.081 281.984 224.474 281.809 224.995C281.639 225.511 281.554 226.146 281.554 226.902V232H280.095V222.367H281.272L281.492 223.729H281.571C281.765 223.396 282.008 223.114 282.301 222.886C282.594 222.657 282.922 222.484 283.285 222.367C283.648 222.25 284.035 222.191 284.445 222.191C285.178 222.191 285.79 222.329 286.282 222.604C286.78 222.874 287.141 223.287 287.363 223.844H287.442C287.759 223.287 288.192 222.874 288.743 222.604C289.294 222.329 289.897 222.191 290.554 222.191ZM300.468 222.191C301.288 222.191 301.991 222.373 302.577 222.736C303.163 223.1 303.611 223.609 303.922 224.266C304.232 224.916 304.388 225.678 304.388 226.551V227.456H297.734C297.752 228.587 298.033 229.448 298.578 230.04C299.123 230.632 299.891 230.928 300.881 230.928C301.49 230.928 302.029 230.872 302.498 230.761C302.967 230.649 303.453 230.485 303.957 230.269V231.552C303.471 231.769 302.987 231.927 302.507 232.026C302.032 232.126 301.47 232.176 300.819 232.176C299.894 232.176 299.085 231.988 298.394 231.613C297.708 231.232 297.175 230.676 296.794 229.943C296.413 229.211 296.223 228.314 296.223 227.254C296.223 226.217 296.396 225.32 296.741 224.564C297.093 223.803 297.585 223.217 298.218 222.807C298.856 222.396 299.606 222.191 300.468 222.191ZM300.45 223.387C299.671 223.387 299.05 223.642 298.587 224.151C298.124 224.661 297.849 225.373 297.761 226.287H302.858C302.853 225.713 302.762 225.209 302.586 224.775C302.416 224.336 302.155 223.996 301.804 223.756C301.452 223.51 301.001 223.387 300.45 223.387ZM314.97 232.176C313.751 232.176 312.784 231.76 312.069 230.928C311.36 230.096 311.006 228.859 311.006 227.219C311.006 225.561 311.369 224.31 312.096 223.466C312.822 222.616 313.789 222.191 314.996 222.191C315.506 222.191 315.951 222.259 316.332 222.394C316.713 222.528 317.041 222.71 317.316 222.938C317.592 223.161 317.823 223.416 318.011 223.703H318.116C318.093 223.521 318.069 223.272 318.046 222.956C318.022 222.64 318.011 222.382 318.011 222.183V218.324H319.47V232H318.292L318.072 230.629H318.011C317.829 230.916 317.598 231.177 317.316 231.411C317.041 231.646 316.71 231.833 316.323 231.974C315.942 232.108 315.491 232.176 314.97 232.176ZM315.198 230.963C316.229 230.963 316.959 230.67 317.387 230.084C317.814 229.498 318.028 228.628 318.028 227.474V227.21C318.028 225.985 317.823 225.045 317.413 224.389C317.009 223.732 316.271 223.404 315.198 223.404C314.302 223.404 313.631 223.75 313.186 224.441C312.74 225.127 312.518 226.064 312.518 227.254C312.518 228.438 312.737 229.352 313.177 229.996C313.622 230.641 314.296 230.963 315.198 230.963ZM326.167 222.209C327.315 222.209 328.168 222.467 328.725 222.982C329.281 223.498 329.56 224.321 329.56 225.452V232H328.496L328.215 230.576H328.145C327.875 230.928 327.594 231.224 327.301 231.464C327.008 231.698 326.668 231.877 326.281 232C325.9 232.117 325.432 232.176 324.875 232.176C324.289 232.176 323.768 232.073 323.311 231.868C322.859 231.663 322.502 231.353 322.238 230.937C321.98 230.521 321.852 229.993 321.852 229.354C321.852 228.394 322.232 227.655 322.994 227.14C323.756 226.624 324.916 226.343 326.475 226.296L328.136 226.226V225.637C328.136 224.805 327.957 224.222 327.6 223.888C327.242 223.554 326.738 223.387 326.088 223.387C325.584 223.387 325.104 223.46 324.646 223.606C324.189 223.753 323.756 223.926 323.346 224.125L322.897 223.018C323.331 222.795 323.829 222.604 324.392 222.446C324.954 222.288 325.546 222.209 326.167 222.209ZM328.118 227.254L326.65 227.315C325.449 227.362 324.603 227.559 324.11 227.904C323.618 228.25 323.372 228.739 323.372 229.372C323.372 229.923 323.539 230.33 323.873 230.594C324.207 230.857 324.649 230.989 325.2 230.989C326.056 230.989 326.756 230.752 327.301 230.277C327.846 229.803 328.118 229.091 328.118 228.142V227.254ZM331.045 222.367H332.609L334.736 227.957C334.859 228.285 334.974 228.602 335.079 228.906C335.185 229.205 335.278 229.492 335.36 229.768C335.442 230.043 335.507 230.31 335.554 230.567H335.615C335.697 230.274 335.814 229.891 335.967 229.416C336.119 228.936 336.283 228.446 336.459 227.948L338.472 222.367H340.045L335.853 233.415C335.63 234.007 335.369 234.522 335.07 234.962C334.777 235.401 334.42 235.738 333.998 235.973C333.576 236.213 333.066 236.333 332.469 236.333C332.193 236.333 331.95 236.315 331.739 236.28C331.528 236.251 331.347 236.216 331.194 236.175V235.006C331.323 235.035 331.479 235.062 331.66 235.085C331.848 235.108 332.041 235.12 332.24 235.12C332.604 235.12 332.917 235.05 333.181 234.909C333.45 234.774 333.682 234.575 333.875 234.312C334.068 234.048 334.235 233.734 334.376 233.371L334.903 232.018L331.045 222.367ZM345.441 227.816V226.516H362V227.816H345.441ZM26.0996 243.191C27.2422 243.191 28.1064 243.473 28.6924 244.035C29.2783 244.592 29.5713 245.488 29.5713 246.725V253H28.1299V246.821C28.1299 246.019 27.9453 245.418 27.5762 245.02C27.2129 244.621 26.6533 244.422 25.8975 244.422C24.8311 244.422 24.0811 244.724 23.6475 245.327C23.2139 245.931 22.9971 246.807 22.9971 247.955V253H21.5381V243.367H22.7158L22.9355 244.756H23.0146C23.2197 244.416 23.4805 244.132 23.7969 243.903C24.1133 243.669 24.4678 243.493 24.8604 243.376C25.2529 243.253 25.666 243.191 26.0996 243.191ZM40.8828 248.166C40.8828 248.957 40.7803 249.663 40.5752 250.284C40.3701 250.905 40.0742 251.43 39.6875 251.857C39.3008 252.285 38.832 252.613 38.2812 252.842C37.7363 253.064 37.1182 253.176 36.4268 253.176C35.7822 253.176 35.1904 253.064 34.6514 252.842C34.1182 252.613 33.6553 252.285 33.2627 251.857C32.876 251.43 32.5742 250.905 32.3574 250.284C32.1465 249.663 32.041 248.957 32.041 248.166C32.041 247.111 32.2197 246.215 32.5771 245.477C32.9346 244.732 33.4443 244.167 34.1064 243.78C34.7744 243.388 35.5684 243.191 36.4883 243.191C37.3672 243.191 38.1348 243.388 38.791 243.78C39.4531 244.173 39.9658 244.741 40.3291 245.485C40.6982 246.224 40.8828 247.117 40.8828 248.166ZM33.5527 248.166C33.5527 248.939 33.6553 249.61 33.8604 250.179C34.0654 250.747 34.3818 251.187 34.8096 251.497C35.2373 251.808 35.7881 251.963 36.4619 251.963C37.1299 251.963 37.6777 251.808 38.1055 251.497C38.5391 251.187 38.8584 250.747 39.0635 250.179C39.2686 249.61 39.3711 248.939 39.3711 248.166C39.3711 247.398 39.2686 246.736 39.0635 246.18C38.8584 245.617 38.542 245.184 38.1143 244.879C37.6865 244.574 37.1328 244.422 36.4531 244.422C35.4512 244.422 34.7158 244.753 34.2471 245.415C33.7842 246.077 33.5527 246.994 33.5527 248.166ZM51.9395 253.176C51.0723 253.176 50.3076 252.997 49.6455 252.64C48.9834 252.282 48.4678 251.737 48.0986 251.005C47.7295 250.272 47.5449 249.35 47.5449 248.236C47.5449 247.07 47.7383 246.118 48.125 245.38C48.5176 244.636 49.0566 244.085 49.7422 243.728C50.4277 243.37 51.207 243.191 52.0801 243.191C52.5605 243.191 53.0234 243.241 53.4688 243.341C53.9199 243.435 54.2891 243.555 54.5762 243.701L54.1367 244.923C53.8438 244.806 53.5039 244.7 53.1172 244.606C52.7363 244.513 52.3789 244.466 52.0449 244.466C51.377 244.466 50.8203 244.609 50.375 244.896C49.9355 245.184 49.6045 245.605 49.3818 246.162C49.165 246.719 49.0566 247.404 49.0566 248.219C49.0566 248.998 49.1621 249.663 49.373 250.214C49.5898 250.765 49.9092 251.187 50.3311 251.479C50.7588 251.767 51.292 251.91 51.9307 251.91C52.4404 251.91 52.9004 251.857 53.3105 251.752C53.7207 251.641 54.0928 251.512 54.4268 251.365V252.666C54.1045 252.83 53.7441 252.956 53.3457 253.044C52.9531 253.132 52.4844 253.176 51.9395 253.176ZM65.0176 248.166C65.0176 248.957 64.915 249.663 64.71 250.284C64.5049 250.905 64.209 251.43 63.8223 251.857C63.4355 252.285 62.9668 252.613 62.416 252.842C61.8711 253.064 61.2529 253.176 60.5615 253.176C59.917 253.176 59.3252 253.064 58.7861 252.842C58.2529 252.613 57.79 252.285 57.3975 251.857C57.0107 251.43 56.709 250.905 56.4922 250.284C56.2812 249.663 56.1758 248.957 56.1758 248.166C56.1758 247.111 56.3545 246.215 56.7119 245.477C57.0693 244.732 57.5791 244.167 58.2412 243.78C58.9092 243.388 59.7031 243.191 60.623 243.191C61.502 243.191 62.2695 243.388 62.9258 243.78C63.5879 244.173 64.1006 244.741 64.4639 245.485C64.833 246.224 65.0176 247.117 65.0176 248.166ZM57.6875 248.166C57.6875 248.939 57.79 249.61 57.9951 250.179C58.2002 250.747 58.5166 251.187 58.9443 251.497C59.3721 251.808 59.9229 251.963 60.5967 251.963C61.2646 251.963 61.8125 251.808 62.2402 251.497C62.6738 251.187 62.9932 250.747 63.1982 250.179C63.4033 249.61 63.5059 248.939 63.5059 248.166C63.5059 247.398 63.4033 246.736 63.1982 246.18C62.9932 245.617 62.6768 245.184 62.249 244.879C61.8213 244.574 61.2676 244.422 60.5879 244.422C59.5859 244.422 58.8506 244.753 58.3818 245.415C57.9189 246.077 57.6875 246.994 57.6875 248.166ZM77.999 243.191C79.0596 243.191 79.8594 243.47 80.3984 244.026C80.9375 244.577 81.207 245.465 81.207 246.689V253H79.7656V246.76C79.7656 245.98 79.5957 245.397 79.2559 245.011C78.9219 244.618 78.4238 244.422 77.7617 244.422C76.8301 244.422 76.1533 244.691 75.7314 245.23C75.3096 245.77 75.0986 246.563 75.0986 247.612V253H73.6484V246.76C73.6484 246.238 73.5723 245.805 73.4199 245.459C73.2734 245.113 73.0508 244.855 72.752 244.686C72.459 244.51 72.0869 244.422 71.6357 244.422C70.9971 244.422 70.4844 244.554 70.0977 244.817C69.7109 245.081 69.4297 245.474 69.2539 245.995C69.084 246.511 68.999 247.146 68.999 247.902V253H67.54V243.367H68.7178L68.9375 244.729H69.0166C69.21 244.396 69.4531 244.114 69.7461 243.886C70.0391 243.657 70.3672 243.484 70.7305 243.367C71.0938 243.25 71.4805 243.191 71.8906 243.191C72.623 243.191 73.2354 243.329 73.7275 243.604C74.2256 243.874 74.5859 244.287 74.8086 244.844H74.8877C75.2041 244.287 75.6377 243.874 76.1885 243.604C76.7393 243.329 77.3428 243.191 77.999 243.191ZM88.7305 243.191C89.9316 243.191 90.8896 243.604 91.6045 244.431C92.3193 245.257 92.6768 246.499 92.6768 248.157C92.6768 249.253 92.5127 250.173 92.1846 250.917C91.8564 251.661 91.3936 252.224 90.7959 252.604C90.2041 252.985 89.5039 253.176 88.6953 253.176C88.1855 253.176 87.7373 253.108 87.3506 252.974C86.9639 252.839 86.6328 252.657 86.3574 252.429C86.082 252.2 85.8535 251.951 85.6719 251.682H85.5664C85.584 251.91 85.6045 252.186 85.6279 252.508C85.6572 252.83 85.6719 253.111 85.6719 253.352V257.307H84.2041V243.367H85.4082L85.6016 244.791H85.6719C85.8594 244.498 86.0879 244.231 86.3574 243.991C86.627 243.745 86.9551 243.552 87.3418 243.411C87.7344 243.265 88.1973 243.191 88.7305 243.191ZM88.4756 244.422C87.8076 244.422 87.2686 244.551 86.8584 244.809C86.4541 245.066 86.1582 245.453 85.9707 245.969C85.7832 246.479 85.6836 247.12 85.6719 247.894V248.175C85.6719 248.989 85.7598 249.678 85.9355 250.24C86.1172 250.803 86.4131 251.23 86.8232 251.523C87.2393 251.816 87.7959 251.963 88.4932 251.963C89.0908 251.963 89.5889 251.802 89.9873 251.479C90.3857 251.157 90.6816 250.709 90.875 250.135C91.0742 249.555 91.1738 248.89 91.1738 248.14C91.1738 247.003 90.9512 246.101 90.5059 245.433C90.0664 244.759 89.3896 244.422 88.4756 244.422ZM96.6934 253H95.2256V239.324H96.6934V253ZM103.487 243.191C104.308 243.191 105.011 243.373 105.597 243.736C106.183 244.1 106.631 244.609 106.941 245.266C107.252 245.916 107.407 246.678 107.407 247.551V248.456H100.754C100.771 249.587 101.053 250.448 101.598 251.04C102.143 251.632 102.91 251.928 103.9 251.928C104.51 251.928 105.049 251.872 105.518 251.761C105.986 251.649 106.473 251.485 106.977 251.269V252.552C106.49 252.769 106.007 252.927 105.526 253.026C105.052 253.126 104.489 253.176 103.839 253.176C102.913 253.176 102.104 252.988 101.413 252.613C100.728 252.232 100.194 251.676 99.8135 250.943C99.4326 250.211 99.2422 249.314 99.2422 248.254C99.2422 247.217 99.415 246.32 99.7607 245.564C100.112 244.803 100.604 244.217 101.237 243.807C101.876 243.396 102.626 243.191 103.487 243.191ZM103.47 244.387C102.69 244.387 102.069 244.642 101.606 245.151C101.144 245.661 100.868 246.373 100.78 247.287H105.878C105.872 246.713 105.781 246.209 105.605 245.775C105.436 245.336 105.175 244.996 104.823 244.756C104.472 244.51 104.021 244.387 103.47 244.387ZM112.18 248.069L108.849 243.367H110.519L113.059 247.076L115.59 243.367H117.242L113.911 248.069L117.427 253H115.757L113.059 249.071L110.343 253H108.69L112.18 248.069ZM132.289 248.166C132.289 248.957 132.187 249.663 131.981 250.284C131.776 250.905 131.48 251.43 131.094 251.857C130.707 252.285 130.238 252.613 129.688 252.842C129.143 253.064 128.524 253.176 127.833 253.176C127.188 253.176 126.597 253.064 126.058 252.842C125.524 252.613 125.062 252.285 124.669 251.857C124.282 251.43 123.98 250.905 123.764 250.284C123.553 249.663 123.447 248.957 123.447 248.166C123.447 247.111 123.626 246.215 123.983 245.477C124.341 244.732 124.851 244.167 125.513 243.78C126.181 243.388 126.975 243.191 127.895 243.191C128.773 243.191 129.541 243.388 130.197 243.78C130.859 244.173 131.372 244.741 131.735 245.485C132.104 246.224 132.289 247.117 132.289 248.166ZM124.959 248.166C124.959 248.939 125.062 249.61 125.267 250.179C125.472 250.747 125.788 251.187 126.216 251.497C126.644 251.808 127.194 251.963 127.868 251.963C128.536 251.963 129.084 251.808 129.512 251.497C129.945 251.187 130.265 250.747 130.47 250.179C130.675 249.61 130.777 248.939 130.777 248.166C130.777 247.398 130.675 246.736 130.47 246.18C130.265 245.617 129.948 245.184 129.521 244.879C129.093 244.574 128.539 244.422 127.859 244.422C126.857 244.422 126.122 244.753 125.653 245.415C125.19 246.077 124.959 246.994 124.959 248.166ZM139.373 243.191C140.516 243.191 141.38 243.473 141.966 244.035C142.552 244.592 142.845 245.488 142.845 246.725V253H141.403V246.821C141.403 246.019 141.219 245.418 140.85 245.02C140.486 244.621 139.927 244.422 139.171 244.422C138.104 244.422 137.354 244.724 136.921 245.327C136.487 245.931 136.271 246.807 136.271 247.955V253H134.812V243.367H135.989L136.209 244.756H136.288C136.493 244.416 136.754 244.132 137.07 243.903C137.387 243.669 137.741 243.493 138.134 243.376C138.526 243.253 138.939 243.191 139.373 243.191ZM147.31 239.324V242.743C147.31 243.136 147.298 243.517 147.274 243.886C147.257 244.255 147.242 244.542 147.23 244.747H147.31C147.573 244.313 147.954 243.947 148.452 243.648C148.95 243.35 149.586 243.2 150.359 243.2C151.566 243.2 152.527 243.619 153.242 244.457C153.963 245.289 154.323 246.528 154.323 248.175C154.323 249.259 154.159 250.173 153.831 250.917C153.503 251.661 153.04 252.224 152.442 252.604C151.845 252.985 151.139 253.176 150.324 253.176C149.562 253.176 148.936 253.035 148.443 252.754C147.957 252.467 147.582 252.118 147.318 251.708H147.204L146.905 253H145.851V239.324H147.31ZM150.122 244.422C149.425 244.422 148.871 244.56 148.461 244.835C148.051 245.104 147.755 245.515 147.573 246.065C147.397 246.61 147.31 247.302 147.31 248.14V248.219C147.31 249.432 147.512 250.36 147.916 251.005C148.32 251.644 149.056 251.963 150.122 251.963C151.019 251.963 151.689 251.635 152.135 250.979C152.586 250.322 152.812 249.385 152.812 248.166C152.812 246.924 152.589 245.989 152.144 245.362C151.704 244.735 151.03 244.422 150.122 244.422ZM165.178 248.166C165.178 248.957 165.075 249.663 164.87 250.284C164.665 250.905 164.369 251.43 163.982 251.857C163.596 252.285 163.127 252.613 162.576 252.842C162.031 253.064 161.413 253.176 160.722 253.176C160.077 253.176 159.485 253.064 158.946 252.842C158.413 252.613 157.95 252.285 157.558 251.857C157.171 251.43 156.869 250.905 156.652 250.284C156.441 249.663 156.336 248.957 156.336 248.166C156.336 247.111 156.515 246.215 156.872 245.477C157.229 244.732 157.739 244.167 158.401 243.78C159.069 243.388 159.863 243.191 160.783 243.191C161.662 243.191 162.43 243.388 163.086 243.78C163.748 244.173 164.261 244.741 164.624 245.485C164.993 246.224 165.178 247.117 165.178 248.166ZM157.848 248.166C157.848 248.939 157.95 249.61 158.155 250.179C158.36 250.747 158.677 251.187 159.104 251.497C159.532 251.808 160.083 251.963 160.757 251.963C161.425 251.963 161.973 251.808 162.4 251.497C162.834 251.187 163.153 250.747 163.358 250.179C163.563 249.61 163.666 248.939 163.666 248.166C163.666 247.398 163.563 246.736 163.358 246.18C163.153 245.617 162.837 245.184 162.409 244.879C161.981 244.574 161.428 244.422 160.748 244.422C159.746 244.422 159.011 244.753 158.542 245.415C158.079 246.077 157.848 246.994 157.848 248.166ZM171.304 243.209C172.452 243.209 173.305 243.467 173.861 243.982C174.418 244.498 174.696 245.321 174.696 246.452V253H173.633L173.352 251.576H173.281C173.012 251.928 172.73 252.224 172.438 252.464C172.145 252.698 171.805 252.877 171.418 253C171.037 253.117 170.568 253.176 170.012 253.176C169.426 253.176 168.904 253.073 168.447 252.868C167.996 252.663 167.639 252.353 167.375 251.937C167.117 251.521 166.988 250.993 166.988 250.354C166.988 249.394 167.369 248.655 168.131 248.14C168.893 247.624 170.053 247.343 171.611 247.296L173.272 247.226V246.637C173.272 245.805 173.094 245.222 172.736 244.888C172.379 244.554 171.875 244.387 171.225 244.387C170.721 244.387 170.24 244.46 169.783 244.606C169.326 244.753 168.893 244.926 168.482 245.125L168.034 244.018C168.468 243.795 168.966 243.604 169.528 243.446C170.091 243.288 170.683 243.209 171.304 243.209ZM173.255 248.254L171.787 248.315C170.586 248.362 169.739 248.559 169.247 248.904C168.755 249.25 168.509 249.739 168.509 250.372C168.509 250.923 168.676 251.33 169.01 251.594C169.344 251.857 169.786 251.989 170.337 251.989C171.192 251.989 171.893 251.752 172.438 251.277C172.982 250.803 173.255 250.091 173.255 249.142V248.254ZM182.079 243.191C182.272 243.191 182.475 243.203 182.686 243.227C182.896 243.244 183.084 243.271 183.248 243.306L183.063 244.659C182.905 244.618 182.729 244.586 182.536 244.562C182.343 244.539 182.161 244.527 181.991 244.527C181.604 244.527 181.238 244.606 180.893 244.765C180.553 244.917 180.254 245.14 179.996 245.433C179.738 245.72 179.536 246.068 179.39 246.479C179.243 246.883 179.17 247.334 179.17 247.832V253H177.702V243.367H178.915L179.073 245.143H179.135C179.334 244.785 179.574 244.46 179.855 244.167C180.137 243.868 180.462 243.631 180.831 243.455C181.206 243.279 181.622 243.191 182.079 243.191ZM188.495 253.176C187.276 253.176 186.31 252.76 185.595 251.928C184.886 251.096 184.531 249.859 184.531 248.219C184.531 246.561 184.895 245.31 185.621 244.466C186.348 243.616 187.314 243.191 188.521 243.191C189.031 243.191 189.477 243.259 189.857 243.394C190.238 243.528 190.566 243.71 190.842 243.938C191.117 244.161 191.349 244.416 191.536 244.703H191.642C191.618 244.521 191.595 244.272 191.571 243.956C191.548 243.64 191.536 243.382 191.536 243.183V239.324H192.995V253H191.817L191.598 251.629H191.536C191.354 251.916 191.123 252.177 190.842 252.411C190.566 252.646 190.235 252.833 189.849 252.974C189.468 253.108 189.017 253.176 188.495 253.176ZM188.724 251.963C189.755 251.963 190.484 251.67 190.912 251.084C191.34 250.498 191.554 249.628 191.554 248.474V248.21C191.554 246.985 191.349 246.045 190.938 245.389C190.534 244.732 189.796 244.404 188.724 244.404C187.827 244.404 187.156 244.75 186.711 245.441C186.266 246.127 186.043 247.064 186.043 248.254C186.043 249.438 186.263 250.352 186.702 250.996C187.147 251.641 187.821 251.963 188.724 251.963ZM197.548 243.367V253H196.089V243.367H197.548ZM196.836 239.764C197.076 239.764 197.281 239.843 197.451 240.001C197.627 240.153 197.715 240.394 197.715 240.722C197.715 241.044 197.627 241.284 197.451 241.442C197.281 241.601 197.076 241.68 196.836 241.68C196.584 241.68 196.373 241.601 196.203 241.442C196.039 241.284 195.957 241.044 195.957 240.722C195.957 240.394 196.039 240.153 196.203 240.001C196.373 239.843 196.584 239.764 196.836 239.764ZM205.203 243.191C206.346 243.191 207.21 243.473 207.796 244.035C208.382 244.592 208.675 245.488 208.675 246.725V253H207.233V246.821C207.233 246.019 207.049 245.418 206.68 245.02C206.316 244.621 205.757 244.422 205.001 244.422C203.935 244.422 203.185 244.724 202.751 245.327C202.317 245.931 202.101 246.807 202.101 247.955V253H200.642V243.367H201.819L202.039 244.756H202.118C202.323 244.416 202.584 244.132 202.9 243.903C203.217 243.669 203.571 243.493 203.964 243.376C204.356 243.253 204.77 243.191 205.203 243.191ZM214.37 257.324C213.104 257.324 212.129 257.087 211.443 256.612C210.758 256.144 210.415 255.484 210.415 254.635C210.415 254.031 210.605 253.516 210.986 253.088C211.373 252.66 211.906 252.376 212.586 252.235C212.334 252.118 212.117 251.942 211.936 251.708C211.76 251.474 211.672 251.204 211.672 250.899C211.672 250.548 211.769 250.24 211.962 249.977C212.161 249.707 212.463 249.449 212.867 249.203C212.363 248.998 211.953 248.652 211.637 248.166C211.326 247.674 211.171 247.103 211.171 246.452C211.171 245.761 211.314 245.172 211.602 244.686C211.889 244.193 212.305 243.818 212.85 243.561C213.395 243.303 214.054 243.174 214.827 243.174C214.997 243.174 215.167 243.183 215.337 243.2C215.513 243.212 215.68 243.232 215.838 243.262C215.996 243.285 216.134 243.314 216.251 243.35H219.556V244.29L217.78 244.51C217.956 244.738 218.103 245.014 218.22 245.336C218.337 245.658 218.396 246.016 218.396 246.408C218.396 247.369 218.07 248.134 217.42 248.702C216.77 249.265 215.876 249.546 214.739 249.546C214.47 249.546 214.194 249.522 213.913 249.476C213.626 249.634 213.406 249.81 213.254 250.003C213.107 250.196 213.034 250.419 213.034 250.671C213.034 250.858 213.09 251.008 213.201 251.119C213.318 251.23 213.485 251.312 213.702 251.365C213.919 251.412 214.18 251.436 214.484 251.436H216.181C217.229 251.436 218.032 251.655 218.589 252.095C219.151 252.534 219.433 253.176 219.433 254.02C219.433 255.086 218.999 255.903 218.132 256.472C217.265 257.04 216.011 257.324 214.37 257.324ZM214.414 256.182C215.211 256.182 215.87 256.1 216.392 255.936C216.919 255.777 217.312 255.546 217.569 255.241C217.833 254.942 217.965 254.585 217.965 254.169C217.965 253.782 217.877 253.489 217.701 253.29C217.525 253.097 217.268 252.968 216.928 252.903C216.588 252.833 216.172 252.798 215.68 252.798H214.01C213.576 252.798 213.198 252.865 212.876 253C212.554 253.135 212.305 253.334 212.129 253.598C211.959 253.861 211.874 254.189 211.874 254.582C211.874 255.104 212.094 255.499 212.533 255.769C212.973 256.044 213.6 256.182 214.414 256.182ZM214.792 248.482C215.489 248.482 216.014 248.307 216.365 247.955C216.717 247.604 216.893 247.091 216.893 246.417C216.893 245.696 216.714 245.157 216.356 244.8C215.999 244.437 215.472 244.255 214.774 244.255C214.106 244.255 213.591 244.442 213.228 244.817C212.87 245.187 212.691 245.729 212.691 246.443C212.691 247.1 212.873 247.604 213.236 247.955C213.6 248.307 214.118 248.482 214.792 248.482ZM221.234 252.086C221.234 251.676 221.334 251.386 221.533 251.216C221.732 251.04 221.976 250.952 222.263 250.952C222.562 250.952 222.813 251.04 223.019 251.216C223.224 251.386 223.326 251.676 223.326 252.086C223.326 252.49 223.224 252.786 223.019 252.974C222.813 253.155 222.562 253.246 222.263 253.246C221.976 253.246 221.732 253.155 221.533 252.974C221.334 252.786 221.234 252.49 221.234 252.086Z" fill="#FCFDFF"/>
</svg>
