<svg width="402" height="234" viewBox="0 0 402 234" fill="none" xmlns="http://www.w3.org/2000/svg">
<rect width="402" height="234" rx="20" fill="#1E1E1E"/>
<path d="M21.68 129V111.72H27.272C27.408 111.72 27.688 111.724 28.112 111.732C28.536 111.74 28.944 111.768 29.336 111.816C30.728 111.984 31.908 112.468 32.876 113.268C33.844 114.068 34.58 115.084 35.084 116.316C35.588 117.548 35.84 118.896 35.84 120.36C35.84 121.824 35.588 123.172 35.084 124.404C34.58 125.636 33.844 126.652 32.876 127.452C31.908 128.252 30.728 128.736 29.336 128.904C28.944 128.952 28.536 128.98 28.112 128.988C27.688 128.996 27.408 129 27.272 129H21.68ZM24.992 125.928H27.272C27.488 125.928 27.78 125.924 28.148 125.916C28.516 125.9 28.848 125.864 29.144 125.808C29.896 125.656 30.508 125.304 30.98 124.752C31.46 124.2 31.812 123.536 32.036 122.76C32.268 121.984 32.384 121.184 32.384 120.36C32.384 119.496 32.264 118.676 32.024 117.9C31.792 117.124 31.436 116.468 30.956 115.932C30.476 115.396 29.872 115.056 29.144 114.912C28.848 114.848 28.516 114.812 28.148 114.804C27.78 114.796 27.488 114.792 27.272 114.792H24.992V125.928ZM44.5511 129.36C43.2471 129.36 42.1031 129.068 41.1191 128.484C40.1351 127.9 39.3671 127.096 38.8151 126.072C38.2711 125.04 37.9991 123.856 37.9991 122.52C37.9991 121.168 38.2791 119.98 38.8391 118.956C39.3991 117.924 40.1711 117.12 41.1551 116.544C42.1391 115.968 43.2711 115.68 44.5511 115.68C45.8551 115.68 46.9991 115.972 47.9831 116.556C48.9751 117.14 49.7471 117.948 50.2991 118.98C50.8511 120.004 51.1271 121.184 51.1271 122.52C51.1271 123.864 50.8471 125.052 50.2871 126.084C49.7351 127.108 48.9631 127.912 47.9711 128.496C46.9871 129.072 45.8471 129.36 44.5511 129.36ZM44.5511 126.312C45.5991 126.312 46.3791 125.96 46.8911 125.256C47.4111 124.544 47.6711 123.632 47.6711 122.52C47.6711 121.368 47.4071 120.448 46.8791 119.76C46.3591 119.072 45.5831 118.728 44.5511 118.728C43.8391 118.728 43.2551 118.888 42.7991 119.208C42.3431 119.528 42.0031 119.972 41.7791 120.54C41.5631 121.108 41.4551 121.768 41.4551 122.52C41.4551 123.68 41.7151 124.604 42.2351 125.292C42.7631 125.972 43.5351 126.312 44.5511 126.312ZM59.4779 129.36C58.1339 129.36 56.9819 129.06 56.0219 128.46C55.0619 127.86 54.3259 127.044 53.8139 126.012C53.3019 124.98 53.0459 123.816 53.0459 122.52C53.0459 121.208 53.3099 120.036 53.8379 119.004C54.3739 117.972 55.1259 117.16 56.0939 116.568C57.0619 115.976 58.2059 115.68 59.5259 115.68C61.0539 115.68 62.3339 116.068 63.3659 116.844C64.4059 117.612 65.0699 118.664 65.3579 120L62.0939 120.864C61.9019 120.192 61.5659 119.668 61.0859 119.292C60.6139 118.916 60.0779 118.728 59.4779 118.728C58.7899 118.728 58.2259 118.896 57.7859 119.232C57.3459 119.56 57.0219 120.012 56.8139 120.588C56.6059 121.156 56.5019 121.8 56.5019 122.52C56.5019 123.648 56.7499 124.564 57.2459 125.268C57.7499 125.964 58.4939 126.312 59.4779 126.312C60.2139 126.312 60.7739 126.144 61.1579 125.808C61.5419 125.472 61.8299 124.992 62.0219 124.368L65.3579 125.064C64.9899 126.44 64.2939 127.5 63.2699 128.244C62.2459 128.988 60.9819 129.36 59.4779 129.36ZM72.5821 129.384C71.5661 129.384 70.7381 129.212 70.0981 128.868C69.4581 128.524 68.9581 128.088 68.5981 127.56C68.2461 127.032 67.9941 126.484 67.8421 125.916C67.6901 125.34 67.5981 124.816 67.5661 124.344C67.5341 123.872 67.5181 123.528 67.5181 123.312V116.04H70.8301V122.16C70.8301 122.456 70.8461 122.836 70.8781 123.3C70.9101 123.756 71.0101 124.216 71.1781 124.68C71.3461 125.144 71.6181 125.532 71.9941 125.844C72.3781 126.156 72.9181 126.312 73.6141 126.312C73.8941 126.312 74.1941 126.268 74.5141 126.18C74.8341 126.092 75.1341 125.924 75.4141 125.676C75.6941 125.42 75.9221 125.048 76.0981 124.56C76.2821 124.064 76.3741 123.416 76.3741 122.616L78.2461 123.504C78.2461 124.528 78.0381 125.488 77.6221 126.384C77.2061 127.28 76.5781 128.004 75.7381 128.556C74.9061 129.108 73.8541 129.384 72.5821 129.384ZM76.7821 129V124.704H76.3741V116.04H79.6621V129H76.7821ZM98.6159 129V121.344C98.6159 120.488 98.4119 119.824 98.0039 119.352C97.6039 118.872 97.0479 118.632 96.3359 118.632C95.8799 118.632 95.4839 118.74 95.1479 118.956C94.8119 119.164 94.5479 119.46 94.3559 119.844C94.1719 120.22 94.0799 120.656 94.0799 121.152L92.7119 120.24C92.7119 119.352 92.9199 118.568 93.3359 117.888C93.7599 117.208 94.3239 116.68 95.0279 116.304C95.7399 115.92 96.5279 115.728 97.3919 115.728C98.8719 115.728 99.9879 116.168 100.74 117.048C101.5 117.92 101.88 119.064 101.88 120.48V129H98.6159ZM82.9919 129V116.04H85.8719V120.336H86.2799V129H82.9919ZM90.8159 129V121.344C90.8159 120.488 90.6119 119.824 90.2039 119.352C89.8039 118.872 89.2479 118.632 88.5359 118.632C87.8559 118.632 87.3079 118.868 86.8919 119.34C86.4839 119.804 86.2799 120.408 86.2799 121.152L84.9119 120.192C84.9119 119.344 85.1239 118.584 85.5479 117.912C85.9719 117.24 86.5399 116.708 87.2519 116.316C87.9719 115.924 88.7759 115.728 89.6639 115.728C90.6799 115.728 91.5119 115.944 92.1599 116.376C92.8159 116.808 93.2999 117.384 93.6119 118.104C93.9239 118.824 94.0799 119.616 94.0799 120.48V129H90.8159ZM110.79 129.36C109.462 129.36 108.29 129.076 107.274 128.508C106.266 127.932 105.474 127.144 104.898 126.144C104.33 125.136 104.046 123.984 104.046 122.688C104.046 121.272 104.326 120.04 104.886 118.992C105.446 117.944 106.218 117.132 107.202 116.556C108.186 115.972 109.318 115.68 110.598 115.68C111.958 115.68 113.114 116 114.066 116.64C115.018 117.28 115.722 118.18 116.178 119.34C116.634 120.5 116.794 121.864 116.658 123.432H113.43V122.232C113.43 120.912 113.218 119.964 112.794 119.388C112.378 118.804 111.694 118.512 110.742 118.512C109.63 118.512 108.81 118.852 108.282 119.532C107.762 120.204 107.502 121.2 107.502 122.52C107.502 123.728 107.762 124.664 108.282 125.328C108.81 125.984 109.582 126.312 110.598 126.312C111.238 126.312 111.786 126.172 112.242 125.892C112.698 125.612 113.046 125.208 113.286 124.68L116.55 125.616C116.062 126.8 115.29 127.72 114.234 128.376C113.186 129.032 112.038 129.36 110.79 129.36ZM106.494 123.432V121.008H115.086V123.432H106.494ZM127.848 129V122.88C127.848 122.584 127.832 122.208 127.8 121.752C127.768 121.288 127.668 120.824 127.5 120.36C127.332 119.896 127.056 119.508 126.672 119.196C126.296 118.884 125.76 118.728 125.064 118.728C124.784 118.728 124.484 118.772 124.164 118.86C123.844 118.948 123.544 119.12 123.264 119.376C122.984 119.624 122.752 119.992 122.568 120.48C122.392 120.968 122.304 121.616 122.304 122.424L120.432 121.536C120.432 120.512 120.64 119.552 121.056 118.656C121.472 117.76 122.096 117.036 122.928 116.484C123.768 115.932 124.824 115.656 126.096 115.656C127.112 115.656 127.94 115.828 128.58 116.172C129.22 116.516 129.716 116.952 130.068 117.48C130.428 118.008 130.684 118.56 130.836 119.136C130.988 119.704 131.08 120.224 131.112 120.696C131.144 121.168 131.16 121.512 131.16 121.728V129H127.848ZM118.992 129V116.04H121.896V120.336H122.304V129H118.992ZM142.05 129C141.154 129.168 140.274 129.24 139.41 129.216C138.554 129.2 137.786 129.052 137.106 128.772C136.434 128.484 135.922 128.024 135.57 127.392C135.25 126.8 135.082 126.2 135.066 125.592C135.05 124.976 135.042 124.28 135.042 123.504V112.44H138.306V123.312C138.306 123.816 138.31 124.272 138.318 124.68C138.334 125.08 138.418 125.4 138.57 125.64C138.858 126.096 139.318 126.344 139.95 126.384C140.582 126.424 141.282 126.392 142.05 126.288V129ZM132.834 118.56V116.04H142.05V118.56H132.834ZM153.343 129.36C152.415 129.36 151.627 129.184 150.979 128.832C150.339 128.472 149.851 127.996 149.515 127.404C149.187 126.804 149.023 126.144 149.023 125.424C149.023 124.824 149.115 124.276 149.299 123.78C149.483 123.284 149.779 122.848 150.187 122.472C150.603 122.088 151.159 121.768 151.855 121.512C152.335 121.336 152.907 121.18 153.571 121.044C154.235 120.908 154.987 120.78 155.827 120.66C156.667 120.532 157.591 120.392 158.599 120.24L157.423 120.888C157.423 120.12 157.239 119.556 156.871 119.196C156.503 118.836 155.887 118.656 155.023 118.656C154.543 118.656 154.043 118.772 153.523 119.004C153.003 119.236 152.639 119.648 152.431 120.24L149.479 119.304C149.807 118.232 150.423 117.36 151.327 116.688C152.231 116.016 153.463 115.68 155.023 115.68C156.167 115.68 157.183 115.856 158.071 116.208C158.959 116.56 159.631 117.168 160.087 118.032C160.343 118.512 160.495 118.992 160.543 119.472C160.591 119.952 160.615 120.488 160.615 121.08V129H157.759V126.336L158.167 126.888C157.535 127.76 156.851 128.392 156.115 128.784C155.387 129.168 154.463 129.36 153.343 129.36ZM154.039 126.792C154.639 126.792 155.143 126.688 155.551 126.48C155.967 126.264 156.295 126.02 156.535 125.748C156.783 125.476 156.951 125.248 157.039 125.064C157.207 124.712 157.303 124.304 157.327 123.84C157.359 123.368 157.375 122.976 157.375 122.664L158.335 122.904C157.367 123.064 156.583 123.2 155.983 123.312C155.383 123.416 154.899 123.512 154.531 123.6C154.163 123.688 153.839 123.784 153.559 123.888C153.239 124.016 152.979 124.156 152.779 124.308C152.587 124.452 152.443 124.612 152.347 124.788C152.259 124.964 152.215 125.16 152.215 125.376C152.215 125.672 152.287 125.928 152.431 126.144C152.583 126.352 152.795 126.512 153.067 126.624C153.339 126.736 153.663 126.792 154.039 126.792ZM163.735 129V116.04H166.615V119.208L166.303 118.8C166.471 118.352 166.695 117.944 166.975 117.576C167.255 117.208 167.599 116.904 168.007 116.664C168.319 116.472 168.659 116.324 169.027 116.22C169.395 116.108 169.775 116.04 170.167 116.016C170.559 115.984 170.951 115.992 171.343 116.04V119.088C170.983 118.976 170.563 118.94 170.083 118.98C169.611 119.012 169.183 119.12 168.799 119.304C168.415 119.48 168.091 119.716 167.827 120.012C167.563 120.3 167.363 120.644 167.227 121.044C167.091 121.436 167.023 121.88 167.023 122.376V129H163.735ZM179.103 129.36C177.759 129.36 176.607 129.06 175.647 128.46C174.687 127.86 173.951 127.044 173.439 126.012C172.927 124.98 172.671 123.816 172.671 122.52C172.671 121.208 172.935 120.036 173.463 119.004C173.999 117.972 174.751 117.16 175.719 116.568C176.687 115.976 177.831 115.68 179.151 115.68C180.679 115.68 181.959 116.068 182.991 116.844C184.031 117.612 184.695 118.664 184.983 120L181.719 120.864C181.527 120.192 181.191 119.668 180.711 119.292C180.239 118.916 179.703 118.728 179.103 118.728C178.415 118.728 177.851 118.896 177.411 119.232C176.971 119.56 176.647 120.012 176.439 120.588C176.231 121.156 176.127 121.8 176.127 122.52C176.127 123.648 176.375 124.564 176.871 125.268C177.375 125.964 178.119 126.312 179.103 126.312C179.839 126.312 180.399 126.144 180.783 125.808C181.167 125.472 181.455 124.992 181.647 124.368L184.983 125.064C184.615 126.44 183.919 127.5 182.895 128.244C181.871 128.988 180.607 129.36 179.103 129.36ZM196.215 129V122.88C196.215 122.584 196.199 122.208 196.167 121.752C196.135 121.288 196.035 120.824 195.867 120.36C195.699 119.896 195.423 119.508 195.039 119.196C194.663 118.884 194.127 118.728 193.431 118.728C193.151 118.728 192.851 118.772 192.531 118.86C192.211 118.948 191.911 119.12 191.631 119.376C191.351 119.624 191.119 119.992 190.935 120.48C190.759 120.968 190.671 121.616 190.671 122.424L188.799 121.536C188.799 120.512 189.007 119.552 189.423 118.656C189.839 117.76 190.463 117.036 191.295 116.484C192.135 115.932 193.191 115.656 194.463 115.656C195.479 115.656 196.307 115.828 196.947 116.172C197.587 116.516 198.083 116.952 198.435 117.48C198.795 118.008 199.051 118.56 199.203 119.136C199.355 119.704 199.447 120.224 199.479 120.696C199.511 121.168 199.527 121.512 199.527 121.728V129H196.215ZM187.359 129V111.72H190.263V120.6H190.671V129H187.359ZM202.881 114.24V111.36H206.145V114.24H202.881ZM202.881 129V116.04H206.145V129H202.881ZM213.247 129L208.543 116.04H211.807L214.879 125.016L217.951 116.04H221.215L216.511 129H213.247ZM228.938 129.36C227.61 129.36 226.438 129.076 225.422 128.508C224.414 127.932 223.622 127.144 223.046 126.144C222.478 125.136 222.194 123.984 222.194 122.688C222.194 121.272 222.474 120.04 223.034 118.992C223.594 117.944 224.366 117.132 225.35 116.556C226.334 115.972 227.466 115.68 228.746 115.68C230.106 115.68 231.262 116 232.214 116.64C233.166 117.28 233.87 118.18 234.326 119.34C234.782 120.5 234.942 121.864 234.806 123.432H231.578V122.232C231.578 120.912 231.366 119.964 230.942 119.388C230.526 118.804 229.842 118.512 228.89 118.512C227.778 118.512 226.958 118.852 226.43 119.532C225.91 120.204 225.65 121.2 225.65 122.52C225.65 123.728 225.91 124.664 226.43 125.328C226.958 125.984 227.73 126.312 228.746 126.312C229.386 126.312 229.934 126.172 230.39 125.892C230.846 125.612 231.194 125.208 231.434 124.68L234.698 125.616C234.21 126.8 233.438 127.72 232.382 128.376C231.334 129.032 230.186 129.36 228.938 129.36ZM224.642 123.432V121.008H233.234V123.432H224.642Z" fill="white"/>
<line x1="20" y1="148.796" x2="219.04" y2="148.796" stroke="#EDEEFF" stroke-width="0.407326"/>
<path d="M28.9121 178H21.7578V165.15H28.9121V166.469H23.252V170.626H28.5869V171.927H23.252V176.682H28.9121V178ZM35.1436 168.209C36.292 168.209 37.1445 168.467 37.7012 168.982C38.2578 169.498 38.5361 170.321 38.5361 171.452V178H37.4727L37.1914 176.576H37.1211C36.8516 176.928 36.5703 177.224 36.2773 177.464C35.9844 177.698 35.6445 177.877 35.2578 178C34.877 178.117 34.4082 178.176 33.8516 178.176C33.2656 178.176 32.7441 178.073 32.2871 177.868C31.8359 177.663 31.4785 177.353 31.2148 176.937C30.957 176.521 30.8281 175.993 30.8281 175.354C30.8281 174.394 31.209 173.655 31.9707 173.14C32.7324 172.624 33.8926 172.343 35.4512 172.296L37.1123 172.226V171.637C37.1123 170.805 36.9336 170.222 36.5762 169.888C36.2188 169.554 35.7148 169.387 35.0645 169.387C34.5605 169.387 34.0801 169.46 33.623 169.606C33.166 169.753 32.7324 169.926 32.3223 170.125L31.874 169.018C32.3076 168.795 32.8057 168.604 33.3682 168.446C33.9307 168.288 34.5225 168.209 35.1436 168.209ZM37.0947 173.254L35.627 173.315C34.4258 173.362 33.5791 173.559 33.0869 173.904C32.5947 174.25 32.3486 174.739 32.3486 175.372C32.3486 175.923 32.5156 176.33 32.8496 176.594C33.1836 176.857 33.626 176.989 34.1768 176.989C35.0322 176.989 35.7324 176.752 36.2773 176.277C36.8223 175.803 37.0947 175.091 37.0947 174.142V173.254ZM47.7734 175.363C47.7734 175.979 47.6182 176.497 47.3076 176.919C47.0029 177.335 46.5635 177.648 45.9893 177.859C45.4209 178.07 44.7412 178.176 43.9502 178.176C43.2764 178.176 42.6934 178.123 42.2012 178.018C41.709 177.912 41.2783 177.763 40.9092 177.569V176.225C41.3018 176.418 41.7705 176.594 42.3154 176.752C42.8604 176.91 43.417 176.989 43.9854 176.989C44.8174 176.989 45.4209 176.854 45.7959 176.585C46.1709 176.315 46.3584 175.949 46.3584 175.486C46.3584 175.223 46.2822 174.991 46.1299 174.792C45.9834 174.587 45.7344 174.391 45.3828 174.203C45.0312 174.01 44.5449 173.799 43.9238 173.57C43.3086 173.336 42.7754 173.104 42.3242 172.876C41.8789 172.642 41.5332 172.357 41.2871 172.023C41.0469 171.689 40.9268 171.256 40.9268 170.723C40.9268 169.908 41.2549 169.284 41.9111 168.851C42.5732 168.411 43.4404 168.191 44.5127 168.191C45.0928 168.191 45.6348 168.25 46.1387 168.367C46.6484 168.479 47.123 168.631 47.5625 168.824L47.0703 169.993C46.6719 169.823 46.2471 169.68 45.7959 169.562C45.3447 169.445 44.8848 169.387 44.416 169.387C43.7422 169.387 43.2236 169.498 42.8604 169.721C42.5029 169.943 42.3242 170.248 42.3242 170.635C42.3242 170.934 42.4062 171.18 42.5703 171.373C42.7402 171.566 43.0098 171.748 43.3789 171.918C43.748 172.088 44.2344 172.287 44.8379 172.516C45.4414 172.738 45.9629 172.97 46.4023 173.21C46.8418 173.444 47.1787 173.731 47.4131 174.071C47.6533 174.405 47.7734 174.836 47.7734 175.363ZM51.5791 168.367V178H50.1201V168.367H51.5791ZM50.8672 164.764C51.1074 164.764 51.3125 164.843 51.4824 165.001C51.6582 165.153 51.7461 165.394 51.7461 165.722C51.7461 166.044 51.6582 166.284 51.4824 166.442C51.3125 166.601 51.1074 166.68 50.8672 166.68C50.6152 166.68 50.4043 166.601 50.2344 166.442C50.0703 166.284 49.9883 166.044 49.9883 165.722C49.9883 165.394 50.0703 165.153 50.2344 165.001C50.4043 164.843 50.6152 164.764 50.8672 164.764ZM56.1406 178H54.6729V164.324H56.1406V178ZM57.7051 168.367H59.2695L61.3965 173.957C61.5195 174.285 61.6338 174.602 61.7393 174.906C61.8447 175.205 61.9385 175.492 62.0205 175.768C62.1025 176.043 62.167 176.31 62.2139 176.567H62.2754C62.3574 176.274 62.4746 175.891 62.627 175.416C62.7793 174.936 62.9434 174.446 63.1191 173.948L65.1318 168.367H66.7051L62.5127 179.415C62.29 180.007 62.0293 180.522 61.7305 180.962C61.4375 181.401 61.0801 181.738 60.6582 181.973C60.2363 182.213 59.7266 182.333 59.1289 182.333C58.8535 182.333 58.6104 182.315 58.3994 182.28C58.1885 182.251 58.0068 182.216 57.8545 182.175V181.006C57.9834 181.035 58.1387 181.062 58.3203 181.085C58.5078 181.108 58.7012 181.12 58.9004 181.12C59.2637 181.12 59.5771 181.05 59.8408 180.909C60.1104 180.774 60.3418 180.575 60.5352 180.312C60.7285 180.048 60.8955 179.734 61.0361 179.371L61.5635 178.018L57.7051 168.367ZM76.5225 168.209C77.6709 168.209 78.5234 168.467 79.0801 168.982C79.6367 169.498 79.915 170.321 79.915 171.452V178H78.8516L78.5703 176.576H78.5C78.2305 176.928 77.9492 177.224 77.6562 177.464C77.3633 177.698 77.0234 177.877 76.6367 178C76.2559 178.117 75.7871 178.176 75.2305 178.176C74.6445 178.176 74.123 178.073 73.666 177.868C73.2148 177.663 72.8574 177.353 72.5938 176.937C72.3359 176.521 72.207 175.993 72.207 175.354C72.207 174.394 72.5879 173.655 73.3496 173.14C74.1113 172.624 75.2715 172.343 76.8301 172.296L78.4912 172.226V171.637C78.4912 170.805 78.3125 170.222 77.9551 169.888C77.5977 169.554 77.0938 169.387 76.4434 169.387C75.9395 169.387 75.459 169.46 75.002 169.606C74.5449 169.753 74.1113 169.926 73.7012 170.125L73.2529 169.018C73.6865 168.795 74.1846 168.604 74.7471 168.446C75.3096 168.288 75.9014 168.209 76.5225 168.209ZM78.4736 173.254L77.0059 173.315C75.8047 173.362 74.958 173.559 74.4658 173.904C73.9736 174.25 73.7275 174.739 73.7275 175.372C73.7275 175.923 73.8945 176.33 74.2285 176.594C74.5625 176.857 75.0049 176.989 75.5557 176.989C76.4111 176.989 77.1113 176.752 77.6562 176.277C78.2012 175.803 78.4736 175.091 78.4736 174.142V173.254ZM86.7793 178.176C85.9121 178.176 85.1475 177.997 84.4854 177.64C83.8232 177.282 83.3076 176.737 82.9385 176.005C82.5693 175.272 82.3848 174.35 82.3848 173.236C82.3848 172.07 82.5781 171.118 82.9648 170.38C83.3574 169.636 83.8965 169.085 84.582 168.728C85.2676 168.37 86.0469 168.191 86.9199 168.191C87.4004 168.191 87.8633 168.241 88.3086 168.341C88.7598 168.435 89.1289 168.555 89.416 168.701L88.9766 169.923C88.6836 169.806 88.3438 169.7 87.957 169.606C87.5762 169.513 87.2188 169.466 86.8848 169.466C86.2168 169.466 85.6602 169.609 85.2148 169.896C84.7754 170.184 84.4443 170.605 84.2217 171.162C84.0049 171.719 83.8965 172.404 83.8965 173.219C83.8965 173.998 84.002 174.663 84.2129 175.214C84.4297 175.765 84.749 176.187 85.1709 176.479C85.5986 176.767 86.1318 176.91 86.7705 176.91C87.2803 176.91 87.7402 176.857 88.1504 176.752C88.5605 176.641 88.9326 176.512 89.2666 176.365V177.666C88.9443 177.83 88.584 177.956 88.1855 178.044C87.793 178.132 87.3242 178.176 86.7793 178.176ZM95.4102 178.176C94.543 178.176 93.7783 177.997 93.1162 177.64C92.4541 177.282 91.9385 176.737 91.5693 176.005C91.2002 175.272 91.0156 174.35 91.0156 173.236C91.0156 172.07 91.209 171.118 91.5957 170.38C91.9883 169.636 92.5273 169.085 93.2129 168.728C93.8984 168.37 94.6777 168.191 95.5508 168.191C96.0312 168.191 96.4941 168.241 96.9395 168.341C97.3906 168.435 97.7598 168.555 98.0469 168.701L97.6074 169.923C97.3145 169.806 96.9746 169.7 96.5879 169.606C96.207 169.513 95.8496 169.466 95.5156 169.466C94.8477 169.466 94.291 169.609 93.8457 169.896C93.4062 170.184 93.0752 170.605 92.8525 171.162C92.6357 171.719 92.5273 172.404 92.5273 173.219C92.5273 173.998 92.6328 174.663 92.8438 175.214C93.0605 175.765 93.3799 176.187 93.8018 176.479C94.2295 176.767 94.7627 176.91 95.4014 176.91C95.9111 176.91 96.3711 176.857 96.7812 176.752C97.1914 176.641 97.5635 176.512 97.8975 176.365V177.666C97.5752 177.83 97.2148 177.956 96.8164 178.044C96.4238 178.132 95.9551 178.176 95.4102 178.176ZM103.892 168.191C104.712 168.191 105.415 168.373 106.001 168.736C106.587 169.1 107.035 169.609 107.346 170.266C107.656 170.916 107.812 171.678 107.812 172.551V173.456H101.158C101.176 174.587 101.457 175.448 102.002 176.04C102.547 176.632 103.314 176.928 104.305 176.928C104.914 176.928 105.453 176.872 105.922 176.761C106.391 176.649 106.877 176.485 107.381 176.269V177.552C106.895 177.769 106.411 177.927 105.931 178.026C105.456 178.126 104.894 178.176 104.243 178.176C103.317 178.176 102.509 177.988 101.817 177.613C101.132 177.232 100.599 176.676 100.218 175.943C99.8369 175.211 99.6465 174.314 99.6465 173.254C99.6465 172.217 99.8193 171.32 100.165 170.564C100.517 169.803 101.009 169.217 101.642 168.807C102.28 168.396 103.03 168.191 103.892 168.191ZM103.874 169.387C103.095 169.387 102.474 169.642 102.011 170.151C101.548 170.661 101.272 171.373 101.185 172.287H106.282C106.276 171.713 106.186 171.209 106.01 170.775C105.84 170.336 105.579 169.996 105.228 169.756C104.876 169.51 104.425 169.387 103.874 169.387ZM116.521 175.363C116.521 175.979 116.366 176.497 116.056 176.919C115.751 177.335 115.312 177.648 114.737 177.859C114.169 178.07 113.489 178.176 112.698 178.176C112.024 178.176 111.441 178.123 110.949 178.018C110.457 177.912 110.026 177.763 109.657 177.569V176.225C110.05 176.418 110.519 176.594 111.063 176.752C111.608 176.91 112.165 176.989 112.733 176.989C113.565 176.989 114.169 176.854 114.544 176.585C114.919 176.315 115.106 175.949 115.106 175.486C115.106 175.223 115.03 174.991 114.878 174.792C114.731 174.587 114.482 174.391 114.131 174.203C113.779 174.01 113.293 173.799 112.672 173.57C112.057 173.336 111.523 173.104 111.072 172.876C110.627 172.642 110.281 172.357 110.035 172.023C109.795 171.689 109.675 171.256 109.675 170.723C109.675 169.908 110.003 169.284 110.659 168.851C111.321 168.411 112.188 168.191 113.261 168.191C113.841 168.191 114.383 168.25 114.887 168.367C115.396 168.479 115.871 168.631 116.311 168.824L115.818 169.993C115.42 169.823 114.995 169.68 114.544 169.562C114.093 169.445 113.633 169.387 113.164 169.387C112.49 169.387 111.972 169.498 111.608 169.721C111.251 169.943 111.072 170.248 111.072 170.635C111.072 170.934 111.154 171.18 111.318 171.373C111.488 171.566 111.758 171.748 112.127 171.918C112.496 172.088 112.982 172.287 113.586 172.516C114.189 172.738 114.711 172.97 115.15 173.21C115.59 173.444 115.927 173.731 116.161 174.071C116.401 174.405 116.521 174.836 116.521 175.363ZM125.1 175.363C125.1 175.979 124.944 176.497 124.634 176.919C124.329 177.335 123.89 177.648 123.315 177.859C122.747 178.07 122.067 178.176 121.276 178.176C120.603 178.176 120.02 178.123 119.527 178.018C119.035 177.912 118.604 177.763 118.235 177.569V176.225C118.628 176.418 119.097 176.594 119.642 176.752C120.187 176.91 120.743 176.989 121.312 176.989C122.144 176.989 122.747 176.854 123.122 176.585C123.497 176.315 123.685 175.949 123.685 175.486C123.685 175.223 123.608 174.991 123.456 174.792C123.31 174.587 123.061 174.391 122.709 174.203C122.357 174.01 121.871 173.799 121.25 173.57C120.635 173.336 120.102 173.104 119.65 172.876C119.205 172.642 118.859 172.357 118.613 172.023C118.373 171.689 118.253 171.256 118.253 170.723C118.253 169.908 118.581 169.284 119.237 168.851C119.899 168.411 120.767 168.191 121.839 168.191C122.419 168.191 122.961 168.25 123.465 168.367C123.975 168.479 124.449 168.631 124.889 168.824L124.396 169.993C123.998 169.823 123.573 169.68 123.122 169.562C122.671 169.445 122.211 169.387 121.742 169.387C121.068 169.387 120.55 169.498 120.187 169.721C119.829 169.943 119.65 170.248 119.65 170.635C119.65 170.934 119.732 171.18 119.896 171.373C120.066 171.566 120.336 171.748 120.705 171.918C121.074 172.088 121.561 172.287 122.164 172.516C122.768 172.738 123.289 172.97 123.729 173.21C124.168 173.444 124.505 173.731 124.739 174.071C124.979 174.405 125.1 174.836 125.1 175.363ZM129.116 175.908L129.23 176.11C129.125 176.538 128.99 176.995 128.826 177.481C128.668 177.968 128.492 178.454 128.299 178.94C128.111 179.433 127.921 179.893 127.728 180.32H126.638C126.761 179.852 126.881 179.356 126.998 178.835C127.115 178.319 127.221 177.81 127.314 177.306C127.414 176.796 127.493 176.33 127.552 175.908H129.116ZM143.012 175.363C143.012 175.979 142.856 176.497 142.546 176.919C142.241 177.335 141.802 177.648 141.228 177.859C140.659 178.07 139.979 178.176 139.188 178.176C138.515 178.176 137.932 178.123 137.439 178.018C136.947 177.912 136.517 177.763 136.147 177.569V176.225C136.54 176.418 137.009 176.594 137.554 176.752C138.099 176.91 138.655 176.989 139.224 176.989C140.056 176.989 140.659 176.854 141.034 176.585C141.409 176.315 141.597 175.949 141.597 175.486C141.597 175.223 141.521 174.991 141.368 174.792C141.222 174.587 140.973 174.391 140.621 174.203C140.27 174.01 139.783 173.799 139.162 173.57C138.547 173.336 138.014 173.104 137.562 172.876C137.117 172.642 136.771 172.357 136.525 172.023C136.285 171.689 136.165 171.256 136.165 170.723C136.165 169.908 136.493 169.284 137.149 168.851C137.812 168.411 138.679 168.191 139.751 168.191C140.331 168.191 140.873 168.25 141.377 168.367C141.887 168.479 142.361 168.631 142.801 168.824L142.309 169.993C141.91 169.823 141.485 169.68 141.034 169.562C140.583 169.445 140.123 169.387 139.654 169.387C138.98 169.387 138.462 169.498 138.099 169.721C137.741 169.943 137.562 170.248 137.562 170.635C137.562 170.934 137.645 171.18 137.809 171.373C137.979 171.566 138.248 171.748 138.617 171.918C138.986 172.088 139.473 172.287 140.076 172.516C140.68 172.738 141.201 172.97 141.641 173.21C142.08 173.444 142.417 173.731 142.651 174.071C142.892 174.405 143.012 174.836 143.012 175.363ZM149.067 168.191C149.888 168.191 150.591 168.373 151.177 168.736C151.763 169.1 152.211 169.609 152.521 170.266C152.832 170.916 152.987 171.678 152.987 172.551V173.456H146.334C146.352 174.587 146.633 175.448 147.178 176.04C147.723 176.632 148.49 176.928 149.48 176.928C150.09 176.928 150.629 176.872 151.098 176.761C151.566 176.649 152.053 176.485 152.557 176.269V177.552C152.07 177.769 151.587 177.927 151.106 178.026C150.632 178.126 150.069 178.176 149.419 178.176C148.493 178.176 147.685 177.988 146.993 177.613C146.308 177.232 145.774 176.676 145.394 175.943C145.013 175.211 144.822 174.314 144.822 173.254C144.822 172.217 144.995 171.32 145.341 170.564C145.692 169.803 146.185 169.217 146.817 168.807C147.456 168.396 148.206 168.191 149.067 168.191ZM149.05 169.387C148.271 169.387 147.649 169.642 147.187 170.151C146.724 170.661 146.448 171.373 146.36 172.287H151.458C151.452 171.713 151.361 171.209 151.186 170.775C151.016 170.336 150.755 169.996 150.403 169.756C150.052 169.51 149.601 169.387 149.05 169.387ZM159.069 168.209C160.218 168.209 161.07 168.467 161.627 168.982C162.184 169.498 162.462 170.321 162.462 171.452V178H161.398L161.117 176.576H161.047C160.777 176.928 160.496 177.224 160.203 177.464C159.91 177.698 159.57 177.877 159.184 178C158.803 178.117 158.334 178.176 157.777 178.176C157.191 178.176 156.67 178.073 156.213 177.868C155.762 177.663 155.404 177.353 155.141 176.937C154.883 176.521 154.754 175.993 154.754 175.354C154.754 174.394 155.135 173.655 155.896 173.14C156.658 172.624 157.818 172.343 159.377 172.296L161.038 172.226V171.637C161.038 170.805 160.859 170.222 160.502 169.888C160.145 169.554 159.641 169.387 158.99 169.387C158.486 169.387 158.006 169.46 157.549 169.606C157.092 169.753 156.658 169.926 156.248 170.125L155.8 169.018C156.233 168.795 156.731 168.604 157.294 168.446C157.856 168.288 158.448 168.209 159.069 168.209ZM161.021 173.254L159.553 173.315C158.352 173.362 157.505 173.559 157.013 173.904C156.521 174.25 156.274 174.739 156.274 175.372C156.274 175.923 156.441 176.33 156.775 176.594C157.109 176.857 157.552 176.989 158.103 176.989C158.958 176.989 159.658 176.752 160.203 176.277C160.748 175.803 161.021 175.091 161.021 174.142V173.254ZM169.845 168.191C170.038 168.191 170.24 168.203 170.451 168.227C170.662 168.244 170.85 168.271 171.014 168.306L170.829 169.659C170.671 169.618 170.495 169.586 170.302 169.562C170.108 169.539 169.927 169.527 169.757 169.527C169.37 169.527 169.004 169.606 168.658 169.765C168.318 169.917 168.02 170.14 167.762 170.433C167.504 170.72 167.302 171.068 167.155 171.479C167.009 171.883 166.936 172.334 166.936 172.832V178H165.468V168.367H166.681L166.839 170.143H166.9C167.1 169.785 167.34 169.46 167.621 169.167C167.902 168.868 168.228 168.631 168.597 168.455C168.972 168.279 169.388 168.191 169.845 168.191ZM176.691 178.176C175.824 178.176 175.06 177.997 174.397 177.64C173.735 177.282 173.22 176.737 172.851 176.005C172.481 175.272 172.297 174.35 172.297 173.236C172.297 172.07 172.49 171.118 172.877 170.38C173.27 169.636 173.809 169.085 174.494 168.728C175.18 168.37 175.959 168.191 176.832 168.191C177.312 168.191 177.775 168.241 178.221 168.341C178.672 168.435 179.041 168.555 179.328 168.701L178.889 169.923C178.596 169.806 178.256 169.7 177.869 169.606C177.488 169.513 177.131 169.466 176.797 169.466C176.129 169.466 175.572 169.609 175.127 169.896C174.688 170.184 174.356 170.605 174.134 171.162C173.917 171.719 173.809 172.404 173.809 173.219C173.809 173.998 173.914 174.663 174.125 175.214C174.342 175.765 174.661 176.187 175.083 176.479C175.511 176.767 176.044 176.91 176.683 176.91C177.192 176.91 177.652 176.857 178.062 176.752C178.473 176.641 178.845 176.512 179.179 176.365V177.666C178.856 177.83 178.496 177.956 178.098 178.044C177.705 178.132 177.236 178.176 176.691 178.176ZM182.923 164.324V168.411C182.923 168.646 182.917 168.883 182.905 169.123C182.894 169.357 182.873 169.574 182.844 169.773H182.94C183.14 169.434 183.392 169.149 183.696 168.921C184.007 168.687 184.358 168.511 184.751 168.394C185.144 168.271 185.56 168.209 185.999 168.209C186.772 168.209 187.417 168.332 187.933 168.578C188.454 168.824 188.844 169.205 189.102 169.721C189.365 170.236 189.497 170.904 189.497 171.725V178H188.056V171.821C188.056 171.019 187.871 170.418 187.502 170.02C187.139 169.621 186.579 169.422 185.823 169.422C185.108 169.422 184.537 169.56 184.109 169.835C183.688 170.104 183.383 170.503 183.195 171.03C183.014 171.558 182.923 172.202 182.923 172.964V178H181.464V164.324H182.923ZM194.173 175.908L194.287 176.11C194.182 176.538 194.047 176.995 193.883 177.481C193.725 177.968 193.549 178.454 193.355 178.94C193.168 179.433 192.978 179.893 192.784 180.32H191.694C191.817 179.852 191.938 179.356 192.055 178.835C192.172 178.319 192.277 177.81 192.371 177.306C192.471 176.796 192.55 176.33 192.608 175.908H194.173ZM205.44 168.209C206.589 168.209 207.441 168.467 207.998 168.982C208.555 169.498 208.833 170.321 208.833 171.452V178H207.77L207.488 176.576H207.418C207.148 176.928 206.867 177.224 206.574 177.464C206.281 177.698 205.941 177.877 205.555 178C205.174 178.117 204.705 178.176 204.148 178.176C203.562 178.176 203.041 178.073 202.584 177.868C202.133 177.663 201.775 177.353 201.512 176.937C201.254 176.521 201.125 175.993 201.125 175.354C201.125 174.394 201.506 173.655 202.268 173.14C203.029 172.624 204.189 172.343 205.748 172.296L207.409 172.226V171.637C207.409 170.805 207.23 170.222 206.873 169.888C206.516 169.554 206.012 169.387 205.361 169.387C204.857 169.387 204.377 169.46 203.92 169.606C203.463 169.753 203.029 169.926 202.619 170.125L202.171 169.018C202.604 168.795 203.103 168.604 203.665 168.446C204.228 168.288 204.819 168.209 205.44 168.209ZM207.392 173.254L205.924 173.315C204.723 173.362 203.876 173.559 203.384 173.904C202.892 174.25 202.646 174.739 202.646 175.372C202.646 175.923 202.812 176.33 203.146 176.594C203.48 176.857 203.923 176.989 204.474 176.989C205.329 176.989 206.029 176.752 206.574 176.277C207.119 175.803 207.392 175.091 207.392 174.142V173.254ZM216.4 168.191C217.543 168.191 218.407 168.473 218.993 169.035C219.579 169.592 219.872 170.488 219.872 171.725V178H218.431V171.821C218.431 171.019 218.246 170.418 217.877 170.02C217.514 169.621 216.954 169.422 216.198 169.422C215.132 169.422 214.382 169.724 213.948 170.327C213.515 170.931 213.298 171.807 213.298 172.955V178H211.839V168.367H213.017L213.236 169.756H213.315C213.521 169.416 213.781 169.132 214.098 168.903C214.414 168.669 214.769 168.493 215.161 168.376C215.554 168.253 215.967 168.191 216.4 168.191ZM226.306 178.176C225.087 178.176 224.12 177.76 223.405 176.928C222.696 176.096 222.342 174.859 222.342 173.219C222.342 171.561 222.705 170.31 223.432 169.466C224.158 168.616 225.125 168.191 226.332 168.191C226.842 168.191 227.287 168.259 227.668 168.394C228.049 168.528 228.377 168.71 228.652 168.938C228.928 169.161 229.159 169.416 229.347 169.703H229.452C229.429 169.521 229.405 169.272 229.382 168.956C229.358 168.64 229.347 168.382 229.347 168.183V164.324H230.806V178H229.628L229.408 176.629H229.347C229.165 176.916 228.934 177.177 228.652 177.411C228.377 177.646 228.046 177.833 227.659 177.974C227.278 178.108 226.827 178.176 226.306 178.176ZM226.534 176.963C227.565 176.963 228.295 176.67 228.723 176.084C229.15 175.498 229.364 174.628 229.364 173.474V173.21C229.364 171.985 229.159 171.045 228.749 170.389C228.345 169.732 227.606 169.404 226.534 169.404C225.638 169.404 224.967 169.75 224.521 170.441C224.076 171.127 223.854 172.064 223.854 173.254C223.854 174.438 224.073 175.352 224.513 175.996C224.958 176.641 225.632 176.963 226.534 176.963ZM242.864 169.51H240.465V178H239.006V169.51H237.301V168.807L239.006 168.323V167.682C239.006 166.873 239.126 166.217 239.366 165.713C239.606 165.203 239.955 164.828 240.412 164.588C240.869 164.348 241.426 164.228 242.082 164.228C242.451 164.228 242.788 164.26 243.093 164.324C243.403 164.389 243.676 164.462 243.91 164.544L243.532 165.695C243.333 165.631 243.107 165.572 242.855 165.52C242.609 165.461 242.357 165.432 242.1 165.432C241.543 165.432 241.13 165.613 240.86 165.977C240.597 166.334 240.465 166.896 240.465 167.664V168.367H242.864V169.51ZM246.09 168.367V178H244.631V168.367H246.09ZM245.378 164.764C245.618 164.764 245.823 164.843 245.993 165.001C246.169 165.153 246.257 165.394 246.257 165.722C246.257 166.044 246.169 166.284 245.993 166.442C245.823 166.601 245.618 166.68 245.378 166.68C245.126 166.68 244.915 166.601 244.745 166.442C244.581 166.284 244.499 166.044 244.499 165.722C244.499 165.394 244.581 165.153 244.745 165.001C244.915 164.843 245.126 164.764 245.378 164.764ZM250.643 178H249.175V164.324H250.643V178ZM256.839 176.98C257.079 176.98 257.325 176.96 257.577 176.919C257.829 176.878 258.034 176.828 258.192 176.77V177.903C258.022 177.979 257.785 178.044 257.48 178.097C257.182 178.149 256.889 178.176 256.602 178.176C256.092 178.176 255.629 178.088 255.213 177.912C254.797 177.73 254.463 177.426 254.211 176.998C253.965 176.57 253.842 175.979 253.842 175.223V169.51H252.471V168.798L253.851 168.227L254.431 166.135H255.31V168.367H258.131V169.51H255.31V175.179C255.31 175.782 255.447 176.233 255.723 176.532C256.004 176.831 256.376 176.98 256.839 176.98ZM263.853 168.191C264.673 168.191 265.376 168.373 265.962 168.736C266.548 169.1 266.996 169.609 267.307 170.266C267.617 170.916 267.772 171.678 267.772 172.551V173.456H261.119C261.137 174.587 261.418 175.448 261.963 176.04C262.508 176.632 263.275 176.928 264.266 176.928C264.875 176.928 265.414 176.872 265.883 176.761C266.352 176.649 266.838 176.485 267.342 176.269V177.552C266.855 177.769 266.372 177.927 265.892 178.026C265.417 178.126 264.854 178.176 264.204 178.176C263.278 178.176 262.47 177.988 261.778 177.613C261.093 177.232 260.56 176.676 260.179 175.943C259.798 175.211 259.607 174.314 259.607 173.254C259.607 172.217 259.78 171.32 260.126 170.564C260.478 169.803 260.97 169.217 261.603 168.807C262.241 168.396 262.991 168.191 263.853 168.191ZM263.835 169.387C263.056 169.387 262.435 169.642 261.972 170.151C261.509 170.661 261.233 171.373 261.146 172.287H266.243C266.237 171.713 266.146 171.209 265.971 170.775C265.801 170.336 265.54 169.996 265.188 169.756C264.837 169.51 264.386 169.387 263.835 169.387ZM274.628 168.191C274.821 168.191 275.023 168.203 275.234 168.227C275.445 168.244 275.633 168.271 275.797 168.306L275.612 169.659C275.454 169.618 275.278 169.586 275.085 169.562C274.892 169.539 274.71 169.527 274.54 169.527C274.153 169.527 273.787 169.606 273.441 169.765C273.102 169.917 272.803 170.14 272.545 170.433C272.287 170.72 272.085 171.068 271.938 171.479C271.792 171.883 271.719 172.334 271.719 172.832V178H270.251V168.367H271.464L271.622 170.143H271.684C271.883 169.785 272.123 169.46 272.404 169.167C272.686 168.868 273.011 168.631 273.38 168.455C273.755 168.279 274.171 168.191 274.628 168.191ZM288.523 175.363C288.523 175.979 288.368 176.497 288.058 176.919C287.753 177.335 287.313 177.648 286.739 177.859C286.171 178.07 285.491 178.176 284.7 178.176C284.026 178.176 283.443 178.123 282.951 178.018C282.459 177.912 282.028 177.763 281.659 177.569V176.225C282.052 176.418 282.521 176.594 283.065 176.752C283.61 176.91 284.167 176.989 284.735 176.989C285.567 176.989 286.171 176.854 286.546 176.585C286.921 176.315 287.108 175.949 287.108 175.486C287.108 175.223 287.032 174.991 286.88 174.792C286.733 174.587 286.484 174.391 286.133 174.203C285.781 174.01 285.295 173.799 284.674 173.57C284.059 173.336 283.525 173.104 283.074 172.876C282.629 172.642 282.283 172.357 282.037 172.023C281.797 171.689 281.677 171.256 281.677 170.723C281.677 169.908 282.005 169.284 282.661 168.851C283.323 168.411 284.19 168.191 285.263 168.191C285.843 168.191 286.385 168.25 286.889 168.367C287.398 168.479 287.873 168.631 288.312 168.824L287.82 169.993C287.422 169.823 286.997 169.68 286.546 169.562C286.095 169.445 285.635 169.387 285.166 169.387C284.492 169.387 283.974 169.498 283.61 169.721C283.253 169.943 283.074 170.248 283.074 170.635C283.074 170.934 283.156 171.18 283.32 171.373C283.49 171.566 283.76 171.748 284.129 171.918C284.498 172.088 284.984 172.287 285.588 172.516C286.191 172.738 286.713 172.97 287.152 173.21C287.592 173.444 287.929 173.731 288.163 174.071C288.403 174.405 288.523 174.836 288.523 175.363ZM292.329 168.367V178H290.87V168.367H292.329ZM291.617 164.764C291.857 164.764 292.062 164.843 292.232 165.001C292.408 165.153 292.496 165.394 292.496 165.722C292.496 166.044 292.408 166.284 292.232 166.442C292.062 166.601 291.857 166.68 291.617 166.68C291.365 166.68 291.154 166.601 290.984 166.442C290.82 166.284 290.738 166.044 290.738 165.722C290.738 165.394 290.82 165.153 290.984 165.001C291.154 164.843 291.365 164.764 291.617 164.764ZM298.112 182.324C296.847 182.324 295.871 182.087 295.186 181.612C294.5 181.144 294.157 180.484 294.157 179.635C294.157 179.031 294.348 178.516 294.729 178.088C295.115 177.66 295.648 177.376 296.328 177.235C296.076 177.118 295.859 176.942 295.678 176.708C295.502 176.474 295.414 176.204 295.414 175.899C295.414 175.548 295.511 175.24 295.704 174.977C295.903 174.707 296.205 174.449 296.609 174.203C296.105 173.998 295.695 173.652 295.379 173.166C295.068 172.674 294.913 172.103 294.913 171.452C294.913 170.761 295.057 170.172 295.344 169.686C295.631 169.193 296.047 168.818 296.592 168.561C297.137 168.303 297.796 168.174 298.569 168.174C298.739 168.174 298.909 168.183 299.079 168.2C299.255 168.212 299.422 168.232 299.58 168.262C299.738 168.285 299.876 168.314 299.993 168.35H303.298V169.29L301.522 169.51C301.698 169.738 301.845 170.014 301.962 170.336C302.079 170.658 302.138 171.016 302.138 171.408C302.138 172.369 301.812 173.134 301.162 173.702C300.512 174.265 299.618 174.546 298.481 174.546C298.212 174.546 297.937 174.522 297.655 174.476C297.368 174.634 297.148 174.81 296.996 175.003C296.85 175.196 296.776 175.419 296.776 175.671C296.776 175.858 296.832 176.008 296.943 176.119C297.061 176.23 297.228 176.312 297.444 176.365C297.661 176.412 297.922 176.436 298.227 176.436H299.923C300.972 176.436 301.774 176.655 302.331 177.095C302.894 177.534 303.175 178.176 303.175 179.02C303.175 180.086 302.741 180.903 301.874 181.472C301.007 182.04 299.753 182.324 298.112 182.324ZM298.156 181.182C298.953 181.182 299.612 181.1 300.134 180.936C300.661 180.777 301.054 180.546 301.312 180.241C301.575 179.942 301.707 179.585 301.707 179.169C301.707 178.782 301.619 178.489 301.443 178.29C301.268 178.097 301.01 177.968 300.67 177.903C300.33 177.833 299.914 177.798 299.422 177.798H297.752C297.318 177.798 296.94 177.865 296.618 178C296.296 178.135 296.047 178.334 295.871 178.598C295.701 178.861 295.616 179.189 295.616 179.582C295.616 180.104 295.836 180.499 296.275 180.769C296.715 181.044 297.342 181.182 298.156 181.182ZM298.534 173.482C299.231 173.482 299.756 173.307 300.107 172.955C300.459 172.604 300.635 172.091 300.635 171.417C300.635 170.696 300.456 170.157 300.099 169.8C299.741 169.437 299.214 169.255 298.517 169.255C297.849 169.255 297.333 169.442 296.97 169.817C296.612 170.187 296.434 170.729 296.434 171.443C296.434 172.1 296.615 172.604 296.979 172.955C297.342 173.307 297.86 173.482 298.534 173.482ZM309.758 168.191C310.9 168.191 311.765 168.473 312.351 169.035C312.937 169.592 313.229 170.488 313.229 171.725V178H311.788V171.821C311.788 171.019 311.604 170.418 311.234 170.02C310.871 169.621 310.312 169.422 309.556 169.422C308.489 169.422 307.739 169.724 307.306 170.327C306.872 170.931 306.655 171.807 306.655 172.955V178H305.196V168.367H306.374L306.594 169.756H306.673C306.878 169.416 307.139 169.132 307.455 168.903C307.771 168.669 308.126 168.493 308.519 168.376C308.911 168.253 309.324 168.191 309.758 168.191ZM319.944 168.191C320.765 168.191 321.468 168.373 322.054 168.736C322.64 169.1 323.088 169.609 323.398 170.266C323.709 170.916 323.864 171.678 323.864 172.551V173.456H317.211C317.229 174.587 317.51 175.448 318.055 176.04C318.6 176.632 319.367 176.928 320.357 176.928C320.967 176.928 321.506 176.872 321.975 176.761C322.443 176.649 322.93 176.485 323.434 176.269V177.552C322.947 177.769 322.464 177.927 321.983 178.026C321.509 178.126 320.946 178.176 320.296 178.176C319.37 178.176 318.562 177.988 317.87 177.613C317.185 177.232 316.651 176.676 316.271 175.943C315.89 175.211 315.699 174.314 315.699 173.254C315.699 172.217 315.872 171.32 316.218 170.564C316.569 169.803 317.062 169.217 317.694 168.807C318.333 168.396 319.083 168.191 319.944 168.191ZM319.927 169.387C319.147 169.387 318.526 169.642 318.063 170.151C317.601 170.661 317.325 171.373 317.237 172.287H322.335C322.329 171.713 322.238 171.209 322.062 170.775C321.893 170.336 321.632 169.996 321.28 169.756C320.929 169.51 320.478 169.387 319.927 169.387ZM329.771 178.176C328.552 178.176 327.585 177.76 326.87 176.928C326.161 176.096 325.807 174.859 325.807 173.219C325.807 171.561 326.17 170.31 326.896 169.466C327.623 168.616 328.59 168.191 329.797 168.191C330.307 168.191 330.752 168.259 331.133 168.394C331.514 168.528 331.842 168.71 332.117 168.938C332.393 169.161 332.624 169.416 332.812 169.703H332.917C332.894 169.521 332.87 169.272 332.847 168.956C332.823 168.64 332.812 168.382 332.812 168.183V164.324H334.271V178H333.093L332.873 176.629H332.812C332.63 176.916 332.398 177.177 332.117 177.411C331.842 177.646 331.511 177.833 331.124 177.974C330.743 178.108 330.292 178.176 329.771 178.176ZM329.999 176.963C331.03 176.963 331.76 176.67 332.188 176.084C332.615 175.498 332.829 174.628 332.829 173.474V173.21C332.829 171.985 332.624 171.045 332.214 170.389C331.81 169.732 331.071 169.404 329.999 169.404C329.103 169.404 328.432 169.75 327.986 170.441C327.541 171.127 327.318 172.064 327.318 173.254C327.318 174.438 327.538 175.352 327.978 175.996C328.423 176.641 329.097 176.963 329.999 176.963ZM25.3965 199.176C24.5293 199.176 23.7646 198.997 23.1025 198.64C22.4404 198.282 21.9248 197.737 21.5557 197.005C21.1865 196.272 21.002 195.35 21.002 194.236C21.002 193.07 21.1953 192.118 21.582 191.38C21.9746 190.636 22.5137 190.085 23.1992 189.728C23.8848 189.37 24.6641 189.191 25.5371 189.191C26.0176 189.191 26.4805 189.241 26.9258 189.341C27.377 189.435 27.7461 189.555 28.0332 189.701L27.5938 190.923C27.3008 190.806 26.9609 190.7 26.5742 190.606C26.1934 190.513 25.8359 190.466 25.502 190.466C24.834 190.466 24.2773 190.609 23.832 190.896C23.3926 191.184 23.0615 191.605 22.8389 192.162C22.6221 192.719 22.5137 193.404 22.5137 194.219C22.5137 194.998 22.6191 195.663 22.8301 196.214C23.0469 196.765 23.3662 197.187 23.7881 197.479C24.2158 197.767 24.749 197.91 25.3877 197.91C25.8975 197.91 26.3574 197.857 26.7676 197.752C27.1777 197.641 27.5498 197.512 27.8838 197.365V198.666C27.5615 198.83 27.2012 198.956 26.8027 199.044C26.4102 199.132 25.9414 199.176 25.3965 199.176ZM38.4746 194.166C38.4746 194.957 38.3721 195.663 38.167 196.284C37.9619 196.905 37.666 197.43 37.2793 197.857C36.8926 198.285 36.4238 198.613 35.873 198.842C35.3281 199.064 34.71 199.176 34.0186 199.176C33.374 199.176 32.7822 199.064 32.2432 198.842C31.71 198.613 31.2471 198.285 30.8545 197.857C30.4678 197.43 30.166 196.905 29.9492 196.284C29.7383 195.663 29.6328 194.957 29.6328 194.166C29.6328 193.111 29.8115 192.215 30.1689 191.477C30.5264 190.732 31.0361 190.167 31.6982 189.78C32.3662 189.388 33.1602 189.191 34.0801 189.191C34.959 189.191 35.7266 189.388 36.3828 189.78C37.0449 190.173 37.5576 190.741 37.9209 191.485C38.29 192.224 38.4746 193.117 38.4746 194.166ZM31.1445 194.166C31.1445 194.939 31.2471 195.61 31.4521 196.179C31.6572 196.747 31.9736 197.187 32.4014 197.497C32.8291 197.808 33.3799 197.963 34.0537 197.963C34.7217 197.963 35.2695 197.808 35.6973 197.497C36.1309 197.187 36.4502 196.747 36.6553 196.179C36.8604 195.61 36.9629 194.939 36.9629 194.166C36.9629 193.398 36.8604 192.736 36.6553 192.18C36.4502 191.617 36.1338 191.184 35.7061 190.879C35.2783 190.574 34.7246 190.422 34.0449 190.422C33.043 190.422 32.3076 190.753 31.8389 191.415C31.376 192.077 31.1445 192.994 31.1445 194.166ZM45.5586 189.191C46.7012 189.191 47.5654 189.473 48.1514 190.035C48.7373 190.592 49.0303 191.488 49.0303 192.725V199H47.5889V192.821C47.5889 192.019 47.4043 191.418 47.0352 191.02C46.6719 190.621 46.1123 190.422 45.3564 190.422C44.29 190.422 43.54 190.724 43.1064 191.327C42.6729 191.931 42.4561 192.807 42.4561 193.955V199H40.9971V189.367H42.1748L42.3945 190.756H42.4736C42.6787 190.416 42.9395 190.132 43.2559 189.903C43.5723 189.669 43.9268 189.493 44.3193 189.376C44.7119 189.253 45.125 189.191 45.5586 189.191ZM55.1475 197.98C55.3877 197.98 55.6338 197.96 55.8857 197.919C56.1377 197.878 56.3428 197.828 56.501 197.77V198.903C56.3311 198.979 56.0938 199.044 55.7891 199.097C55.4902 199.149 55.1973 199.176 54.9102 199.176C54.4004 199.176 53.9375 199.088 53.5215 198.912C53.1055 198.73 52.7715 198.426 52.5195 197.998C52.2734 197.57 52.1504 196.979 52.1504 196.223V190.51H50.7793V189.798L52.1592 189.227L52.7393 187.135H53.6182V189.367H56.4395V190.51H53.6182V196.179C53.6182 196.782 53.7559 197.233 54.0312 197.532C54.3125 197.831 54.6846 197.98 55.1475 197.98ZM62.8291 189.191C63.0225 189.191 63.2246 189.203 63.4355 189.227C63.6465 189.244 63.834 189.271 63.998 189.306L63.8135 190.659C63.6553 190.618 63.4795 190.586 63.2861 190.562C63.0928 190.539 62.9111 190.527 62.7412 190.527C62.3545 190.527 61.9883 190.606 61.6426 190.765C61.3027 190.917 61.0039 191.14 60.7461 191.433C60.4883 191.72 60.2861 192.068 60.1396 192.479C59.9932 192.883 59.9199 193.334 59.9199 193.832V199H58.4521V189.367H59.665L59.8232 191.143H59.8848C60.084 190.785 60.3242 190.46 60.6055 190.167C60.8867 189.868 61.2119 189.631 61.5811 189.455C61.9561 189.279 62.3721 189.191 62.8291 189.191ZM69.4209 189.209C70.5693 189.209 71.4219 189.467 71.9785 189.982C72.5352 190.498 72.8135 191.321 72.8135 192.452V199H71.75L71.4688 197.576H71.3984C71.1289 197.928 70.8477 198.224 70.5547 198.464C70.2617 198.698 69.9219 198.877 69.5352 199C69.1543 199.117 68.6855 199.176 68.1289 199.176C67.543 199.176 67.0215 199.073 66.5645 198.868C66.1133 198.663 65.7559 198.353 65.4922 197.937C65.2344 197.521 65.1055 196.993 65.1055 196.354C65.1055 195.394 65.4863 194.655 66.248 194.14C67.0098 193.624 68.1699 193.343 69.7285 193.296L71.3896 193.226V192.637C71.3896 191.805 71.2109 191.222 70.8535 190.888C70.4961 190.554 69.9922 190.387 69.3418 190.387C68.8379 190.387 68.3574 190.46 67.9004 190.606C67.4434 190.753 67.0098 190.926 66.5996 191.125L66.1514 190.018C66.585 189.795 67.083 189.604 67.6455 189.446C68.208 189.288 68.7998 189.209 69.4209 189.209ZM71.3721 194.254L69.9043 194.315C68.7031 194.362 67.8564 194.559 67.3643 194.904C66.8721 195.25 66.626 195.739 66.626 196.372C66.626 196.923 66.793 197.33 67.127 197.594C67.4609 197.857 67.9033 197.989 68.4541 197.989C69.3096 197.989 70.0098 197.752 70.5547 197.277C71.0996 196.803 71.3721 196.091 71.3721 195.142V194.254ZM79.6777 199.176C78.8105 199.176 78.0459 198.997 77.3838 198.64C76.7217 198.282 76.2061 197.737 75.8369 197.005C75.4678 196.272 75.2832 195.35 75.2832 194.236C75.2832 193.07 75.4766 192.118 75.8633 191.38C76.2559 190.636 76.7949 190.085 77.4805 189.728C78.166 189.37 78.9453 189.191 79.8184 189.191C80.2988 189.191 80.7617 189.241 81.207 189.341C81.6582 189.435 82.0273 189.555 82.3145 189.701L81.875 190.923C81.582 190.806 81.2422 190.7 80.8555 190.606C80.4746 190.513 80.1172 190.466 79.7832 190.466C79.1152 190.466 78.5586 190.609 78.1133 190.896C77.6738 191.184 77.3428 191.605 77.1201 192.162C76.9033 192.719 76.7949 193.404 76.7949 194.219C76.7949 194.998 76.9004 195.663 77.1113 196.214C77.3281 196.765 77.6475 197.187 78.0693 197.479C78.4971 197.767 79.0303 197.91 79.6689 197.91C80.1787 197.91 80.6387 197.857 81.0488 197.752C81.459 197.641 81.8311 197.512 82.165 197.365V198.666C81.8428 198.83 81.4824 198.956 81.084 199.044C80.6914 199.132 80.2227 199.176 79.6777 199.176ZM87.5615 197.98C87.8018 197.98 88.0479 197.96 88.2998 197.919C88.5518 197.878 88.7568 197.828 88.915 197.77V198.903C88.7451 198.979 88.5078 199.044 88.2031 199.097C87.9043 199.149 87.6113 199.176 87.3242 199.176C86.8145 199.176 86.3516 199.088 85.9355 198.912C85.5195 198.73 85.1855 198.426 84.9336 197.998C84.6875 197.57 84.5645 196.979 84.5645 196.223V190.51H83.1934V189.798L84.5732 189.227L85.1533 187.135H86.0322V189.367H88.8535V190.51H86.0322V196.179C86.0322 196.782 86.1699 197.233 86.4453 197.532C86.7266 197.831 87.0986 197.98 87.5615 197.98ZM97.0977 196.363C97.0977 196.979 96.9424 197.497 96.6318 197.919C96.3271 198.335 95.8877 198.648 95.3135 198.859C94.7451 199.07 94.0654 199.176 93.2744 199.176C92.6006 199.176 92.0176 199.123 91.5254 199.018C91.0332 198.912 90.6025 198.763 90.2334 198.569V197.225C90.626 197.418 91.0947 197.594 91.6396 197.752C92.1846 197.91 92.7412 197.989 93.3096 197.989C94.1416 197.989 94.7451 197.854 95.1201 197.585C95.4951 197.315 95.6826 196.949 95.6826 196.486C95.6826 196.223 95.6064 195.991 95.4541 195.792C95.3076 195.587 95.0586 195.391 94.707 195.203C94.3555 195.01 93.8691 194.799 93.248 194.57C92.6328 194.336 92.0996 194.104 91.6484 193.876C91.2031 193.642 90.8574 193.357 90.6113 193.023C90.3711 192.689 90.251 192.256 90.251 191.723C90.251 190.908 90.5791 190.284 91.2354 189.851C91.8975 189.411 92.7646 189.191 93.8369 189.191C94.417 189.191 94.959 189.25 95.4629 189.367C95.9727 189.479 96.4473 189.631 96.8867 189.824L96.3945 190.993C95.9961 190.823 95.5713 190.68 95.1201 190.562C94.6689 190.445 94.209 190.387 93.7402 190.387C93.0664 190.387 92.5479 190.498 92.1846 190.721C91.8271 190.943 91.6484 191.248 91.6484 191.635C91.6484 191.934 91.7305 192.18 91.8945 192.373C92.0645 192.566 92.334 192.748 92.7031 192.918C93.0723 193.088 93.5586 193.287 94.1621 193.516C94.7656 193.738 95.2871 193.97 95.7266 194.21C96.166 194.444 96.5029 194.731 96.7373 195.071C96.9775 195.405 97.0977 195.836 97.0977 196.363ZM107.724 189.209C108.872 189.209 109.725 189.467 110.281 189.982C110.838 190.498 111.116 191.321 111.116 192.452V199H110.053L109.771 197.576H109.701C109.432 197.928 109.15 198.224 108.857 198.464C108.564 198.698 108.225 198.877 107.838 199C107.457 199.117 106.988 199.176 106.432 199.176C105.846 199.176 105.324 199.073 104.867 198.868C104.416 198.663 104.059 198.353 103.795 197.937C103.537 197.521 103.408 196.993 103.408 196.354C103.408 195.394 103.789 194.655 104.551 194.14C105.312 193.624 106.473 193.343 108.031 193.296L109.692 193.226V192.637C109.692 191.805 109.514 191.222 109.156 190.888C108.799 190.554 108.295 190.387 107.645 190.387C107.141 190.387 106.66 190.46 106.203 190.606C105.746 190.753 105.312 190.926 104.902 191.125L104.454 190.018C104.888 189.795 105.386 189.604 105.948 189.446C106.511 189.288 107.103 189.209 107.724 189.209ZM109.675 194.254L108.207 194.315C107.006 194.362 106.159 194.559 105.667 194.904C105.175 195.25 104.929 195.739 104.929 196.372C104.929 196.923 105.096 197.33 105.43 197.594C105.764 197.857 106.206 197.989 106.757 197.989C107.612 197.989 108.312 197.752 108.857 197.277C109.402 196.803 109.675 196.091 109.675 195.142V194.254ZM118.684 189.191C119.826 189.191 120.69 189.473 121.276 190.035C121.862 190.592 122.155 191.488 122.155 192.725V199H120.714V192.821C120.714 192.019 120.529 191.418 120.16 191.02C119.797 190.621 119.237 190.422 118.481 190.422C117.415 190.422 116.665 190.724 116.231 191.327C115.798 191.931 115.581 192.807 115.581 193.955V199H114.122V189.367H115.3L115.52 190.756H115.599C115.804 190.416 116.064 190.132 116.381 189.903C116.697 189.669 117.052 189.493 117.444 189.376C117.837 189.253 118.25 189.191 118.684 189.191ZM123.641 189.367H125.205L127.332 194.957C127.455 195.285 127.569 195.602 127.675 195.906C127.78 196.205 127.874 196.492 127.956 196.768C128.038 197.043 128.103 197.31 128.149 197.567H128.211C128.293 197.274 128.41 196.891 128.562 196.416C128.715 195.936 128.879 195.446 129.055 194.948L131.067 189.367H132.641L128.448 200.415C128.226 201.007 127.965 201.522 127.666 201.962C127.373 202.401 127.016 202.738 126.594 202.973C126.172 203.213 125.662 203.333 125.064 203.333C124.789 203.333 124.546 203.315 124.335 203.28C124.124 203.251 123.942 203.216 123.79 203.175V202.006C123.919 202.035 124.074 202.062 124.256 202.085C124.443 202.108 124.637 202.12 124.836 202.12C125.199 202.12 125.513 202.05 125.776 201.909C126.046 201.774 126.277 201.575 126.471 201.312C126.664 201.048 126.831 200.734 126.972 200.371L127.499 199.018L123.641 189.367ZM137.29 197.98C137.53 197.98 137.776 197.96 138.028 197.919C138.28 197.878 138.485 197.828 138.644 197.77V198.903C138.474 198.979 138.236 199.044 137.932 199.097C137.633 199.149 137.34 199.176 137.053 199.176C136.543 199.176 136.08 199.088 135.664 198.912C135.248 198.73 134.914 198.426 134.662 197.998C134.416 197.57 134.293 196.979 134.293 196.223V190.51H132.922V189.798L134.302 189.227L134.882 187.135H135.761V189.367H138.582V190.51H135.761V196.179C135.761 196.782 135.898 197.233 136.174 197.532C136.455 197.831 136.827 197.98 137.29 197.98ZM142.054 189.367V199H140.595V189.367H142.054ZM141.342 185.764C141.582 185.764 141.787 185.843 141.957 186.001C142.133 186.153 142.221 186.394 142.221 186.722C142.221 187.044 142.133 187.284 141.957 187.442C141.787 187.601 141.582 187.68 141.342 187.68C141.09 187.68 140.879 187.601 140.709 187.442C140.545 187.284 140.463 187.044 140.463 186.722C140.463 186.394 140.545 186.153 140.709 186.001C140.879 185.843 141.09 185.764 141.342 185.764ZM155.606 189.191C156.667 189.191 157.467 189.47 158.006 190.026C158.545 190.577 158.814 191.465 158.814 192.689V199H157.373V192.76C157.373 191.98 157.203 191.397 156.863 191.011C156.529 190.618 156.031 190.422 155.369 190.422C154.438 190.422 153.761 190.691 153.339 191.23C152.917 191.77 152.706 192.563 152.706 193.612V199H151.256V192.76C151.256 192.238 151.18 191.805 151.027 191.459C150.881 191.113 150.658 190.855 150.359 190.686C150.066 190.51 149.694 190.422 149.243 190.422C148.604 190.422 148.092 190.554 147.705 190.817C147.318 191.081 147.037 191.474 146.861 191.995C146.691 192.511 146.606 193.146 146.606 193.902V199H145.147V189.367H146.325L146.545 190.729H146.624C146.817 190.396 147.061 190.114 147.354 189.886C147.646 189.657 147.975 189.484 148.338 189.367C148.701 189.25 149.088 189.191 149.498 189.191C150.23 189.191 150.843 189.329 151.335 189.604C151.833 189.874 152.193 190.287 152.416 190.844H152.495C152.812 190.287 153.245 189.874 153.796 189.604C154.347 189.329 154.95 189.191 155.606 189.191ZM165.521 189.191C166.341 189.191 167.044 189.373 167.63 189.736C168.216 190.1 168.664 190.609 168.975 191.266C169.285 191.916 169.44 192.678 169.44 193.551V194.456H162.787C162.805 195.587 163.086 196.448 163.631 197.04C164.176 197.632 164.943 197.928 165.934 197.928C166.543 197.928 167.082 197.872 167.551 197.761C168.02 197.649 168.506 197.485 169.01 197.269V198.552C168.523 198.769 168.04 198.927 167.56 199.026C167.085 199.126 166.522 199.176 165.872 199.176C164.946 199.176 164.138 198.988 163.446 198.613C162.761 198.232 162.228 197.676 161.847 196.943C161.466 196.211 161.275 195.314 161.275 194.254C161.275 193.217 161.448 192.32 161.794 191.564C162.146 190.803 162.638 190.217 163.271 189.807C163.909 189.396 164.659 189.191 165.521 189.191ZM165.503 190.387C164.724 190.387 164.103 190.642 163.64 191.151C163.177 191.661 162.901 192.373 162.813 193.287H167.911C167.905 192.713 167.814 192.209 167.639 191.775C167.469 191.336 167.208 190.996 166.856 190.756C166.505 190.51 166.054 190.387 165.503 190.387ZM171.699 198.086C171.699 197.676 171.799 197.386 171.998 197.216C172.197 197.04 172.44 196.952 172.728 196.952C173.026 196.952 173.278 197.04 173.483 197.216C173.688 197.386 173.791 197.676 173.791 198.086C173.791 198.49 173.688 198.786 173.483 198.974C173.278 199.155 173.026 199.246 172.728 199.246C172.44 199.246 172.197 199.155 171.998 198.974C171.799 198.786 171.699 198.49 171.699 198.086Z" fill="#FCFDFF"/>
</svg>
