<svg width="402" height="234" viewBox="0 0 402 234" fill="none" xmlns="http://www.w3.org/2000/svg">
<rect width="402" height="234" rx="20" fill="#1E1E1E"/>
<path d="M21.92 145V127.72H25.184V145H21.92ZM37.6136 145V138.88C37.6136 138.584 37.5976 138.208 37.5656 137.752C37.5336 137.288 37.4336 136.824 37.2656 136.36C37.0976 135.896 36.8216 135.508 36.4376 135.196C36.0616 134.884 35.5256 134.728 34.8296 134.728C34.5496 134.728 34.2496 134.772 33.9296 134.86C33.6096 134.948 33.3096 135.12 33.0296 135.376C32.7496 135.624 32.5176 135.992 32.3336 136.48C32.1576 136.968 32.0696 137.616 32.0696 138.424L30.1976 137.536C30.1976 136.512 30.4056 135.552 30.8216 134.656C31.2376 133.76 31.8616 133.036 32.6936 132.484C33.5336 131.932 34.5896 131.656 35.8616 131.656C36.8776 131.656 37.7056 131.828 38.3456 132.172C38.9856 132.516 39.4816 132.952 39.8336 133.48C40.1936 134.008 40.4496 134.56 40.6016 135.136C40.7536 135.704 40.8456 136.224 40.8776 136.696C40.9096 137.168 40.9256 137.512 40.9256 137.728V145H37.6136ZM28.7576 145V132.04H31.6616V136.336H32.0696V145H28.7576ZM51.8154 145C50.9194 145.168 50.0394 145.24 49.1754 145.216C48.3194 145.2 47.5514 145.052 46.8714 144.772C46.1994 144.484 45.6874 144.024 45.3354 143.392C45.0154 142.8 44.8474 142.2 44.8314 141.592C44.8154 140.976 44.8074 140.28 44.8074 139.504V128.44H48.0714V139.312C48.0714 139.816 48.0754 140.272 48.0834 140.68C48.0994 141.08 48.1834 141.4 48.3354 141.64C48.6234 142.096 49.0834 142.344 49.7154 142.384C50.3474 142.424 51.0474 142.392 51.8154 142.288V145ZM42.5994 134.56V132.04H51.8154V134.56H42.5994ZM60.0243 145.36C58.6963 145.36 57.5243 145.076 56.5083 144.508C55.5003 143.932 54.7083 143.144 54.1323 142.144C53.5643 141.136 53.2803 139.984 53.2803 138.688C53.2803 137.272 53.5603 136.04 54.1203 134.992C54.6803 133.944 55.4523 133.132 56.4363 132.556C57.4203 131.972 58.5523 131.68 59.8323 131.68C61.1923 131.68 62.3483 132 63.3003 132.64C64.2523 133.28 64.9563 134.18 65.4123 135.34C65.8683 136.5 66.0283 137.864 65.8923 139.432H62.6643V138.232C62.6643 136.912 62.4523 135.964 62.0283 135.388C61.6123 134.804 60.9283 134.512 59.9763 134.512C58.8643 134.512 58.0443 134.852 57.5163 135.532C56.9963 136.204 56.7363 137.2 56.7363 138.52C56.7363 139.728 56.9963 140.664 57.5163 141.328C58.0443 141.984 58.8163 142.312 59.8323 142.312C60.4723 142.312 61.0203 142.172 61.4763 141.892C61.9323 141.612 62.2803 141.208 62.5203 140.68L65.7843 141.616C65.2963 142.8 64.5243 143.72 63.4683 144.376C62.4203 145.032 61.2723 145.36 60.0243 145.36ZM55.7283 139.432V137.008H64.3203V139.432H55.7283ZM74.1459 151.12C73.4099 151.12 72.7099 151 72.0459 150.76C71.3819 150.528 70.7859 150.2 70.2579 149.776C69.7379 149.36 69.3139 148.872 68.9859 148.312L72.0099 146.848C72.2179 147.232 72.5139 147.524 72.8979 147.724C73.2899 147.924 73.7139 148.024 74.1699 148.024C74.6579 148.024 75.1179 147.94 75.5499 147.772C75.9819 147.612 76.3259 147.368 76.5819 147.04C76.8459 146.72 76.9699 146.32 76.9539 145.84V142.072H77.3619V132.04H80.2179V145.888C80.2179 146.208 80.2019 146.508 80.1699 146.788C80.1459 147.076 80.0979 147.36 80.0259 147.64C79.8179 148.432 79.4299 149.084 78.8619 149.596C78.3019 150.108 77.6139 150.488 76.7979 150.736C75.9819 150.992 75.0979 151.12 74.1459 151.12ZM73.8579 145.36C72.6659 145.36 71.6219 145.06 70.7259 144.46C69.8299 143.86 69.1299 143.044 68.6259 142.012C68.1299 140.98 67.8819 139.816 67.8819 138.52C67.8819 137.2 68.1339 136.028 68.6379 135.004C69.1499 133.972 69.8659 133.16 70.7859 132.568C71.7059 131.976 72.7859 131.68 74.0259 131.68C75.2579 131.68 76.2939 131.98 77.1339 132.58C77.9739 133.18 78.6099 133.996 79.0419 135.028C79.4739 136.06 79.6899 137.224 79.6899 138.52C79.6899 139.816 79.4699 140.98 79.0299 142.012C78.5979 143.044 77.9499 143.86 77.0859 144.46C76.2219 145.06 75.1459 145.36 73.8579 145.36ZM74.3859 142.456C75.1139 142.456 75.6939 142.292 76.1259 141.964C76.5659 141.636 76.8819 141.176 77.0739 140.584C77.2659 139.992 77.3619 139.304 77.3619 138.52C77.3619 137.736 77.2659 137.048 77.0739 136.456C76.8819 135.864 76.5739 135.404 76.1499 135.076C75.7339 134.748 75.1859 134.584 74.5059 134.584C73.7779 134.584 73.1779 134.764 72.7059 135.124C72.2419 135.476 71.8979 135.952 71.6739 136.552C71.4499 137.144 71.3379 137.8 71.3379 138.52C71.3379 139.248 71.4459 139.912 71.6619 140.512C71.8779 141.104 72.2099 141.576 72.6579 141.928C73.1059 142.28 73.6819 142.456 74.3859 142.456ZM83.5784 145V132.04H86.4584V135.208L86.1464 134.8C86.3144 134.352 86.5384 133.944 86.8184 133.576C87.0984 133.208 87.4424 132.904 87.8504 132.664C88.1624 132.472 88.5024 132.324 88.8704 132.22C89.2384 132.108 89.6184 132.04 90.0104 132.016C90.4024 131.984 90.7944 131.992 91.1864 132.04V135.088C90.8264 134.976 90.4064 134.94 89.9264 134.98C89.4544 135.012 89.0264 135.12 88.6424 135.304C88.2584 135.48 87.9344 135.716 87.6704 136.012C87.4064 136.3 87.2064 136.644 87.0704 137.044C86.9344 137.436 86.8664 137.88 86.8664 138.376V145H83.5784ZM96.8113 145.36C95.8833 145.36 95.0953 145.184 94.4473 144.832C93.8073 144.472 93.3193 143.996 92.9833 143.404C92.6553 142.804 92.4913 142.144 92.4913 141.424C92.4913 140.824 92.5833 140.276 92.7673 139.78C92.9513 139.284 93.2473 138.848 93.6553 138.472C94.0713 138.088 94.6273 137.768 95.3233 137.512C95.8033 137.336 96.3753 137.18 97.0393 137.044C97.7033 136.908 98.4553 136.78 99.2953 136.66C100.135 136.532 101.059 136.392 102.067 136.24L100.891 136.888C100.891 136.12 100.707 135.556 100.339 135.196C99.9713 134.836 99.3553 134.656 98.4913 134.656C98.0113 134.656 97.5113 134.772 96.9913 135.004C96.4713 135.236 96.1073 135.648 95.8993 136.24L92.9473 135.304C93.2753 134.232 93.8913 133.36 94.7953 132.688C95.6993 132.016 96.9313 131.68 98.4913 131.68C99.6353 131.68 100.651 131.856 101.539 132.208C102.427 132.56 103.099 133.168 103.555 134.032C103.811 134.512 103.963 134.992 104.011 135.472C104.059 135.952 104.083 136.488 104.083 137.08V145H101.227V142.336L101.635 142.888C101.003 143.76 100.319 144.392 99.5833 144.784C98.8553 145.168 97.9313 145.36 96.8113 145.36ZM97.5073 142.792C98.1073 142.792 98.6113 142.688 99.0193 142.48C99.4353 142.264 99.7633 142.02 100.003 141.748C100.251 141.476 100.419 141.248 100.507 141.064C100.675 140.712 100.771 140.304 100.795 139.84C100.827 139.368 100.843 138.976 100.843 138.664L101.803 138.904C100.835 139.064 100.051 139.2 99.4513 139.312C98.8513 139.416 98.3673 139.512 97.9993 139.6C97.6313 139.688 97.3073 139.784 97.0273 139.888C96.7073 140.016 96.4473 140.156 96.2473 140.308C96.0553 140.452 95.9113 140.612 95.8153 140.788C95.7273 140.964 95.6833 141.16 95.6833 141.376C95.6833 141.672 95.7553 141.928 95.8993 142.144C96.0513 142.352 96.2633 142.512 96.5353 142.624C96.8073 142.736 97.1313 142.792 97.5073 142.792ZM114.979 145C114.083 145.168 113.203 145.24 112.339 145.216C111.483 145.2 110.715 145.052 110.035 144.772C109.363 144.484 108.851 144.024 108.499 143.392C108.179 142.8 108.011 142.2 107.995 141.592C107.979 140.976 107.971 140.28 107.971 139.504V128.44H111.235V139.312C111.235 139.816 111.239 140.272 111.247 140.68C111.263 141.08 111.347 141.4 111.499 141.64C111.787 142.096 112.247 142.344 112.879 142.384C113.511 142.424 114.211 142.392 114.979 142.288V145ZM105.763 134.56V132.04H114.979V134.56H105.763ZM118.108 130.24V127.36H121.372V130.24H118.108ZM118.108 145V132.04H121.372V145H118.108ZM130.801 145.36C129.497 145.36 128.353 145.068 127.369 144.484C126.385 143.9 125.617 143.096 125.065 142.072C124.521 141.04 124.249 139.856 124.249 138.52C124.249 137.168 124.529 135.98 125.089 134.956C125.649 133.924 126.421 133.12 127.405 132.544C128.389 131.968 129.521 131.68 130.801 131.68C132.105 131.68 133.249 131.972 134.233 132.556C135.225 133.14 135.997 133.948 136.549 134.98C137.101 136.004 137.377 137.184 137.377 138.52C137.377 139.864 137.097 141.052 136.537 142.084C135.985 143.108 135.213 143.912 134.221 144.496C133.237 145.072 132.097 145.36 130.801 145.36ZM130.801 142.312C131.849 142.312 132.629 141.96 133.141 141.256C133.661 140.544 133.921 139.632 133.921 138.52C133.921 137.368 133.657 136.448 133.129 135.76C132.609 135.072 131.833 134.728 130.801 134.728C130.089 134.728 129.505 134.888 129.049 135.208C128.593 135.528 128.253 135.972 128.029 136.54C127.813 137.108 127.705 137.768 127.705 138.52C127.705 139.68 127.965 140.604 128.485 141.292C129.013 141.972 129.785 142.312 130.801 142.312ZM148.848 145V138.88C148.848 138.584 148.832 138.208 148.8 137.752C148.768 137.288 148.668 136.824 148.5 136.36C148.332 135.896 148.056 135.508 147.672 135.196C147.296 134.884 146.76 134.728 146.064 134.728C145.784 134.728 145.484 134.772 145.164 134.86C144.844 134.948 144.544 135.12 144.264 135.376C143.984 135.624 143.752 135.992 143.568 136.48C143.392 136.968 143.304 137.616 143.304 138.424L141.432 137.536C141.432 136.512 141.64 135.552 142.056 134.656C142.472 133.76 143.096 133.036 143.928 132.484C144.768 131.932 145.824 131.656 147.096 131.656C148.112 131.656 148.94 131.828 149.58 132.172C150.22 132.516 150.716 132.952 151.068 133.48C151.428 134.008 151.684 134.56 151.836 135.136C151.988 135.704 152.08 136.224 152.112 136.696C152.144 137.168 152.16 137.512 152.16 137.728V145H148.848ZM139.992 145V132.04H142.896V136.336H143.304V145H139.992ZM155.034 138.688V136.168H162.234V138.688H155.034ZM165.352 145V132.04H168.232V135.208L167.92 134.8C168.088 134.352 168.312 133.944 168.592 133.576C168.872 133.208 169.216 132.904 169.624 132.664C169.936 132.472 170.276 132.324 170.644 132.22C171.012 132.108 171.392 132.04 171.784 132.016C172.176 131.984 172.568 131.992 172.96 132.04V135.088C172.6 134.976 172.18 134.94 171.7 134.98C171.228 135.012 170.8 135.12 170.416 135.304C170.032 135.48 169.708 135.716 169.444 136.012C169.18 136.3 168.98 136.644 168.844 137.044C168.708 137.436 168.64 137.88 168.64 138.376V145H165.352ZM181.032 145.36C179.704 145.36 178.532 145.076 177.516 144.508C176.508 143.932 175.716 143.144 175.14 142.144C174.572 141.136 174.288 139.984 174.288 138.688C174.288 137.272 174.568 136.04 175.128 134.992C175.688 133.944 176.46 133.132 177.444 132.556C178.428 131.972 179.56 131.68 180.84 131.68C182.2 131.68 183.356 132 184.308 132.64C185.26 133.28 185.964 134.18 186.42 135.34C186.876 136.5 187.036 137.864 186.9 139.432H183.672V138.232C183.672 136.912 183.46 135.964 183.036 135.388C182.62 134.804 181.936 134.512 180.984 134.512C179.872 134.512 179.052 134.852 178.524 135.532C178.004 136.204 177.744 137.2 177.744 138.52C177.744 139.728 178.004 140.664 178.524 141.328C179.052 141.984 179.824 142.312 180.84 142.312C181.48 142.312 182.028 142.172 182.484 141.892C182.94 141.612 183.288 141.208 183.528 140.68L186.792 141.616C186.304 142.8 185.532 143.72 184.476 144.376C183.428 145.032 182.28 145.36 181.032 145.36ZM176.736 139.432V137.008H185.328V139.432H176.736ZM192.975 145.36C192.047 145.36 191.259 145.184 190.611 144.832C189.971 144.472 189.483 143.996 189.147 143.404C188.819 142.804 188.655 142.144 188.655 141.424C188.655 140.824 188.747 140.276 188.931 139.78C189.115 139.284 189.411 138.848 189.819 138.472C190.235 138.088 190.791 137.768 191.487 137.512C191.967 137.336 192.539 137.18 193.203 137.044C193.867 136.908 194.619 136.78 195.459 136.66C196.299 136.532 197.223 136.392 198.231 136.24L197.055 136.888C197.055 136.12 196.871 135.556 196.503 135.196C196.135 134.836 195.519 134.656 194.655 134.656C194.175 134.656 193.675 134.772 193.155 135.004C192.635 135.236 192.271 135.648 192.063 136.24L189.111 135.304C189.439 134.232 190.055 133.36 190.959 132.688C191.863 132.016 193.095 131.68 194.655 131.68C195.799 131.68 196.815 131.856 197.703 132.208C198.591 132.56 199.263 133.168 199.719 134.032C199.975 134.512 200.127 134.992 200.175 135.472C200.223 135.952 200.247 136.488 200.247 137.08V145H197.391V142.336L197.799 142.888C197.167 143.76 196.483 144.392 195.747 144.784C195.019 145.168 194.095 145.36 192.975 145.36ZM193.671 142.792C194.271 142.792 194.775 142.688 195.183 142.48C195.599 142.264 195.927 142.02 196.167 141.748C196.415 141.476 196.583 141.248 196.671 141.064C196.839 140.712 196.935 140.304 196.959 139.84C196.991 139.368 197.007 138.976 197.007 138.664L197.967 138.904C196.999 139.064 196.215 139.2 195.615 139.312C195.015 139.416 194.531 139.512 194.163 139.6C193.795 139.688 193.471 139.784 193.191 139.888C192.871 140.016 192.611 140.156 192.411 140.308C192.219 140.452 192.075 140.612 191.979 140.788C191.891 140.964 191.847 141.16 191.847 141.376C191.847 141.672 191.919 141.928 192.063 142.144C192.215 142.352 192.427 142.512 192.699 142.624C192.971 142.736 193.295 142.792 193.671 142.792ZM208.624 145.36C207.432 145.36 206.388 145.06 205.492 144.46C204.596 143.86 203.896 143.044 203.392 142.012C202.896 140.98 202.648 139.816 202.648 138.52C202.648 137.2 202.9 136.028 203.404 135.004C203.916 133.972 204.632 133.16 205.552 132.568C206.472 131.976 207.552 131.68 208.792 131.68C210.024 131.68 211.06 131.98 211.9 132.58C212.74 133.18 213.376 133.996 213.807 135.028C214.24 136.06 214.456 137.224 214.456 138.52C214.456 139.816 214.236 140.98 213.796 142.012C213.364 143.044 212.716 143.86 211.852 144.46C210.988 145.06 209.912 145.36 208.624 145.36ZM209.152 142.456C209.88 142.456 210.46 142.292 210.892 141.964C211.332 141.636 211.648 141.176 211.84 140.584C212.032 139.992 212.128 139.304 212.128 138.52C212.128 137.736 212.032 137.048 211.84 136.456C211.648 135.864 211.34 135.404 210.916 135.076C210.5 134.748 209.952 134.584 209.272 134.584C208.544 134.584 207.944 134.764 207.472 135.124C207.008 135.476 206.664 135.952 206.44 136.552C206.216 137.144 206.104 137.8 206.104 138.52C206.104 139.248 206.212 139.912 206.428 140.512C206.644 141.104 206.976 141.576 207.424 141.928C207.872 142.28 208.448 142.456 209.152 142.456ZM212.128 145V136.12H211.72V127.72H215.008V145H212.128ZM220.024 150.76L222.52 143.896L222.568 145.912L216.928 132.04H220.312L224.104 141.856H223.336L227.104 132.04H230.368L223.048 150.76H220.024Z" fill="white"/>
<line x1="20" y1="164.796" x2="280.017" y2="164.796" stroke="#EDEEFF" stroke-width="0.407326"/>
<path d="M27.251 182.284C26.542 182.284 25.9033 182.407 25.335 182.653C24.7725 182.894 24.292 183.245 23.8936 183.708C23.501 184.165 23.1992 184.719 22.9883 185.369C22.7773 186.02 22.6719 186.752 22.6719 187.566C22.6719 188.645 22.8389 189.582 23.1729 190.379C23.5127 191.17 24.0166 191.782 24.6846 192.216C25.3584 192.649 26.1992 192.866 27.207 192.866C27.7812 192.866 28.3203 192.819 28.8242 192.726C29.334 192.626 29.8291 192.503 30.3096 192.356V193.657C29.8408 193.833 29.3486 193.962 28.833 194.044C28.3174 194.132 27.7051 194.176 26.9961 194.176C25.6895 194.176 24.5967 193.906 23.7178 193.367C22.8447 192.822 22.1885 192.055 21.749 191.064C21.3154 190.074 21.0986 188.905 21.0986 187.558C21.0986 186.585 21.2334 185.697 21.5029 184.895C21.7783 184.086 22.1768 183.389 22.6982 182.803C23.2256 182.217 23.8701 181.766 24.6318 181.449C25.3994 181.127 26.2783 180.966 27.2686 180.966C27.9189 180.966 28.5459 181.03 29.1494 181.159C29.7529 181.288 30.2979 181.473 30.7842 181.713L30.1865 182.979C29.7764 182.791 29.3252 182.63 28.833 182.495C28.3467 182.354 27.8193 182.284 27.251 182.284ZM41.1816 189.166C41.1816 189.957 41.0791 190.663 40.874 191.284C40.6689 191.905 40.373 192.43 39.9863 192.857C39.5996 193.285 39.1309 193.613 38.5801 193.842C38.0352 194.064 37.417 194.176 36.7256 194.176C36.0811 194.176 35.4893 194.064 34.9502 193.842C34.417 193.613 33.9541 193.285 33.5615 192.857C33.1748 192.43 32.873 191.905 32.6562 191.284C32.4453 190.663 32.3398 189.957 32.3398 189.166C32.3398 188.111 32.5186 187.215 32.876 186.477C33.2334 185.732 33.7432 185.167 34.4053 184.78C35.0732 184.388 35.8672 184.191 36.7871 184.191C37.666 184.191 38.4336 184.388 39.0898 184.78C39.752 185.173 40.2646 185.741 40.6279 186.485C40.9971 187.224 41.1816 188.117 41.1816 189.166ZM33.8516 189.166C33.8516 189.939 33.9541 190.61 34.1592 191.179C34.3643 191.747 34.6807 192.187 35.1084 192.497C35.5361 192.808 36.0869 192.963 36.7607 192.963C37.4287 192.963 37.9766 192.808 38.4043 192.497C38.8379 192.187 39.1572 191.747 39.3623 191.179C39.5674 190.61 39.6699 189.939 39.6699 189.166C39.6699 188.398 39.5674 187.736 39.3623 187.18C39.1572 186.617 38.8408 186.184 38.4131 185.879C37.9854 185.574 37.4316 185.422 36.752 185.422C35.75 185.422 35.0146 185.753 34.5459 186.415C34.083 187.077 33.8516 187.994 33.8516 189.166ZM48.2656 184.191C49.4082 184.191 50.2725 184.473 50.8584 185.035C51.4443 185.592 51.7373 186.488 51.7373 187.725V194H50.2959V187.821C50.2959 187.019 50.1113 186.418 49.7422 186.02C49.3789 185.621 48.8193 185.422 48.0635 185.422C46.9971 185.422 46.2471 185.724 45.8135 186.327C45.3799 186.931 45.1631 187.807 45.1631 188.955V194H43.7041V184.367H44.8818L45.1016 185.756H45.1807C45.3857 185.416 45.6465 185.132 45.9629 184.903C46.2793 184.669 46.6338 184.493 47.0264 184.376C47.4189 184.253 47.832 184.191 48.2656 184.191ZM59.3047 184.191C60.4473 184.191 61.3115 184.473 61.8975 185.035C62.4834 185.592 62.7764 186.488 62.7764 187.725V194H61.335V187.821C61.335 187.019 61.1504 186.418 60.7812 186.02C60.418 185.621 59.8584 185.422 59.1025 185.422C58.0361 185.422 57.2861 185.724 56.8525 186.327C56.4189 186.931 56.2021 187.807 56.2021 188.955V194H54.7432V184.367H55.9209L56.1406 185.756H56.2197C56.4248 185.416 56.6855 185.132 57.002 184.903C57.3184 184.669 57.6729 184.493 58.0654 184.376C58.458 184.253 58.8711 184.191 59.3047 184.191ZM69.4912 184.191C70.3115 184.191 71.0146 184.373 71.6006 184.736C72.1865 185.1 72.6348 185.609 72.9453 186.266C73.2559 186.916 73.4111 187.678 73.4111 188.551V189.456H66.7578C66.7754 190.587 67.0566 191.448 67.6016 192.04C68.1465 192.632 68.9141 192.928 69.9043 192.928C70.5137 192.928 71.0527 192.872 71.5215 192.761C71.9902 192.649 72.4766 192.485 72.9805 192.269V193.552C72.4941 193.769 72.0107 193.927 71.5303 194.026C71.0557 194.126 70.4932 194.176 69.8428 194.176C68.917 194.176 68.1084 193.988 67.417 193.613C66.7314 193.232 66.1982 192.676 65.8174 191.943C65.4365 191.211 65.2461 190.314 65.2461 189.254C65.2461 188.217 65.4189 187.32 65.7646 186.564C66.1162 185.803 66.6084 185.217 67.2412 184.807C67.8799 184.396 68.6299 184.191 69.4912 184.191ZM69.4736 185.387C68.6943 185.387 68.0732 185.642 67.6104 186.151C67.1475 186.661 66.8721 187.373 66.7842 188.287H71.8818C71.876 187.713 71.7852 187.209 71.6094 186.775C71.4395 186.336 71.1787 185.996 70.8271 185.756C70.4756 185.51 70.0244 185.387 69.4736 185.387ZM79.748 194.176C78.8809 194.176 78.1162 193.997 77.4541 193.64C76.792 193.282 76.2764 192.737 75.9072 192.005C75.5381 191.272 75.3535 190.35 75.3535 189.236C75.3535 188.07 75.5469 187.118 75.9336 186.38C76.3262 185.636 76.8652 185.085 77.5508 184.728C78.2363 184.37 79.0156 184.191 79.8887 184.191C80.3691 184.191 80.832 184.241 81.2773 184.341C81.7285 184.435 82.0977 184.555 82.3848 184.701L81.9453 185.923C81.6523 185.806 81.3125 185.7 80.9258 185.606C80.5449 185.513 80.1875 185.466 79.8535 185.466C79.1855 185.466 78.6289 185.609 78.1836 185.896C77.7441 186.184 77.4131 186.605 77.1904 187.162C76.9736 187.719 76.8652 188.404 76.8652 189.219C76.8652 189.998 76.9707 190.663 77.1816 191.214C77.3984 191.765 77.7178 192.187 78.1396 192.479C78.5674 192.767 79.1006 192.91 79.7393 192.91C80.249 192.91 80.709 192.857 81.1191 192.752C81.5293 192.641 81.9014 192.512 82.2354 192.365V193.666C81.9131 193.83 81.5527 193.956 81.1543 194.044C80.7617 194.132 80.293 194.176 79.748 194.176ZM87.6318 192.98C87.8721 192.98 88.1182 192.96 88.3701 192.919C88.6221 192.878 88.8271 192.828 88.9854 192.77V193.903C88.8154 193.979 88.5781 194.044 88.2734 194.097C87.9746 194.149 87.6816 194.176 87.3945 194.176C86.8848 194.176 86.4219 194.088 86.0059 193.912C85.5898 193.73 85.2559 193.426 85.0039 192.998C84.7578 192.57 84.6348 191.979 84.6348 191.223V185.51H83.2637V184.798L84.6436 184.227L85.2236 182.135H86.1025V184.367H88.9238V185.51H86.1025V191.179C86.1025 191.782 86.2402 192.233 86.5156 192.532C86.7969 192.831 87.1689 192.98 87.6318 192.98ZM103.452 193.982L101.738 188.375C101.662 188.135 101.589 187.9 101.519 187.672C101.454 187.438 101.393 187.215 101.334 187.004C101.281 186.787 101.231 186.588 101.185 186.406C101.144 186.219 101.108 186.058 101.079 185.923H101.018C100.994 186.058 100.962 186.219 100.921 186.406C100.88 186.588 100.83 186.787 100.771 187.004C100.719 187.221 100.66 187.449 100.596 187.689C100.531 187.924 100.458 188.161 100.376 188.401L98.583 193.982H96.9395L94.2852 184.35H95.7969L97.1855 189.667C97.2793 190.019 97.3672 190.367 97.4492 190.713C97.5371 191.053 97.6104 191.375 97.6689 191.68C97.7334 191.979 97.7803 192.239 97.8096 192.462H97.8799C97.915 192.315 97.9531 192.14 97.9941 191.935C98.041 191.729 98.0908 191.513 98.1436 191.284C98.2021 191.05 98.2637 190.818 98.3281 190.59C98.3926 190.355 98.457 190.136 98.5215 189.931L100.297 184.35H101.87L103.584 189.922C103.672 190.203 103.757 190.496 103.839 190.801C103.927 191.105 104.006 191.401 104.076 191.688C104.146 191.97 104.196 192.222 104.226 192.444H104.296C104.319 192.245 104.363 191.999 104.428 191.706C104.492 191.413 104.565 191.091 104.647 190.739C104.735 190.388 104.826 190.03 104.92 189.667L106.326 184.35H107.812L105.148 193.982H103.452ZM111.028 184.367V194H109.569V184.367H111.028ZM110.316 180.764C110.557 180.764 110.762 180.843 110.932 181.001C111.107 181.153 111.195 181.394 111.195 181.722C111.195 182.044 111.107 182.284 110.932 182.442C110.762 182.601 110.557 182.68 110.316 182.68C110.064 182.68 109.854 182.601 109.684 182.442C109.52 182.284 109.438 182.044 109.438 181.722C109.438 181.394 109.52 181.153 109.684 181.001C109.854 180.843 110.064 180.764 110.316 180.764ZM117.233 192.98C117.474 192.98 117.72 192.96 117.972 192.919C118.224 192.878 118.429 192.828 118.587 192.77V193.903C118.417 193.979 118.18 194.044 117.875 194.097C117.576 194.149 117.283 194.176 116.996 194.176C116.486 194.176 116.023 194.088 115.607 193.912C115.191 193.73 114.857 193.426 114.605 192.998C114.359 192.57 114.236 191.979 114.236 191.223V185.51H112.865V184.798L114.245 184.227L114.825 182.135H115.704V184.367H118.525V185.51H115.704V191.179C115.704 191.782 115.842 192.233 116.117 192.532C116.398 192.831 116.771 192.98 117.233 192.98ZM121.997 180.324V184.411C121.997 184.646 121.991 184.883 121.979 185.123C121.968 185.357 121.947 185.574 121.918 185.773H122.015C122.214 185.434 122.466 185.149 122.771 184.921C123.081 184.687 123.433 184.511 123.825 184.394C124.218 184.271 124.634 184.209 125.073 184.209C125.847 184.209 126.491 184.332 127.007 184.578C127.528 184.824 127.918 185.205 128.176 185.721C128.439 186.236 128.571 186.904 128.571 187.725V194H127.13V187.821C127.13 187.019 126.945 186.418 126.576 186.02C126.213 185.621 125.653 185.422 124.897 185.422C124.183 185.422 123.611 185.56 123.184 185.835C122.762 186.104 122.457 186.503 122.27 187.03C122.088 187.558 121.997 188.202 121.997 188.964V194H120.538V180.324H121.997ZM134.732 184.367H136.297L138.424 189.957C138.547 190.285 138.661 190.602 138.767 190.906C138.872 191.205 138.966 191.492 139.048 191.768C139.13 192.043 139.194 192.31 139.241 192.567H139.303C139.385 192.274 139.502 191.891 139.654 191.416C139.807 190.936 139.971 190.446 140.146 189.948L142.159 184.367H143.732L139.54 195.415C139.317 196.007 139.057 196.522 138.758 196.962C138.465 197.401 138.107 197.738 137.686 197.973C137.264 198.213 136.754 198.333 136.156 198.333C135.881 198.333 135.638 198.315 135.427 198.28C135.216 198.251 135.034 198.216 134.882 198.175V197.006C135.011 197.035 135.166 197.062 135.348 197.085C135.535 197.108 135.729 197.12 135.928 197.12C136.291 197.12 136.604 197.05 136.868 196.909C137.138 196.774 137.369 196.575 137.562 196.312C137.756 196.048 137.923 195.734 138.063 195.371L138.591 194.018L134.732 184.367ZM153.576 189.166C153.576 189.957 153.474 190.663 153.269 191.284C153.063 191.905 152.768 192.43 152.381 192.857C151.994 193.285 151.525 193.613 150.975 193.842C150.43 194.064 149.812 194.176 149.12 194.176C148.476 194.176 147.884 194.064 147.345 193.842C146.812 193.613 146.349 193.285 145.956 192.857C145.569 192.43 145.268 191.905 145.051 191.284C144.84 190.663 144.734 189.957 144.734 189.166C144.734 188.111 144.913 187.215 145.271 186.477C145.628 185.732 146.138 185.167 146.8 184.78C147.468 184.388 148.262 184.191 149.182 184.191C150.061 184.191 150.828 184.388 151.484 184.78C152.146 185.173 152.659 185.741 153.022 186.485C153.392 187.224 153.576 188.117 153.576 189.166ZM146.246 189.166C146.246 189.939 146.349 190.61 146.554 191.179C146.759 191.747 147.075 192.187 147.503 192.497C147.931 192.808 148.481 192.963 149.155 192.963C149.823 192.963 150.371 192.808 150.799 192.497C151.232 192.187 151.552 191.747 151.757 191.179C151.962 190.61 152.064 189.939 152.064 189.166C152.064 188.398 151.962 187.736 151.757 187.18C151.552 186.617 151.235 186.184 150.808 185.879C150.38 185.574 149.826 185.422 149.146 185.422C148.145 185.422 147.409 185.753 146.94 186.415C146.478 187.077 146.246 187.994 146.246 189.166ZM164.053 184.367V194H162.857L162.646 192.646H162.567C162.368 192.98 162.11 193.262 161.794 193.49C161.478 193.719 161.12 193.889 160.722 194C160.329 194.117 159.91 194.176 159.465 194.176C158.703 194.176 158.064 194.053 157.549 193.807C157.033 193.561 156.644 193.18 156.38 192.664C156.122 192.148 155.993 191.486 155.993 190.678V184.367H157.47V190.572C157.47 191.375 157.651 191.976 158.015 192.374C158.378 192.767 158.932 192.963 159.676 192.963C160.391 192.963 160.959 192.828 161.381 192.559C161.809 192.289 162.116 191.894 162.304 191.372C162.491 190.845 162.585 190.2 162.585 189.438V184.367H164.053ZM171.515 184.191C171.708 184.191 171.91 184.203 172.121 184.227C172.332 184.244 172.52 184.271 172.684 184.306L172.499 185.659C172.341 185.618 172.165 185.586 171.972 185.562C171.778 185.539 171.597 185.527 171.427 185.527C171.04 185.527 170.674 185.606 170.328 185.765C169.988 185.917 169.689 186.14 169.432 186.433C169.174 186.72 168.972 187.068 168.825 187.479C168.679 187.883 168.605 188.334 168.605 188.832V194H167.138V184.367H168.351L168.509 186.143H168.57C168.77 185.785 169.01 185.46 169.291 185.167C169.572 184.868 169.897 184.631 170.267 184.455C170.642 184.279 171.058 184.191 171.515 184.191ZM184.892 182.284C184.183 182.284 183.544 182.407 182.976 182.653C182.413 182.894 181.933 183.245 181.534 183.708C181.142 184.165 180.84 184.719 180.629 185.369C180.418 186.02 180.312 186.752 180.312 187.566C180.312 188.645 180.479 189.582 180.813 190.379C181.153 191.17 181.657 191.782 182.325 192.216C182.999 192.649 183.84 192.866 184.848 192.866C185.422 192.866 185.961 192.819 186.465 192.726C186.975 192.626 187.47 192.503 187.95 192.356V193.657C187.481 193.833 186.989 193.962 186.474 194.044C185.958 194.132 185.346 194.176 184.637 194.176C183.33 194.176 182.237 193.906 181.358 193.367C180.485 192.822 179.829 192.055 179.39 191.064C178.956 190.074 178.739 188.905 178.739 187.558C178.739 186.585 178.874 185.697 179.144 184.895C179.419 184.086 179.817 183.389 180.339 182.803C180.866 182.217 181.511 181.766 182.272 181.449C183.04 181.127 183.919 180.966 184.909 180.966C185.56 180.966 186.187 181.03 186.79 181.159C187.394 181.288 187.938 181.473 188.425 181.713L187.827 182.979C187.417 182.791 186.966 182.63 186.474 182.495C185.987 182.354 185.46 182.284 184.892 182.284ZM194.208 181.15C195.263 181.15 196.133 181.282 196.818 181.546C197.51 181.804 198.025 182.199 198.365 182.732C198.705 183.266 198.875 183.945 198.875 184.771C198.875 185.451 198.752 186.02 198.506 186.477C198.26 186.928 197.938 187.294 197.539 187.575C197.141 187.856 196.716 188.073 196.265 188.226L199.789 194H198.049L194.902 188.639H192.23V194H190.736V181.15H194.208ZM194.12 182.442H192.23V187.373H194.27C195.318 187.373 196.089 187.159 196.581 186.731C197.079 186.304 197.328 185.674 197.328 184.842C197.328 183.969 197.064 183.351 196.537 182.987C196.016 182.624 195.21 182.442 194.12 182.442ZM207.497 194L203.182 182.627H203.111C203.135 182.867 203.155 183.16 203.173 183.506C203.19 183.852 203.205 184.229 203.217 184.64C203.229 185.044 203.234 185.457 203.234 185.879V194H201.846V181.15H204.061L208.13 191.838H208.191L212.322 181.15H214.52V194H213.043V185.773C213.043 185.393 213.049 185.012 213.061 184.631C213.072 184.244 213.087 183.881 213.104 183.541C213.122 183.195 213.14 182.896 213.157 182.645H213.087L208.719 194H207.497ZM219.485 191.908L219.6 192.11C219.494 192.538 219.359 192.995 219.195 193.481C219.037 193.968 218.861 194.454 218.668 194.94C218.48 195.433 218.29 195.893 218.097 196.32H217.007C217.13 195.852 217.25 195.356 217.367 194.835C217.484 194.319 217.59 193.81 217.684 193.306C217.783 192.796 217.862 192.33 217.921 191.908H219.485ZM237.107 194H235.613V187.944H228.863V194H227.369V181.15H228.863V186.626H235.613V181.15H237.107V194ZM244.112 181.15C245.167 181.15 246.037 181.282 246.723 181.546C247.414 181.804 247.93 182.199 248.27 182.732C248.609 183.266 248.779 183.945 248.779 184.771C248.779 185.451 248.656 186.02 248.41 186.477C248.164 186.928 247.842 187.294 247.443 187.575C247.045 187.856 246.62 188.073 246.169 188.226L249.693 194H247.953L244.807 188.639H242.135V194H240.641V181.15H244.112ZM244.024 182.442H242.135V187.373H244.174C245.223 187.373 245.993 187.159 246.485 186.731C246.983 186.304 247.232 185.674 247.232 184.842C247.232 183.969 246.969 183.351 246.441 182.987C245.92 182.624 245.114 182.442 244.024 182.442ZM253.2 191.908L253.314 192.11C253.209 192.538 253.074 192.995 252.91 193.481C252.752 193.968 252.576 194.454 252.383 194.94C252.195 195.433 252.005 195.893 251.812 196.32H250.722C250.845 195.852 250.965 195.356 251.082 194.835C251.199 194.319 251.305 193.81 251.398 193.306C251.498 192.796 251.577 192.33 251.636 191.908H253.2ZM269.17 189.166C269.17 189.957 269.067 190.663 268.862 191.284C268.657 191.905 268.361 192.43 267.975 192.857C267.588 193.285 267.119 193.613 266.568 193.842C266.023 194.064 265.405 194.176 264.714 194.176C264.069 194.176 263.478 194.064 262.938 193.842C262.405 193.613 261.942 193.285 261.55 192.857C261.163 192.43 260.861 191.905 260.645 191.284C260.434 190.663 260.328 189.957 260.328 189.166C260.328 188.111 260.507 187.215 260.864 186.477C261.222 185.732 261.731 185.167 262.394 184.78C263.062 184.388 263.855 184.191 264.775 184.191C265.654 184.191 266.422 184.388 267.078 184.78C267.74 185.173 268.253 185.741 268.616 186.485C268.985 187.224 269.17 188.117 269.17 189.166ZM261.84 189.166C261.84 189.939 261.942 190.61 262.147 191.179C262.353 191.747 262.669 192.187 263.097 192.497C263.524 192.808 264.075 192.963 264.749 192.963C265.417 192.963 265.965 192.808 266.393 192.497C266.826 192.187 267.146 191.747 267.351 191.179C267.556 190.61 267.658 189.939 267.658 189.166C267.658 188.398 267.556 187.736 267.351 187.18C267.146 186.617 266.829 186.184 266.401 185.879C265.974 185.574 265.42 185.422 264.74 185.422C263.738 185.422 263.003 185.753 262.534 186.415C262.071 187.077 261.84 187.994 261.84 189.166ZM276.069 184.191C276.263 184.191 276.465 184.203 276.676 184.227C276.887 184.244 277.074 184.271 277.238 184.306L277.054 185.659C276.896 185.618 276.72 185.586 276.526 185.562C276.333 185.539 276.151 185.527 275.981 185.527C275.595 185.527 275.229 185.606 274.883 185.765C274.543 185.917 274.244 186.14 273.986 186.433C273.729 186.72 273.526 187.068 273.38 187.479C273.233 187.883 273.16 188.334 273.16 188.832V194H271.692V184.367H272.905L273.063 186.143H273.125C273.324 185.785 273.564 185.46 273.846 185.167C274.127 184.868 274.452 184.631 274.821 184.455C275.196 184.279 275.612 184.191 276.069 184.191ZM285.201 194H283.733V180.324H285.201V194ZM291.995 184.191C292.815 184.191 293.519 184.373 294.104 184.736C294.69 185.1 295.139 185.609 295.449 186.266C295.76 186.916 295.915 187.678 295.915 188.551V189.456H289.262C289.279 190.587 289.561 191.448 290.105 192.04C290.65 192.632 291.418 192.928 292.408 192.928C293.018 192.928 293.557 192.872 294.025 192.761C294.494 192.649 294.98 192.485 295.484 192.269V193.552C294.998 193.769 294.515 193.927 294.034 194.026C293.56 194.126 292.997 194.176 292.347 194.176C291.421 194.176 290.612 193.988 289.921 193.613C289.235 193.232 288.702 192.676 288.321 191.943C287.94 191.211 287.75 190.314 287.75 189.254C287.75 188.217 287.923 187.32 288.269 186.564C288.62 185.803 289.112 185.217 289.745 184.807C290.384 184.396 291.134 184.191 291.995 184.191ZM291.978 185.387C291.198 185.387 290.577 185.642 290.114 186.151C289.651 186.661 289.376 187.373 289.288 188.287H294.386C294.38 187.713 294.289 187.209 294.113 186.775C293.943 186.336 293.683 185.996 293.331 185.756C292.979 185.51 292.528 185.387 291.978 185.387ZM301.083 198.324C299.817 198.324 298.842 198.087 298.156 197.612C297.471 197.144 297.128 196.484 297.128 195.635C297.128 195.031 297.318 194.516 297.699 194.088C298.086 193.66 298.619 193.376 299.299 193.235C299.047 193.118 298.83 192.942 298.648 192.708C298.473 192.474 298.385 192.204 298.385 191.899C298.385 191.548 298.481 191.24 298.675 190.977C298.874 190.707 299.176 190.449 299.58 190.203C299.076 189.998 298.666 189.652 298.35 189.166C298.039 188.674 297.884 188.103 297.884 187.452C297.884 186.761 298.027 186.172 298.314 185.686C298.602 185.193 299.018 184.818 299.562 184.561C300.107 184.303 300.767 184.174 301.54 184.174C301.71 184.174 301.88 184.183 302.05 184.2C302.226 184.212 302.393 184.232 302.551 184.262C302.709 184.285 302.847 184.314 302.964 184.35H306.269V185.29L304.493 185.51C304.669 185.738 304.815 186.014 304.933 186.336C305.05 186.658 305.108 187.016 305.108 187.408C305.108 188.369 304.783 189.134 304.133 189.702C303.482 190.265 302.589 190.546 301.452 190.546C301.183 190.546 300.907 190.522 300.626 190.476C300.339 190.634 300.119 190.81 299.967 191.003C299.82 191.196 299.747 191.419 299.747 191.671C299.747 191.858 299.803 192.008 299.914 192.119C300.031 192.23 300.198 192.312 300.415 192.365C300.632 192.412 300.893 192.436 301.197 192.436H302.894C303.942 192.436 304.745 192.655 305.302 193.095C305.864 193.534 306.146 194.176 306.146 195.02C306.146 196.086 305.712 196.903 304.845 197.472C303.978 198.04 302.724 198.324 301.083 198.324ZM301.127 197.182C301.924 197.182 302.583 197.1 303.104 196.936C303.632 196.777 304.024 196.546 304.282 196.241C304.546 195.942 304.678 195.585 304.678 195.169C304.678 194.782 304.59 194.489 304.414 194.29C304.238 194.097 303.98 193.968 303.641 193.903C303.301 193.833 302.885 193.798 302.393 193.798H300.723C300.289 193.798 299.911 193.865 299.589 194C299.267 194.135 299.018 194.334 298.842 194.598C298.672 194.861 298.587 195.189 298.587 195.582C298.587 196.104 298.807 196.499 299.246 196.769C299.686 197.044 300.312 197.182 301.127 197.182ZM301.505 189.482C302.202 189.482 302.727 189.307 303.078 188.955C303.43 188.604 303.605 188.091 303.605 187.417C303.605 186.696 303.427 186.157 303.069 185.8C302.712 185.437 302.185 185.255 301.487 185.255C300.819 185.255 300.304 185.442 299.94 185.817C299.583 186.187 299.404 186.729 299.404 187.443C299.404 188.1 299.586 188.604 299.949 188.955C300.312 189.307 300.831 189.482 301.505 189.482ZM311.771 184.209C312.919 184.209 313.771 184.467 314.328 184.982C314.885 185.498 315.163 186.321 315.163 187.452V194H314.1L313.818 192.576H313.748C313.479 192.928 313.197 193.224 312.904 193.464C312.611 193.698 312.271 193.877 311.885 194C311.504 194.117 311.035 194.176 310.479 194.176C309.893 194.176 309.371 194.073 308.914 193.868C308.463 193.663 308.105 193.353 307.842 192.937C307.584 192.521 307.455 191.993 307.455 191.354C307.455 190.394 307.836 189.655 308.598 189.14C309.359 188.624 310.52 188.343 312.078 188.296L313.739 188.226V187.637C313.739 186.805 313.561 186.222 313.203 185.888C312.846 185.554 312.342 185.387 311.691 185.387C311.188 185.387 310.707 185.46 310.25 185.606C309.793 185.753 309.359 185.926 308.949 186.125L308.501 185.018C308.935 184.795 309.433 184.604 309.995 184.446C310.558 184.288 311.149 184.209 311.771 184.209ZM313.722 189.254L312.254 189.315C311.053 189.362 310.206 189.559 309.714 189.904C309.222 190.25 308.976 190.739 308.976 191.372C308.976 191.923 309.143 192.33 309.477 192.594C309.811 192.857 310.253 192.989 310.804 192.989C311.659 192.989 312.359 192.752 312.904 192.277C313.449 191.803 313.722 191.091 313.722 190.142V189.254ZM319.637 194H318.169V180.324H319.637V194ZM330.509 192.98C330.749 192.98 330.995 192.96 331.247 192.919C331.499 192.878 331.704 192.828 331.862 192.77V193.903C331.692 193.979 331.455 194.044 331.15 194.097C330.852 194.149 330.559 194.176 330.271 194.176C329.762 194.176 329.299 194.088 328.883 193.912C328.467 193.73 328.133 193.426 327.881 192.998C327.635 192.57 327.512 191.979 327.512 191.223V185.51H326.141V184.798L327.521 184.227L328.101 182.135H328.979V184.367H331.801V185.51H328.979V191.179C328.979 191.782 329.117 192.233 329.393 192.532C329.674 192.831 330.046 192.98 330.509 192.98ZM342.119 189.166C342.119 189.957 342.017 190.663 341.812 191.284C341.606 191.905 341.311 192.43 340.924 192.857C340.537 193.285 340.068 193.613 339.518 193.842C338.973 194.064 338.354 194.176 337.663 194.176C337.019 194.176 336.427 194.064 335.888 193.842C335.354 193.613 334.892 193.285 334.499 192.857C334.112 192.43 333.811 191.905 333.594 191.284C333.383 190.663 333.277 189.957 333.277 189.166C333.277 188.111 333.456 187.215 333.813 186.477C334.171 185.732 334.681 185.167 335.343 184.78C336.011 184.388 336.805 184.191 337.725 184.191C338.604 184.191 339.371 184.388 340.027 184.78C340.689 185.173 341.202 185.741 341.565 186.485C341.935 187.224 342.119 188.117 342.119 189.166ZM334.789 189.166C334.789 189.939 334.892 190.61 335.097 191.179C335.302 191.747 335.618 192.187 336.046 192.497C336.474 192.808 337.024 192.963 337.698 192.963C338.366 192.963 338.914 192.808 339.342 192.497C339.775 192.187 340.095 191.747 340.3 191.179C340.505 190.61 340.607 189.939 340.607 189.166C340.607 188.398 340.505 187.736 340.3 187.18C340.095 186.617 339.778 186.184 339.351 185.879C338.923 185.574 338.369 185.422 337.689 185.422C336.688 185.422 335.952 185.753 335.483 186.415C335.021 187.077 334.789 187.994 334.789 189.166ZM352.947 189.166C352.947 189.957 352.845 190.663 352.64 191.284C352.435 191.905 352.139 192.43 351.752 192.857C351.365 193.285 350.896 193.613 350.346 193.842C349.801 194.064 349.183 194.176 348.491 194.176C347.847 194.176 347.255 194.064 346.716 193.842C346.183 193.613 345.72 193.285 345.327 192.857C344.94 192.43 344.639 191.905 344.422 191.284C344.211 190.663 344.105 189.957 344.105 189.166C344.105 188.111 344.284 187.215 344.642 186.477C344.999 185.732 345.509 185.167 346.171 184.78C346.839 184.388 347.633 184.191 348.553 184.191C349.432 184.191 350.199 184.388 350.855 184.78C351.518 185.173 352.03 185.741 352.394 186.485C352.763 187.224 352.947 188.117 352.947 189.166ZM345.617 189.166C345.617 189.939 345.72 190.61 345.925 191.179C346.13 191.747 346.446 192.187 346.874 192.497C347.302 192.808 347.853 192.963 348.526 192.963C349.194 192.963 349.742 192.808 350.17 192.497C350.604 192.187 350.923 191.747 351.128 191.179C351.333 190.61 351.436 189.939 351.436 189.166C351.436 188.398 351.333 187.736 351.128 187.18C350.923 186.617 350.606 186.184 350.179 185.879C349.751 185.574 349.197 185.422 348.518 185.422C347.516 185.422 346.78 185.753 346.312 186.415C345.849 187.077 345.617 187.994 345.617 189.166ZM356.938 194H355.47V180.324H356.938V194ZM366.254 191.363C366.254 191.979 366.099 192.497 365.788 192.919C365.483 193.335 365.044 193.648 364.47 193.859C363.901 194.07 363.222 194.176 362.431 194.176C361.757 194.176 361.174 194.123 360.682 194.018C360.189 193.912 359.759 193.763 359.39 193.569V192.225C359.782 192.418 360.251 192.594 360.796 192.752C361.341 192.91 361.897 192.989 362.466 192.989C363.298 192.989 363.901 192.854 364.276 192.585C364.651 192.315 364.839 191.949 364.839 191.486C364.839 191.223 364.763 190.991 364.61 190.792C364.464 190.587 364.215 190.391 363.863 190.203C363.512 190.01 363.025 189.799 362.404 189.57C361.789 189.336 361.256 189.104 360.805 188.876C360.359 188.642 360.014 188.357 359.768 188.023C359.527 187.689 359.407 187.256 359.407 186.723C359.407 185.908 359.735 185.284 360.392 184.851C361.054 184.411 361.921 184.191 362.993 184.191C363.573 184.191 364.115 184.25 364.619 184.367C365.129 184.479 365.604 184.631 366.043 184.824L365.551 185.993C365.152 185.823 364.728 185.68 364.276 185.562C363.825 185.445 363.365 185.387 362.896 185.387C362.223 185.387 361.704 185.498 361.341 185.721C360.983 185.943 360.805 186.248 360.805 186.635C360.805 186.934 360.887 187.18 361.051 187.373C361.221 187.566 361.49 187.748 361.859 187.918C362.229 188.088 362.715 188.287 363.318 188.516C363.922 188.738 364.443 188.97 364.883 189.21C365.322 189.444 365.659 189.731 365.894 190.071C366.134 190.405 366.254 190.836 366.254 191.363ZM25.8271 206.51H23.4277V215H21.9688V206.51H20.2637V205.807L21.9688 205.323V204.682C21.9688 203.873 22.0889 203.217 22.3291 202.713C22.5693 202.203 22.918 201.828 23.375 201.588C23.832 201.348 24.3887 201.228 25.0449 201.228C25.4141 201.228 25.751 201.26 26.0557 201.324C26.3662 201.389 26.6387 201.462 26.873 201.544L26.4951 202.695C26.2959 202.631 26.0703 202.572 25.8184 202.52C25.5723 202.461 25.3203 202.432 25.0625 202.432C24.5059 202.432 24.0928 202.613 23.8232 202.977C23.5596 203.334 23.4277 203.896 23.4277 204.664V205.367H25.8271V206.51ZM35.9082 210.166C35.9082 210.957 35.8057 211.663 35.6006 212.284C35.3955 212.905 35.0996 213.43 34.7129 213.857C34.3262 214.285 33.8574 214.613 33.3066 214.842C32.7617 215.064 32.1436 215.176 31.4521 215.176C30.8076 215.176 30.2158 215.064 29.6768 214.842C29.1436 214.613 28.6807 214.285 28.2881 213.857C27.9014 213.43 27.5996 212.905 27.3828 212.284C27.1719 211.663 27.0664 210.957 27.0664 210.166C27.0664 209.111 27.2451 208.215 27.6025 207.477C27.96 206.732 28.4697 206.167 29.1318 205.78C29.7998 205.388 30.5938 205.191 31.5137 205.191C32.3926 205.191 33.1602 205.388 33.8164 205.78C34.4785 206.173 34.9912 206.741 35.3545 207.485C35.7236 208.224 35.9082 209.117 35.9082 210.166ZM28.5781 210.166C28.5781 210.939 28.6807 211.61 28.8857 212.179C29.0908 212.747 29.4072 213.187 29.835 213.497C30.2627 213.808 30.8135 213.963 31.4873 213.963C32.1553 213.963 32.7031 213.808 33.1309 213.497C33.5645 213.187 33.8838 212.747 34.0889 212.179C34.2939 211.61 34.3965 210.939 34.3965 210.166C34.3965 209.398 34.2939 208.736 34.0889 208.18C33.8838 207.617 33.5674 207.184 33.1396 206.879C32.7119 206.574 32.1582 206.422 31.4785 206.422C30.4766 206.422 29.7412 206.753 29.2725 207.415C28.8096 208.077 28.5781 208.994 28.5781 210.166ZM42.8076 205.191C43.001 205.191 43.2031 205.203 43.4141 205.227C43.625 205.244 43.8125 205.271 43.9766 205.306L43.792 206.659C43.6338 206.618 43.458 206.586 43.2646 206.562C43.0713 206.539 42.8896 206.527 42.7197 206.527C42.333 206.527 41.9668 206.606 41.6211 206.765C41.2812 206.917 40.9824 207.14 40.7246 207.433C40.4668 207.72 40.2646 208.068 40.1182 208.479C39.9717 208.883 39.8984 209.334 39.8984 209.832V215H38.4307V205.367H39.6436L39.8018 207.143H39.8633C40.0625 206.785 40.3027 206.46 40.584 206.167C40.8652 205.868 41.1904 205.631 41.5596 205.455C41.9346 205.279 42.3506 205.191 42.8076 205.191ZM54.0752 205.209C55.2236 205.209 56.0762 205.467 56.6328 205.982C57.1895 206.498 57.4678 207.321 57.4678 208.452V215H56.4043L56.123 213.576H56.0527C55.7832 213.928 55.502 214.224 55.209 214.464C54.916 214.698 54.5762 214.877 54.1895 215C53.8086 215.117 53.3398 215.176 52.7832 215.176C52.1973 215.176 51.6758 215.073 51.2188 214.868C50.7676 214.663 50.4102 214.353 50.1465 213.937C49.8887 213.521 49.7598 212.993 49.7598 212.354C49.7598 211.394 50.1406 210.655 50.9023 210.14C51.6641 209.624 52.8242 209.343 54.3828 209.296L56.0439 209.226V208.637C56.0439 207.805 55.8652 207.222 55.5078 206.888C55.1504 206.554 54.6465 206.387 53.9961 206.387C53.4922 206.387 53.0117 206.46 52.5547 206.606C52.0977 206.753 51.6641 206.926 51.2539 207.125L50.8057 206.018C51.2393 205.795 51.7373 205.604 52.2998 205.446C52.8623 205.288 53.4541 205.209 54.0752 205.209ZM56.0264 210.254L54.5586 210.315C53.3574 210.362 52.5107 210.559 52.0186 210.904C51.5264 211.25 51.2803 211.739 51.2803 212.372C51.2803 212.923 51.4473 213.33 51.7812 213.594C52.1152 213.857 52.5576 213.989 53.1084 213.989C53.9639 213.989 54.6641 213.752 55.209 213.277C55.7539 212.803 56.0264 212.091 56.0264 211.142V210.254ZM71.3809 212.363C71.3809 212.979 71.2256 213.497 70.915 213.919C70.6104 214.335 70.1709 214.648 69.5967 214.859C69.0283 215.07 68.3486 215.176 67.5576 215.176C66.8838 215.176 66.3008 215.123 65.8086 215.018C65.3164 214.912 64.8857 214.763 64.5166 214.569V213.225C64.9092 213.418 65.3779 213.594 65.9229 213.752C66.4678 213.91 67.0244 213.989 67.5928 213.989C68.4248 213.989 69.0283 213.854 69.4033 213.585C69.7783 213.315 69.9658 212.949 69.9658 212.486C69.9658 212.223 69.8896 211.991 69.7373 211.792C69.5908 211.587 69.3418 211.391 68.9902 211.203C68.6387 211.01 68.1523 210.799 67.5312 210.57C66.916 210.336 66.3828 210.104 65.9316 209.876C65.4863 209.642 65.1406 209.357 64.8945 209.023C64.6543 208.689 64.5342 208.256 64.5342 207.723C64.5342 206.908 64.8623 206.284 65.5186 205.851C66.1807 205.411 67.0479 205.191 68.1201 205.191C68.7002 205.191 69.2422 205.25 69.7461 205.367C70.2559 205.479 70.7305 205.631 71.1699 205.824L70.6777 206.993C70.2793 206.823 69.8545 206.68 69.4033 206.562C68.9521 206.445 68.4922 206.387 68.0234 206.387C67.3496 206.387 66.8311 206.498 66.4678 206.721C66.1104 206.943 65.9316 207.248 65.9316 207.635C65.9316 207.934 66.0137 208.18 66.1777 208.373C66.3477 208.566 66.6172 208.748 66.9863 208.918C67.3555 209.088 67.8418 209.287 68.4453 209.516C69.0488 209.738 69.5703 209.97 70.0098 210.21C70.4492 210.444 70.7861 210.731 71.0205 211.071C71.2607 211.405 71.3809 211.836 71.3809 212.363ZM77.4365 205.191C78.2568 205.191 78.96 205.373 79.5459 205.736C80.1318 206.1 80.5801 206.609 80.8906 207.266C81.2012 207.916 81.3564 208.678 81.3564 209.551V210.456H74.7031C74.7207 211.587 75.002 212.448 75.5469 213.04C76.0918 213.632 76.8594 213.928 77.8496 213.928C78.459 213.928 78.998 213.872 79.4668 213.761C79.9355 213.649 80.4219 213.485 80.9258 213.269V214.552C80.4395 214.769 79.9561 214.927 79.4756 215.026C79.001 215.126 78.4385 215.176 77.7881 215.176C76.8623 215.176 76.0537 214.988 75.3623 214.613C74.6768 214.232 74.1436 213.676 73.7627 212.943C73.3818 212.211 73.1914 211.314 73.1914 210.254C73.1914 209.217 73.3643 208.32 73.71 207.564C74.0615 206.803 74.5537 206.217 75.1865 205.807C75.8252 205.396 76.5752 205.191 77.4365 205.191ZM77.4189 206.387C76.6396 206.387 76.0186 206.642 75.5557 207.151C75.0928 207.661 74.8174 208.373 74.7295 209.287H79.8271C79.8213 208.713 79.7305 208.209 79.5547 207.775C79.3848 207.336 79.124 206.996 78.7725 206.756C78.4209 206.51 77.9697 206.387 77.4189 206.387ZM87.4385 205.209C88.5869 205.209 89.4395 205.467 89.9961 205.982C90.5527 206.498 90.8311 207.321 90.8311 208.452V215H89.7676L89.4863 213.576H89.416C89.1465 213.928 88.8652 214.224 88.5723 214.464C88.2793 214.698 87.9395 214.877 87.5527 215C87.1719 215.117 86.7031 215.176 86.1465 215.176C85.5605 215.176 85.0391 215.073 84.582 214.868C84.1309 214.663 83.7734 214.353 83.5098 213.937C83.252 213.521 83.123 212.993 83.123 212.354C83.123 211.394 83.5039 210.655 84.2656 210.14C85.0273 209.624 86.1875 209.343 87.7461 209.296L89.4072 209.226V208.637C89.4072 207.805 89.2285 207.222 88.8711 206.888C88.5137 206.554 88.0098 206.387 87.3594 206.387C86.8555 206.387 86.375 206.46 85.918 206.606C85.4609 206.753 85.0273 206.926 84.6172 207.125L84.1689 206.018C84.6025 205.795 85.1006 205.604 85.6631 205.446C86.2256 205.288 86.8174 205.209 87.4385 205.209ZM89.3896 210.254L87.9219 210.315C86.7207 210.362 85.874 210.559 85.3818 210.904C84.8896 211.25 84.6436 211.739 84.6436 212.372C84.6436 212.923 84.8105 213.33 85.1445 213.594C85.4785 213.857 85.9209 213.989 86.4717 213.989C87.3271 213.989 88.0273 213.752 88.5723 213.277C89.1172 212.803 89.3896 212.091 89.3896 211.142V210.254ZM104.296 205.191C105.356 205.191 106.156 205.47 106.695 206.026C107.234 206.577 107.504 207.465 107.504 208.689V215H106.062V208.76C106.062 207.98 105.893 207.397 105.553 207.011C105.219 206.618 104.721 206.422 104.059 206.422C103.127 206.422 102.45 206.691 102.028 207.23C101.606 207.77 101.396 208.563 101.396 209.612V215H99.9453V208.76C99.9453 208.238 99.8691 207.805 99.7168 207.459C99.5703 207.113 99.3477 206.855 99.0488 206.686C98.7559 206.51 98.3838 206.422 97.9326 206.422C97.2939 206.422 96.7812 206.554 96.3945 206.817C96.0078 207.081 95.7266 207.474 95.5508 207.995C95.3809 208.511 95.2959 209.146 95.2959 209.902V215H93.8369V205.367H95.0146L95.2344 206.729H95.3135C95.5068 206.396 95.75 206.114 96.043 205.886C96.3359 205.657 96.6641 205.484 97.0273 205.367C97.3906 205.25 97.7773 205.191 98.1875 205.191C98.9199 205.191 99.5322 205.329 100.024 205.604C100.522 205.874 100.883 206.287 101.105 206.844H101.185C101.501 206.287 101.935 205.874 102.485 205.604C103.036 205.329 103.64 205.191 104.296 205.191ZM111.969 215H110.501V201.324H111.969V215ZM118.763 205.191C119.583 205.191 120.286 205.373 120.872 205.736C121.458 206.1 121.906 206.609 122.217 207.266C122.527 207.916 122.683 208.678 122.683 209.551V210.456H116.029C116.047 211.587 116.328 212.448 116.873 213.04C117.418 213.632 118.186 213.928 119.176 213.928C119.785 213.928 120.324 213.872 120.793 213.761C121.262 213.649 121.748 213.485 122.252 213.269V214.552C121.766 214.769 121.282 214.927 120.802 215.026C120.327 215.126 119.765 215.176 119.114 215.176C118.188 215.176 117.38 214.988 116.688 214.613C116.003 214.232 115.47 213.676 115.089 212.943C114.708 212.211 114.518 211.314 114.518 210.254C114.518 209.217 114.69 208.32 115.036 207.564C115.388 206.803 115.88 206.217 116.513 205.807C117.151 205.396 117.901 205.191 118.763 205.191ZM118.745 206.387C117.966 206.387 117.345 206.642 116.882 207.151C116.419 207.661 116.144 208.373 116.056 209.287H121.153C121.147 208.713 121.057 208.209 120.881 207.775C120.711 207.336 120.45 206.996 120.099 206.756C119.747 206.51 119.296 206.387 118.745 206.387ZM131.393 212.363C131.393 212.979 131.237 213.497 130.927 213.919C130.622 214.335 130.183 214.648 129.608 214.859C129.04 215.07 128.36 215.176 127.569 215.176C126.896 215.176 126.312 215.123 125.82 215.018C125.328 214.912 124.897 214.763 124.528 214.569V213.225C124.921 213.418 125.39 213.594 125.935 213.752C126.479 213.91 127.036 213.989 127.604 213.989C128.437 213.989 129.04 213.854 129.415 213.585C129.79 213.315 129.978 212.949 129.978 212.486C129.978 212.223 129.901 211.991 129.749 211.792C129.603 211.587 129.354 211.391 129.002 211.203C128.65 211.01 128.164 210.799 127.543 210.57C126.928 210.336 126.395 210.104 125.943 209.876C125.498 209.642 125.152 209.357 124.906 209.023C124.666 208.689 124.546 208.256 124.546 207.723C124.546 206.908 124.874 206.284 125.53 205.851C126.192 205.411 127.06 205.191 128.132 205.191C128.712 205.191 129.254 205.25 129.758 205.367C130.268 205.479 130.742 205.631 131.182 205.824L130.689 206.993C130.291 206.823 129.866 206.68 129.415 206.562C128.964 206.445 128.504 206.387 128.035 206.387C127.361 206.387 126.843 206.498 126.479 206.721C126.122 206.943 125.943 207.248 125.943 207.635C125.943 207.934 126.025 208.18 126.189 208.373C126.359 208.566 126.629 208.748 126.998 208.918C127.367 209.088 127.854 209.287 128.457 209.516C129.061 209.738 129.582 209.97 130.021 210.21C130.461 210.444 130.798 210.731 131.032 211.071C131.272 211.405 131.393 211.836 131.393 212.363ZM139.971 212.363C139.971 212.979 139.815 213.497 139.505 213.919C139.2 214.335 138.761 214.648 138.187 214.859C137.618 215.07 136.938 215.176 136.147 215.176C135.474 215.176 134.891 215.123 134.398 215.018C133.906 214.912 133.476 214.763 133.106 214.569V213.225C133.499 213.418 133.968 213.594 134.513 213.752C135.058 213.91 135.614 213.989 136.183 213.989C137.015 213.989 137.618 213.854 137.993 213.585C138.368 213.315 138.556 212.949 138.556 212.486C138.556 212.223 138.479 211.991 138.327 211.792C138.181 211.587 137.932 211.391 137.58 211.203C137.229 211.01 136.742 210.799 136.121 210.57C135.506 210.336 134.973 210.104 134.521 209.876C134.076 209.642 133.73 209.357 133.484 209.023C133.244 208.689 133.124 208.256 133.124 207.723C133.124 206.908 133.452 206.284 134.108 205.851C134.771 205.411 135.638 205.191 136.71 205.191C137.29 205.191 137.832 205.25 138.336 205.367C138.846 205.479 139.32 205.631 139.76 205.824L139.268 206.993C138.869 206.823 138.444 206.68 137.993 206.562C137.542 206.445 137.082 206.387 136.613 206.387C135.939 206.387 135.421 206.498 135.058 206.721C134.7 206.943 134.521 207.248 134.521 207.635C134.521 207.934 134.604 208.18 134.768 208.373C134.938 208.566 135.207 208.748 135.576 208.918C135.945 209.088 136.432 209.287 137.035 209.516C137.639 209.738 138.16 209.97 138.6 210.21C139.039 210.444 139.376 210.731 139.61 211.071C139.851 211.405 139.971 211.836 139.971 212.363ZM154.833 214.982L153.119 209.375C153.043 209.135 152.97 208.9 152.899 208.672C152.835 208.438 152.773 208.215 152.715 208.004C152.662 207.787 152.612 207.588 152.565 207.406C152.524 207.219 152.489 207.058 152.46 206.923H152.398C152.375 207.058 152.343 207.219 152.302 207.406C152.261 207.588 152.211 207.787 152.152 208.004C152.1 208.221 152.041 208.449 151.977 208.689C151.912 208.924 151.839 209.161 151.757 209.401L149.964 214.982H148.32L145.666 205.35H147.178L148.566 210.667C148.66 211.019 148.748 211.367 148.83 211.713C148.918 212.053 148.991 212.375 149.05 212.68C149.114 212.979 149.161 213.239 149.19 213.462H149.261C149.296 213.315 149.334 213.14 149.375 212.935C149.422 212.729 149.472 212.513 149.524 212.284C149.583 212.05 149.645 211.818 149.709 211.59C149.773 211.355 149.838 211.136 149.902 210.931L151.678 205.35H153.251L154.965 210.922C155.053 211.203 155.138 211.496 155.22 211.801C155.308 212.105 155.387 212.401 155.457 212.688C155.527 212.97 155.577 213.222 155.606 213.444H155.677C155.7 213.245 155.744 212.999 155.809 212.706C155.873 212.413 155.946 212.091 156.028 211.739C156.116 211.388 156.207 211.03 156.301 210.667L157.707 205.35H159.192L156.529 214.982H154.833ZM169.256 210.166C169.256 210.957 169.153 211.663 168.948 212.284C168.743 212.905 168.447 213.43 168.061 213.857C167.674 214.285 167.205 214.613 166.654 214.842C166.109 215.064 165.491 215.176 164.8 215.176C164.155 215.176 163.563 215.064 163.024 214.842C162.491 214.613 162.028 214.285 161.636 213.857C161.249 213.43 160.947 212.905 160.73 212.284C160.52 211.663 160.414 210.957 160.414 210.166C160.414 209.111 160.593 208.215 160.95 207.477C161.308 206.732 161.817 206.167 162.479 205.78C163.147 205.388 163.941 205.191 164.861 205.191C165.74 205.191 166.508 205.388 167.164 205.78C167.826 206.173 168.339 206.741 168.702 207.485C169.071 208.224 169.256 209.117 169.256 210.166ZM161.926 210.166C161.926 210.939 162.028 211.61 162.233 212.179C162.438 212.747 162.755 213.187 163.183 213.497C163.61 213.808 164.161 213.963 164.835 213.963C165.503 213.963 166.051 213.808 166.479 213.497C166.912 213.187 167.231 212.747 167.437 212.179C167.642 211.61 167.744 210.939 167.744 210.166C167.744 209.398 167.642 208.736 167.437 208.18C167.231 207.617 166.915 207.184 166.487 206.879C166.06 206.574 165.506 206.422 164.826 206.422C163.824 206.422 163.089 206.753 162.62 207.415C162.157 208.077 161.926 208.994 161.926 210.166ZM176.155 205.191C176.349 205.191 176.551 205.203 176.762 205.227C176.973 205.244 177.16 205.271 177.324 205.306L177.14 206.659C176.981 206.618 176.806 206.586 176.612 206.562C176.419 206.539 176.237 206.527 176.067 206.527C175.681 206.527 175.314 206.606 174.969 206.765C174.629 206.917 174.33 207.14 174.072 207.433C173.814 207.72 173.612 208.068 173.466 208.479C173.319 208.883 173.246 209.334 173.246 209.832V215H171.778V205.367H172.991L173.149 207.143H173.211C173.41 206.785 173.65 206.46 173.932 206.167C174.213 205.868 174.538 205.631 174.907 205.455C175.282 205.279 175.698 205.191 176.155 205.191ZM180.594 201.324V208.426C180.594 208.66 180.585 208.947 180.567 209.287C180.55 209.621 180.535 209.917 180.523 210.175H180.585C180.708 210.022 180.887 209.797 181.121 209.498C181.361 209.199 181.563 208.959 181.728 208.777L184.927 205.367H186.641L182.765 209.48L186.922 215H185.164L181.763 210.438L180.594 211.511V215H179.144V201.324H180.594ZM192.89 206.51H190.49V215H189.031V206.51H187.326V205.807L189.031 205.323V204.682C189.031 203.873 189.151 203.217 189.392 202.713C189.632 202.203 189.98 201.828 190.438 201.588C190.895 201.348 191.451 201.228 192.107 201.228C192.477 201.228 192.813 201.26 193.118 201.324C193.429 201.389 193.701 201.462 193.936 201.544L193.558 202.695C193.358 202.631 193.133 202.572 192.881 202.52C192.635 202.461 192.383 202.432 192.125 202.432C191.568 202.432 191.155 202.613 190.886 202.977C190.622 203.334 190.49 203.896 190.49 204.664V205.367H192.89V206.51ZM196.124 215H194.656V201.324H196.124V215ZM207.506 210.166C207.506 210.957 207.403 211.663 207.198 212.284C206.993 212.905 206.697 213.43 206.311 213.857C205.924 214.285 205.455 214.613 204.904 214.842C204.359 215.064 203.741 215.176 203.05 215.176C202.405 215.176 201.813 215.064 201.274 214.842C200.741 214.613 200.278 214.285 199.886 213.857C199.499 213.43 199.197 212.905 198.98 212.284C198.77 211.663 198.664 210.957 198.664 210.166C198.664 209.111 198.843 208.215 199.2 207.477C199.558 206.732 200.067 206.167 200.729 205.78C201.397 205.388 202.191 205.191 203.111 205.191C203.99 205.191 204.758 205.388 205.414 205.78C206.076 206.173 206.589 206.741 206.952 207.485C207.321 208.224 207.506 209.117 207.506 210.166ZM200.176 210.166C200.176 210.939 200.278 211.61 200.483 212.179C200.688 212.747 201.005 213.187 201.433 213.497C201.86 213.808 202.411 213.963 203.085 213.963C203.753 213.963 204.301 213.808 204.729 213.497C205.162 213.187 205.481 212.747 205.687 212.179C205.892 211.61 205.994 210.939 205.994 210.166C205.994 209.398 205.892 208.736 205.687 208.18C205.481 207.617 205.165 207.184 204.737 206.879C204.31 206.574 203.756 206.422 203.076 206.422C202.074 206.422 201.339 206.753 200.87 207.415C200.407 208.077 200.176 208.994 200.176 210.166ZM217.868 214.982L216.154 209.375C216.078 209.135 216.005 208.9 215.935 208.672C215.87 208.438 215.809 208.215 215.75 208.004C215.697 207.787 215.647 207.588 215.601 207.406C215.56 207.219 215.524 207.058 215.495 206.923H215.434C215.41 207.058 215.378 207.219 215.337 207.406C215.296 207.588 215.246 207.787 215.188 208.004C215.135 208.221 215.076 208.449 215.012 208.689C214.947 208.924 214.874 209.161 214.792 209.401L212.999 214.982H211.355L208.701 205.35H210.213L211.602 210.667C211.695 211.019 211.783 211.367 211.865 211.713C211.953 212.053 212.026 212.375 212.085 212.68C212.149 212.979 212.196 213.239 212.226 213.462H212.296C212.331 213.315 212.369 213.14 212.41 212.935C212.457 212.729 212.507 212.513 212.56 212.284C212.618 212.05 212.68 211.818 212.744 211.59C212.809 211.355 212.873 211.136 212.938 210.931L214.713 205.35H216.286L218 210.922C218.088 211.203 218.173 211.496 218.255 211.801C218.343 212.105 218.422 212.401 218.492 212.688C218.562 212.97 218.612 213.222 218.642 213.444H218.712C218.735 213.245 218.779 212.999 218.844 212.706C218.908 212.413 218.981 212.091 219.063 211.739C219.151 211.388 219.242 211.03 219.336 210.667L220.742 205.35H222.228L219.564 214.982H217.868ZM223.766 214.086C223.766 213.676 223.865 213.386 224.064 213.216C224.264 213.04 224.507 212.952 224.794 212.952C225.093 212.952 225.345 213.04 225.55 213.216C225.755 213.386 225.857 213.676 225.857 214.086C225.857 214.49 225.755 214.786 225.55 214.974C225.345 215.155 225.093 215.246 224.794 215.246C224.507 215.246 224.264 215.155 224.064 214.974C223.865 214.786 223.766 214.49 223.766 214.086Z" fill="#FCFDFF"/>
</svg>
