<svg width="402" height="323" viewBox="0 0 402 323" fill="none" xmlns="http://www.w3.org/2000/svg">
<rect y="89" width="402" height="234" rx="20" fill="#141415"/>
<rect x="45" width="313" height="170.439" rx="6.33603" fill="#FDFDFD"/>
<path d="M62.9073 28.207V21.2349H62.885L60.7577 22.7663V21.7083L62.8961 20.1713H63.8762V28.207H62.9073ZM65.7919 24.0137C65.7919 23.0225 66.6773 22.3153 67.9526 22.3153C69.1499 22.3153 70.0297 23.0281 70.0743 24.0082H69.1499C69.0831 23.4513 68.632 23.106 67.9192 23.106C67.2119 23.106 66.7442 23.4569 66.7442 23.9636C66.7442 24.3646 67.0504 24.6319 67.7076 24.7989L68.6041 25.0161C69.7736 25.3113 70.1968 25.7345 70.1968 26.5865C70.1968 27.5945 69.2445 28.3073 67.8913 28.3073C66.6217 28.3073 65.7362 27.6167 65.636 26.5921H66.6049C66.7108 27.1935 67.1674 27.5165 67.9526 27.5165C68.7378 27.5165 69.2223 27.1824 69.2223 26.6589C69.2223 26.2468 68.9828 26.0241 68.3313 25.8514L67.3122 25.5897C66.2931 25.328 65.7919 24.8045 65.7919 24.0137ZM71.5166 21.0177H72.4856V22.4155H73.6105V23.2118H72.4856V26.6533C72.4856 27.1824 72.7083 27.4218 73.204 27.4218C73.3153 27.4218 73.5381 27.4051 73.6049 27.394V28.207C73.488 28.2349 73.2207 28.2516 72.9923 28.2516C71.9287 28.2516 71.5166 27.8172 71.5166 26.7035V23.2118H70.6535V22.4155H71.5166V21.0177ZM79.7974 22.3153C81.2731 22.3153 82.2755 23.4958 82.2755 25.3113C82.2755 27.1267 81.2787 28.3073 79.8197 28.3073C78.9899 28.3073 78.3217 27.9007 77.9764 27.2659H77.9541V30.1394H76.9852V22.4155H77.904V23.3956H77.9263C78.2827 22.7441 78.9565 22.3153 79.7974 22.3153ZM79.608 27.4552C80.6383 27.4552 81.2842 26.6255 81.2842 25.3113C81.2842 24.0026 80.6383 23.1673 79.608 23.1673C78.6168 23.1673 77.9485 24.0249 77.9485 25.3113C77.9485 26.6032 78.6168 27.4552 79.608 27.4552ZM85.1657 27.4831C86.079 27.4831 86.7806 26.8427 86.7806 26.0074V25.534L85.2325 25.6287C84.4529 25.6788 84.0074 26.0241 84.0074 26.5698C84.0074 27.1211 84.4696 27.4831 85.1657 27.4831ZM84.9485 28.3073C83.7958 28.3073 83.0217 27.6112 83.0217 26.5698C83.0217 25.5786 83.7846 24.9549 85.1211 24.8769L86.7806 24.7822V24.2977C86.7806 23.5905 86.3129 23.1673 85.511 23.1673C84.7647 23.1673 84.297 23.5181 84.1744 24.0861H83.2389C83.3057 23.0838 84.1633 22.3153 85.5332 22.3153C86.892 22.3153 87.7496 23.0503 87.7496 24.2031V28.207H86.8308V27.2102H86.8085C86.4632 27.8729 85.7281 28.3073 84.9485 28.3073ZM88.9803 28.207V22.4155H89.8936V23.3622H89.9159C90.1052 22.7218 90.6398 22.3153 91.3192 22.3153C91.4863 22.3153 91.631 22.3431 91.709 22.3542V23.2954C91.631 23.2675 91.425 23.2397 91.1911 23.2397C90.4393 23.2397 89.9493 23.7799 89.9493 24.5985V28.207H88.9803ZM92.8116 21.0177H93.7806V22.4155H94.9055V23.2118H93.7806V26.6533C93.7806 27.1824 94.0033 27.4218 94.499 27.4218C94.6103 27.4218 94.8331 27.4051 94.8999 27.394V28.207C94.783 28.2349 94.5157 28.2516 94.2873 28.2516C93.2237 28.2516 92.8116 27.8172 92.8116 26.7035V23.2118H91.9485V22.4155H92.8116V21.0177ZM96.4202 30.3733C96.3032 30.3733 96.1083 30.3621 96.0025 30.3399V29.5268C96.1083 29.5491 96.2587 29.5547 96.3812 29.5547C96.9214 29.5547 97.2221 29.2929 97.4448 28.6191L97.5785 28.2126L95.4401 22.4155H96.4759L98.0797 27.2381H98.0964L99.7002 22.4155H100.719L98.4417 28.6136C97.946 29.9668 97.4671 30.3733 96.4202 30.3733Z" fill="black"/>
<g clip-path="url(#clip0_12_667)">
<rect x="60.2064" y="43.7188" width="282.587" height="30.413" rx="6.33603" fill="#F1F3F5"/>
<g clip-path="url(#clip1_12_667)">
<path fill-rule="evenodd" clip-rule="evenodd" d="M81.0799 62.383C81.0799 62.8922 80.925 63.2942 80.6153 63.589C80.3055 63.8839 79.894 64.0314 79.3806 64.0314H73.8182C73.3048 64.0314 72.8932 63.8839 72.5835 63.589C72.2738 63.2942 72.1189 62.8922 72.1189 62.383C72.1189 62.1581 72.1263 61.9386 72.1412 61.7243C72.156 61.51 72.1857 61.2788 72.2303 61.0306C72.2748 60.7824 72.331 60.5522 72.3989 60.3401C72.4668 60.1279 72.558 59.9211 72.6726 59.7195C72.7871 59.518 72.9187 59.3462 73.0672 59.204C73.2157 59.0619 73.3971 58.9484 73.6113 58.8635C73.8256 58.7787 74.0621 58.7363 74.321 58.7363C74.3591 58.7363 74.4482 58.7819 74.5883 58.8731C74.7283 58.9643 74.8863 59.0661 75.0624 59.1786C75.2385 59.291 75.4676 59.3928 75.7497 59.4841C76.0319 59.5753 76.3151 59.6209 76.5994 59.6209C76.8837 59.6209 77.1669 59.5753 77.449 59.4841C77.7312 59.3928 77.9603 59.291 78.1364 59.1786C78.3124 59.0661 78.4705 58.9643 78.6105 58.8731C78.7505 58.7819 78.8396 58.7363 78.8778 58.7363C79.1366 58.7363 79.3732 58.7787 79.5874 58.8635C79.8017 58.9484 79.9831 59.0619 80.1316 59.204C80.2801 59.3462 80.4116 59.518 80.5262 59.7195C80.6407 59.9211 80.7319 60.1279 80.7998 60.3401C80.8677 60.5522 80.9239 60.7824 80.9685 61.0306C81.013 61.2788 81.0427 61.51 81.0576 61.7243C81.0724 61.9386 81.0799 62.1581 81.0799 62.383H81.0799ZM78.3242 54.975C78.8036 55.4502 79.0433 56.0251 79.0433 56.6998C79.0433 57.3744 78.8047 57.9503 78.3273 58.4277C77.85 58.905 77.274 59.1437 76.5994 59.1437C75.9248 59.1437 75.3488 58.905 74.8715 58.4277C74.3942 57.9503 74.1555 57.3744 74.1555 56.6998C74.1555 56.0251 74.3942 55.4492 74.8715 54.9718C75.3488 54.4945 75.9248 54.2559 76.5994 54.2559C77.274 54.2559 77.8489 54.4956 78.3242 54.975Z" fill="#ADB5BD"/>
<path d="M91.026 59.0934V59.1627L92.7635 61.2071H91.7537L90.0212 59.1478V59.1082L91.7537 57.049H92.7635L91.026 59.0934ZM93.3921 59.0934V59.1627L95.1296 61.2071H94.1198L92.3873 59.1478V59.1082L94.1198 57.049H95.1296L93.3921 59.0934ZM96.1493 59.9596H97.0452C97.1294 60.7318 97.862 61.2417 98.8817 61.2417C99.847 61.2417 100.55 60.7318 100.55 60.0289C100.55 59.425 100.129 59.0538 99.1688 58.8063L98.2531 58.5687C96.9363 58.2321 96.3522 57.6529 96.3522 56.6827C96.3522 55.4947 97.3917 54.6631 98.8768 54.6631C100.297 54.6631 101.327 55.5046 101.367 56.7025H100.476C100.396 55.9353 99.7777 55.465 98.8471 55.465C97.9214 55.465 97.2779 55.9452 97.2779 56.6431C97.2779 57.1827 97.6739 57.5044 98.6441 57.7569L99.3916 57.9549C100.872 58.3261 101.471 58.8954 101.471 59.92C101.471 61.2269 100.441 62.0436 98.7976 62.0436C97.2828 62.0436 96.2334 61.2219 96.1493 59.9596ZM104.074 61.2813C104.886 61.2813 105.51 60.712 105.51 59.9695V59.5488L104.134 59.6329C103.441 59.6775 103.045 59.9844 103.045 60.4695C103.045 60.9595 103.456 61.2813 104.074 61.2813ZM103.881 62.0139C102.857 62.0139 102.169 61.3952 102.169 60.4695C102.169 59.5884 102.847 59.034 104.035 58.9647L105.51 58.8805V58.4499C105.51 57.8212 105.094 57.445 104.381 57.445C103.718 57.445 103.302 57.7569 103.193 58.2618H102.362C102.421 57.3708 103.183 56.6877 104.401 56.6877C105.609 56.6877 106.371 57.3411 106.371 58.3657V61.9248H105.554V61.0388H105.535C105.228 61.6278 104.574 62.0139 103.881 62.0139ZM107.51 61.9248V54.7819H108.371V61.9248H107.51ZM111.598 57.4351C110.791 57.4351 110.227 58.0539 110.173 58.9102H112.969C112.95 58.0489 112.41 57.4351 111.598 57.4351ZM112.95 60.4497H113.796C113.648 61.3506 112.776 62.0139 111.653 62.0139C110.178 62.0139 109.282 60.9892 109.282 59.3706C109.282 57.7717 110.193 56.6877 111.613 56.6877C113.004 56.6877 113.86 57.6975 113.86 59.2567V59.5834H110.168V59.6329C110.168 60.618 110.747 61.2665 111.673 61.2665C112.326 61.2665 112.806 60.9348 112.95 60.4497ZM114.643 58.1974C114.643 57.3163 115.43 56.6877 116.563 56.6877C117.627 56.6877 118.41 57.3213 118.449 58.1925H117.627C117.568 57.6975 117.167 57.3906 116.533 57.3906C115.905 57.3906 115.489 57.7024 115.489 58.1529C115.489 58.5093 115.761 58.7469 116.345 58.8954L117.142 59.0884C118.182 59.3508 118.558 59.727 118.558 60.4843C118.558 61.3803 117.712 62.0139 116.509 62.0139C115.38 62.0139 114.593 61.4001 114.504 60.4893H115.365C115.459 61.0239 115.865 61.311 116.563 61.311C117.261 61.311 117.692 61.014 117.692 60.5487C117.692 60.1824 117.479 59.9844 116.9 59.8309L115.994 59.5983C115.088 59.3656 114.643 58.9003 114.643 58.1974ZM124.681 54.6631C126.706 54.6631 127.973 56.0887 127.973 58.3558C127.973 60.6229 126.706 62.0436 124.681 62.0436C122.657 62.0436 121.389 60.6229 121.389 58.3558C121.389 56.0887 122.657 54.6631 124.681 54.6631ZM124.681 55.4848C123.221 55.4848 122.305 56.5936 122.305 58.3558C122.305 60.1131 123.221 61.2219 124.681 61.2219C126.141 61.2219 127.057 60.1131 127.057 58.3558C127.057 56.5936 126.141 55.4848 124.681 55.4848ZM128.948 61.9248V56.7768H129.76V57.5985H129.78C130.067 57.0441 130.616 56.6877 131.413 56.6877C132.542 56.6877 133.195 57.4153 133.195 58.5835V61.9248H132.334V58.737C132.334 57.9054 131.943 57.45 131.151 57.45C130.339 57.45 129.809 58.0242 129.809 58.8954V61.9248H128.948ZM136.358 57.4351C135.551 57.4351 134.987 58.0539 134.933 58.9102H137.73C137.71 58.0489 137.17 57.4351 136.358 57.4351ZM137.71 60.4497H138.556C138.408 61.3506 137.536 62.0139 136.413 62.0139C134.938 62.0139 134.042 60.9892 134.042 59.3706C134.042 57.7717 134.953 56.6877 136.373 56.6877C137.764 56.6877 138.621 57.6975 138.621 59.2567V59.5834H134.928V59.6329C134.928 60.618 135.507 61.2665 136.433 61.2665C137.086 61.2665 137.566 60.9348 137.71 60.4497ZM141.338 59.0934L139.601 57.049H140.61L142.343 59.1082V59.1478L140.61 61.2071H139.601L141.338 59.1627V59.0934ZM143.704 59.0934L141.967 57.049H142.977L144.709 59.1082V59.1478L142.977 61.2071H141.967L143.704 59.1627V59.0934ZM152.486 61.1229V61.9248H148.149V54.7819H149.04V61.1229H152.486ZM157.802 61.1229V61.9248H153.466V54.7819H154.357V61.1229H157.802ZM161.425 62.0436C159.455 62.0436 158.208 60.613 158.208 58.3509C158.208 56.1085 159.47 54.6631 161.425 54.6631C162.98 54.6631 164.163 55.6086 164.39 57.0342H163.489C163.262 56.0986 162.445 55.4848 161.425 55.4848C160.029 55.4848 159.124 56.6134 159.124 58.3509C159.124 60.1032 160.019 61.2219 161.43 61.2219C162.48 61.2219 163.232 60.717 163.489 59.8458H164.39C164.064 61.2566 163.004 62.0436 161.425 62.0436Z" fill="#ADB5BD"/>
</g>
</g>
<rect x="60.5232" y="44.0356" width="281.953" height="29.7794" rx="6.01923" stroke="#DEE2E6" stroke-width="0.633603"/>
<g clip-path="url(#clip2_12_667)">
<rect x="60.2064" y="84.2695" width="282.587" height="30.413" rx="6.33603" fill="#F1F3F5"/>
<g clip-path="url(#clip3_12_667)">
<path d="M71.5816 102.476V96.3227H71.5024L69.6858 97.6394V96.6989L71.5866 95.3327H72.4726V102.476H71.5816ZM74.5615 97.3424C74.5615 96.7088 74.776 96.1874 75.205 95.7782C75.6373 95.369 76.1851 95.1644 76.8484 95.1644C77.4886 95.1644 78.0249 95.3574 78.4572 95.7436C78.8928 96.1264 79.1106 96.6016 79.1106 97.1692C79.1106 97.5421 79.005 97.9084 78.7938 98.2681C78.5826 98.6278 78.185 99.1211 77.6008 99.7481L75.8832 101.594V101.674H79.2294V102.476H74.6061V101.862L77.0761 99.164C77.5348 98.6657 77.8401 98.2862 77.9919 98.0255C78.1437 97.7648 78.2196 97.4909 78.2196 97.2038C78.2196 96.8474 78.0843 96.5488 77.8137 96.3079C77.5464 96.0637 77.2164 95.9416 76.8237 95.9416C76.4046 95.9416 76.0663 96.0703 75.8089 96.3277C75.5515 96.5851 75.4228 96.9233 75.4228 97.3424V97.3474H74.5615V97.3424ZM82.1945 99.1838V98.4215H83.0607C83.4666 98.4215 83.7983 98.3027 84.0557 98.0651C84.3164 97.8275 84.4467 97.5239 84.4467 97.1543C84.4467 96.7913 84.3213 96.4993 84.0705 96.2782C83.8197 96.0538 83.4881 95.9416 83.0756 95.9416C82.6631 95.9416 82.3298 96.0505 82.0757 96.2683C81.8216 96.4828 81.6764 96.7814 81.6401 97.1642H80.7738C80.82 96.5438 81.051 96.0554 81.4668 95.699C81.8826 95.3426 82.4304 95.1644 83.1102 95.1644C83.5194 95.1644 83.8956 95.2485 84.2388 95.4168C84.5853 95.5819 84.8576 95.8079 85.0556 96.095C85.2536 96.3821 85.3526 96.6956 85.3526 97.0355C85.3526 97.4612 85.242 97.8209 85.0209 98.1146C84.7998 98.4083 84.4929 98.603 84.1002 98.6987V98.7779C84.5853 98.8406 84.9665 99.0304 85.2437 99.3472C85.5209 99.6607 85.6595 100.062 85.6595 100.55C85.6595 101.137 85.4169 101.634 84.9318 102.04C84.4467 102.443 83.8511 102.644 83.1449 102.644C82.4189 102.644 81.8265 102.459 81.3678 102.089C80.9091 101.717 80.6633 101.225 80.6303 100.614H81.4916C81.5312 100.994 81.6995 101.297 81.9965 101.525C82.2935 101.753 82.673 101.867 83.135 101.867C83.6036 101.867 83.988 101.741 84.2883 101.491C84.5919 101.24 84.7437 100.918 84.7437 100.525C84.7437 100.113 84.5969 99.7861 84.3032 99.5452C84.0095 99.3043 83.6085 99.1838 83.1003 99.1838H82.1945ZM89.4463 102.644C88.7698 102.644 88.2104 102.454 87.7682 102.075C87.326 101.692 87.0851 101.192 87.0455 100.575H87.9217C87.9613 100.961 88.1213 101.273 88.4018 101.51C88.6856 101.745 89.0371 101.862 89.4562 101.862C89.9347 101.862 90.3191 101.712 90.6095 101.411C90.9032 101.111 91.0501 100.717 91.0501 100.228C91.0501 99.7399 90.9032 99.3439 90.6095 99.0403C90.3191 98.7334 89.9396 98.5799 89.471 98.5799C89.1476 98.5799 88.8572 98.6509 88.5998 98.7928C88.3424 98.9314 88.1411 99.1277 87.9959 99.3818H87.1593L87.5504 95.3327H91.5352V96.1297H88.2484L88.0454 98.4215H88.1246C88.4711 98.0156 88.9744 97.8127 89.6344 97.8127C90.3142 97.8127 90.8686 98.0354 91.2976 98.4809C91.7266 98.9264 91.9411 99.5006 91.9411 100.204C91.9411 100.93 91.7101 101.519 91.2481 101.971C90.7861 102.419 90.1855 102.644 89.4463 102.644ZM95.8912 102.639C95.3533 102.639 94.8847 102.5 94.4854 102.223C94.0861 101.943 93.7742 101.54 93.5498 101.015C93.3188 100.474 93.2033 99.8108 93.2033 99.0254C93.2033 97.7978 93.4426 96.8474 93.9211 96.1742C94.3996 95.501 95.0761 95.1644 95.9506 95.1644C96.5578 95.1644 97.0709 95.3327 97.4901 95.6693C97.9125 96.0026 98.1798 96.4564 98.292 97.0306H97.3762C97.2805 96.6973 97.1039 96.4349 96.8465 96.2435C96.5924 96.0521 96.2905 95.9564 95.9407 95.9564C95.3599 95.9564 94.9078 96.2072 94.5844 96.7088C94.2643 97.2104 94.0927 97.9364 94.0696 98.8868H94.1488C94.3237 98.5403 94.5778 98.2714 94.9111 98.08C95.2444 97.8853 95.6239 97.7879 96.0496 97.7879C96.7294 97.7879 97.2904 98.014 97.7326 98.4661C98.1748 98.9149 98.3959 99.4858 98.3959 100.179C98.3959 100.898 98.1616 101.489 97.693 101.951C97.2244 102.41 96.6238 102.639 95.8912 102.639ZM94.7279 101.377C95.0381 101.697 95.4226 101.857 95.8813 101.857C96.34 101.857 96.7228 101.7 97.0297 101.387C97.3399 101.07 97.495 100.677 97.495 100.208C97.495 99.7201 97.3448 99.3241 97.0445 99.0205C96.7475 98.7136 96.3631 98.5601 95.8912 98.5601C95.4193 98.5601 95.0299 98.7119 94.723 99.0155C94.4194 99.3191 94.2676 99.7069 94.2676 100.179C94.2676 100.657 94.421 101.057 94.7279 101.377ZM100.128 102.476L103.336 96.199V96.1297H99.5146V95.3327H104.242V96.1594L101.064 102.476H100.128ZM109.756 102.065C109.278 102.451 108.661 102.644 107.905 102.644C107.149 102.644 106.53 102.451 106.049 102.065C105.57 101.675 105.331 101.175 105.331 100.565C105.331 100.1 105.466 99.7003 105.737 99.367C106.007 99.0337 106.367 98.8258 106.816 98.7433V98.6641C106.453 98.5651 106.162 98.372 105.945 98.0849C105.73 97.7978 105.623 97.4596 105.623 97.0702C105.623 96.5125 105.836 96.0554 106.261 95.699C106.69 95.3426 107.238 95.1644 107.905 95.1644C108.572 95.1644 109.118 95.3426 109.543 95.699C109.972 96.0554 110.187 96.5125 110.187 97.0702C110.187 97.4629 110.08 97.8011 109.865 98.0849C109.654 98.3687 109.364 98.5618 108.994 98.6641V98.7433C109.443 98.8258 109.802 99.0337 110.073 99.367C110.344 99.7003 110.479 100.1 110.479 100.565C110.479 101.175 110.238 101.675 109.756 102.065ZM106.697 101.5C107.007 101.755 107.41 101.882 107.905 101.882C108.4 101.882 108.803 101.755 109.113 101.5C109.423 101.243 109.578 100.91 109.578 100.501C109.578 100.091 109.423 99.7597 109.113 99.5056C108.803 99.2482 108.4 99.1195 107.905 99.1195C107.41 99.1195 107.007 99.2482 106.697 99.5056C106.387 99.7597 106.232 100.091 106.232 100.501C106.232 100.91 106.387 101.243 106.697 101.5ZM106.885 98.0354C107.143 98.2565 107.483 98.3671 107.905 98.3671C108.327 98.3671 108.667 98.2565 108.925 98.0354C109.182 97.811 109.311 97.5173 109.311 97.1543C109.311 96.7847 109.182 96.4877 108.925 96.2633C108.667 96.0389 108.327 95.9267 107.905 95.9267C107.483 95.9267 107.143 96.0389 106.885 96.2633C106.628 96.4877 106.499 96.7847 106.499 97.1543C106.499 97.5173 106.628 97.811 106.885 98.0354ZM114.221 102.639C113.614 102.639 113.099 102.472 112.677 102.139C112.258 101.802 111.992 101.347 111.88 100.773H112.796C112.891 101.106 113.066 101.368 113.32 101.56C113.578 101.751 113.881 101.847 114.231 101.847C114.812 101.847 115.262 101.596 115.582 101.095C115.906 100.593 116.079 99.8669 116.102 98.9165H116.063H116.043H116.023C115.848 99.263 115.594 99.5336 115.261 99.7283C114.927 99.9197 114.548 100.015 114.122 100.015C113.442 100.015 112.881 99.791 112.439 99.3422C111.997 98.8901 111.776 98.3176 111.776 97.6246C111.776 96.9052 112.01 96.3161 112.479 95.8574C112.947 95.3954 113.548 95.1644 114.281 95.1644C114.815 95.1644 115.284 95.303 115.686 95.5802C116.089 95.8574 116.401 96.26 116.622 96.788C116.853 97.3292 116.968 97.9925 116.968 98.7779C116.968 100.006 116.729 100.956 116.251 101.629C115.772 102.302 115.096 102.639 114.221 102.639ZM113.122 98.7878C113.423 99.0914 113.809 99.2432 114.281 99.2432C114.752 99.2432 115.14 99.0914 115.444 98.7878C115.751 98.4842 115.904 98.0965 115.904 97.6246C115.904 97.1461 115.749 96.7468 115.439 96.4267C115.132 96.1066 114.749 95.9465 114.29 95.9465C113.832 95.9465 113.447 96.1049 113.137 96.4217C112.83 96.7352 112.677 97.1263 112.677 97.5949C112.677 98.0833 112.825 98.4809 113.122 98.7878Z" fill="#ADB5BD"/>
</g>
</g>
<rect x="60.5232" y="84.5863" width="281.953" height="29.7794" rx="6.01923" stroke="#DEE2E6" stroke-width="0.633603"/>
<g clip-path="url(#clip4_12_667)">
<rect x="60.2064" y="124.82" width="282.587" height="30.413" rx="6.33603" fill="#F1F3F5"/>
<g clip-path="url(#clip5_12_667)">
<path d="M72.73 140.522V142.675H71.9974V140.522H69.8442V139.789H71.9974V137.636H72.73V139.789H74.8833V140.522H72.73ZM76.7445 143.026L79.9521 136.75V136.68H76.1307V135.883H80.858V136.71L77.68 143.026H76.7445ZM85.3872 143.026L88.5949 136.75V136.68H84.7734V135.883H89.5007V136.71L86.3228 143.026H85.3872ZM93.1241 143.195C92.3189 143.195 91.6952 142.868 91.253 142.215C90.8108 141.561 90.5897 140.64 90.5897 139.452C90.5897 138.274 90.8125 137.357 91.258 136.7C91.7035 136.044 92.3255 135.715 93.1241 135.715C93.9194 135.715 94.5382 136.045 94.9804 136.705C95.4259 137.365 95.6486 138.286 95.6486 139.467C95.6486 140.652 95.4275 141.569 94.9853 142.22C94.5464 142.87 93.926 143.195 93.1241 143.195ZM91.9064 141.65C92.1902 142.162 92.5961 142.418 93.1241 142.418C93.6521 142.418 94.0547 142.163 94.3319 141.655C94.6124 141.144 94.7527 140.409 94.7527 139.452C94.7527 138.505 94.6108 137.776 94.327 137.265C94.0465 136.753 93.6455 136.497 93.1241 136.497C92.6027 136.497 92.1985 136.755 91.9114 137.269C91.6276 137.781 91.4857 138.509 91.4857 139.452C91.4857 140.406 91.6259 141.139 91.9064 141.65ZM97.2079 143.026L100.416 136.75V136.68H96.5941V135.883H101.321V136.71L98.1435 143.026H97.2079ZM107.954 143.195C107.149 143.195 106.526 142.868 106.083 142.215C105.641 141.561 105.42 140.64 105.42 139.452C105.42 138.274 105.643 137.357 106.088 136.7C106.534 136.044 107.156 135.715 107.954 135.715C108.75 135.715 109.368 136.045 109.811 136.705C110.256 137.365 110.479 138.286 110.479 139.467C110.479 140.652 110.258 141.569 109.816 142.22C109.377 142.87 108.756 143.195 107.954 143.195ZM106.737 141.65C107.021 142.162 107.426 142.418 107.954 142.418C108.482 142.418 108.885 142.163 109.162 141.655C109.443 141.144 109.583 140.409 109.583 139.452C109.583 138.505 109.441 137.776 109.157 137.265C108.877 136.753 108.476 136.497 107.954 136.497C107.433 136.497 107.029 136.755 106.742 137.269C106.458 137.781 106.316 138.509 106.316 139.452C106.316 140.406 106.456 141.139 106.737 141.65ZM114.34 143.195C113.535 143.195 112.911 142.868 112.469 142.215C112.027 141.561 111.806 140.64 111.806 139.452C111.806 138.274 112.028 137.357 112.474 136.7C112.919 136.044 113.541 135.715 114.34 135.715C115.135 135.715 115.754 136.045 116.196 136.705C116.642 137.365 116.864 138.286 116.864 139.467C116.864 140.652 116.643 141.569 116.201 142.22C115.762 142.87 115.142 143.195 114.34 143.195ZM113.122 141.65C113.406 142.162 113.812 142.418 114.34 142.418C114.868 142.418 115.271 142.163 115.548 141.655C115.828 141.144 115.968 140.409 115.968 139.452C115.968 138.505 115.827 137.776 115.543 137.265C115.262 136.753 114.861 136.497 114.34 136.497C113.819 136.497 113.414 136.755 113.127 137.269C112.843 137.781 112.701 138.509 112.701 139.452C112.701 140.406 112.842 141.139 113.122 141.65ZM120.725 143.195C119.92 143.195 119.297 142.868 118.854 142.215C118.412 141.561 118.191 140.64 118.191 139.452C118.191 138.274 118.414 137.357 118.859 136.7C119.305 136.044 119.927 135.715 120.725 135.715C121.521 135.715 122.14 136.045 122.582 136.705C123.027 137.365 123.25 138.286 123.25 139.467C123.25 140.652 123.029 141.569 122.587 142.22C122.148 142.87 121.527 143.195 120.725 143.195ZM119.508 141.65C119.792 142.162 120.197 142.418 120.725 142.418C121.253 142.418 121.656 142.163 121.933 141.655C122.214 141.144 122.354 140.409 122.354 139.452C122.354 138.505 122.212 137.776 121.928 137.265C121.648 136.753 121.247 136.497 120.725 136.497C120.204 136.497 119.8 136.755 119.513 137.269C119.229 137.781 119.087 138.509 119.087 139.452C119.087 140.406 119.227 141.139 119.508 141.65ZM129.972 143.195C129.167 143.195 128.543 142.868 128.101 142.215C127.659 141.561 127.438 140.64 127.438 139.452C127.438 138.274 127.66 137.357 128.106 136.7C128.551 136.044 129.174 135.715 129.972 135.715C130.767 135.715 131.386 136.045 131.828 136.705C132.274 137.365 132.497 138.286 132.497 139.467C132.497 140.652 132.276 141.569 131.833 142.22C131.394 142.87 130.774 143.195 129.972 143.195ZM128.754 141.65C129.038 142.162 129.444 142.418 129.972 142.418C130.5 142.418 130.903 142.163 131.18 141.655C131.46 141.144 131.601 140.409 131.601 139.452C131.601 138.505 131.459 137.776 131.175 137.265C130.894 136.753 130.494 136.497 129.972 136.497C129.451 136.497 129.046 136.755 128.759 137.269C128.476 137.781 128.334 138.509 128.334 139.452C128.334 140.406 128.474 141.139 128.754 141.65ZM136.358 143.195C135.552 143.195 134.929 142.868 134.487 142.215C134.044 141.561 133.823 140.64 133.823 139.452C133.823 138.274 134.046 137.357 134.491 136.7C134.937 136.044 135.559 135.715 136.358 135.715C137.153 135.715 137.772 136.045 138.214 136.705C138.659 137.365 138.882 138.286 138.882 139.467C138.882 140.652 138.661 141.569 138.219 142.22C137.78 142.87 137.16 143.195 136.358 143.195ZM135.14 141.65C135.424 142.162 135.83 142.418 136.358 142.418C136.886 142.418 137.288 142.163 137.565 141.655C137.846 141.144 137.986 140.409 137.986 139.452C137.986 138.505 137.844 137.776 137.561 137.265C137.28 136.753 136.879 136.497 136.358 136.497C135.836 136.497 135.432 136.755 135.145 137.269C134.861 137.781 134.719 138.509 134.719 139.452C134.719 140.406 134.859 141.139 135.14 141.65ZM145.604 143.195C144.799 143.195 144.175 142.868 143.733 142.215C143.291 141.561 143.07 140.64 143.07 139.452C143.07 138.274 143.293 137.357 143.738 136.7C144.184 136.044 144.806 135.715 145.604 135.715C146.4 135.715 147.018 136.045 147.461 136.705C147.906 137.365 148.129 138.286 148.129 139.467C148.129 140.652 147.908 141.569 147.466 142.22C147.027 142.87 146.406 143.195 145.604 143.195ZM144.387 141.65C144.67 142.162 145.076 142.418 145.604 142.418C146.132 142.418 146.535 142.163 146.812 141.655C147.093 141.144 147.233 140.409 147.233 139.452C147.233 138.505 147.091 137.776 146.807 137.265C146.527 136.753 146.126 136.497 145.604 136.497C145.083 136.497 144.679 136.755 144.392 137.269C144.108 137.781 143.966 138.509 143.966 139.452C143.966 140.406 144.106 141.139 144.387 141.65ZM151.99 143.195C151.185 143.195 150.561 142.868 150.119 142.215C149.677 141.561 149.455 140.64 149.455 139.452C149.455 138.274 149.678 137.357 150.124 136.7C150.569 136.044 151.191 135.715 151.99 135.715C152.785 135.715 153.404 136.045 153.846 136.705C154.292 137.365 154.514 138.286 154.514 139.467C154.514 140.652 154.293 141.569 153.851 142.22C153.412 142.87 152.792 143.195 151.99 143.195ZM150.772 141.65C151.056 142.162 151.462 142.418 151.99 142.418C152.518 142.418 152.92 142.163 153.198 141.655C153.478 141.144 153.618 140.409 153.618 139.452C153.618 138.505 153.476 137.776 153.193 137.265C152.912 136.753 152.511 136.497 151.99 136.497C151.468 136.497 151.064 136.755 150.777 137.269C150.493 137.781 150.351 138.509 150.351 139.452C150.351 140.406 150.492 141.139 150.772 141.65Z" fill="#ADB5BD"/>
</g>
</g>
<rect x="60.5232" y="125.137" width="281.953" height="29.7794" rx="6.01923" stroke="#DEE2E6" stroke-width="0.633603"/>
<path d="M28.208 212.36C26.928 212.36 25.772 212.136 24.74 211.688C23.716 211.232 22.872 210.584 22.208 209.744C21.552 208.896 21.136 207.888 20.96 206.72L24.368 206.216C24.608 207.208 25.104 207.972 25.856 208.508C26.608 209.044 27.464 209.312 28.424 209.312C28.96 209.312 29.48 209.228 29.984 209.06C30.488 208.892 30.9 208.644 31.22 208.316C31.548 207.988 31.712 207.584 31.712 207.104C31.712 206.928 31.684 206.76 31.628 206.6C31.58 206.432 31.496 206.276 31.376 206.132C31.256 205.988 31.084 205.852 30.86 205.724C30.644 205.596 30.368 205.48 30.032 205.376L25.544 204.056C25.208 203.96 24.816 203.824 24.368 203.648C23.928 203.472 23.5 203.22 23.084 202.892C22.668 202.564 22.32 202.132 22.04 201.596C21.768 201.052 21.632 200.368 21.632 199.544C21.632 198.384 21.924 197.42 22.508 196.652C23.092 195.884 23.872 195.312 24.848 194.936C25.824 194.56 26.904 194.376 28.088 194.384C29.28 194.4 30.344 194.604 31.28 194.996C32.216 195.388 33 195.96 33.632 196.712C34.264 197.456 34.72 198.368 35 199.448L31.472 200.048C31.344 199.488 31.108 199.016 30.764 198.632C30.42 198.248 30.008 197.956 29.528 197.756C29.056 197.556 28.56 197.448 28.04 197.432C27.528 197.416 27.044 197.488 26.588 197.648C26.14 197.8 25.772 198.024 25.484 198.32C25.204 198.616 25.064 198.968 25.064 199.376C25.064 199.752 25.18 200.06 25.412 200.3C25.644 200.532 25.936 200.72 26.288 200.864C26.64 201.008 27 201.128 27.368 201.224L30.368 202.04C30.816 202.16 31.312 202.32 31.856 202.52C32.4 202.712 32.92 202.984 33.416 203.336C33.92 203.68 34.332 204.136 34.652 204.704C34.98 205.272 35.144 205.992 35.144 206.864C35.144 207.792 34.948 208.604 34.556 209.3C34.172 209.988 33.652 210.56 32.996 211.016C32.34 211.464 31.596 211.8 30.764 212.024C29.94 212.248 29.088 212.36 28.208 212.36ZM53.3816 212V204.344C53.3816 203.488 53.1776 202.824 52.7696 202.352C52.3696 201.872 51.8136 201.632 51.1016 201.632C50.6456 201.632 50.2496 201.74 49.9136 201.956C49.5776 202.164 49.3136 202.46 49.1216 202.844C48.9376 203.22 48.8456 203.656 48.8456 204.152L47.4776 203.24C47.4776 202.352 47.6856 201.568 48.1016 200.888C48.5256 200.208 49.0896 199.68 49.7936 199.304C50.5056 198.92 51.2936 198.728 52.1576 198.728C53.6376 198.728 54.7536 199.168 55.5056 200.048C56.2656 200.92 56.6456 202.064 56.6456 203.48V212H53.3816ZM37.7576 212V199.04H40.6376V203.336H41.0456V212H37.7576ZM45.5816 212V204.344C45.5816 203.488 45.3776 202.824 44.9696 202.352C44.5696 201.872 44.0136 201.632 43.3016 201.632C42.6216 201.632 42.0736 201.868 41.6576 202.34C41.2496 202.804 41.0456 203.408 41.0456 204.152L39.6776 203.192C39.6776 202.344 39.8896 201.584 40.3136 200.912C40.7376 200.24 41.3056 199.708 42.0176 199.316C42.7376 198.924 43.5416 198.728 44.4296 198.728C45.4456 198.728 46.2776 198.944 46.9256 199.376C47.5816 199.808 48.0656 200.384 48.3776 201.104C48.6896 201.824 48.8456 202.616 48.8456 203.48V212H45.5816ZM63.3659 212.36C62.4379 212.36 61.6499 212.184 61.0019 211.832C60.3619 211.472 59.8739 210.996 59.5379 210.404C59.2099 209.804 59.0459 209.144 59.0459 208.424C59.0459 207.824 59.1379 207.276 59.3219 206.78C59.5059 206.284 59.8019 205.848 60.2099 205.472C60.6259 205.088 61.1819 204.768 61.8779 204.512C62.3579 204.336 62.9299 204.18 63.5939 204.044C64.2579 203.908 65.0099 203.78 65.8499 203.66C66.6899 203.532 67.6139 203.392 68.6219 203.24L67.4459 203.888C67.4459 203.12 67.2619 202.556 66.8939 202.196C66.5259 201.836 65.9099 201.656 65.0459 201.656C64.5659 201.656 64.0659 201.772 63.5459 202.004C63.0259 202.236 62.6619 202.648 62.4539 203.24L59.5019 202.304C59.8299 201.232 60.4459 200.36 61.3499 199.688C62.2539 199.016 63.4859 198.68 65.0459 198.68C66.1899 198.68 67.2059 198.856 68.0939 199.208C68.9819 199.56 69.6539 200.168 70.1099 201.032C70.3659 201.512 70.5179 201.992 70.5659 202.472C70.6139 202.952 70.6379 203.488 70.6379 204.08V212H67.7819V209.336L68.1899 209.888C67.5579 210.76 66.8739 211.392 66.1379 211.784C65.4099 212.168 64.4859 212.36 63.3659 212.36ZM64.0619 209.792C64.6619 209.792 65.1659 209.688 65.5739 209.48C65.9899 209.264 66.3179 209.02 66.5579 208.748C66.8059 208.476 66.9739 208.248 67.0619 208.064C67.2299 207.712 67.3259 207.304 67.3499 206.84C67.3819 206.368 67.3979 205.976 67.3979 205.664L68.3579 205.904C67.3899 206.064 66.6059 206.2 66.0059 206.312C65.4059 206.416 64.9219 206.512 64.5539 206.6C64.1859 206.688 63.8619 206.784 63.5819 206.888C63.2619 207.016 63.0019 207.156 62.8019 207.308C62.6099 207.452 62.4659 207.612 62.3699 207.788C62.2819 207.964 62.2379 208.16 62.2379 208.376C62.2379 208.672 62.3099 208.928 62.4539 209.144C62.6059 209.352 62.8179 209.512 63.0899 209.624C63.3619 209.736 63.6859 209.792 64.0619 209.792ZM73.7581 212V199.04H76.6381V202.208L76.3261 201.8C76.4941 201.352 76.7181 200.944 76.9981 200.576C77.2781 200.208 77.6221 199.904 78.0301 199.664C78.3421 199.472 78.6821 199.324 79.0501 199.22C79.4181 199.108 79.7981 199.04 80.1901 199.016C80.5821 198.984 80.9741 198.992 81.3661 199.04V202.088C81.0061 201.976 80.5861 201.94 80.1061 201.98C79.6341 202.012 79.2061 202.12 78.8221 202.304C78.4381 202.48 78.1141 202.716 77.8501 203.012C77.5861 203.3 77.3861 203.644 77.2501 204.044C77.1141 204.436 77.0461 204.88 77.0461 205.376V212H73.7581ZM91.4248 212C90.5288 212.168 89.6488 212.24 88.7848 212.216C87.9288 212.2 87.1608 212.052 86.4808 211.772C85.8088 211.484 85.2968 211.024 84.9448 210.392C84.6248 209.8 84.4568 209.2 84.4408 208.592C84.4248 207.976 84.4168 207.28 84.4168 206.504V195.44H87.6808V206.312C87.6808 206.816 87.6848 207.272 87.6928 207.68C87.7088 208.08 87.7928 208.4 87.9448 208.64C88.2328 209.096 88.6928 209.344 89.3248 209.384C89.9568 209.424 90.6568 209.392 91.4248 209.288V212ZM82.2088 201.56V199.04H91.4248V201.56H82.2088ZM102.718 212.36C101.79 212.36 101.002 212.184 100.354 211.832C99.7135 211.472 99.2255 210.996 98.8895 210.404C98.5615 209.804 98.3975 209.144 98.3975 208.424C98.3975 207.824 98.4895 207.276 98.6735 206.78C98.8575 206.284 99.1535 205.848 99.5615 205.472C99.9775 205.088 100.534 204.768 101.23 204.512C101.71 204.336 102.282 204.18 102.946 204.044C103.61 203.908 104.362 203.78 105.202 203.66C106.042 203.532 106.966 203.392 107.974 203.24L106.798 203.888C106.798 203.12 106.614 202.556 106.246 202.196C105.878 201.836 105.262 201.656 104.398 201.656C103.918 201.656 103.418 201.772 102.898 202.004C102.378 202.236 102.014 202.648 101.806 203.24L98.8535 202.304C99.1815 201.232 99.7975 200.36 100.702 199.688C101.606 199.016 102.838 198.68 104.398 198.68C105.542 198.68 106.558 198.856 107.446 199.208C108.334 199.56 109.006 200.168 109.462 201.032C109.718 201.512 109.87 201.992 109.918 202.472C109.966 202.952 109.99 203.488 109.99 204.08V212H107.134V209.336L107.542 209.888C106.91 210.76 106.226 211.392 105.49 211.784C104.762 212.168 103.838 212.36 102.718 212.36ZM103.414 209.792C104.014 209.792 104.518 209.688 104.926 209.48C105.342 209.264 105.67 209.02 105.91 208.748C106.158 208.476 106.326 208.248 106.414 208.064C106.582 207.712 106.678 207.304 106.702 206.84C106.734 206.368 106.75 205.976 106.75 205.664L107.71 205.904C106.742 206.064 105.958 206.2 105.358 206.312C104.758 206.416 104.274 206.512 103.906 206.6C103.538 206.688 103.214 206.784 102.934 206.888C102.614 207.016 102.354 207.156 102.154 207.308C101.962 207.452 101.818 207.612 101.722 207.788C101.634 207.964 101.59 208.16 101.59 208.376C101.59 208.672 101.662 208.928 101.806 209.144C101.958 209.352 102.17 209.512 102.442 209.624C102.714 209.736 103.038 209.792 103.414 209.792ZM117.934 212.384C116.918 212.384 116.09 212.212 115.45 211.868C114.81 211.524 114.31 211.088 113.95 210.56C113.598 210.032 113.346 209.484 113.194 208.916C113.042 208.34 112.95 207.816 112.918 207.344C112.886 206.872 112.87 206.528 112.87 206.312V199.04H116.182V205.16C116.182 205.456 116.198 205.836 116.23 206.3C116.262 206.756 116.362 207.216 116.53 207.68C116.698 208.144 116.97 208.532 117.346 208.844C117.73 209.156 118.27 209.312 118.966 209.312C119.246 209.312 119.546 209.268 119.866 209.18C120.186 209.092 120.486 208.924 120.766 208.676C121.046 208.42 121.274 208.048 121.45 207.56C121.634 207.064 121.726 206.416 121.726 205.616L123.598 206.504C123.598 207.528 123.39 208.488 122.974 209.384C122.558 210.28 121.93 211.004 121.09 211.556C120.258 212.108 119.206 212.384 117.934 212.384ZM122.134 212V207.704H121.726V199.04H125.014V212H122.134ZM136.144 212C135.248 212.168 134.368 212.24 133.504 212.216C132.648 212.2 131.88 212.052 131.2 211.772C130.528 211.484 130.016 211.024 129.664 210.392C129.344 209.8 129.176 209.2 129.16 208.592C129.144 207.976 129.136 207.28 129.136 206.504V195.44H132.4V206.312C132.4 206.816 132.404 207.272 132.412 207.68C132.428 208.08 132.512 208.4 132.664 208.64C132.952 209.096 133.412 209.344 134.044 209.384C134.676 209.424 135.376 209.392 136.144 209.288V212ZM126.928 201.56V199.04H136.144V201.56H126.928ZM144.16 212.36C142.856 212.36 141.712 212.068 140.728 211.484C139.744 210.9 138.976 210.096 138.424 209.072C137.88 208.04 137.608 206.856 137.608 205.52C137.608 204.168 137.888 202.98 138.448 201.956C139.008 200.924 139.78 200.12 140.764 199.544C141.748 198.968 142.88 198.68 144.16 198.68C145.464 198.68 146.608 198.972 147.592 199.556C148.584 200.14 149.356 200.948 149.908 201.98C150.46 203.004 150.736 204.184 150.736 205.52C150.736 206.864 150.456 208.052 149.896 209.084C149.344 210.108 148.572 210.912 147.58 211.496C146.596 212.072 145.456 212.36 144.16 212.36ZM144.16 209.312C145.208 209.312 145.988 208.96 146.5 208.256C147.02 207.544 147.28 206.632 147.28 205.52C147.28 204.368 147.016 203.448 146.488 202.76C145.968 202.072 145.192 201.728 144.16 201.728C143.448 201.728 142.864 201.888 142.408 202.208C141.952 202.528 141.612 202.972 141.388 203.54C141.172 204.108 141.064 204.768 141.064 205.52C141.064 206.68 141.324 207.604 141.844 208.292C142.372 208.972 143.144 209.312 144.16 209.312ZM154.455 212V199.088C154.455 198.76 154.463 198.388 154.479 197.972C154.495 197.556 154.559 197.136 154.671 196.712C154.791 196.288 155.007 195.904 155.319 195.56C155.719 195.112 156.151 194.808 156.615 194.648C157.087 194.48 157.543 194.392 157.983 194.384C158.423 194.368 158.799 194.36 159.111 194.36H160.719V197H159.231C158.719 197 158.339 197.132 158.091 197.396C157.843 197.652 157.719 197.96 157.719 198.32V212H154.455ZM152.415 201.56V199.04H160.719V201.56H152.415ZM163.239 197.24V194.36H166.503V197.24H163.239ZM163.239 212V199.04H166.503V212H163.239ZM170.35 212V194.36H173.614V212H170.35ZM177.451 212V194.36H180.715V212H177.451Z" fill="white"/>
<line x1="20" y1="231.796" x2="223.002" y2="231.796" stroke="#EDEEFF" stroke-width="0.407326"/>
<path d="M25.1152 248.15C26.7734 248.15 27.9834 248.476 28.7451 249.126C29.5127 249.771 29.8965 250.696 29.8965 251.903C29.8965 252.448 29.8057 252.967 29.624 253.459C29.4482 253.945 29.1611 254.376 28.7627 254.751C28.3643 255.12 27.8398 255.413 27.1895 255.63C26.5449 255.841 25.7539 255.946 24.8164 255.946H23.252V261H21.7578V248.15H25.1152ZM24.9746 249.425H23.252V254.663H24.6494C25.4697 254.663 26.1523 254.575 26.6973 254.399C27.248 254.224 27.6611 253.939 27.9365 253.547C28.2119 253.148 28.3496 252.621 28.3496 251.965C28.3496 251.109 28.0771 250.474 27.5322 250.058C26.9873 249.636 26.1348 249.425 24.9746 249.425ZM36.7432 251.191C36.9365 251.191 37.1387 251.203 37.3496 251.227C37.5605 251.244 37.748 251.271 37.9121 251.306L37.7275 252.659C37.5693 252.618 37.3936 252.586 37.2002 252.562C37.0068 252.539 36.8252 252.527 36.6553 252.527C36.2686 252.527 35.9023 252.606 35.5566 252.765C35.2168 252.917 34.918 253.14 34.6602 253.433C34.4023 253.72 34.2002 254.068 34.0537 254.479C33.9072 254.883 33.834 255.334 33.834 255.832V261H32.3662V251.367H33.5791L33.7373 253.143H33.7988C33.998 252.785 34.2383 252.46 34.5195 252.167C34.8008 251.868 35.126 251.631 35.4951 251.455C35.8701 251.279 36.2861 251.191 36.7432 251.191ZM43.4404 251.191C44.2607 251.191 44.9639 251.373 45.5498 251.736C46.1357 252.1 46.584 252.609 46.8945 253.266C47.2051 253.916 47.3604 254.678 47.3604 255.551V256.456H40.707C40.7246 257.587 41.0059 258.448 41.5508 259.04C42.0957 259.632 42.8633 259.928 43.8535 259.928C44.4629 259.928 45.002 259.872 45.4707 259.761C45.9395 259.649 46.4258 259.485 46.9297 259.269V260.552C46.4434 260.769 45.96 260.927 45.4795 261.026C45.0049 261.126 44.4424 261.176 43.792 261.176C42.8662 261.176 42.0576 260.988 41.3662 260.613C40.6807 260.232 40.1475 259.676 39.7666 258.943C39.3857 258.211 39.1953 257.314 39.1953 256.254C39.1953 255.217 39.3682 254.32 39.7139 253.564C40.0654 252.803 40.5576 252.217 41.1904 251.807C41.8291 251.396 42.5791 251.191 43.4404 251.191ZM43.4229 252.387C42.6436 252.387 42.0225 252.642 41.5596 253.151C41.0967 253.661 40.8213 254.373 40.7334 255.287H45.8311C45.8252 254.713 45.7344 254.209 45.5586 253.775C45.3887 253.336 45.1279 252.996 44.7764 252.756C44.4248 252.51 43.9736 252.387 43.4229 252.387ZM54.1279 252.51H51.7285V261H50.2695V252.51H48.5645V251.807L50.2695 251.323V250.682C50.2695 249.873 50.3896 249.217 50.6299 248.713C50.8701 248.203 51.2188 247.828 51.6758 247.588C52.1328 247.348 52.6895 247.228 53.3457 247.228C53.7148 247.228 54.0518 247.26 54.3564 247.324C54.667 247.389 54.9395 247.462 55.1738 247.544L54.7959 248.695C54.5967 248.631 54.3711 248.572 54.1191 248.52C53.873 248.461 53.6211 248.432 53.3633 248.432C52.8066 248.432 52.3936 248.613 52.124 248.977C51.8604 249.334 51.7285 249.896 51.7285 250.664V251.367H54.1279V252.51ZM57.3535 251.367V261H55.8945V251.367H57.3535ZM56.6416 247.764C56.8818 247.764 57.0869 247.843 57.2568 248.001C57.4326 248.153 57.5205 248.394 57.5205 248.722C57.5205 249.044 57.4326 249.284 57.2568 249.442C57.0869 249.601 56.8818 249.68 56.6416 249.68C56.3896 249.68 56.1787 249.601 56.0088 249.442C55.8447 249.284 55.7627 249.044 55.7627 248.722C55.7627 248.394 55.8447 248.153 56.0088 248.001C56.1787 247.843 56.3896 247.764 56.6416 247.764ZM61.9062 261H60.4385V247.324H61.9062V261ZM66.459 261H64.9912V247.324H66.459V261ZM78.0781 261.176C77.2109 261.176 76.4463 260.997 75.7842 260.64C75.1221 260.282 74.6064 259.737 74.2373 259.005C73.8682 258.272 73.6836 257.35 73.6836 256.236C73.6836 255.07 73.877 254.118 74.2637 253.38C74.6562 252.636 75.1953 252.085 75.8809 251.728C76.5664 251.37 77.3457 251.191 78.2188 251.191C78.6992 251.191 79.1621 251.241 79.6074 251.341C80.0586 251.435 80.4277 251.555 80.7148 251.701L80.2754 252.923C79.9824 252.806 79.6426 252.7 79.2559 252.606C78.875 252.513 78.5176 252.466 78.1836 252.466C77.5156 252.466 76.959 252.609 76.5137 252.896C76.0742 253.184 75.7432 253.605 75.5205 254.162C75.3037 254.719 75.1953 255.404 75.1953 256.219C75.1953 256.998 75.3008 257.663 75.5117 258.214C75.7285 258.765 76.0479 259.187 76.4697 259.479C76.8975 259.767 77.4307 259.91 78.0693 259.91C78.5791 259.91 79.0391 259.857 79.4492 259.752C79.8594 259.641 80.2314 259.512 80.5654 259.365V260.666C80.2432 260.83 79.8828 260.956 79.4844 261.044C79.0918 261.132 78.623 261.176 78.0781 261.176ZM91.1562 256.166C91.1562 256.957 91.0537 257.663 90.8486 258.284C90.6436 258.905 90.3477 259.43 89.9609 259.857C89.5742 260.285 89.1055 260.613 88.5547 260.842C88.0098 261.064 87.3916 261.176 86.7002 261.176C86.0557 261.176 85.4639 261.064 84.9248 260.842C84.3916 260.613 83.9287 260.285 83.5361 259.857C83.1494 259.43 82.8477 258.905 82.6309 258.284C82.4199 257.663 82.3145 256.957 82.3145 256.166C82.3145 255.111 82.4932 254.215 82.8506 253.477C83.208 252.732 83.7178 252.167 84.3799 251.78C85.0479 251.388 85.8418 251.191 86.7617 251.191C87.6406 251.191 88.4082 251.388 89.0645 251.78C89.7266 252.173 90.2393 252.741 90.6025 253.485C90.9717 254.224 91.1562 255.117 91.1562 256.166ZM83.8262 256.166C83.8262 256.939 83.9287 257.61 84.1338 258.179C84.3389 258.747 84.6553 259.187 85.083 259.497C85.5107 259.808 86.0615 259.963 86.7354 259.963C87.4033 259.963 87.9512 259.808 88.3789 259.497C88.8125 259.187 89.1318 258.747 89.3369 258.179C89.542 257.61 89.6445 256.939 89.6445 256.166C89.6445 255.398 89.542 254.736 89.3369 254.18C89.1318 253.617 88.8154 253.184 88.3877 252.879C87.96 252.574 87.4062 252.422 86.7266 252.422C85.7246 252.422 84.9893 252.753 84.5205 253.415C84.0576 254.077 83.8262 254.994 83.8262 256.166ZM98.2402 251.191C99.3828 251.191 100.247 251.473 100.833 252.035C101.419 252.592 101.712 253.488 101.712 254.725V261H100.271V254.821C100.271 254.019 100.086 253.418 99.7168 253.02C99.3535 252.621 98.7939 252.422 98.0381 252.422C96.9717 252.422 96.2217 252.724 95.7881 253.327C95.3545 253.931 95.1377 254.807 95.1377 255.955V261H93.6787V251.367H94.8564L95.0762 252.756H95.1553C95.3604 252.416 95.6211 252.132 95.9375 251.903C96.2539 251.669 96.6084 251.493 97.001 251.376C97.3936 251.253 97.8066 251.191 98.2402 251.191ZM107.829 259.98C108.069 259.98 108.315 259.96 108.567 259.919C108.819 259.878 109.024 259.828 109.183 259.77V260.903C109.013 260.979 108.775 261.044 108.471 261.097C108.172 261.149 107.879 261.176 107.592 261.176C107.082 261.176 106.619 261.088 106.203 260.912C105.787 260.73 105.453 260.426 105.201 259.998C104.955 259.57 104.832 258.979 104.832 258.223V252.51H103.461V251.798L104.841 251.227L105.421 249.135H106.3V251.367H109.121V252.51H106.3V258.179C106.3 258.782 106.438 259.233 106.713 259.532C106.994 259.831 107.366 259.98 107.829 259.98ZM115.511 251.191C115.704 251.191 115.906 251.203 116.117 251.227C116.328 251.244 116.516 251.271 116.68 251.306L116.495 252.659C116.337 252.618 116.161 252.586 115.968 252.562C115.774 252.539 115.593 252.527 115.423 252.527C115.036 252.527 114.67 252.606 114.324 252.765C113.984 252.917 113.686 253.14 113.428 253.433C113.17 253.72 112.968 254.068 112.821 254.479C112.675 254.883 112.602 255.334 112.602 255.832V261H111.134V251.367H112.347L112.505 253.143H112.566C112.766 252.785 113.006 252.46 113.287 252.167C113.568 251.868 113.894 251.631 114.263 251.455C114.638 251.279 115.054 251.191 115.511 251.191ZM122.103 251.209C123.251 251.209 124.104 251.467 124.66 251.982C125.217 252.498 125.495 253.321 125.495 254.452V261H124.432L124.15 259.576H124.08C123.811 259.928 123.529 260.224 123.236 260.464C122.943 260.698 122.604 260.877 122.217 261C121.836 261.117 121.367 261.176 120.811 261.176C120.225 261.176 119.703 261.073 119.246 260.868C118.795 260.663 118.438 260.353 118.174 259.937C117.916 259.521 117.787 258.993 117.787 258.354C117.787 257.394 118.168 256.655 118.93 256.14C119.691 255.624 120.852 255.343 122.41 255.296L124.071 255.226V254.637C124.071 253.805 123.893 253.222 123.535 252.888C123.178 252.554 122.674 252.387 122.023 252.387C121.52 252.387 121.039 252.46 120.582 252.606C120.125 252.753 119.691 252.926 119.281 253.125L118.833 252.018C119.267 251.795 119.765 251.604 120.327 251.446C120.89 251.288 121.481 251.209 122.103 251.209ZM124.054 256.254L122.586 256.315C121.385 256.362 120.538 256.559 120.046 256.904C119.554 257.25 119.308 257.739 119.308 258.372C119.308 258.923 119.475 259.33 119.809 259.594C120.143 259.857 120.585 259.989 121.136 259.989C121.991 259.989 122.691 259.752 123.236 259.277C123.781 258.803 124.054 258.091 124.054 257.142V256.254ZM132.359 261.176C131.492 261.176 130.728 260.997 130.065 260.64C129.403 260.282 128.888 259.737 128.519 259.005C128.149 258.272 127.965 257.35 127.965 256.236C127.965 255.07 128.158 254.118 128.545 253.38C128.938 252.636 129.477 252.085 130.162 251.728C130.848 251.37 131.627 251.191 132.5 251.191C132.98 251.191 133.443 251.241 133.889 251.341C134.34 251.435 134.709 251.555 134.996 251.701L134.557 252.923C134.264 252.806 133.924 252.7 133.537 252.606C133.156 252.513 132.799 252.466 132.465 252.466C131.797 252.466 131.24 252.609 130.795 252.896C130.355 253.184 130.024 253.605 129.802 254.162C129.585 254.719 129.477 255.404 129.477 256.219C129.477 256.998 129.582 257.663 129.793 258.214C130.01 258.765 130.329 259.187 130.751 259.479C131.179 259.767 131.712 259.91 132.351 259.91C132.86 259.91 133.32 259.857 133.73 259.752C134.141 259.641 134.513 259.512 134.847 259.365V260.666C134.524 260.83 134.164 260.956 133.766 261.044C133.373 261.132 132.904 261.176 132.359 261.176ZM140.243 259.98C140.483 259.98 140.729 259.96 140.981 259.919C141.233 259.878 141.438 259.828 141.597 259.77V260.903C141.427 260.979 141.189 261.044 140.885 261.097C140.586 261.149 140.293 261.176 140.006 261.176C139.496 261.176 139.033 261.088 138.617 260.912C138.201 260.73 137.867 260.426 137.615 259.998C137.369 259.57 137.246 258.979 137.246 258.223V252.51H135.875V251.798L137.255 251.227L137.835 249.135H138.714V251.367H141.535V252.51H138.714V258.179C138.714 258.782 138.852 259.233 139.127 259.532C139.408 259.831 139.78 259.98 140.243 259.98ZM152.513 252.51H150.113V261H148.654V252.51H146.949V251.807L148.654 251.323V250.682C148.654 249.873 148.774 249.217 149.015 248.713C149.255 248.203 149.604 247.828 150.061 247.588C150.518 247.348 151.074 247.228 151.73 247.228C152.1 247.228 152.437 247.26 152.741 247.324C153.052 247.389 153.324 247.462 153.559 247.544L153.181 248.695C152.981 248.631 152.756 248.572 152.504 248.52C152.258 248.461 152.006 248.432 151.748 248.432C151.191 248.432 150.778 248.613 150.509 248.977C150.245 249.334 150.113 249.896 150.113 250.664V251.367H152.513V252.51ZM155.738 251.367V261H154.279V251.367H155.738ZM155.026 247.764C155.267 247.764 155.472 247.843 155.642 248.001C155.817 248.153 155.905 248.394 155.905 248.722C155.905 249.044 155.817 249.284 155.642 249.442C155.472 249.601 155.267 249.68 155.026 249.68C154.774 249.68 154.563 249.601 154.394 249.442C154.229 249.284 154.147 249.044 154.147 248.722C154.147 248.394 154.229 248.153 154.394 248.001C154.563 247.843 154.774 247.764 155.026 247.764ZM162.532 251.191C163.353 251.191 164.056 251.373 164.642 251.736C165.228 252.1 165.676 252.609 165.986 253.266C166.297 253.916 166.452 254.678 166.452 255.551V256.456H159.799C159.816 257.587 160.098 258.448 160.643 259.04C161.188 259.632 161.955 259.928 162.945 259.928C163.555 259.928 164.094 259.872 164.562 259.761C165.031 259.649 165.518 259.485 166.021 259.269V260.552C165.535 260.769 165.052 260.927 164.571 261.026C164.097 261.126 163.534 261.176 162.884 261.176C161.958 261.176 161.149 260.988 160.458 260.613C159.772 260.232 159.239 259.676 158.858 258.943C158.478 258.211 158.287 257.314 158.287 256.254C158.287 255.217 158.46 254.32 158.806 253.564C159.157 252.803 159.649 252.217 160.282 251.807C160.921 251.396 161.671 251.191 162.532 251.191ZM162.515 252.387C161.735 252.387 161.114 252.642 160.651 253.151C160.188 253.661 159.913 254.373 159.825 255.287H164.923C164.917 254.713 164.826 254.209 164.65 253.775C164.48 253.336 164.22 252.996 163.868 252.756C163.517 252.51 163.065 252.387 162.515 252.387ZM170.398 261H168.931V247.324H170.398V261ZM176.911 261.176C175.692 261.176 174.726 260.76 174.011 259.928C173.302 259.096 172.947 257.859 172.947 256.219C172.947 254.561 173.311 253.31 174.037 252.466C174.764 251.616 175.73 251.191 176.938 251.191C177.447 251.191 177.893 251.259 178.273 251.394C178.654 251.528 178.982 251.71 179.258 251.938C179.533 252.161 179.765 252.416 179.952 252.703H180.058C180.034 252.521 180.011 252.272 179.987 251.956C179.964 251.64 179.952 251.382 179.952 251.183V247.324H181.411V261H180.233L180.014 259.629H179.952C179.771 259.916 179.539 260.177 179.258 260.411C178.982 260.646 178.651 260.833 178.265 260.974C177.884 261.108 177.433 261.176 176.911 261.176ZM177.14 259.963C178.171 259.963 178.9 259.67 179.328 259.084C179.756 258.498 179.97 257.628 179.97 256.474V256.21C179.97 254.985 179.765 254.045 179.354 253.389C178.95 252.732 178.212 252.404 177.14 252.404C176.243 252.404 175.572 252.75 175.127 253.441C174.682 254.127 174.459 255.064 174.459 256.254C174.459 257.438 174.679 258.352 175.118 258.996C175.563 259.641 176.237 259.963 177.14 259.963ZM190.736 258.363C190.736 258.979 190.581 259.497 190.271 259.919C189.966 260.335 189.526 260.648 188.952 260.859C188.384 261.07 187.704 261.176 186.913 261.176C186.239 261.176 185.656 261.123 185.164 261.018C184.672 260.912 184.241 260.763 183.872 260.569V259.225C184.265 259.418 184.733 259.594 185.278 259.752C185.823 259.91 186.38 259.989 186.948 259.989C187.78 259.989 188.384 259.854 188.759 259.585C189.134 259.315 189.321 258.949 189.321 258.486C189.321 258.223 189.245 257.991 189.093 257.792C188.946 257.587 188.697 257.391 188.346 257.203C187.994 257.01 187.508 256.799 186.887 256.57C186.271 256.336 185.738 256.104 185.287 255.876C184.842 255.642 184.496 255.357 184.25 255.023C184.01 254.689 183.89 254.256 183.89 253.723C183.89 252.908 184.218 252.284 184.874 251.851C185.536 251.411 186.403 251.191 187.476 251.191C188.056 251.191 188.598 251.25 189.102 251.367C189.611 251.479 190.086 251.631 190.525 251.824L190.033 252.993C189.635 252.823 189.21 252.68 188.759 252.562C188.308 252.445 187.848 252.387 187.379 252.387C186.705 252.387 186.187 252.498 185.823 252.721C185.466 252.943 185.287 253.248 185.287 253.635C185.287 253.934 185.369 254.18 185.533 254.373C185.703 254.566 185.973 254.748 186.342 254.918C186.711 255.088 187.197 255.287 187.801 255.516C188.404 255.738 188.926 255.97 189.365 256.21C189.805 256.444 190.142 256.731 190.376 257.071C190.616 257.405 190.736 257.836 190.736 258.363ZM205.713 251.367V261H204.518L204.307 259.646H204.228C204.028 259.98 203.771 260.262 203.454 260.49C203.138 260.719 202.78 260.889 202.382 261C201.989 261.117 201.57 261.176 201.125 261.176C200.363 261.176 199.725 261.053 199.209 260.807C198.693 260.561 198.304 260.18 198.04 259.664C197.782 259.148 197.653 258.486 197.653 257.678V251.367H199.13V257.572C199.13 258.375 199.312 258.976 199.675 259.374C200.038 259.767 200.592 259.963 201.336 259.963C202.051 259.963 202.619 259.828 203.041 259.559C203.469 259.289 203.776 258.894 203.964 258.372C204.151 257.845 204.245 257.2 204.245 256.438V251.367H205.713ZM215.029 258.363C215.029 258.979 214.874 259.497 214.563 259.919C214.259 260.335 213.819 260.648 213.245 260.859C212.677 261.07 211.997 261.176 211.206 261.176C210.532 261.176 209.949 261.123 209.457 261.018C208.965 260.912 208.534 260.763 208.165 260.569V259.225C208.558 259.418 209.026 259.594 209.571 259.752C210.116 259.91 210.673 259.989 211.241 259.989C212.073 259.989 212.677 259.854 213.052 259.585C213.427 259.315 213.614 258.949 213.614 258.486C213.614 258.223 213.538 257.991 213.386 257.792C213.239 257.587 212.99 257.391 212.639 257.203C212.287 257.01 211.801 256.799 211.18 256.57C210.564 256.336 210.031 256.104 209.58 255.876C209.135 255.642 208.789 255.357 208.543 255.023C208.303 254.689 208.183 254.256 208.183 253.723C208.183 252.908 208.511 252.284 209.167 251.851C209.829 251.411 210.696 251.191 211.769 251.191C212.349 251.191 212.891 251.25 213.395 251.367C213.904 251.479 214.379 251.631 214.818 251.824L214.326 252.993C213.928 252.823 213.503 252.68 213.052 252.562C212.601 252.445 212.141 252.387 211.672 252.387C210.998 252.387 210.479 252.498 210.116 252.721C209.759 252.943 209.58 253.248 209.58 253.635C209.58 253.934 209.662 254.18 209.826 254.373C209.996 254.566 210.266 254.748 210.635 254.918C211.004 255.088 211.49 255.287 212.094 255.516C212.697 255.738 213.219 255.97 213.658 256.21C214.098 256.444 214.435 256.731 214.669 257.071C214.909 257.405 215.029 257.836 215.029 258.363ZM218.835 251.367V261H217.376V251.367H218.835ZM218.123 247.764C218.363 247.764 218.568 247.843 218.738 248.001C218.914 248.153 219.002 248.394 219.002 248.722C219.002 249.044 218.914 249.284 218.738 249.442C218.568 249.601 218.363 249.68 218.123 249.68C217.871 249.68 217.66 249.601 217.49 249.442C217.326 249.284 217.244 249.044 217.244 248.722C217.244 248.394 217.326 248.153 217.49 248.001C217.66 247.843 217.871 247.764 218.123 247.764ZM226.49 251.191C227.633 251.191 228.497 251.473 229.083 252.035C229.669 252.592 229.962 253.488 229.962 254.725V261H228.521V254.821C228.521 254.019 228.336 253.418 227.967 253.02C227.604 252.621 227.044 252.422 226.288 252.422C225.222 252.422 224.472 252.724 224.038 253.327C223.604 253.931 223.388 254.807 223.388 255.955V261H221.929V251.367H223.106L223.326 252.756H223.405C223.61 252.416 223.871 252.132 224.188 251.903C224.504 251.669 224.858 251.493 225.251 251.376C225.644 251.253 226.057 251.191 226.49 251.191ZM235.657 265.324C234.392 265.324 233.416 265.087 232.73 264.612C232.045 264.144 231.702 263.484 231.702 262.635C231.702 262.031 231.893 261.516 232.273 261.088C232.66 260.66 233.193 260.376 233.873 260.235C233.621 260.118 233.404 259.942 233.223 259.708C233.047 259.474 232.959 259.204 232.959 258.899C232.959 258.548 233.056 258.24 233.249 257.977C233.448 257.707 233.75 257.449 234.154 257.203C233.65 256.998 233.24 256.652 232.924 256.166C232.613 255.674 232.458 255.103 232.458 254.452C232.458 253.761 232.602 253.172 232.889 252.686C233.176 252.193 233.592 251.818 234.137 251.561C234.682 251.303 235.341 251.174 236.114 251.174C236.284 251.174 236.454 251.183 236.624 251.2C236.8 251.212 236.967 251.232 237.125 251.262C237.283 251.285 237.421 251.314 237.538 251.35H240.843V252.29L239.067 252.51C239.243 252.738 239.39 253.014 239.507 253.336C239.624 253.658 239.683 254.016 239.683 254.408C239.683 255.369 239.357 256.134 238.707 256.702C238.057 257.265 237.163 257.546 236.026 257.546C235.757 257.546 235.481 257.522 235.2 257.476C234.913 257.634 234.693 257.81 234.541 258.003C234.395 258.196 234.321 258.419 234.321 258.671C234.321 258.858 234.377 259.008 234.488 259.119C234.605 259.23 234.772 259.312 234.989 259.365C235.206 259.412 235.467 259.436 235.771 259.436H237.468C238.517 259.436 239.319 259.655 239.876 260.095C240.438 260.534 240.72 261.176 240.72 262.02C240.72 263.086 240.286 263.903 239.419 264.472C238.552 265.04 237.298 265.324 235.657 265.324ZM235.701 264.182C236.498 264.182 237.157 264.1 237.679 263.936C238.206 263.777 238.599 263.546 238.856 263.241C239.12 262.942 239.252 262.585 239.252 262.169C239.252 261.782 239.164 261.489 238.988 261.29C238.812 261.097 238.555 260.968 238.215 260.903C237.875 260.833 237.459 260.798 236.967 260.798H235.297C234.863 260.798 234.485 260.865 234.163 261C233.841 261.135 233.592 261.334 233.416 261.598C233.246 261.861 233.161 262.189 233.161 262.582C233.161 263.104 233.381 263.499 233.82 263.769C234.26 264.044 234.887 264.182 235.701 264.182ZM236.079 256.482C236.776 256.482 237.301 256.307 237.652 255.955C238.004 255.604 238.18 255.091 238.18 254.417C238.18 253.696 238.001 253.157 237.644 252.8C237.286 252.437 236.759 252.255 236.062 252.255C235.394 252.255 234.878 252.442 234.515 252.817C234.157 253.187 233.979 253.729 233.979 254.443C233.979 255.1 234.16 255.604 234.523 255.955C234.887 256.307 235.405 256.482 236.079 256.482ZM250.528 259.98C250.769 259.98 251.015 259.96 251.267 259.919C251.519 259.878 251.724 259.828 251.882 259.77V260.903C251.712 260.979 251.475 261.044 251.17 261.097C250.871 261.149 250.578 261.176 250.291 261.176C249.781 261.176 249.318 261.088 248.902 260.912C248.486 260.73 248.152 260.426 247.9 259.998C247.654 259.57 247.531 258.979 247.531 258.223V252.51H246.16V251.798L247.54 251.227L248.12 249.135H248.999V251.367H251.82V252.51H248.999V258.179C248.999 258.782 249.137 259.233 249.412 259.532C249.693 259.831 250.065 259.98 250.528 259.98ZM257.542 251.191C258.362 251.191 259.065 251.373 259.651 251.736C260.237 252.1 260.686 252.609 260.996 253.266C261.307 253.916 261.462 254.678 261.462 255.551V256.456H254.809C254.826 257.587 255.107 258.448 255.652 259.04C256.197 259.632 256.965 259.928 257.955 259.928C258.564 259.928 259.104 259.872 259.572 259.761C260.041 259.649 260.527 259.485 261.031 259.269V260.552C260.545 260.769 260.062 260.927 259.581 261.026C259.106 261.126 258.544 261.176 257.894 261.176C256.968 261.176 256.159 260.988 255.468 260.613C254.782 260.232 254.249 259.676 253.868 258.943C253.487 258.211 253.297 257.314 253.297 256.254C253.297 255.217 253.47 254.32 253.815 253.564C254.167 252.803 254.659 252.217 255.292 251.807C255.931 251.396 256.681 251.191 257.542 251.191ZM257.524 252.387C256.745 252.387 256.124 252.642 255.661 253.151C255.198 253.661 254.923 254.373 254.835 255.287H259.933C259.927 254.713 259.836 254.209 259.66 253.775C259.49 253.336 259.229 252.996 258.878 252.756C258.526 252.51 258.075 252.387 257.524 252.387ZM274.399 251.191C275.46 251.191 276.26 251.47 276.799 252.026C277.338 252.577 277.607 253.465 277.607 254.689V261H276.166V254.76C276.166 253.98 275.996 253.397 275.656 253.011C275.322 252.618 274.824 252.422 274.162 252.422C273.23 252.422 272.554 252.691 272.132 253.23C271.71 253.77 271.499 254.563 271.499 255.612V261H270.049V254.76C270.049 254.238 269.973 253.805 269.82 253.459C269.674 253.113 269.451 252.855 269.152 252.686C268.859 252.51 268.487 252.422 268.036 252.422C267.397 252.422 266.885 252.554 266.498 252.817C266.111 253.081 265.83 253.474 265.654 253.995C265.484 254.511 265.399 255.146 265.399 255.902V261H263.94V251.367H265.118L265.338 252.729H265.417C265.61 252.396 265.854 252.114 266.146 251.886C266.439 251.657 266.768 251.484 267.131 251.367C267.494 251.25 267.881 251.191 268.291 251.191C269.023 251.191 269.636 251.329 270.128 251.604C270.626 251.874 270.986 252.287 271.209 252.844H271.288C271.604 252.287 272.038 251.874 272.589 251.604C273.14 251.329 273.743 251.191 274.399 251.191ZM285.131 251.191C286.332 251.191 287.29 251.604 288.005 252.431C288.72 253.257 289.077 254.499 289.077 256.157C289.077 257.253 288.913 258.173 288.585 258.917C288.257 259.661 287.794 260.224 287.196 260.604C286.604 260.985 285.904 261.176 285.096 261.176C284.586 261.176 284.138 261.108 283.751 260.974C283.364 260.839 283.033 260.657 282.758 260.429C282.482 260.2 282.254 259.951 282.072 259.682H281.967C281.984 259.91 282.005 260.186 282.028 260.508C282.058 260.83 282.072 261.111 282.072 261.352V265.307H280.604V251.367H281.809L282.002 252.791H282.072C282.26 252.498 282.488 252.231 282.758 251.991C283.027 251.745 283.355 251.552 283.742 251.411C284.135 251.265 284.598 251.191 285.131 251.191ZM284.876 252.422C284.208 252.422 283.669 252.551 283.259 252.809C282.854 253.066 282.559 253.453 282.371 253.969C282.184 254.479 282.084 255.12 282.072 255.894V256.175C282.072 256.989 282.16 257.678 282.336 258.24C282.518 258.803 282.813 259.23 283.224 259.523C283.64 259.816 284.196 259.963 284.894 259.963C285.491 259.963 285.989 259.802 286.388 259.479C286.786 259.157 287.082 258.709 287.275 258.135C287.475 257.555 287.574 256.89 287.574 256.14C287.574 255.003 287.352 254.101 286.906 253.433C286.467 252.759 285.79 252.422 284.876 252.422ZM293.094 261H291.626V247.324H293.094V261ZM299.782 251.209C300.931 251.209 301.783 251.467 302.34 251.982C302.896 252.498 303.175 253.321 303.175 254.452V261H302.111L301.83 259.576H301.76C301.49 259.928 301.209 260.224 300.916 260.464C300.623 260.698 300.283 260.877 299.896 261C299.516 261.117 299.047 261.176 298.49 261.176C297.904 261.176 297.383 261.073 296.926 260.868C296.475 260.663 296.117 260.353 295.854 259.937C295.596 259.521 295.467 258.993 295.467 258.354C295.467 257.394 295.848 256.655 296.609 256.14C297.371 255.624 298.531 255.343 300.09 255.296L301.751 255.226V254.637C301.751 253.805 301.572 253.222 301.215 252.888C300.857 252.554 300.354 252.387 299.703 252.387C299.199 252.387 298.719 252.46 298.262 252.606C297.805 252.753 297.371 252.926 296.961 253.125L296.513 252.018C296.946 251.795 297.444 251.604 298.007 251.446C298.569 251.288 299.161 251.209 299.782 251.209ZM301.733 256.254L300.266 256.315C299.064 256.362 298.218 256.559 297.726 256.904C297.233 257.25 296.987 257.739 296.987 258.372C296.987 258.923 297.154 259.33 297.488 259.594C297.822 259.857 298.265 259.989 298.815 259.989C299.671 259.989 300.371 259.752 300.916 259.277C301.461 258.803 301.733 258.091 301.733 257.142V256.254ZM309.292 259.98C309.532 259.98 309.778 259.96 310.03 259.919C310.282 259.878 310.487 259.828 310.646 259.77V260.903C310.476 260.979 310.238 261.044 309.934 261.097C309.635 261.149 309.342 261.176 309.055 261.176C308.545 261.176 308.082 261.088 307.666 260.912C307.25 260.73 306.916 260.426 306.664 259.998C306.418 259.57 306.295 258.979 306.295 258.223V252.51H304.924V251.798L306.304 251.227L306.884 249.135H307.763V251.367H310.584V252.51H307.763V258.179C307.763 258.782 307.9 259.233 308.176 259.532C308.457 259.831 308.829 259.98 309.292 259.98ZM316.306 251.191C317.126 251.191 317.829 251.373 318.415 251.736C319.001 252.1 319.449 252.609 319.76 253.266C320.07 253.916 320.226 254.678 320.226 255.551V256.456H313.572C313.59 257.587 313.871 258.448 314.416 259.04C314.961 259.632 315.729 259.928 316.719 259.928C317.328 259.928 317.867 259.872 318.336 259.761C318.805 259.649 319.291 259.485 319.795 259.269V260.552C319.309 260.769 318.825 260.927 318.345 261.026C317.87 261.126 317.308 261.176 316.657 261.176C315.731 261.176 314.923 260.988 314.231 260.613C313.546 260.232 313.013 259.676 312.632 258.943C312.251 258.211 312.061 257.314 312.061 256.254C312.061 255.217 312.233 254.32 312.579 253.564C312.931 252.803 313.423 252.217 314.056 251.807C314.694 251.396 315.444 251.191 316.306 251.191ZM316.288 252.387C315.509 252.387 314.888 252.642 314.425 253.151C313.962 253.661 313.687 254.373 313.599 255.287H318.696C318.69 254.713 318.6 254.209 318.424 253.775C318.254 253.336 317.993 252.996 317.642 252.756C317.29 252.51 316.839 252.387 316.288 252.387ZM328.936 258.363C328.936 258.979 328.78 259.497 328.47 259.919C328.165 260.335 327.726 260.648 327.151 260.859C326.583 261.07 325.903 261.176 325.112 261.176C324.438 261.176 323.855 261.123 323.363 261.018C322.871 260.912 322.44 260.763 322.071 260.569V259.225C322.464 259.418 322.933 259.594 323.478 259.752C324.022 259.91 324.579 259.989 325.147 259.989C325.979 259.989 326.583 259.854 326.958 259.585C327.333 259.315 327.521 258.949 327.521 258.486C327.521 258.223 327.444 257.991 327.292 257.792C327.146 257.587 326.896 257.391 326.545 257.203C326.193 257.01 325.707 256.799 325.086 256.57C324.471 256.336 323.938 256.104 323.486 255.876C323.041 255.642 322.695 255.357 322.449 255.023C322.209 254.689 322.089 254.256 322.089 253.723C322.089 252.908 322.417 252.284 323.073 251.851C323.735 251.411 324.603 251.191 325.675 251.191C326.255 251.191 326.797 251.25 327.301 251.367C327.811 251.479 328.285 251.631 328.725 251.824L328.232 252.993C327.834 252.823 327.409 252.68 326.958 252.562C326.507 252.445 326.047 252.387 325.578 252.387C324.904 252.387 324.386 252.498 324.022 252.721C323.665 252.943 323.486 253.248 323.486 253.635C323.486 253.934 323.568 254.18 323.732 254.373C323.902 254.566 324.172 254.748 324.541 254.918C324.91 255.088 325.396 255.287 326 255.516C326.604 255.738 327.125 255.97 327.564 256.21C328.004 256.444 328.341 256.731 328.575 257.071C328.815 257.405 328.936 257.836 328.936 258.363ZM344.264 256.166C344.264 256.957 344.161 257.663 343.956 258.284C343.751 258.905 343.455 259.43 343.068 259.857C342.682 260.285 342.213 260.613 341.662 260.842C341.117 261.064 340.499 261.176 339.808 261.176C339.163 261.176 338.571 261.064 338.032 260.842C337.499 260.613 337.036 260.285 336.644 259.857C336.257 259.43 335.955 258.905 335.738 258.284C335.527 257.663 335.422 256.957 335.422 256.166C335.422 255.111 335.601 254.215 335.958 253.477C336.315 252.732 336.825 252.167 337.487 251.78C338.155 251.388 338.949 251.191 339.869 251.191C340.748 251.191 341.516 251.388 342.172 251.78C342.834 252.173 343.347 252.741 343.71 253.485C344.079 254.224 344.264 255.117 344.264 256.166ZM336.934 256.166C336.934 256.939 337.036 257.61 337.241 258.179C337.446 258.747 337.763 259.187 338.19 259.497C338.618 259.808 339.169 259.963 339.843 259.963C340.511 259.963 341.059 259.808 341.486 259.497C341.92 259.187 342.239 258.747 342.444 258.179C342.649 257.61 342.752 256.939 342.752 256.166C342.752 255.398 342.649 254.736 342.444 254.18C342.239 253.617 341.923 253.184 341.495 252.879C341.067 252.574 340.514 252.422 339.834 252.422C338.832 252.422 338.097 252.753 337.628 253.415C337.165 254.077 336.934 254.994 336.934 256.166ZM351.163 251.191C351.356 251.191 351.559 251.203 351.77 251.227C351.98 251.244 352.168 251.271 352.332 251.306L352.147 252.659C351.989 252.618 351.813 252.586 351.62 252.562C351.427 252.539 351.245 252.527 351.075 252.527C350.688 252.527 350.322 252.606 349.977 252.765C349.637 252.917 349.338 253.14 349.08 253.433C348.822 253.72 348.62 254.068 348.474 254.479C348.327 254.883 348.254 255.334 348.254 255.832V261H346.786V251.367H347.999L348.157 253.143H348.219C348.418 252.785 348.658 252.46 348.939 252.167C349.221 251.868 349.546 251.631 349.915 251.455C350.29 251.279 350.706 251.191 351.163 251.191ZM26.0645 272.191C27.2656 272.191 28.2236 272.604 28.9385 273.431C29.6533 274.257 30.0107 275.499 30.0107 277.157C30.0107 278.253 29.8467 279.173 29.5186 279.917C29.1904 280.661 28.7275 281.224 28.1299 281.604C27.5381 281.985 26.8379 282.176 26.0293 282.176C25.5195 282.176 25.0713 282.108 24.6846 281.974C24.2979 281.839 23.9668 281.657 23.6914 281.429C23.416 281.2 23.1875 280.951 23.0059 280.682H22.9004C22.918 280.91 22.9385 281.186 22.9619 281.508C22.9912 281.83 23.0059 282.111 23.0059 282.352V286.307H21.5381V272.367H22.7422L22.9355 273.791H23.0059C23.1934 273.498 23.4219 273.231 23.6914 272.991C23.9609 272.745 24.2891 272.552 24.6758 272.411C25.0684 272.265 25.5312 272.191 26.0645 272.191ZM25.8096 273.422C25.1416 273.422 24.6025 273.551 24.1924 273.809C23.7881 274.066 23.4922 274.453 23.3047 274.969C23.1172 275.479 23.0176 276.12 23.0059 276.894V277.175C23.0059 277.989 23.0938 278.678 23.2695 279.24C23.4512 279.803 23.7471 280.23 24.1572 280.523C24.5732 280.816 25.1299 280.963 25.8271 280.963C26.4248 280.963 26.9229 280.802 27.3213 280.479C27.7197 280.157 28.0156 279.709 28.209 279.135C28.4082 278.555 28.5078 277.89 28.5078 277.14C28.5078 276.003 28.2852 275.101 27.8398 274.433C27.4004 273.759 26.7236 273.422 25.8096 273.422ZM36.1631 272.209C37.3115 272.209 38.1641 272.467 38.7207 272.982C39.2773 273.498 39.5557 274.321 39.5557 275.452V282H38.4922L38.2109 280.576H38.1406C37.8711 280.928 37.5898 281.224 37.2969 281.464C37.0039 281.698 36.6641 281.877 36.2773 282C35.8965 282.117 35.4277 282.176 34.8711 282.176C34.2852 282.176 33.7637 282.073 33.3066 281.868C32.8555 281.663 32.498 281.353 32.2344 280.937C31.9766 280.521 31.8477 279.993 31.8477 279.354C31.8477 278.394 32.2285 277.655 32.9902 277.14C33.752 276.624 34.9121 276.343 36.4707 276.296L38.1318 276.226V275.637C38.1318 274.805 37.9531 274.222 37.5957 273.888C37.2383 273.554 36.7344 273.387 36.084 273.387C35.5801 273.387 35.0996 273.46 34.6426 273.606C34.1855 273.753 33.752 273.926 33.3418 274.125L32.8936 273.018C33.3271 272.795 33.8252 272.604 34.3877 272.446C34.9502 272.288 35.542 272.209 36.1631 272.209ZM38.1143 277.254L36.6465 277.315C35.4453 277.362 34.5986 277.559 34.1064 277.904C33.6143 278.25 33.3682 278.739 33.3682 279.372C33.3682 279.923 33.5352 280.33 33.8691 280.594C34.2031 280.857 34.6455 280.989 35.1963 280.989C36.0518 280.989 36.752 280.752 37.2969 280.277C37.8418 279.803 38.1143 279.091 38.1143 278.142V277.254ZM48.793 279.363C48.793 279.979 48.6377 280.497 48.3271 280.919C48.0225 281.335 47.583 281.648 47.0088 281.859C46.4404 282.07 45.7607 282.176 44.9697 282.176C44.2959 282.176 43.7129 282.123 43.2207 282.018C42.7285 281.912 42.2979 281.763 41.9287 281.569V280.225C42.3213 280.418 42.79 280.594 43.335 280.752C43.8799 280.91 44.4365 280.989 45.0049 280.989C45.8369 280.989 46.4404 280.854 46.8154 280.585C47.1904 280.315 47.3779 279.949 47.3779 279.486C47.3779 279.223 47.3018 278.991 47.1494 278.792C47.0029 278.587 46.7539 278.391 46.4023 278.203C46.0508 278.01 45.5645 277.799 44.9434 277.57C44.3281 277.336 43.7949 277.104 43.3438 276.876C42.8984 276.642 42.5527 276.357 42.3066 276.023C42.0664 275.689 41.9463 275.256 41.9463 274.723C41.9463 273.908 42.2744 273.284 42.9307 272.851C43.5928 272.411 44.46 272.191 45.5322 272.191C46.1123 272.191 46.6543 272.25 47.1582 272.367C47.668 272.479 48.1426 272.631 48.582 272.824L48.0898 273.993C47.6914 273.823 47.2666 273.68 46.8154 273.562C46.3643 273.445 45.9043 273.387 45.4355 273.387C44.7617 273.387 44.2432 273.498 43.8799 273.721C43.5225 273.943 43.3438 274.248 43.3438 274.635C43.3438 274.934 43.4258 275.18 43.5898 275.373C43.7598 275.566 44.0293 275.748 44.3984 275.918C44.7676 276.088 45.2539 276.287 45.8574 276.516C46.4609 276.738 46.9824 276.97 47.4219 277.21C47.8613 277.444 48.1982 277.731 48.4326 278.071C48.6729 278.405 48.793 278.836 48.793 279.363ZM54.251 280.98C54.4912 280.98 54.7373 280.96 54.9893 280.919C55.2412 280.878 55.4463 280.828 55.6045 280.77V281.903C55.4346 281.979 55.1973 282.044 54.8926 282.097C54.5938 282.149 54.3008 282.176 54.0137 282.176C53.5039 282.176 53.041 282.088 52.625 281.912C52.209 281.73 51.875 281.426 51.623 280.998C51.377 280.57 51.2539 279.979 51.2539 279.223V273.51H49.8828V272.798L51.2627 272.227L51.8428 270.135H52.7217V272.367H55.543V273.51H52.7217V279.179C52.7217 279.782 52.8594 280.233 53.1348 280.532C53.416 280.831 53.7881 280.98 54.251 280.98ZM65.6592 282.176C64.4404 282.176 63.4736 281.76 62.7588 280.928C62.0498 280.096 61.6953 278.859 61.6953 277.219C61.6953 275.561 62.0586 274.31 62.7852 273.466C63.5117 272.616 64.4785 272.191 65.6855 272.191C66.1953 272.191 66.6406 272.259 67.0215 272.394C67.4023 272.528 67.7305 272.71 68.0059 272.938C68.2812 273.161 68.5127 273.416 68.7002 273.703H68.8057C68.7822 273.521 68.7588 273.272 68.7354 272.956C68.7119 272.64 68.7002 272.382 68.7002 272.183V268.324H70.1592V282H68.9814L68.7617 280.629H68.7002C68.5186 280.916 68.2871 281.177 68.0059 281.411C67.7305 281.646 67.3994 281.833 67.0127 281.974C66.6318 282.108 66.1807 282.176 65.6592 282.176ZM65.8877 280.963C66.9189 280.963 67.6484 280.67 68.0762 280.084C68.5039 279.498 68.7178 278.628 68.7178 277.474V277.21C68.7178 275.985 68.5127 275.045 68.1025 274.389C67.6982 273.732 66.96 273.404 65.8877 273.404C64.9912 273.404 64.3203 273.75 63.875 274.441C63.4297 275.127 63.207 276.064 63.207 277.254C63.207 278.438 63.4268 279.352 63.8662 279.996C64.3115 280.641 64.9854 280.963 65.8877 280.963ZM76.8564 272.209C78.0049 272.209 78.8574 272.467 79.4141 272.982C79.9707 273.498 80.249 274.321 80.249 275.452V282H79.1855L78.9043 280.576H78.834C78.5645 280.928 78.2832 281.224 77.9902 281.464C77.6973 281.698 77.3574 281.877 76.9707 282C76.5898 282.117 76.1211 282.176 75.5645 282.176C74.9785 282.176 74.457 282.073 74 281.868C73.5488 281.663 73.1914 281.353 72.9277 280.937C72.6699 280.521 72.541 279.993 72.541 279.354C72.541 278.394 72.9219 277.655 73.6836 277.14C74.4453 276.624 75.6055 276.343 77.1641 276.296L78.8252 276.226V275.637C78.8252 274.805 78.6465 274.222 78.2891 273.888C77.9316 273.554 77.4277 273.387 76.7773 273.387C76.2734 273.387 75.793 273.46 75.3359 273.606C74.8789 273.753 74.4453 273.926 74.0352 274.125L73.5869 273.018C74.0205 272.795 74.5186 272.604 75.0811 272.446C75.6436 272.288 76.2354 272.209 76.8564 272.209ZM78.8076 277.254L77.3398 277.315C76.1387 277.362 75.292 277.559 74.7998 277.904C74.3076 278.25 74.0615 278.739 74.0615 279.372C74.0615 279.923 74.2285 280.33 74.5625 280.594C74.8965 280.857 75.3389 280.989 75.8896 280.989C76.7451 280.989 77.4453 280.752 77.9902 280.277C78.5352 279.803 78.8076 279.091 78.8076 278.142V277.254ZM86.3662 280.98C86.6064 280.98 86.8525 280.96 87.1045 280.919C87.3564 280.878 87.5615 280.828 87.7197 280.77V281.903C87.5498 281.979 87.3125 282.044 87.0078 282.097C86.709 282.149 86.416 282.176 86.1289 282.176C85.6191 282.176 85.1562 282.088 84.7402 281.912C84.3242 281.73 83.9902 281.426 83.7383 280.998C83.4922 280.57 83.3691 279.979 83.3691 279.223V273.51H81.998V272.798L83.3779 272.227L83.958 270.135H84.8369V272.367H87.6582V273.51H84.8369V279.179C84.8369 279.782 84.9746 280.233 85.25 280.532C85.5312 280.831 85.9033 280.98 86.3662 280.98ZM93.2744 272.209C94.4229 272.209 95.2754 272.467 95.832 272.982C96.3887 273.498 96.667 274.321 96.667 275.452V282H95.6035L95.3223 280.576H95.252C94.9824 280.928 94.7012 281.224 94.4082 281.464C94.1152 281.698 93.7754 281.877 93.3887 282C93.0078 282.117 92.5391 282.176 91.9824 282.176C91.3965 282.176 90.875 282.073 90.418 281.868C89.9668 281.663 89.6094 281.353 89.3457 280.937C89.0879 280.521 88.959 279.993 88.959 279.354C88.959 278.394 89.3398 277.655 90.1016 277.14C90.8633 276.624 92.0234 276.343 93.582 276.296L95.2432 276.226V275.637C95.2432 274.805 95.0645 274.222 94.707 273.888C94.3496 273.554 93.8457 273.387 93.1953 273.387C92.6914 273.387 92.2109 273.46 91.7539 273.606C91.2969 273.753 90.8633 273.926 90.4531 274.125L90.0049 273.018C90.4385 272.795 90.9365 272.604 91.499 272.446C92.0615 272.288 92.6533 272.209 93.2744 272.209ZM95.2256 277.254L93.7578 277.315C92.5566 277.362 91.71 277.559 91.2178 277.904C90.7256 278.25 90.4795 278.739 90.4795 279.372C90.4795 279.923 90.6465 280.33 90.9805 280.594C91.3145 280.857 91.7568 280.989 92.3076 280.989C93.1631 280.989 93.8633 280.752 94.4082 280.277C94.9531 279.803 95.2256 279.091 95.2256 278.142V277.254ZM103.531 277.816V276.516H120.09V277.816H103.531ZM131.313 273.51H128.914V282H127.455V273.51H125.75V272.807L127.455 272.323V271.682C127.455 270.873 127.575 270.217 127.815 269.713C128.056 269.203 128.404 268.828 128.861 268.588C129.318 268.348 129.875 268.228 130.531 268.228C130.9 268.228 131.237 268.26 131.542 268.324C131.853 268.389 132.125 268.462 132.359 268.544L131.981 269.695C131.782 269.631 131.557 269.572 131.305 269.52C131.059 269.461 130.807 269.432 130.549 269.432C129.992 269.432 129.579 269.613 129.31 269.977C129.046 270.334 128.914 270.896 128.914 271.664V272.367H131.313V273.51ZM136.692 272.209C137.841 272.209 138.693 272.467 139.25 272.982C139.807 273.498 140.085 274.321 140.085 275.452V282H139.021L138.74 280.576H138.67C138.4 280.928 138.119 281.224 137.826 281.464C137.533 281.698 137.193 281.877 136.807 282C136.426 282.117 135.957 282.176 135.4 282.176C134.814 282.176 134.293 282.073 133.836 281.868C133.385 281.663 133.027 281.353 132.764 280.937C132.506 280.521 132.377 279.993 132.377 279.354C132.377 278.394 132.758 277.655 133.52 277.14C134.281 276.624 135.441 276.343 137 276.296L138.661 276.226V275.637C138.661 274.805 138.482 274.222 138.125 273.888C137.768 273.554 137.264 273.387 136.613 273.387C136.109 273.387 135.629 273.46 135.172 273.606C134.715 273.753 134.281 273.926 133.871 274.125L133.423 273.018C133.856 272.795 134.354 272.604 134.917 272.446C135.479 272.288 136.071 272.209 136.692 272.209ZM138.644 277.254L137.176 277.315C135.975 277.362 135.128 277.559 134.636 277.904C134.144 278.25 133.897 278.739 133.897 279.372C133.897 279.923 134.064 280.33 134.398 280.594C134.732 280.857 135.175 280.989 135.726 280.989C136.581 280.989 137.281 280.752 137.826 280.277C138.371 279.803 138.644 279.091 138.644 278.142V277.254ZM149.322 279.363C149.322 279.979 149.167 280.497 148.856 280.919C148.552 281.335 148.112 281.648 147.538 281.859C146.97 282.07 146.29 282.176 145.499 282.176C144.825 282.176 144.242 282.123 143.75 282.018C143.258 281.912 142.827 281.763 142.458 281.569V280.225C142.851 280.418 143.319 280.594 143.864 280.752C144.409 280.91 144.966 280.989 145.534 280.989C146.366 280.989 146.97 280.854 147.345 280.585C147.72 280.315 147.907 279.949 147.907 279.486C147.907 279.223 147.831 278.991 147.679 278.792C147.532 278.587 147.283 278.391 146.932 278.203C146.58 278.01 146.094 277.799 145.473 277.57C144.857 277.336 144.324 277.104 143.873 276.876C143.428 276.642 143.082 276.357 142.836 276.023C142.596 275.689 142.476 275.256 142.476 274.723C142.476 273.908 142.804 273.284 143.46 272.851C144.122 272.411 144.989 272.191 146.062 272.191C146.642 272.191 147.184 272.25 147.688 272.367C148.197 272.479 148.672 272.631 149.111 272.824L148.619 273.993C148.221 273.823 147.796 273.68 147.345 273.562C146.894 273.445 146.434 273.387 145.965 273.387C145.291 273.387 144.772 273.498 144.409 273.721C144.052 273.943 143.873 274.248 143.873 274.635C143.873 274.934 143.955 275.18 144.119 275.373C144.289 275.566 144.559 275.748 144.928 275.918C145.297 276.088 145.783 276.287 146.387 276.516C146.99 276.738 147.512 276.97 147.951 277.21C148.391 277.444 148.728 277.731 148.962 278.071C149.202 278.405 149.322 278.836 149.322 279.363ZM154.78 280.98C155.021 280.98 155.267 280.96 155.519 280.919C155.771 280.878 155.976 280.828 156.134 280.77V281.903C155.964 281.979 155.727 282.044 155.422 282.097C155.123 282.149 154.83 282.176 154.543 282.176C154.033 282.176 153.57 282.088 153.154 281.912C152.738 281.73 152.404 281.426 152.152 280.998C151.906 280.57 151.783 279.979 151.783 279.223V273.51H150.412V272.798L151.792 272.227L152.372 270.135H153.251V272.367H156.072V273.51H153.251V279.179C153.251 279.782 153.389 280.233 153.664 280.532C153.945 280.831 154.317 280.98 154.78 280.98ZM166.364 272.209C167.513 272.209 168.365 272.467 168.922 272.982C169.479 273.498 169.757 274.321 169.757 275.452V282H168.693L168.412 280.576H168.342C168.072 280.928 167.791 281.224 167.498 281.464C167.205 281.698 166.865 281.877 166.479 282C166.098 282.117 165.629 282.176 165.072 282.176C164.486 282.176 163.965 282.073 163.508 281.868C163.057 281.663 162.699 281.353 162.436 280.937C162.178 280.521 162.049 279.993 162.049 279.354C162.049 278.394 162.43 277.655 163.191 277.14C163.953 276.624 165.113 276.343 166.672 276.296L168.333 276.226V275.637C168.333 274.805 168.154 274.222 167.797 273.888C167.439 273.554 166.936 273.387 166.285 273.387C165.781 273.387 165.301 273.46 164.844 273.606C164.387 273.753 163.953 273.926 163.543 274.125L163.095 273.018C163.528 272.795 164.026 272.604 164.589 272.446C165.151 272.288 165.743 272.209 166.364 272.209ZM168.315 277.254L166.848 277.315C165.646 277.362 164.8 277.559 164.308 277.904C163.815 278.25 163.569 278.739 163.569 279.372C163.569 279.923 163.736 280.33 164.07 280.594C164.404 280.857 164.847 280.989 165.397 280.989C166.253 280.989 166.953 280.752 167.498 280.277C168.043 279.803 168.315 279.091 168.315 278.142V277.254ZM177.324 272.191C178.467 272.191 179.331 272.473 179.917 273.035C180.503 273.592 180.796 274.488 180.796 275.725V282H179.354V275.821C179.354 275.019 179.17 274.418 178.801 274.02C178.438 273.621 177.878 273.422 177.122 273.422C176.056 273.422 175.306 273.724 174.872 274.327C174.438 274.931 174.222 275.807 174.222 276.955V282H172.763V272.367H173.94L174.16 273.756H174.239C174.444 273.416 174.705 273.132 175.021 272.903C175.338 272.669 175.692 272.493 176.085 272.376C176.478 272.253 176.891 272.191 177.324 272.191ZM187.229 282.176C186.011 282.176 185.044 281.76 184.329 280.928C183.62 280.096 183.266 278.859 183.266 277.219C183.266 275.561 183.629 274.31 184.355 273.466C185.082 272.616 186.049 272.191 187.256 272.191C187.766 272.191 188.211 272.259 188.592 272.394C188.973 272.528 189.301 272.71 189.576 272.938C189.852 273.161 190.083 273.416 190.271 273.703H190.376C190.353 273.521 190.329 273.272 190.306 272.956C190.282 272.64 190.271 272.382 190.271 272.183V268.324H191.729V282H190.552L190.332 280.629H190.271C190.089 280.916 189.857 281.177 189.576 281.411C189.301 281.646 188.97 281.833 188.583 281.974C188.202 282.108 187.751 282.176 187.229 282.176ZM187.458 280.963C188.489 280.963 189.219 280.67 189.646 280.084C190.074 279.498 190.288 278.628 190.288 277.474V277.21C190.288 275.985 190.083 275.045 189.673 274.389C189.269 273.732 188.53 273.404 187.458 273.404C186.562 273.404 185.891 273.75 185.445 274.441C185 275.127 184.777 276.064 184.777 277.254C184.777 278.438 184.997 279.352 185.437 279.996C185.882 280.641 186.556 280.963 187.458 280.963ZM203.208 272.191C204.028 272.191 204.731 272.373 205.317 272.736C205.903 273.1 206.352 273.609 206.662 274.266C206.973 274.916 207.128 275.678 207.128 276.551V277.456H200.475C200.492 278.587 200.773 279.448 201.318 280.04C201.863 280.632 202.631 280.928 203.621 280.928C204.23 280.928 204.77 280.872 205.238 280.761C205.707 280.649 206.193 280.485 206.697 280.269V281.552C206.211 281.769 205.728 281.927 205.247 282.026C204.772 282.126 204.21 282.176 203.56 282.176C202.634 282.176 201.825 281.988 201.134 281.613C200.448 281.232 199.915 280.676 199.534 279.943C199.153 279.211 198.963 278.314 198.963 277.254C198.963 276.217 199.136 275.32 199.481 274.564C199.833 273.803 200.325 273.217 200.958 272.807C201.597 272.396 202.347 272.191 203.208 272.191ZM203.19 273.387C202.411 273.387 201.79 273.642 201.327 274.151C200.864 274.661 200.589 275.373 200.501 276.287H205.599C205.593 275.713 205.502 275.209 205.326 274.775C205.156 274.336 204.896 273.996 204.544 273.756C204.192 273.51 203.741 273.387 203.19 273.387ZM213.983 272.191C214.177 272.191 214.379 272.203 214.59 272.227C214.801 272.244 214.988 272.271 215.152 272.306L214.968 273.659C214.81 273.618 214.634 273.586 214.44 273.562C214.247 273.539 214.065 273.527 213.896 273.527C213.509 273.527 213.143 273.606 212.797 273.765C212.457 273.917 212.158 274.14 211.9 274.433C211.643 274.72 211.44 275.068 211.294 275.479C211.147 275.883 211.074 276.334 211.074 276.832V282H209.606V272.367H210.819L210.978 274.143H211.039C211.238 273.785 211.479 273.46 211.76 273.167C212.041 272.868 212.366 272.631 212.735 272.455C213.11 272.279 213.526 272.191 213.983 272.191ZM221.349 272.191C221.542 272.191 221.744 272.203 221.955 272.227C222.166 272.244 222.354 272.271 222.518 272.306L222.333 273.659C222.175 273.618 221.999 273.586 221.806 273.562C221.612 273.539 221.431 273.527 221.261 273.527C220.874 273.527 220.508 273.606 220.162 273.765C219.822 273.917 219.523 274.14 219.266 274.433C219.008 274.72 218.806 275.068 218.659 275.479C218.513 275.883 218.439 276.334 218.439 276.832V282H216.972V272.367H218.185L218.343 274.143H218.404C218.604 273.785 218.844 273.46 219.125 273.167C219.406 272.868 219.731 272.631 220.101 272.455C220.476 272.279 220.892 272.191 221.349 272.191ZM232.643 277.166C232.643 277.957 232.54 278.663 232.335 279.284C232.13 279.905 231.834 280.43 231.447 280.857C231.061 281.285 230.592 281.613 230.041 281.842C229.496 282.064 228.878 282.176 228.187 282.176C227.542 282.176 226.95 282.064 226.411 281.842C225.878 281.613 225.415 281.285 225.022 280.857C224.636 280.43 224.334 279.905 224.117 279.284C223.906 278.663 223.801 277.957 223.801 277.166C223.801 276.111 223.979 275.215 224.337 274.477C224.694 273.732 225.204 273.167 225.866 272.78C226.534 272.388 227.328 272.191 228.248 272.191C229.127 272.191 229.895 272.388 230.551 272.78C231.213 273.173 231.726 273.741 232.089 274.485C232.458 275.224 232.643 276.117 232.643 277.166ZM225.312 277.166C225.312 277.939 225.415 278.61 225.62 279.179C225.825 279.747 226.142 280.187 226.569 280.497C226.997 280.808 227.548 280.963 228.222 280.963C228.89 280.963 229.438 280.808 229.865 280.497C230.299 280.187 230.618 279.747 230.823 279.179C231.028 278.61 231.131 277.939 231.131 277.166C231.131 276.398 231.028 275.736 230.823 275.18C230.618 274.617 230.302 274.184 229.874 273.879C229.446 273.574 228.893 273.422 228.213 273.422C227.211 273.422 226.476 273.753 226.007 274.415C225.544 275.077 225.312 275.994 225.312 277.166ZM239.542 272.191C239.735 272.191 239.938 272.203 240.148 272.227C240.359 272.244 240.547 272.271 240.711 272.306L240.526 273.659C240.368 273.618 240.192 273.586 239.999 273.562C239.806 273.539 239.624 273.527 239.454 273.527C239.067 273.527 238.701 273.606 238.355 273.765C238.016 273.917 237.717 274.14 237.459 274.433C237.201 274.72 236.999 275.068 236.853 275.479C236.706 275.883 236.633 276.334 236.633 276.832V282H235.165V272.367H236.378L236.536 274.143H236.598C236.797 273.785 237.037 273.46 237.318 273.167C237.6 272.868 237.925 272.631 238.294 272.455C238.669 272.279 239.085 272.191 239.542 272.191ZM241.713 277.816V276.516H246.072V277.816H241.713ZM252.62 273.51H250.221V282H248.762V273.51H247.057V272.807L248.762 272.323V271.682C248.762 270.873 248.882 270.217 249.122 269.713C249.362 269.203 249.711 268.828 250.168 268.588C250.625 268.348 251.182 268.228 251.838 268.228C252.207 268.228 252.544 268.26 252.849 268.324C253.159 268.389 253.432 268.462 253.666 268.544L253.288 269.695C253.089 269.631 252.863 269.572 252.611 269.52C252.365 269.461 252.113 269.432 251.855 269.432C251.299 269.432 250.886 269.613 250.616 269.977C250.353 270.334 250.221 270.896 250.221 271.664V272.367H252.62V273.51ZM258.772 272.191C258.966 272.191 259.168 272.203 259.379 272.227C259.59 272.244 259.777 272.271 259.941 272.306L259.757 273.659C259.599 273.618 259.423 273.586 259.229 273.562C259.036 273.539 258.854 273.527 258.685 273.527C258.298 273.527 257.932 273.606 257.586 273.765C257.246 273.917 256.947 274.14 256.689 274.433C256.432 274.72 256.229 275.068 256.083 275.479C255.937 275.883 255.863 276.334 255.863 276.832V282H254.396V272.367H255.608L255.767 274.143H255.828C256.027 273.785 256.268 273.46 256.549 273.167C256.83 272.868 257.155 272.631 257.524 272.455C257.899 272.279 258.315 272.191 258.772 272.191ZM265.47 272.191C266.29 272.191 266.993 272.373 267.579 272.736C268.165 273.1 268.613 273.609 268.924 274.266C269.234 274.916 269.39 275.678 269.39 276.551V277.456H262.736C262.754 278.587 263.035 279.448 263.58 280.04C264.125 280.632 264.893 280.928 265.883 280.928C266.492 280.928 267.031 280.872 267.5 280.761C267.969 280.649 268.455 280.485 268.959 280.269V281.552C268.473 281.769 267.989 281.927 267.509 282.026C267.034 282.126 266.472 282.176 265.821 282.176C264.896 282.176 264.087 281.988 263.396 281.613C262.71 281.232 262.177 280.676 261.796 279.943C261.415 279.211 261.225 278.314 261.225 277.254C261.225 276.217 261.397 275.32 261.743 274.564C262.095 273.803 262.587 273.217 263.22 272.807C263.858 272.396 264.608 272.191 265.47 272.191ZM265.452 273.387C264.673 273.387 264.052 273.642 263.589 274.151C263.126 274.661 262.851 275.373 262.763 276.287H267.86C267.854 275.713 267.764 275.209 267.588 274.775C267.418 274.336 267.157 273.996 266.806 273.756C266.454 273.51 266.003 273.387 265.452 273.387ZM275.577 272.191C276.397 272.191 277.101 272.373 277.687 272.736C278.272 273.1 278.721 273.609 279.031 274.266C279.342 274.916 279.497 275.678 279.497 276.551V277.456H272.844C272.861 278.587 273.143 279.448 273.688 280.04C274.232 280.632 275 280.928 275.99 280.928C276.6 280.928 277.139 280.872 277.607 280.761C278.076 280.649 278.562 280.485 279.066 280.269V281.552C278.58 281.769 278.097 281.927 277.616 282.026C277.142 282.126 276.579 282.176 275.929 282.176C275.003 282.176 274.194 281.988 273.503 281.613C272.817 281.232 272.284 280.676 271.903 279.943C271.522 279.211 271.332 278.314 271.332 277.254C271.332 276.217 271.505 275.32 271.851 274.564C272.202 273.803 272.694 273.217 273.327 272.807C273.966 272.396 274.716 272.191 275.577 272.191ZM275.56 273.387C274.78 273.387 274.159 273.642 273.696 274.151C273.233 274.661 272.958 275.373 272.87 276.287H277.968C277.962 275.713 277.871 275.209 277.695 274.775C277.525 274.336 277.265 273.996 276.913 273.756C276.562 273.51 276.11 273.387 275.56 273.387ZM281.756 281.086C281.756 280.676 281.855 280.386 282.055 280.216C282.254 280.04 282.497 279.952 282.784 279.952C283.083 279.952 283.335 280.04 283.54 280.216C283.745 280.386 283.848 280.676 283.848 281.086C283.848 281.49 283.745 281.786 283.54 281.974C283.335 282.155 283.083 282.246 282.784 282.246C282.497 282.246 282.254 282.155 282.055 281.974C281.855 281.786 281.756 281.49 281.756 281.086Z" fill="#FCFDFF"/>
<defs>
<clipPath id="clip0_12_667">
<rect x="60.2064" y="43.7188" width="282.587" height="30.413" rx="6.33603" fill="white"/>
</clipPath>
<clipPath id="clip1_12_667">
<rect x="60.2068" y="43.7188" width="282.587" height="30.413" rx="6.33603" fill="white"/>
</clipPath>
<clipPath id="clip2_12_667">
<rect x="60.2064" y="84.2695" width="282.587" height="30.413" rx="6.33603" fill="white"/>
</clipPath>
<clipPath id="clip3_12_667">
<rect x="60.2064" y="84.2695" width="283.065" height="30.413" rx="6.33603" fill="white"/>
</clipPath>
<clipPath id="clip4_12_667">
<rect x="60.2064" y="124.82" width="282.587" height="30.413" rx="6.33603" fill="white"/>
</clipPath>
<clipPath id="clip5_12_667">
<rect x="60.2064" y="124.82" width="283.065" height="30.413" rx="6.33603" fill="white"/>
</clipPath>
</defs>
</svg>
