<svg width="459" height="314" viewBox="0 0 459 314" fill="none" xmlns="http://www.w3.org/2000/svg">
<g filter="url(#filter0_d_5_2971)">
<rect x="29.9996" y="57" width="103.252" height="103.252" rx="51.6259" fill="white" shape-rendering="crispEdges"/>
<g clip-path="url(#clip0_5_2971)">
<path d="M93.7264 75.7485H64.8387C64.3275 75.7485 63.8378 75.9517 63.4766 76.3129L51.0959 88.6932C50.7347 89.0544 50.5315 89.5445 50.5315 90.0552V135.45C50.5315 138.788 53.247 141.504 56.5847 141.504H93.7264C97.0545 141.504 99.7796 138.813 99.7796 135.45V81.8017C99.7796 78.4736 97.0886 75.7485 93.7264 75.7485Z" fill="#EFF6FE"/>
<path d="M93.7268 75.7487H75.1554V141.504H93.7268C97.0549 141.504 99.7799 138.813 99.7799 135.451V81.8018C99.7799 78.4737 97.089 75.7487 93.7268 75.7487Z" fill="#D9E4EF"/>
<path d="M62.7758 90.1928C63.9888 90.1928 64.9761 89.2055 64.9761 87.9925V75.7487H64.8386C64.3279 75.7487 63.8378 75.9518 63.4766 76.313L51.0964 88.6933C50.7352 89.0545 50.532 89.5446 50.532 90.0553V90.1928H62.7758Z" fill="#D9E4EF"/>
<path d="M62.7754 104.362H87.5359C88.6 104.362 89.4623 103.5 89.4623 102.436C89.4623 101.372 88.6 100.51 87.5359 100.51H62.7754C61.7114 100.51 60.849 101.372 60.849 102.436C60.849 103.5 61.7114 104.362 62.7754 104.362Z" fill="#D9E4EF"/>
<path d="M62.7754 112.616H87.5359C88.6 112.616 89.4623 111.754 89.4623 110.69C89.4623 109.626 88.6 108.763 87.5359 108.763H62.7754C61.7114 108.763 60.849 109.626 60.849 110.69C60.849 111.754 61.7114 112.616 62.7754 112.616Z" fill="#D9E4EF"/>
<path d="M73.2292 117.017H62.7754C61.7114 117.017 60.849 117.88 60.849 118.943C60.849 120.007 61.7114 120.87 62.7754 120.87H73.2292C74.2933 120.87 75.1557 120.007 75.1557 118.943C75.1557 117.88 74.2933 117.017 73.2292 117.017Z" fill="#D9E4EF"/>
<path d="M73.2292 125.271H62.7754C61.7114 125.271 60.849 126.133 60.849 127.197C60.849 128.261 61.7114 129.123 62.7754 129.123H73.2292C74.2933 129.123 75.1557 128.261 75.1557 127.197C75.1557 126.133 74.2933 125.271 73.2292 125.271Z" fill="#D9E4EF"/>
<path d="M112.16 127.197C112.16 135.098 105.754 141.504 97.853 141.504C89.9512 141.504 83.5458 135.098 83.5458 127.197C83.5458 119.295 89.9512 112.89 97.853 112.89C105.754 112.89 112.16 119.295 112.16 127.197Z" fill="#FFCC4B"/>
<path d="M112.16 127.197C112.16 119.295 105.754 112.89 97.853 112.89V141.504C105.754 141.504 112.16 135.098 112.16 127.197Z" fill="#FFB826"/>
<path d="M89.4623 102.436C89.4623 103.499 88.5994 104.362 87.5359 104.362H75.1556V100.509H87.5359C88.5994 100.509 89.4623 101.372 89.4623 102.436Z" fill="#C1CEDB"/>
<path d="M89.4623 110.69C89.4623 111.753 88.5994 112.616 87.5359 112.616H75.1556V108.763H87.5359C88.5994 108.763 89.4623 109.625 89.4623 110.69Z" fill="#C1CEDB"/>
<path fill-rule="evenodd" clip-rule="evenodd" d="M97.8527 129.123C98.9162 129.123 99.7791 128.261 99.7791 127.197V121.006C99.7791 119.943 98.9162 119.08 97.8527 119.08C96.7886 119.08 95.9263 119.943 95.9263 121.006V127.197C95.9263 128.261 96.7886 129.123 97.8527 129.123Z" fill="#FF7579"/>
<path fill-rule="evenodd" clip-rule="evenodd" d="M99.7791 133.387C99.7791 134.451 98.9167 135.313 97.8527 135.313C96.7886 135.313 95.9263 134.451 95.9263 133.387C95.9263 132.323 96.7886 131.46 97.8527 131.46C98.9167 131.46 99.7791 132.323 99.7791 133.387Z" fill="#FF7579"/>
<path d="M99.9169 133.387C99.9169 134.527 98.9923 135.451 97.853 135.451V131.323C98.9923 131.323 99.9169 132.248 99.9169 133.387Z" fill="#FFB826"/>
<path d="M97.853 129.123V119.08C98.9176 119.08 99.7794 119.943 99.7794 121.006V127.197C99.7794 128.26 98.9176 129.123 97.853 129.123Z" fill="#FFB826"/>
<path fill-rule="evenodd" clip-rule="evenodd" d="M99.7794 121.006V127.197C99.7794 128.26 98.9176 129.123 97.853 129.123V119.08C98.9176 119.08 99.7794 119.943 99.7794 121.006Z" fill="#FE4A60"/>
<path fill-rule="evenodd" clip-rule="evenodd" d="M99.7799 133.387C99.7799 134.45 98.9166 135.314 97.853 135.314V131.46C98.9166 131.46 99.7799 132.323 99.7799 133.387Z" fill="#FE4A60"/>
</g>
</g>
<g filter="url(#filter1_d_5_2971)">
<rect x="112" y="165" width="103.252" height="103.252" rx="51.6259" fill="white" shape-rendering="crispEdges"/>
<path fill-rule="evenodd" clip-rule="evenodd" d="M180.786 189.146C178.947 189.146 177.526 190.338 177.519 192.37H177.522V197.722H183.97V192.37C183.97 191.367 183.629 190.602 183.105 190.074C182.503 189.467 181.644 189.146 180.786 189.146ZM177.029 227.557L177.474 227.772L187.604 233.673C188.783 234.359 188.723 235.144 189.229 235.729C190.188 236.838 191.98 236.663 192.727 235.345C193.613 233.782 192.336 231.915 190.603 232.147C189.923 232.238 189.306 232.115 188.716 231.771L178.585 225.871C178.171 225.63 177.843 225.323 177.59 224.926L176.164 227.373C176.465 227.389 176.75 227.449 177.029 227.557ZM176.483 215.941C176.453 215.926 176.424 215.909 176.396 215.89L170.811 212.637L169.41 215.041L179.685 221.026L181.086 218.621L176.483 215.941ZM142.204 201.388C142.204 200.99 142.527 200.667 142.925 200.667C143.323 200.667 143.646 200.99 143.646 201.388V202.381C145.221 202.652 146.557 203.787 146.557 205.69C146.557 206.088 146.234 206.411 145.836 206.411C145.438 206.411 145.115 206.088 145.115 205.69C145.115 203.114 140.735 203.114 140.735 205.69C140.735 208.929 146.557 206.261 146.557 211.045C146.557 212.947 145.221 214.082 143.646 214.353V215.346C143.646 215.744 143.324 216.067 142.925 216.067C142.527 216.067 142.205 215.744 142.205 215.346V214.353C140.63 214.082 139.294 212.947 139.294 211.045C139.294 210.646 139.616 210.324 140.014 210.324C140.413 210.324 140.735 210.646 140.735 211.045C140.735 213.621 145.115 213.621 145.115 211.045C145.115 207.784 139.293 210.459 139.293 205.69C139.293 203.787 140.629 202.652 142.204 202.381V201.388ZM168.37 220.335L170.212 217.173L177.85 221.622L173.545 229.014L165.906 224.565L168.318 220.424C168.338 220.395 168.355 220.366 168.37 220.335ZM140.014 220.739C139.616 220.739 139.294 220.416 139.294 220.018C139.294 219.62 139.616 219.297 140.014 219.297H140.234C140.632 219.297 140.955 219.62 140.955 220.018C140.955 220.416 140.632 220.739 140.234 220.739H140.014ZM163.273 226.055L162.463 227.445L172.739 233.429L174.139 231.025L163.864 225.04L163.273 226.055ZM140.014 226.458C139.616 226.458 139.294 226.136 139.294 225.738C139.294 225.339 139.616 225.017 140.014 225.017H140.234C140.632 225.017 140.955 225.339 140.955 225.738C140.955 226.136 140.632 226.458 140.234 226.458H140.014ZM140.014 232.178C139.616 232.178 139.294 231.855 139.294 231.457C139.294 231.059 139.616 230.736 140.014 230.736H140.234C140.632 230.736 140.955 231.059 140.955 231.457C140.955 231.855 140.632 232.178 140.234 232.178H140.014ZM151.068 215.019H167.86C167.842 215.162 167.852 215.306 167.888 215.443C168.034 215.994 168.475 216.162 168.969 216.449L167.31 219.297H143.743C143.345 219.297 143.022 219.62 143.022 220.018C143.022 220.416 143.345 220.739 143.743 220.739H166.47L164.663 223.841L164.303 223.631C163.774 223.324 163.094 223.505 162.785 224.035L162.213 225.017H143.743C143.345 225.017 143.022 225.339 143.022 225.737C143.022 226.136 143.345 226.458 143.743 226.458H161.373L161.054 227.006C160.747 227.534 160.928 228.215 161.458 228.523L165.256 230.736H143.743C143.345 230.736 143.022 231.059 143.022 231.457C143.022 231.855 143.345 232.178 143.743 232.178H167.732L172.212 234.787C172.787 235.122 173.312 235.043 173.745 234.543L175.646 231.294V231.241C175.711 231.038 175.713 230.823 175.661 230.623C175.528 230.119 175.187 229.97 174.787 229.738L175.326 228.812L176.08 228.81V244.106H170.892L166.68 242.665C166.503 242.605 166.318 242.618 166.159 242.688L162.493 244.05L158.09 242.049C157.853 241.942 157.589 241.974 157.389 242.11L154.176 244.042L149.589 242.548C149.423 242.495 149.252 242.504 149.102 242.564L144.456 244.042L141.319 242.094C141.086 241.949 140.803 241.953 140.58 242.081L136.885 244.106H132.937V193.156C132.937 190.952 134.743 189.146 136.947 189.146H177.286C176.548 189.929 176.087 191 176.083 192.37H176.08V214.041L171.08 211.129H171.027C170.824 211.065 170.609 211.062 170.41 211.115C170.135 211.188 169.887 211.365 169.732 211.631L168.598 213.577H151.068C150.67 213.577 150.347 213.9 150.347 214.298C150.347 214.696 150.67 215.019 151.068 215.019ZM151.068 209.3H169.174C169.572 209.3 169.895 208.977 169.895 208.579C169.895 208.181 169.572 207.858 169.174 207.858H151.068C150.67 207.858 150.347 208.181 150.347 208.579C150.347 208.977 150.67 209.3 151.068 209.3ZM151.068 203.58H169.174C169.572 203.58 169.895 203.257 169.895 202.859C169.895 202.461 169.572 202.138 169.174 202.138H151.068C150.67 202.138 150.347 202.461 150.347 202.859C150.347 203.257 150.67 203.58 151.068 203.58Z" fill="#D9E4EF"/>
<path d="M142.204 201.388C142.204 200.99 142.527 200.667 142.925 200.667C143.323 200.667 143.646 200.99 143.646 201.388V202.381C145.221 202.652 146.557 203.787 146.557 205.69C146.557 206.088 146.234 206.411 145.836 206.411C145.438 206.411 145.115 206.088 145.115 205.69C145.115 203.114 140.735 203.114 140.735 205.69C140.735 208.929 146.557 206.261 146.557 211.045C146.557 212.947 145.221 214.082 143.646 214.353V215.346C143.646 215.744 143.324 216.067 142.925 216.067C142.527 216.067 142.205 215.744 142.205 215.346V214.353C140.63 214.082 139.294 212.947 139.294 211.045C139.294 210.646 139.616 210.324 140.014 210.324C140.413 210.324 140.735 210.646 140.735 211.045C140.735 213.621 145.115 213.621 145.115 211.045C145.115 207.784 139.293 210.459 139.293 205.69C139.293 203.787 140.629 202.652 142.204 202.381V201.388Z" fill="#FFCC4B"/>
<rect x="170.476" y="212" width="12.519" height="3" transform="rotate(29.4899 170.476 212)" fill="#FE4A60"/>
<rect x="163.476" y="225" width="12.519" height="3" transform="rotate(29.4899 163.476 225)" fill="#FE4A60"/>
<rect x="170.476" y="217" width="8.56038" height="8.84496" transform="rotate(29.4899 170.476 217)" fill="#FE4A60"/>
</g>
<g filter="url(#filter2_d_5_2971)">
<rect x="325" y="57" width="103.252" height="103.252" rx="51.6259" fill="white" shape-rendering="crispEdges"/>
<path d="M350.976 80.5009H388.476V114.251H350.976V80.5009Z" fill="#C1CEDB"/>
<path d="M382.851 136.751H345.351V86.1259H374.414L382.851 94.5634V136.751Z" fill="#E2E7F6"/>
<path d="M345.351 133.001H379.101V90.8134L374.414 86.1259H345.351V133.001Z" fill="#F2F2F2"/>
<path d="M374.414 86.1259V94.5634H382.851" fill="white"/>
<path d="M349.101 103.001H379.101V129.251H349.101V103.001Z" fill="#C1CEDB"/>
<path d="M349.101 103.001H376.289V124.563H349.101V103.001Z" fill="#EFF6FE"/>
<path d="M379.101 125.501C379.101 119.288 384.138 114.251 390.351 114.251V114.251C396.564 114.251 401.601 119.288 401.601 125.501V125.501C401.601 131.714 396.564 136.751 390.351 136.751V136.751C384.138 136.751 379.101 131.714 379.101 125.501V125.501Z" fill="#FFCC4B"/>
<path d="M397.851 125.501V123.626C397.851 118.448 393.654 114.251 388.476 114.251V114.251C383.299 114.251 379.101 118.448 379.101 123.626V123.626C379.101 128.804 383.299 133.001 388.476 133.001H390.351C392.34 133.001 394.248 132.211 395.655 130.804C397.061 129.398 397.851 127.49 397.851 125.501Z" fill="#FFCC4B"/>
<path d="M390.351 133.001C394.493 133.001 397.851 129.643 397.851 125.501C397.851 121.359 394.493 118.001 390.351 118.001C386.209 118.001 382.851 121.359 382.851 125.501C382.851 129.643 386.209 133.001 390.351 133.001Z" fill="#E2E7F6"/>
<path d="M390.351 118.001C388.981 118 387.637 118.375 386.465 119.084C385.293 119.794 384.338 120.811 383.703 122.025C383.069 123.24 382.78 124.604 382.866 125.972C382.953 127.339 383.413 128.656 384.197 129.781C385.64 130.786 387.391 131.252 389.143 131.096C390.895 130.941 392.537 130.174 393.781 128.93C395.024 127.686 395.791 126.045 395.947 124.293C396.102 122.541 395.636 120.79 394.631 119.346C393.376 118.469 391.882 118 390.351 118.001Z" fill="#F2F2F2"/>
<path d="M355.645 91.5634C355.602 91.3516 355.487 91.1613 355.319 91.0246C355.152 90.8879 354.942 90.8133 354.726 90.8134H351.914C351.698 90.8133 351.488 90.8879 351.321 91.0246C351.153 91.1613 351.038 91.3516 350.995 91.5634L350.057 96.2509C350.044 96.3125 350.038 96.3754 350.039 96.4384V100.188H351.914V97.3759H354.726V100.188H356.601V96.4384C356.602 96.3754 356.596 96.3125 356.582 96.2509L355.645 91.5634ZM353.957 92.6884L354.52 95.5009H352.12L352.682 92.6884H353.957Z" fill="#FF6680"/>
<path d="M361.289 90.8134H358.476C358.228 90.8134 357.989 90.9121 357.813 91.0879C357.638 91.2638 357.539 91.5022 357.539 91.7509V99.2509C357.539 99.4995 357.638 99.738 357.813 99.9138C357.989 100.09 358.228 100.188 358.476 100.188H361.289C361.832 100.188 362.363 100.031 362.818 99.7351C363.273 99.4396 363.633 99.0187 363.855 98.5232C364.076 98.0276 364.149 97.4786 364.066 96.9423C363.982 96.406 363.745 95.9054 363.383 95.5009C363.745 95.0963 363.982 94.5957 364.066 94.0594C364.149 93.5231 364.076 92.9741 363.855 92.4785C363.633 91.983 363.273 91.5621 362.818 91.2666C362.363 90.9711 361.832 90.8137 361.289 90.8134ZM361.289 98.3134H359.414V96.4384H361.289C361.537 96.4384 361.776 96.5371 361.952 96.7129C362.127 96.8888 362.226 97.1272 362.226 97.3759C362.226 97.6245 362.127 97.863 361.952 98.0388C361.776 98.2146 361.537 98.3134 361.289 98.3134ZM361.289 94.5634H359.414V92.6884H361.289C361.537 92.6884 361.776 92.7871 361.952 92.9629C362.127 93.1388 362.226 93.3772 362.226 93.6259C362.226 93.8745 362.127 94.113 361.952 94.2888C361.776 94.4646 361.537 94.5634 361.289 94.5634Z" fill="#FF6680"/>
<path d="M371.601 94.5634V93.6259C371.601 92.8799 371.305 92.1646 370.777 91.6371C370.25 91.1097 369.535 90.8134 368.789 90.8134H367.851C367.105 90.8134 366.39 91.1097 365.863 91.6371C365.335 92.1646 365.039 92.8799 365.039 93.6259V97.3759C365.039 98.1218 365.335 98.8371 365.863 99.3646C366.39 99.892 367.105 100.188 367.851 100.188H368.789C369.535 100.188 370.25 99.892 370.777 99.3646C371.305 98.8371 371.601 98.1218 371.601 97.3759V96.4384H369.726V97.3759C369.726 97.6245 369.627 97.863 369.452 98.0388C369.276 98.2146 369.037 98.3134 368.789 98.3134H367.851C367.603 98.3134 367.364 98.2146 367.188 98.0388C367.013 97.863 366.914 97.6245 366.914 97.3759V93.6259C366.914 93.3772 367.013 93.1388 367.188 92.9629C367.364 92.7871 367.603 92.6884 367.851 92.6884H368.789C369.037 92.6884 369.276 92.7871 369.452 92.9629C369.627 93.1388 369.726 93.3772 369.726 93.6259V94.5634H371.601Z" fill="#FF6680"/>
<path d="M355.664 107.688H370.664V109.563H355.664V107.688Z" fill="#E2E7F6"/>
<path d="M372.539 107.688H376.289V109.563H372.539V107.688Z" fill="#E2E7F6"/>
<path d="M351.914 111.438H376.289V113.313H351.914V111.438Z" fill="#E2E7F6"/>
<path d="M351.914 115.188H376.289V117.063H351.914V115.188Z" fill="#E2E7F6"/>
<path d="M351.914 118.938H376.289V120.813H351.914V118.938Z" fill="#E2E7F6"/>
<path d="M351.914 122.688H376.289V124.563H351.914V122.688Z" fill="#E2E7F6"/>
<path d="M394.764 122.414L393.438 121.088L390.351 124.175L387.264 121.088L385.938 122.414L389.026 125.501L385.938 128.588L387.264 129.914L390.351 126.826L393.438 129.914L394.764 128.588L391.677 125.501L394.764 122.414Z" fill="#CC295F"/>
</g>
<g filter="url(#filter3_d_5_2971)">
<rect x="184" y="15" width="103.252" height="103.252" rx="51.6259" fill="white" shape-rendering="crispEdges"/>
<path d="M231.482 83.2006C231.482 86.2519 229.008 88.7255 225.957 88.7255C222.906 88.7255 220.432 86.2519 220.432 83.2006C220.432 80.1493 222.906 77.6757 225.957 77.6757C229.008 77.6757 231.482 80.1493 231.482 83.2006ZM264.631 63.863V77.6757C264.631 78.718 264.339 79.69 263.836 80.5203C263.587 80.9305 262.95 80.8457 262.81 80.3867C261.603 76.4261 257.932 73.532 253.582 73.532C248.65 73.532 244.568 77.2442 243.984 82.0205C243.901 82.7 243.306 83.2006 242.622 83.2006H236.917C236.232 83.2006 235.637 82.7 235.554 82.0205C234.97 77.2442 230.888 73.532 225.957 73.532C221.026 73.532 216.944 77.2442 216.36 82.0205C216.277 82.7 215.682 83.2006 214.997 83.2006H214.907C211.856 83.2006 209.382 80.727 209.382 77.6757V71.6759L211.001 73.2946C212.08 74.3737 213.493 74.9132 214.907 74.9132C216.321 74.9132 217.734 74.3737 218.813 73.2946C219.892 72.2155 220.432 70.8019 220.432 69.3883H231.482C234.533 69.3883 237.007 66.9145 237.007 63.8634C237.007 60.8123 234.533 58.3384 231.482 58.3384H220.432C220.432 56.9248 219.892 55.5112 218.813 54.4322C216.655 52.274 213.159 52.274 211.001 54.4322L209.382 56.0508V50.0511C209.382 46.9996 211.856 44.5261 214.907 44.5261H237.007C240.058 44.5261 242.532 46.9998 242.532 50.0511V52.522C242.532 53.2848 243.15 53.9032 243.913 53.9032H256.15C257.997 53.9032 259.722 54.8264 260.747 56.3634L263.703 60.7986C264.308 61.706 264.631 62.7723 264.631 63.863ZM261.869 63.8652C261.869 63.3196 261.708 62.7863 261.405 62.3324L258.448 57.896C257.936 57.1275 257.074 56.6659 256.15 56.6659H243.913C243.15 56.6659 242.532 57.2841 242.532 58.0471V65.2446C242.532 66.0074 243.15 66.6258 243.913 66.6258H260.718C261.354 66.6258 261.869 66.1104 261.869 65.4747V63.8652ZM253.582 77.6757C250.53 77.6757 248.057 80.1493 248.057 83.2006C248.057 86.2519 250.53 88.7255 253.582 88.7255C256.633 88.7255 259.106 86.2519 259.106 83.2006C259.106 80.1493 256.633 77.6757 253.582 77.6757ZM214.907 70.7695C215.26 70.7695 215.614 70.6346 215.884 70.3649C216.423 69.8253 216.423 68.9513 215.884 68.4117L212.716 65.2446H231.482C232.245 65.2446 232.863 64.6269 232.863 63.8634C232.863 63.0999 232.245 62.4822 231.482 62.4822H212.716L215.884 59.3151C216.423 58.7755 216.423 57.9014 215.884 57.3619C215.344 56.8224 214.47 56.8224 213.93 57.3619L208.406 62.8868C207.866 63.4264 207.866 64.3004 208.406 64.84L213.93 70.3649C214.2 70.6347 214.554 70.7695 214.907 70.7695Z" fill="#D9E4EF"/>
<circle cx="226.273" cy="83.4601" r="5.61151" fill="#FFCC4B"/>
<circle cx="253.957" cy="83.4604" r="5.61151" fill="#FFCC4B"/>
<path d="M208.076 63.2926C207.686 63.6832 207.686 64.3163 208.076 64.7069L214.44 71.0708C214.831 71.4613 215.464 71.4613 215.855 71.0708C216.245 70.6803 216.245 70.0471 215.855 69.6566L210.198 63.9998L215.855 58.3429C216.245 57.9524 216.245 57.3192 215.855 56.9287C215.464 56.5382 214.831 56.5382 214.44 56.9287L208.076 63.2926ZM231.784 63.9998L231.784 62.9998L208.784 62.9998L208.784 63.9998L208.784 64.9998L231.784 64.9998L231.784 63.9998Z" fill="#FE4A60"/>
</g>
<g filter="url(#filter4_d_5_2971)">
<rect x="256" y="165" width="103.252" height="103.252" rx="51.6259" fill="white" shape-rendering="crispEdges"/>
<g clip-path="url(#clip1_5_2971)">
<path d="M311.258 225.415H307.626C306.641 225.415 305.868 224.641 305.868 223.657V221.302H300.594H295.321V223.657C295.321 224.641 294.548 225.415 293.563 225.415H289.93C283.145 225.415 277.626 230.934 277.626 237.72V240.884L283.743 239.477H300.594H313.236L316.532 232.446V226.54C315.829 226.329 314.036 225.415 311.258 225.415Z" fill="#C1CEDB"/>
<path d="M316.532 232.446V226.54C315.829 226.329 314.036 225.415 311.258 225.415H307.626C306.641 225.415 305.868 224.641 305.868 223.657V221.302H300.594V239.477H313.236L316.532 232.446Z" fill="#C1CEDB"/>
<path d="M300.594 232.446H290.774C285.044 232.446 279.946 235.751 277.626 240.884V246.626H298.836L300.594 242.993L302.352 246.626H313.016L316.532 242.993V232.446H300.594Z" fill="#FF6680"/>
<path d="M313.016 246.626L316.532 242.993V232.446H300.594V242.993L302.352 246.626H313.016Z" fill="#E62E4D"/>
<path d="M300.594 221.899H298.836V246.626H300.594H302.352V221.899H300.594Z" fill="#D9E4EF"/>
<path d="M300.594 221.899H302.352V246.626H300.594V221.899Z" fill="#C1CEDB"/>
<path d="M300.594 204.321H288.29V213.11C288.29 219.906 293.799 225.415 300.594 225.415C307.39 225.415 313.016 219.906 313.016 213.11V204.321H300.594Z" fill="#FFDDCC"/>
<path d="M313.016 213.11V204.321H300.594V225.415C307.39 225.415 313.016 219.906 313.016 213.11Z" fill="#FFBFB3"/>
<path d="M300.594 186.626C293.799 186.626 288.29 192.135 288.29 198.931V204.321H300.594H313.016V198.931C313.016 192.135 307.39 186.626 300.594 186.626Z" fill="#FFCC4B"/>
<path d="M313.016 198.931C313.016 192.135 307.39 186.626 300.594 186.626V204.321H313.016V198.931Z" fill="#FFCC4B"/>
<path d="M300.594 200.806H284.774V207.837H300.594H316.532V200.806H300.594Z" fill="#E62E4D"/>
<path d="M300.594 200.806H316.532V207.837H300.594V200.806Z" fill="#CC295F"/>
<path d="M313.016 218.384H337.626V246.626H313.016V218.384Z" fill="#D9E4EF"/>
<path d="M325.321 218.384H337.626V246.626H325.321V218.384Z" fill="#C1CEDB"/>
<path d="M325.321 214.868C322.403 214.868 320.047 217.223 320.047 220.141V225.415H330.594V220.141C330.594 217.223 328.239 214.868 325.321 214.868Z" fill="#F0F7FF"/>
<path d="M330.594 220.141V225.415H325.321V214.868C328.239 214.868 330.594 217.223 330.594 220.141Z" fill="#DFE7F4"/>
</g>
</g>
<defs>
<filter id="filter0_d_5_2971" x="0.0715771" y="42.036" width="163.108" height="163.108" filterUnits="userSpaceOnUse" color-interpolation-filters="sRGB">
<feFlood flood-opacity="0" result="BackgroundImageFix"/>
<feColorMatrix in="SourceAlpha" type="matrix" values="0 0 0 0 0 0 0 0 0 0 0 0 0 0 0 0 0 0 127 0" result="hardAlpha"/>
<feOffset dy="14.964"/>
<feGaussianBlur stdDeviation="14.964"/>
<feComposite in2="hardAlpha" operator="out"/>
<feColorMatrix type="matrix" values="0 0 0 0 0 0 0 0 0 0 0 0 0 0 0 0 0 0 0.05 0"/>
<feBlend mode="normal" in2="BackgroundImageFix" result="effect1_dropShadow_5_2971"/>
<feBlend mode="normal" in="SourceGraphic" in2="effect1_dropShadow_5_2971" result="shape"/>
</filter>
<filter id="filter1_d_5_2971" x="82.0716" y="150.036" width="163.108" height="163.108" filterUnits="userSpaceOnUse" color-interpolation-filters="sRGB">
<feFlood flood-opacity="0" result="BackgroundImageFix"/>
<feColorMatrix in="SourceAlpha" type="matrix" values="0 0 0 0 0 0 0 0 0 0 0 0 0 0 0 0 0 0 127 0" result="hardAlpha"/>
<feOffset dy="14.964"/>
<feGaussianBlur stdDeviation="14.964"/>
<feComposite in2="hardAlpha" operator="out"/>
<feColorMatrix type="matrix" values="0 0 0 0 0 0 0 0 0 0 0 0 0 0 0 0 0 0 0.05 0"/>
<feBlend mode="normal" in2="BackgroundImageFix" result="effect1_dropShadow_5_2971"/>
<feBlend mode="normal" in="SourceGraphic" in2="effect1_dropShadow_5_2971" result="shape"/>
</filter>
<filter id="filter2_d_5_2971" x="295.072" y="42.036" width="163.108" height="163.108" filterUnits="userSpaceOnUse" color-interpolation-filters="sRGB">
<feFlood flood-opacity="0" result="BackgroundImageFix"/>
<feColorMatrix in="SourceAlpha" type="matrix" values="0 0 0 0 0 0 0 0 0 0 0 0 0 0 0 0 0 0 127 0" result="hardAlpha"/>
<feOffset dy="14.964"/>
<feGaussianBlur stdDeviation="14.964"/>
<feComposite in2="hardAlpha" operator="out"/>
<feColorMatrix type="matrix" values="0 0 0 0 0 0 0 0 0 0 0 0 0 0 0 0 0 0 0.05 0"/>
<feBlend mode="normal" in2="BackgroundImageFix" result="effect1_dropShadow_5_2971"/>
<feBlend mode="normal" in="SourceGraphic" in2="effect1_dropShadow_5_2971" result="shape"/>
</filter>
<filter id="filter3_d_5_2971" x="154.072" y="0.0359716" width="163.108" height="163.108" filterUnits="userSpaceOnUse" color-interpolation-filters="sRGB">
<feFlood flood-opacity="0" result="BackgroundImageFix"/>
<feColorMatrix in="SourceAlpha" type="matrix" values="0 0 0 0 0 0 0 0 0 0 0 0 0 0 0 0 0 0 127 0" result="hardAlpha"/>
<feOffset dy="14.964"/>
<feGaussianBlur stdDeviation="14.964"/>
<feComposite in2="hardAlpha" operator="out"/>
<feColorMatrix type="matrix" values="0 0 0 0 0 0 0 0 0 0 0 0 0 0 0 0 0 0 0.05 0"/>
<feBlend mode="normal" in2="BackgroundImageFix" result="effect1_dropShadow_5_2971"/>
<feBlend mode="normal" in="SourceGraphic" in2="effect1_dropShadow_5_2971" result="shape"/>
</filter>
<filter id="filter4_d_5_2971" x="226.072" y="150.036" width="163.108" height="163.108" filterUnits="userSpaceOnUse" color-interpolation-filters="sRGB">
<feFlood flood-opacity="0" result="BackgroundImageFix"/>
<feColorMatrix in="SourceAlpha" type="matrix" values="0 0 0 0 0 0 0 0 0 0 0 0 0 0 0 0 0 0 127 0" result="hardAlpha"/>
<feOffset dy="14.964"/>
<feGaussianBlur stdDeviation="14.964"/>
<feComposite in2="hardAlpha" operator="out"/>
<feColorMatrix type="matrix" values="0 0 0 0 0 0 0 0 0 0 0 0 0 0 0 0 0 0 0.05 0"/>
<feBlend mode="normal" in2="BackgroundImageFix" result="effect1_dropShadow_5_2971"/>
<feBlend mode="normal" in="SourceGraphic" in2="effect1_dropShadow_5_2971" result="shape"/>
</filter>
<clipPath id="clip0_5_2971">
<rect width="65.7551" height="65.7551" fill="white" transform="translate(48.4763 75.7484)"/>
</clipPath>
<clipPath id="clip1_5_2971">
<rect width="60" height="60" fill="white" transform="translate(277.626 186.626)"/>
</clipPath>
</defs>
</svg>
