<svg width="101" height="101" viewBox="0 0 101 101" fill="none" xmlns="http://www.w3.org/2000/svg">
<rect x="0.5" y="0.410034" width="100" height="100" rx="50" fill="url(#paint0_linear_1_1292)"/>
<path fill-rule="evenodd" clip-rule="evenodd" d="M76.4841 52.3347C76.4841 52.0695 76.3264 51.8305 76.0846 51.7293C75.8429 51.6281 75.5648 51.6846 75.3802 51.8726C72.5315 54.7732 65.0189 62.4229 63.0636 64.4139C62.7622 64.7207 62.593 65.1362 62.593 65.5693C62.593 66.6061 62.593 68.6978 62.593 70.8691C62.593 72.7364 63.3247 74.5274 64.627 75.8478C65.9294 77.1682 67.6959 77.91 69.5377 77.91C69.5382 77.91 69.5389 77.91 69.5395 77.91C71.3813 77.91 73.1477 77.1682 74.4501 75.8478C75.7525 74.5274 76.4841 72.7364 76.4841 70.8691C76.4841 64.5945 76.4841 55.8733 76.4841 52.3347ZM24.5 52.3347C24.5 52.0695 24.6577 51.8305 24.8995 51.7293C25.1413 51.6281 25.4193 51.6846 25.6039 51.8726C28.4526 54.7732 35.9652 62.4229 37.9205 64.4139C38.2219 64.7207 38.3911 65.1362 38.3911 65.5693C38.3911 66.6061 38.3911 68.6978 38.3911 70.8691C38.3911 72.7364 37.6595 74.5274 36.3571 75.8478C35.0547 77.1682 33.2883 77.91 31.4464 77.91C31.4459 77.91 31.4453 77.91 31.4447 77.91C29.6029 77.91 27.8365 77.1682 26.5341 75.8478C25.2317 74.5274 24.5 72.7364 24.5 70.8691C24.5 64.5945 24.5 55.8733 24.5 52.3347ZM26.4175 50.2245C23.8609 47.6325 23.8609 43.4299 26.4175 40.8379C26.4176 40.8378 26.4176 40.8377 26.4177 40.8377C28.9743 38.2457 33.1194 38.2457 35.676 40.8377C41.4257 46.667 50.4864 55.8534 50.4864 55.8534C50.4864 55.8534 59.5739 46.6399 65.3324 40.8015C67.8871 38.2115 72.0288 38.2115 74.5834 40.8015C74.5836 40.8016 74.5837 40.8018 74.5839 40.802C77.1382 43.3917 77.1382 47.5905 74.5839 50.1802C69.3313 55.5056 60.7945 64.1608 55.4159 69.614C54.1065 70.9415 52.3306 71.6873 50.4788 71.6873C48.6271 71.6873 46.8512 70.9415 45.5419 69.614C40.1738 64.1715 31.6615 55.5412 26.4175 50.2245ZM31.4779 22.91C35.3244 22.91 38.4473 26.0762 38.4473 29.976C38.4473 33.8758 35.3244 37.0419 31.4779 37.0419C27.6314 37.0419 24.5085 33.8758 24.5085 29.976C24.5085 26.0762 27.6314 22.91 31.4779 22.91ZM69.5306 22.91C73.3771 22.91 76.5 26.0762 76.5 29.976C76.5 33.8758 73.3771 37.0419 69.5306 37.0419C65.6841 37.0419 62.5613 33.8758 62.5613 29.976C62.5613 26.0762 65.6841 22.91 69.5306 22.91Z" fill="#FCFDFF"/>
<defs>
<linearGradient id="paint0_linear_1_1292" x1="0.5" y1="50.41" x2="100.5" y2="50.41" gradientUnits="userSpaceOnUse">
<stop stop-color="#008593"/>
<stop offset="0.5" stop-color="#00A3A3"/>
<stop offset="1" stop-color="#66CCCC"/>
</linearGradient>
</defs>
</svg>
