<svg width="82" height="83" viewBox="0 0 82 83" fill="none" xmlns="http://www.w3.org/2000/svg">
<path d="M79.5576 33.68C78.9266 28.0713 74.6776 23.683 69.2916 22.7237C71.9262 21.3031 73.7199 18.5164 73.7199 15.3197C73.7199 10.6848 69.9482 6.91309 65.3133 6.91309C60.6784 6.91309 56.9067 10.6848 56.9067 15.3197C56.9067 18.5196 58.7037 21.3063 61.343 22.7269C56.9099 23.5341 53.1623 26.718 51.6776 31.0086C49.7397 29.7626 47.5264 28.9442 45.1849 28.6495C48.8348 27.0367 51.3893 23.3836 51.3893 19.1442C51.3893 13.4154 46.7288 8.75488 41 8.75488C35.2712 8.75488 30.6106 13.4154 30.6106 19.1442C30.6106 23.3852 33.1667 27.0383 36.8167 28.6511C34.5008 28.9426 32.2859 29.7514 30.324 31.015C28.8409 26.7212 25.0917 23.5341 20.6553 22.7269C23.2931 21.3063 25.0917 18.5196 25.0917 15.3197C25.0917 10.6848 21.32 6.91309 16.6851 6.91309C12.0501 6.91309 8.27846 10.6848 8.27846 15.3197C8.27846 18.5164 10.0722 21.3031 12.7068 22.7237C7.32072 23.683 3.07178 28.0729 2.44076 33.68C2.25178 35.3648 2.74826 36.9248 3.87897 38.19C5.00967 39.4552 6.50393 40.1231 8.19998 40.1231H23.6567C23.4549 40.8742 23.3059 41.6414 23.2178 42.4213C22.9856 44.4809 23.5942 46.3868 24.9747 47.9323C26.3569 49.4778 28.1827 50.2946 30.2551 50.2946H39.7412L28.0385 70.564C27.4844 71.5249 27.4844 72.67 28.0385 73.631C28.5927 74.5903 29.5856 75.1637 30.6939 75.1637H56.6953C57.3744 75.2213 58.0822 75.2598 58.803 75.2742H58.8238C58.8622 75.2742 58.9006 75.2726 58.9375 75.2678C65.1275 74.5279 69.4245 72.2264 71.7115 68.4307C73.1994 65.9611 73.8432 62.8316 73.627 59.1288C73.4124 55.4741 72.349 51.1386 70.4655 46.2459C70.3038 45.8246 69.8681 45.5732 69.4213 45.6405C68.9745 45.7093 68.6366 46.0809 68.6093 46.5325C68.4572 49.0406 67.7172 50.8552 66.3623 52.0243C66.9213 47.588 66.5481 43.6161 65.2589 40.1199H73.7968C75.4928 40.1199 76.9871 39.452 78.1178 38.1868C79.2501 36.9264 79.7482 35.3664 79.5576 33.68ZM58.8302 15.3197C58.8302 11.7434 61.7386 8.83496 65.3149 8.83496C68.8912 8.83496 71.7996 11.7434 71.7996 15.3197C71.7996 18.896 68.8912 21.8044 65.3149 21.8044C61.7386 21.8044 58.8302 18.896 58.8302 15.3197ZM32.5325 19.1442C32.5325 14.4757 36.3314 10.6768 41 10.6768C45.6685 10.6768 49.4674 14.4757 49.4674 19.1442C49.4674 23.8128 45.6685 27.6117 41 27.6117C36.3314 27.6117 32.5325 23.8128 32.5325 19.1442ZM10.2003 15.3197C10.2003 11.7434 13.1088 8.83496 16.6851 8.83496C20.2613 8.83496 23.1698 11.7434 23.1698 15.3197C23.1698 18.896 20.2613 21.8044 16.6851 21.8044C13.1104 21.8044 10.2003 18.896 10.2003 15.3197ZM24.3101 38.2012H8.20158C7.05166 38.2012 6.07951 37.7672 5.31397 36.9088C4.54682 36.0519 4.2233 35.0365 4.35303 33.8946C4.95842 28.5086 9.50525 24.447 14.9265 24.447H18.4452C23.197 24.447 27.4155 27.6838 28.6904 32.2226C28.5638 32.3299 28.4373 32.4356 28.3124 32.5477C26.5555 34.13 25.1974 36.0647 24.3101 38.2012ZM30.2567 48.3743C28.724 48.3743 27.4299 47.7946 26.4097 46.6527C25.3879 45.5107 24.9571 44.159 25.1285 42.6359C25.9101 35.6868 31.775 30.4464 38.7722 30.4464H43.2278C48.5706 30.4464 53.4057 33.5455 55.6671 38.3774C55.0137 39.6314 53.8926 40.5875 52.5793 41.707C51.0818 42.9835 49.4274 44.3961 48.0981 46.555L47.6561 45.7894C47.1019 44.8301 46.109 44.2567 45.0007 44.2567C43.8924 44.2567 42.8994 44.8301 42.3453 45.7894L40.8526 48.3759H30.2567V48.3743ZM29.7042 72.6716C29.4879 72.2969 29.4879 71.9013 29.7042 71.5265L44.0093 46.7487C44.2255 46.374 44.5683 46.177 45.0007 46.177C45.4331 46.177 45.7758 46.3756 45.9921 46.7487L60.2972 71.5265C60.5134 71.9013 60.5134 72.2969 60.2972 72.6716C60.081 73.0464 59.7383 73.2434 59.3058 73.2434H30.6955C30.2631 73.2434 29.9204 73.0464 29.7042 72.6716ZM69.8329 50.2097C72.2945 57.8204 72.3746 63.6084 70.0651 67.4425C68.5581 69.9426 65.9603 71.6963 62.32 72.6796C62.4593 71.9686 62.3408 71.2238 61.9612 70.5672L49.216 48.4913C50.4476 46.0537 52.1613 44.5882 53.8253 43.1709C56.5528 40.847 59.1505 38.6352 57.8292 32.9097C63.739 37.8729 65.8098 44.7116 64.1554 53.7284C64.0913 54.0743 64.2226 54.4266 64.4949 54.6477C64.7672 54.8687 65.1387 54.9231 65.4655 54.7902C67.5715 53.9286 69.0321 52.3927 69.8329 50.2097ZM76.6876 36.9104C75.9221 37.7672 74.9499 38.2028 73.8 38.2028H64.4372C62.77 34.8235 60.1483 31.9439 56.5752 29.588C56.2276 29.359 55.7712 29.3798 55.4461 29.6393C55.121 29.8987 54.9992 30.3391 55.1466 30.7299C55.9025 32.7287 56.2453 34.2806 56.2757 35.5474C55.4429 34.2902 54.4419 33.1723 53.3112 32.2178C54.5892 27.6838 58.8046 24.4502 63.5548 24.4502H67.0734C72.4963 24.4502 77.0415 28.5118 77.6469 33.8978C77.7767 35.0381 77.4531 36.0519 76.6876 36.9104ZM45.0007 52.6121C44.2367 52.6121 43.4968 52.9308 42.9715 53.4865C42.4686 54.0182 42.2124 54.7037 42.2508 55.4164L42.7024 63.6484C42.7697 64.8672 43.7355 65.7513 45.0023 65.7513C46.2675 65.7513 47.2349 64.8672 47.3021 63.6484L47.7538 55.4148C47.7922 54.7021 47.5376 54.0166 47.0331 53.4849C46.5046 52.9308 45.7646 52.6121 45.0007 52.6121ZM45.3803 63.5443C45.3674 63.7814 45.1673 63.831 45.0007 63.831C44.8341 63.831 44.6339 63.7814 44.6211 63.5443L44.1695 55.3123C44.1567 55.0817 44.2704 54.9119 44.3665 54.8094C44.5282 54.6381 44.7669 54.5356 45.0007 54.5356C45.2345 54.5356 45.4715 54.6381 45.6349 54.8094C45.731 54.9119 45.8447 55.0817 45.8319 55.3123L45.3803 63.5443ZM45.0007 67.1639C43.5849 67.1639 42.4334 68.3154 42.4334 69.7312C42.4334 71.147 43.5849 72.2985 45.0007 72.2985C46.4165 72.2985 47.568 71.147 47.568 69.7312C47.568 68.3154 46.4165 67.1639 45.0007 67.1639ZM45.0007 70.3766C44.6451 70.3766 44.3553 70.0867 44.3553 69.7312C44.3553 69.3756 44.6451 69.0857 45.0007 69.0857C45.3562 69.0857 45.6461 69.3756 45.6461 69.7312C45.6461 70.0867 45.3562 70.3766 45.0007 70.3766Z" fill="#323232"/>
</svg>
