<svg width="82" height="83" viewBox="0 0 82 83" fill="none" xmlns="http://www.w3.org/2000/svg">
<path d="M75.5997 37.1232C75.4045 36.7327 75.0056 36.4863 74.569 36.4863H72.2644V27.268C72.2644 26.6317 71.7485 26.1157 71.1121 26.1157H64.1984C63.562 26.1157 63.0461 26.6317 63.0461 27.268V36.4863H60.7415C60.3049 36.4863 59.906 36.7327 59.7108 37.1232C59.5155 37.5137 59.5577 37.9807 59.8199 38.3301L66.7336 47.5483C66.9508 47.8387 67.2923 48.0091 67.6552 48.0091C68.0182 48.0091 68.3597 47.8387 68.5769 47.5483L75.4906 38.3301C75.7528 37.9807 75.795 37.5137 75.5997 37.1232ZM67.6552 44.9366L63.0461 38.7909H64.1984C64.8347 38.7909 65.3507 38.2749 65.3507 37.6386V28.4203H69.9598V37.6386C69.9598 38.2749 70.4758 38.7909 71.1121 38.7909H72.2644L67.6552 44.9366ZM52.9062 27.9595C53.1234 28.2498 53.4649 28.4203 53.8278 28.4203C54.1907 28.4203 54.5322 28.2498 54.7494 27.9595L61.6631 18.7412C61.9253 18.3918 61.9675 17.9248 61.7723 17.5343C61.5771 17.1439 61.1781 16.8974 60.7415 16.8974H58.437V7.67914C58.437 7.0428 57.921 6.52686 57.2847 6.52686H50.371C49.7346 6.52686 49.2187 7.0428 49.2187 7.67914V16.8974H46.9141C46.4775 16.8974 46.0786 17.1439 45.8834 17.5343C45.6881 17.9248 45.7303 18.3918 45.9925 18.7412L52.9062 27.9595ZM50.371 19.202C51.0073 19.202 51.5232 18.6861 51.5232 18.0497V8.83143H56.1324V18.0497C56.1324 18.6861 56.6483 19.202 57.2847 19.202H58.437L53.8278 25.3477L49.2187 19.202H50.371ZM44.6095 56.0751H46.9141C46.9141 53.8494 44.9314 51.9876 42.305 51.5593V49.1614H40.0004V51.5593C37.374 51.9876 35.3912 53.8494 35.3912 56.0751C35.3912 58.3009 37.374 60.1627 40.0004 60.591V65.1468C38.6756 64.8214 37.6958 63.9689 37.6958 62.9889H35.3912C35.3912 65.2146 37.374 67.0764 40.0004 67.5047V69.9026H42.305V67.5047C44.9314 67.0764 46.9141 65.2146 46.9141 62.9889C46.9141 60.7631 44.9314 58.9013 42.305 58.473V53.9171C43.6298 54.2426 44.6095 55.0951 44.6095 56.0751ZM40.0004 58.2331C38.6756 57.9077 37.6958 57.0552 37.6958 56.0751C37.6958 55.0951 38.6756 54.2426 40.0004 53.9171V58.2331ZM44.6095 62.9889C44.6095 63.9689 43.6298 64.8214 42.305 65.1468V60.8309C43.6298 61.1563 44.6095 62.0088 44.6095 62.9889ZM41.1527 43.4C40.3683 43.4 39.6029 43.4753 38.8481 43.5841V39.9431C38.8481 39.0546 38.5018 38.2516 37.949 37.6386C38.5018 37.0256 38.8481 36.2225 38.8481 35.334V30.7249C38.8481 29.8363 38.5018 29.0333 37.949 28.4203C38.5018 27.8073 38.8481 27.0043 38.8481 26.1157V21.5066C38.8481 20.618 38.5018 19.815 37.949 19.202C38.5018 18.589 38.8481 17.786 38.8481 16.8974V12.2883C38.8481 10.3821 37.2975 8.83143 35.3912 8.83143H10.041C8.13474 8.83143 6.58411 10.3821 6.58411 12.2883V16.8974C6.58411 17.786 6.93041 18.589 7.4832 19.202C6.93041 19.815 6.58411 20.618 6.58411 21.5066V26.1157C6.58411 27.0043 6.93041 27.8073 7.4832 28.4203C6.93041 29.0333 6.58411 29.8363 6.58411 30.7249V35.334C6.58411 36.2225 6.93041 37.0256 7.4832 37.6386C6.93041 38.2516 6.58411 39.0546 6.58411 39.9431V44.5523C6.58411 45.4408 6.93041 46.2439 7.4832 46.8569C6.93041 47.4699 6.58411 48.2729 6.58411 49.1614V53.7706C6.58411 54.6591 6.93041 55.4622 7.4832 56.0751C6.93041 56.6881 6.58411 57.4912 6.58411 58.3797V62.9889C6.58411 63.8774 6.93041 64.6804 7.4832 65.2934C6.93041 65.9064 6.58411 66.7095 6.58411 67.598V72.2071C6.58411 74.1134 8.13474 75.664 10.041 75.664H35.3912C36.045 75.664 36.6424 75.4628 37.1615 75.1439C38.4406 75.4713 39.773 75.664 41.1527 75.664C45.0315 75.664 48.7815 74.267 51.7106 71.7295C52.1917 71.3131 52.244 70.5851 51.8271 70.104C51.4107 69.6229 50.6827 69.5706 50.2016 69.9875C47.6911 72.1621 44.4779 73.3594 41.1527 73.3594C33.5283 73.3594 27.3252 67.1563 27.3252 59.532C27.3252 51.9077 33.5283 45.7046 41.1527 45.7046C48.777 45.7046 54.9801 51.9077 54.9801 59.532C54.9801 61.7848 54.4557 63.9324 53.4222 65.9151C53.1279 66.4795 53.3468 67.1755 53.9111 67.4697C54.4771 67.7662 55.172 67.5451 55.4657 66.9808C56.6556 64.6982 57.2847 62.1224 57.2847 59.532C57.2847 50.6367 50.048 43.4 41.1527 43.4ZM8.88868 58.3797C8.88868 57.7445 9.40574 57.2274 10.041 57.2274H25.2047C25.096 57.9822 25.0207 58.7476 25.0207 59.532C25.0207 61.1341 25.2632 62.6793 25.7001 64.1411H10.041C9.40574 64.1411 8.88868 63.6241 8.88868 62.9889V58.3797ZM32.8863 73.3594H10.041C9.40574 73.3594 8.88868 72.8424 8.88868 72.2071V67.598C8.88868 66.9628 9.40574 66.4457 10.041 66.4457H26.5994C27.9724 69.3236 30.1673 71.7276 32.8863 73.3594ZM25.7001 54.9229H10.041C9.40574 54.9229 8.88868 54.4058 8.88868 53.7706V49.1614C8.88868 48.5262 9.40574 48.0091 10.041 48.0091H29.8841C27.9518 49.8992 26.4937 52.2673 25.7001 54.9229ZM36.5435 44.0794C35.2464 44.467 34.0246 45.0215 32.8863 45.7046H10.041C9.40574 45.7046 8.88868 45.1875 8.88868 44.5523V39.9431C8.88868 39.3079 9.40574 38.7909 10.041 38.7909H35.3912C36.0265 38.7909 36.5435 39.3079 36.5435 39.9431V44.0794ZM36.5435 26.1157C36.5435 26.7509 36.0265 27.268 35.3912 27.268H21.5638C20.9275 27.268 20.4115 27.7839 20.4115 28.4203C20.4115 29.0566 20.9275 29.5726 21.5638 29.5726H35.3912C36.0265 29.5726 36.5435 30.0896 36.5435 30.7249V35.334C36.5435 35.9692 36.0265 36.4863 35.3912 36.4863H10.041C9.40574 36.4863 8.88868 35.9692 8.88868 35.334V30.7249C8.88868 30.0896 9.40574 29.5726 10.041 29.5726H16.9547C17.591 29.5726 18.107 29.0566 18.107 28.4203C18.107 27.7839 17.591 27.268 16.9547 27.268H10.041C9.40574 27.268 8.88868 26.7509 8.88868 26.1157V21.5066C8.88868 20.8714 9.40574 20.3543 10.041 20.3543H35.3912C36.0265 20.3543 36.5435 20.8714 36.5435 21.5066V26.1157ZM36.5435 16.8974C36.5435 17.5326 36.0265 18.0497 35.3912 18.0497H10.041C9.40574 18.0497 8.88868 17.5326 8.88868 16.8974V12.2883C8.88868 11.6531 9.40574 11.136 10.041 11.136H35.3912C36.0265 11.136 36.5435 11.6531 36.5435 12.2883V16.8974Z" fill="#323232"/>
</svg>
