<svg width="28" height="28" viewBox="0 0 28 28" fill="none" xmlns="http://www.w3.org/2000/svg">
<g clip-path="url(#clip0_1_1995)">
<mask id="mask0_1_1995" style="mask-type:luminance" maskUnits="userSpaceOnUse" x="0" y="0" width="28" height="28">
<path d="M28 0H0V28H28V0Z" fill="white"/>
</mask>
<g mask="url(#mask0_1_1995)">
<path d="M27.7211 8.31547C27.7211 8.31547 27.4477 6.3549 26.6055 5.49403C25.5391 4.36101 24.3469 4.35546 23.8 4.28881C19.8844 4 14.0055 4 14.0055 4H13.9945C13.9945 4 8.11563 4 4.2 4.28881C3.65313 4.35546 2.46094 4.36101 1.39453 5.49403C0.552344 6.3549 0.284375 8.31547 0.284375 8.31547C0.284375 8.31547 0 10.6204 0 12.9197V15.0747C0 17.3741 0.278906 19.679 0.278906 19.679C0.278906 19.679 0.552344 21.6395 1.38906 22.5004C2.45547 23.6334 3.85547 23.5946 4.47891 23.7167C6.72109 23.9334 14 24 14 24C14 24 19.8844 23.9889 23.8 23.7056C24.3469 23.639 25.5391 23.6334 26.6055 22.5004C27.4477 21.6395 27.7211 19.679 27.7211 19.679C27.7211 19.679 28 17.3796 28 15.0747V12.9197C28 10.6204 27.7211 8.31547 27.7211 8.31547ZM11.107 17.6906V9.69842L18.6703 13.7084L11.107 17.6906Z" fill="#1E1E1E"/>
</g>
</g>
<defs>
<clipPath id="clip0_1_1995">
<rect width="28" height="28" fill="white"/>
</clipPath>
</defs>
</svg>
