<svg width="24" height="25" viewBox="0 0 24 25" fill="none" xmlns="http://www.w3.org/2000/svg">
<path d="M19.0621 20.7183C17.1077 22.6726 12.1028 20.8363 7.88327 16.6167C3.66372 12.3972 1.82739 7.39227 3.7817 5.43795L5.06847 4.15118C5.9568 3.26286 7.42054 3.28634 8.33784 4.20363L10.3309 6.19672C11.2482 7.11401 11.2717 8.57776 10.3834 9.46609L10.107 9.74247C9.62737 10.2221 9.58045 10.9958 10.0261 11.5359C10.456 12.0568 10.9194 12.5756 11.4219 13.0781C11.9244 13.5806 12.4432 14.044 12.9641 14.4739C13.5042 14.9196 14.2779 14.8726 14.7575 14.393L15.0339 14.1166C15.9222 13.2283 17.386 13.2518 18.3033 14.1691L20.2964 16.1622C21.2137 17.0795 21.2371 18.5432 20.3488 19.4315L19.0621 20.7183Z" stroke="#1E1E1E" stroke-width="1.5"/>
</svg>
